<?xml version="1.0" standalone="no"?>
<!DOCTYPE svg PUBLIC "-//W3C//DTD SVG 1.1//EN" "http://www.w3.org/Graphics/SVG/1.1/DTD/svg11.dtd" >
<svg xmlns="http://www.w3.org/2000/svg" xmlns:xlink="http://www.w3.org/1999/xlink" version="1.1">
<metadata>
Created by FontForge 20170731 at Thu Jul 11 12:31:28 2019
 By Aleksey,,,
Copyright (c) 2018 by Colophon Foundry. All rights reserved.
</metadata>
<defs>
<font id="ApercuPro-Light" horiz-adv-x="620" >
  <font-face 
    font-family="Apercu Pro Light"
    font-weight="300"
    font-stretch="normal"
    units-per-em="1000"
    panose-1="2 11 3 3 5 6 1 4 1 3"
    ascent="788"
    descent="-212"
    x-height="504"
    cap-height="700"
    bbox="-626 -246 1142 1113"
    underline-thickness="62"
    underline-position="-222"
    unicode-range="U+000D-FB02"
  />
<missing-glyph horiz-adv-x="597" 
d="M90 700h417v-700h-417v700zM443 58v584h-289v-584h289z" />
    <glyph glyph-name="f_f" unicode="ff" horiz-adv-x="596" 
d="M92 446h-80v58h80v32q0 87 40.5 129.5t115.5 42.5q36 0 60 -13l-13 -57q-26 12 -52 12q-42 0 -65.5 -26t-23.5 -78v-42h220v32q0 87 40.5 129.5t115.5 42.5q36 0 60 -13l-13 -57q-26 12 -52 12q-42 0 -65.5 -26t-23.5 -78v-42h122v-58h-122v-446h-62v446h-220v-446h-62
v446z" />
    <glyph glyph-name="f_f_i" unicode="ffi" horiz-adv-x="776" 
d="M92 446h-80v58h80v32q0 87 40.5 129.5t115.5 42.5q36 0 60 -13l-13 -57q-26 12 -52 12q-42 0 -65.5 -26t-23.5 -78v-42h220v16q0 59 26.5 101.5t71 64.5t98.5 22q64 0 110 -29l-13 -57q-49 28 -102 28q-58 0 -93.5 -33.5t-35.5 -86.5v-26h282v-504h-62v446h-220v-446h-62
v446h-220v-446h-62v446z" />
    <glyph glyph-name="f_f_l" unicode="ffl" horiz-adv-x="796" 
d="M92 446h-80v58h80v32q0 87 40.5 129.5t115.5 42.5q36 0 60 -13l-13 -57q-26 12 -52 12q-42 0 -65.5 -26t-23.5 -78v-42h220v32q0 87 40.5 129.5t115.5 42.5h188v-708h-62v650h-131q-42 0 -65.5 -26t-23.5 -78v-42h122v-58h-122v-446h-62v446h-220v-446h-62v446z" />
    <glyph glyph-name="f_i" unicode="fi" horiz-adv-x="514" 
d="M92 446h-80v58h80v16q0 59 26.5 101.5t71 64.5t98.5 22q64 0 110 -29l-13 -57q-49 28 -102 28q-58 0 -93.5 -33.5t-35.5 -86.5v-26h282v-504h-62v446h-220v-446h-62v446z" />
    <glyph glyph-name="f_l" unicode="fl" horiz-adv-x="514" 
d="M92 446h-80v58h80v32q0 87 40.5 129.5t115.5 42.5h188v-708h-62v650h-131q-42 0 -65.5 -26t-23.5 -78v-42h122v-58h-122v-446h-62v446z" />
    <glyph glyph-name=".notdef" horiz-adv-x="597" 
d="M90 700h417v-700h-417v700zM443 58v584h-289v-584h289z" />
    <glyph glyph-name=".null" horiz-adv-x="0" 
 />
    <glyph glyph-name="nonmarkingreturn" unicode="&#xd;" horiz-adv-x="252" 
 />
    <glyph glyph-name="space" unicode=" " horiz-adv-x="252" 
 />
    <glyph glyph-name="exclam" unicode="!" horiz-adv-x="290" 
d="M103 700h84l-22 -516h-40zM105.5 13.5q-15.5 15.5 -15.5 39.5t15.5 39.5t39.5 15.5t39.5 -15.5t15.5 -39.5t-15.5 -39.5t-39.5 -15.5t-39.5 15.5z" />
    <glyph glyph-name="quotedbl" unicode="&#x22;" horiz-adv-x="336" 
d="M50 708h89l-21 -228h-47zM197 708h89l-21 -228h-47z" />
    <glyph glyph-name="numbersign" unicode="#" horiz-adv-x="643" 
d="M158 214h-118v54h129l33 164h-122v54h134l43 214h56l-43 -214h159l44 214h56l-44 -214h118v-54h-129l-33 -164h122v-54h-134l-43 -214h-56l43 214h-159l-44 -214h-56zM385 268l33 164h-160l-33 -164h160z" />
    <glyph glyph-name="dollar" unicode="$" horiz-adv-x="506" 
d="M407 54.5q-49 -54.5 -126 -61.5v-83h-60v85q-71 13 -119.5 64.5t-59.5 121.5l57 34q37 -161 162 -161q55 0 90.5 35t35.5 101q0 43 -19 72t-49.5 48.5t-83.5 44.5q-72 34 -113 78t-41 112q0 64 39.5 108.5t100.5 52.5v84h60v-84q52 -6 84 -33.5t53 -72.5l-54 -34
q-36 80 -116 80q-46 0 -73.5 -28.5t-27.5 -67.5q0 -38 19.5 -65.5t49 -45.5t78.5 -40q77 -35 119.5 -82.5t42.5 -123.5q0 -84 -49 -138.5z" />
    <glyph glyph-name="percent" unicode="%" horiz-adv-x="844" 
d="M130 9l542 715l42 -33l-542 -715zM138.5 409.5q-35.5 21.5 -56 58t-20.5 80.5t20.5 80.5t56 58t80.5 21.5t80.5 -21.5t56 -58t20.5 -80.5t-20.5 -80.5t-56 -58t-80.5 -21.5t-80.5 21.5zM294 472q28 30 28 76t-28 76t-75 30t-75 -30t-28 -76t28 -76t75 -30t75 30z
M544.5 13.5q-35.5 21.5 -56 58t-20.5 80.5t20.5 80.5t56 58t80.5 21.5t80.5 -21.5t56 -58t20.5 -80.5t-20.5 -80.5t-56 -58t-80.5 -21.5t-80.5 21.5zM700 76q28 30 28 76t-28 76t-75 30t-75 -30t-28 -76t28 -76t75 -30t75 30z" />
    <glyph glyph-name="ampersand" unicode="&#x26;" horiz-adv-x="588" 
d="M98 45.5q-56 53.5 -56 148.5q0 78 41 132.5t98 83.5q-29 40 -47.5 75t-18.5 74q0 47 21 80.5t55.5 51t74.5 17.5q70 0 111.5 -39t41.5 -101q0 -59 -41 -101.5t-107 -76.5l163 -209q28 54 53 128l43 -50q-28 -79 -57 -128l103 -131h-72l-65 82q-73 -90 -193 -90
q-92 0 -148 53.5zM327.5 495q29.5 29 29.5 68t-23.5 65t-67.5 26q-40 0 -64.5 -24.5t-24.5 -66.5q0 -53 58 -128q63 31 92.5 60zM332.5 69.5q37.5 19.5 68.5 60.5l-184 235q-54 -29 -83.5 -71.5t-29.5 -101.5q0 -64 39.5 -103t102.5 -39q49 0 86.5 19.5z" />
    <glyph glyph-name="quotesingle" unicode="'" horiz-adv-x="189" 
d="M50 708h89l-21 -228h-47z" />
    <glyph glyph-name="parenleft" unicode="(" horiz-adv-x="249" 
d="M52 350q0 223 109 400h66q-106 -172 -106 -400t106 -400h-66q-109 177 -109 400z" />
    <glyph glyph-name="parenright" unicode=")" horiz-adv-x="249" 
d="M128 350q0 228 -106 400h66q109 -177 109 -400t-109 -400h-66q106 172 106 400z" />
    <glyph glyph-name="asterisk" unicode="*" horiz-adv-x="484" 
d="M110 391l86 116l-139 47l18 54l139 -46v146h56v-146l139 46l18 -54l-139 -47l86 -116l-46 -34l-86 117l-86 -117z" />
    <glyph glyph-name="plus" unicode="+" horiz-adv-x="550" 
d="M247 288h-177v56h177v176h56v-176h177v-56h-177v-177h-56v177z" />
    <glyph glyph-name="comma" unicode="," horiz-adv-x="222" 
d="M80 88h92l-96 -165h-46z" />
    <glyph glyph-name="hyphen" unicode="-" horiz-adv-x="469" 
d="M70 345h329v-56h-329v56z" />
    <glyph glyph-name="period" unicode="." horiz-adv-x="222" 
d="M74.5 12.5q-14.5 14.5 -14.5 36.5t14.5 36.5t36.5 14.5t36.5 -14.5t14.5 -36.5t-14.5 -36.5t-36.5 -14.5t-36.5 14.5z" />
    <glyph glyph-name="slash" unicode="/" horiz-adv-x="518" 
d="M444 750h66l-436 -800h-66z" />
    <glyph glyph-name="zero" unicode="0" horiz-adv-x="594" 
d="M117.5 88.5q-61.5 96.5 -61.5 261.5t61.5 261.5t179.5 96.5t179.5 -96.5t61.5 -261.5t-61.5 -261.5t-179.5 -96.5t-179.5 96.5zM392 86q40 38 61 106.5t21 157.5t-21 157.5t-61 106.5t-95 38t-95 -38t-61 -106.5t-21 -157.5t21 -157.5t61 -106.5t95 -38t95 38z" />
    <glyph glyph-name="one" unicode="1" horiz-adv-x="320" 
d="M168 601l-116 -73v69l162 103h16v-700h-62v601z" />
    <glyph glyph-name="two" unicode="2" horiz-adv-x="493" 
d="M32 23l255 330q48 61 63 94t15 77q0 59 -33 93.5t-91 34.5q-54 0 -90.5 -39.5t-45.5 -101.5l-58 11q8 82 61 134t133 52q83 0 135.5 -49t52.5 -137q0 -47 -21.5 -91t-63.5 -98l-214 -277h316v-56h-414v23z" />
    <glyph glyph-name="three" unicode="3" horiz-adv-x="532" 
d="M117 45q-59 53 -69 147l62 9q8 -70 47 -111.5t106 -41.5q76 0 116.5 44.5t40.5 121.5q0 81 -41 124t-116 43q-33 0 -62 -18l-30 39l181 242h-269v56h366v-17l-189 -251q9 3 26 3q52 0 97.5 -26t73 -76.5t27.5 -118.5q0 -65 -26.5 -115.5t-76.5 -78.5t-118 -28
q-87 0 -146 53z" />
    <glyph glyph-name="four" unicode="4" horiz-adv-x="540" 
d="M353 161h-309v17l295 522h76v-483h93v-56h-93v-161h-62v161zM353 217v395l-221 -395h221z" />
    <glyph glyph-name="five" unicode="5" horiz-adv-x="505" 
d="M113.5 40.5q-55.5 48.5 -67.5 143.5l61 11q20 -147 149 -147q71 0 109 48t38 132q0 88 -38 134t-104 46q-52 0 -91 -26t-63 -68l-44 10l36 376h327v-56h-271l-24 -231q51 51 136 51q59 0 104.5 -28.5t70.5 -82t25 -125.5q0 -69 -26 -122.5t-73.5 -83.5t-111.5 -30
q-87 0 -142.5 48.5z" />
    <glyph glyph-name="six" unicode="6" horiz-adv-x="532" 
d="M152.5 22q-49.5 30 -77 82t-27.5 116q0 72 45 149l199 339h65l-156 -277q10 8 29.5 12.5t35.5 4.5q64 0 113.5 -30t77 -82t27.5 -116t-27.5 -116t-77 -82t-113.5 -30t-113.5 30zM345.5 70q35.5 22 55 61.5t19.5 88.5q0 79 -43 125.5t-111 46.5t-111 -46.5t-43 -125.5
q0 -49 19.5 -88.5t55 -61.5t79.5 -22t79.5 22z" />
    <glyph glyph-name="seven" unicode="7" horiz-adv-x="454" 
d="M348 644h-314v56h388v-20l-277 -680h-65z" />
    <glyph glyph-name="eight" unicode="8" horiz-adv-x="520" 
d="M155 15.5q-48 23.5 -76.5 69.5t-28.5 111q0 64 32 113.5t80 67.5q-38 20 -63 58.5t-25 90.5q0 53 23.5 94.5t65.5 64.5t97 23t97 -23t65.5 -64.5t23.5 -94.5q0 -52 -25 -90.5t-63 -58.5q48 -18 80 -67.5t32 -113.5q0 -65 -28.5 -111t-76.5 -69.5t-105 -23.5t-105 23.5z
M350 434.5q34 34.5 34 91.5t-34 91.5t-90 34.5t-90 -34.5t-34 -91.5t34 -91.5t90 -34.5t90 34.5zM366.5 87.5q39.5 39.5 39.5 108.5t-40 108.5t-106 39.5t-106 -39.5t-40 -108.5t40 -108.5t106 -39.5q67 0 106.5 39.5z" />
    <glyph glyph-name="nine" unicode="9" horiz-adv-x="532" 
d="M331 269q-10 -8 -29.5 -12.5t-35.5 -4.5q-64 0 -113.5 30t-77 82t-27.5 116t27.5 116t77 82t113.5 30t113.5 -30t77 -82t27.5 -116q0 -63 -37 -129l-207 -359h-65zM377 354.5q43 46.5 43 125.5q0 49 -19.5 88.5t-55 61.5t-79.5 22t-79.5 -22t-55 -61.5t-19.5 -88.5
q0 -79 43 -125.5t111 -46.5t111 46.5z" />
    <glyph glyph-name="colon" unicode=":" horiz-adv-x="222" 
d="M74.5 378.5q-14.5 14.5 -14.5 36.5t14.5 36.5t36.5 14.5t36.5 -14.5t14.5 -36.5t-14.5 -36.5t-36.5 -14.5t-36.5 14.5zM74.5 12.5q-14.5 14.5 -14.5 36.5t14.5 36.5t36.5 14.5t36.5 -14.5t14.5 -36.5t-14.5 -36.5t-36.5 -14.5t-36.5 14.5z" />
    <glyph glyph-name="semicolon" unicode=";" horiz-adv-x="222" 
d="M84.5 378.5q-14.5 14.5 -14.5 36.5t14.5 36.5t36.5 14.5t36.5 -14.5t14.5 -36.5t-14.5 -36.5t-36.5 -14.5t-36.5 14.5zM80 88h92l-96 -165h-46z" />
    <glyph glyph-name="less" unicode="&#x3c;" horiz-adv-x="452" 
d="M56 276v68l334 180v-62l-283 -152l283 -152v-62z" />
    <glyph glyph-name="equal" unicode="=" horiz-adv-x="527" 
d="M70 427h387v-56h-387v56zM70 261h387v-56h-387v56z" />
    <glyph glyph-name="greater" unicode="&#x3e;" horiz-adv-x="452" 
d="M62 158l283 152l-283 152v62l334 -180v-68l-334 -180v62z" />
    <glyph glyph-name="question" unicode="?" horiz-adv-x="438" 
d="M138 228q-36 31 -36 90q0 47 27.5 79t86.5 63q49 26 70.5 41t29.5 28.5t8 35.5q0 40 -25.5 62.5t-72.5 22.5q-45 0 -72.5 -25.5t-40.5 -76.5l-63 11q12 70 59 109.5t124 39.5q68 0 111.5 -39t43.5 -101q0 -46 -26.5 -77t-96.5 -67q-42 -22 -63.5 -38.5t-29.5 -32
t-8 -37.5q0 -27 17 -44t43 -17q30 0 49 15.5t30 50.5l50 -19q-29 -105 -127 -105q-52 0 -88 31zM188.5 13.5q-15.5 15.5 -15.5 39.5t15.5 39.5t39.5 15.5t39.5 -15.5t15.5 -39.5t-15.5 -39.5t-39.5 -15.5t-39.5 15.5z" />
    <glyph glyph-name="at" unicode="@" horiz-adv-x="878" 
d="M250.5 -46.5q-88.5 47.5 -139.5 137t-51 210.5q0 133 55.5 227.5t145.5 142t194 47.5q107 0 189 -42t128 -124t46 -200q0 -122 -48.5 -183t-122.5 -61q-42 0 -70.5 23t-37.5 55q-51 -78 -135 -78q-81 0 -125 51t-44 136q0 62 26.5 112.5t74 79.5t106.5 29q38 0 68 -17
t44 -46l14 56h54l-24 -265l-2 -23q0 -57 55 -57q50 0 76 51t26 137q0 147 -79 228.5t-224 81.5q-84 0 -158.5 -43t-120.5 -125t-46 -193q0 -105 42.5 -182t116 -117t165.5 -40q66 0 122 15t124 54l22 -50q-78 -42 -135.5 -58.5t-132.5 -16.5q-110 0 -198.5 47.5zM481 187.5
q30 23.5 45.5 62t15.5 82.5q0 59 -28 93.5t-79 34.5q-61 0 -97.5 -48t-36.5 -120q0 -62 29.5 -95t80.5 -33q40 0 70 23.5z" />
    <glyph glyph-name="A" unicode="A" horiz-adv-x="588" 
d="M265 700h58l253 -700h-68l-70 199h-288l-70 -199h-68zM417 261l-123 349l-123 -349h246z" />
    <glyph glyph-name="B" unicode="B" horiz-adv-x="604" 
d="M90 700h225q92 0 143.5 -47.5t51.5 -131.5q0 -54 -24.5 -87.5t-63.5 -50.5q57 -20 90.5 -65t33.5 -116q0 -92 -58 -147t-157 -55h-241v700zM315 404q62 0 94.5 29.5t32.5 87.5t-32.5 87.5t-94.5 29.5h-159v-234h159zM318 62q79 0 119 32.5t40 107.5t-40 107.5t-119 32.5
h-162v-280h162z" />
    <glyph glyph-name="C" unicode="C" horiz-adv-x="675" 
d="M208.5 32q-70.5 40 -113.5 121t-43 197t43 197t113.5 121t152.5 40q99 0 168 -53.5t96 -146.5l-65 -19q-20 75 -70.5 116t-128.5 41q-71 0 -125 -34.5t-84.5 -101.5t-30.5 -160t30.5 -160t84.5 -101.5t125 -34.5q78 0 128.5 41t70.5 116l65 -19q-27 -93 -96 -146.5
t-168 -53.5q-82 0 -152.5 40z" />
    <glyph glyph-name="D" unicode="D" horiz-adv-x="644" 
d="M90 700h184q90 0 162.5 -42t114 -121.5t41.5 -186.5t-41.5 -186.5t-114 -121.5t-162.5 -42h-184v700zM275 62q67 0 123.5 31t90.5 96t34 161t-34 161t-90.5 96t-123.5 31h-119v-576h119z" />
    <glyph glyph-name="E" unicode="E" horiz-adv-x="551" 
d="M90 700h395v-62h-329v-234h269v-62h-269v-280h339v-62h-405v700z" />
    <glyph glyph-name="F" unicode="F" horiz-adv-x="528" 
d="M90 700h402v-62h-336v-242h276v-62h-276v-334h-66v700z" />
    <glyph glyph-name="G" unicode="G" horiz-adv-x="695" 
d="M207 33q-70 41 -112.5 121.5t-42.5 195.5t42.5 195.5t112.5 121.5t152 41q103 0 173.5 -54.5t96.5 -149.5l-65 -18q-24 77 -76.5 118.5t-128.5 41.5q-70 0 -123.5 -34.5t-84 -101t-30.5 -160.5t30.5 -160.5t84 -101t123.5 -34.5q100 0 153.5 60.5t54.5 176.5h-162v62h228
v-353h-58l-8 108q-28 -54 -83.5 -85t-124.5 -31q-82 0 -152 41z" />
    <glyph glyph-name="H" unicode="H" horiz-adv-x="668" 
d="M90 700h66v-296h356v296h66v-700h-66v342h-356v-342h-66v700z" />
    <glyph glyph-name="I" unicode="I" horiz-adv-x="246" 
d="M90 700h66v-700h-66v700z" />
    <glyph glyph-name="J" unicode="J" horiz-adv-x="503" 
d="M90.5 43.5q-49.5 51.5 -60.5 127.5l68 15q9 -62 41 -97t89 -35q58 0 94.5 36t36.5 108v502h66v-495q0 -67 -27 -115.5t-72 -73t-98 -24.5q-88 0 -137.5 51.5z" />
    <glyph glyph-name="K" unicode="K" horiz-adv-x="554" 
d="M90 700h66v-299l273 299h84l-287 -314l312 -386h-81l-301 371v-371h-66v700z" />
    <glyph glyph-name="L" unicode="L" horiz-adv-x="524" 
d="M90 700h66v-638h328v-62h-394v700z" />
    <glyph glyph-name="M" unicode="M" horiz-adv-x="760" 
d="M90 700h82l208 -527l208 527h82v-700h-66v572l-203 -508h-42l-203 508v-572h-66v700z" />
    <glyph glyph-name="N" unicode="N" horiz-adv-x="671" 
d="M90 700h78l347 -595v595h66v-700h-78l-347 593v-593h-66v700z" />
    <glyph glyph-name="O" unicode="O" horiz-adv-x="718" 
d="M206 36q-70 44 -112 125t-42 189t42 189t112 125t153 44t153 -44t112 -125t42 -189t-42 -189t-112 -125t-153 -44t-153 44zM480 88q54 34 85.5 100.5t31.5 161.5t-31.5 161.5t-85.5 100.5t-121 34t-121 -34t-85.5 -100.5t-31.5 -161.5t31.5 -161.5t85.5 -100.5t121 -34
t121 34z" />
    <glyph glyph-name="P" unicode="P" horiz-adv-x="574" 
d="M90 700h238q94 0 148 -51.5t54 -141.5t-54 -141.5t-148 -51.5h-172v-314h-66v700zM329 376q68 0 100 35.5t32 95.5t-32 95.5t-100 35.5h-173v-262h173z" />
    <glyph glyph-name="Q" unicode="Q" horiz-adv-x="718" 
d="M206 36q-70 44 -112 125t-42 189t42 189t112 125t153 44t153 -44t112 -125t42 -189q0 -75 -20.5 -137.5t-58.5 -109.5l67 -66l-45 -45l-66 66q-39 -32 -86.5 -49t-97.5 -17q-83 0 -153 44zM499 101l-74 75l45 45l72 -73q55 79 55 202q0 95 -31.5 161.5t-85.5 100.5
t-121 34t-121 -34t-85.5 -100.5t-31.5 -161.5t31.5 -161.5t85.5 -100.5t121 -34q81 0 140 47z" />
    <glyph glyph-name="R" unicode="R" horiz-adv-x="614" 
d="M90 700h225q95 0 147.5 -44.5t52.5 -132.5q0 -76 -40 -120t-113 -54l218 -349h-74l-219 346h-131v-346h-66v700zM311 408q69 0 103 28t34 87t-34 87t-103 28h-155v-230h155z" />
    <glyph glyph-name="S" unicode="S" horiz-adv-x="506" 
d="M157.5 17.5q-46.5 25.5 -76.5 68.5t-39 95l57 34q37 -161 162 -161q55 0 90.5 35t35.5 101q0 43 -19 72t-49.5 48.5t-83.5 44.5q-72 34 -113 78t-41 112q0 47 22 84.5t60.5 58t84.5 20.5q67 0 107 -28.5t63 -79.5l-54 -34q-36 80 -116 80q-46 0 -73.5 -28.5t-27.5 -67.5
q0 -38 19.5 -65.5t49 -45.5t78.5 -40q77 -35 119.5 -82.5t42.5 -123.5q0 -59 -25.5 -105t-70 -71t-99.5 -25q-57 0 -103.5 25.5z" />
    <glyph glyph-name="T" unicode="T" horiz-adv-x="544" 
d="M239 638h-209v62h484v-62h-209v-638h-66v638z" />
    <glyph glyph-name="U" unicode="U" horiz-adv-x="636" 
d="M198 18.5q-55 26.5 -87.5 79t-32.5 126.5v476h66v-482q0 -70 45 -117t129 -47t129 47t45 117v482h66v-476q0 -74 -32.5 -126.5t-87.5 -79t-120 -26.5t-120 26.5z" />
    <glyph glyph-name="V" unicode="V" horiz-adv-x="584" 
d="M12 700h68l212 -606l212 606h68l-245 -700h-70z" />
    <glyph glyph-name="W" unicode="W" horiz-adv-x="860" 
d="M12 700h69l158 -597l161 523h60l161 -523l158 597h69l-192 -700h-67l-159 524l-159 -524h-67z" />
    <glyph glyph-name="X" unicode="X" horiz-adv-x="556" 
d="M242 385l-183 315h73l146 -254l146 254h73l-183 -315l226 -385h-73l-189 323l-189 -323h-73z" />
    <glyph glyph-name="Y" unicode="Y" horiz-adv-x="512" 
d="M223 304l-211 396h77l167 -331l167 331h77l-211 -396v-304h-66v304z" />
    <glyph glyph-name="Z" unicode="Z" horiz-adv-x="533" 
d="M43 32l352 606h-340v62h428v-32l-348 -606h355v-62h-447v32z" />
    <glyph glyph-name="bracketleft" unicode="[" horiz-adv-x="297" 
d="M90 750h179v-56h-119v-688h119v-56h-179v800z" />
    <glyph glyph-name="backslash" unicode="\" horiz-adv-x="518" 
d="M8 750h66l436 -800h-66z" />
    <glyph glyph-name="bracketright" unicode="]" horiz-adv-x="297" 
d="M28 6h119v688h-119v56h179v-800h-179v56z" />
    <glyph glyph-name="asciicircum" unicode="^" horiz-adv-x="480" 
d="M216 700h48l184 -271h-69l-139 213l-139 -213h-69z" />
    <glyph glyph-name="underscore" unicode="_" horiz-adv-x="475" 
d="M33 0h409v-56h-409v56z" />
    <glyph glyph-name="grave" unicode="`" horiz-adv-x="209" 
d="M21 700h93l70 -140h-50z" />
    <glyph glyph-name="a" unicode="a" horiz-adv-x="494" 
d="M94 29.5q-44 37.5 -44 115.5q0 82 60.5 123.5t168.5 41.5h87v22q0 63 -31 92.5t-85 29.5q-49 0 -78.5 -26t-41.5 -68l-60 14q10 63 60.5 100.5t119.5 37.5q77 0 127.5 -47.5t50.5 -130.5v-334h-47l-15 78q-23 -39 -62.5 -62.5t-96.5 -23.5q-69 0 -113 37.5zM284 68.5
q35 18.5 58.5 59.5t23.5 105v19h-85q-84 0 -125 -28t-41 -79q0 -46 26 -70.5t72 -24.5q36 0 71 18.5z" />
    <glyph glyph-name="b" unicode="b" horiz-adv-x="572" 
d="M205.5 14q-45.5 22 -65.5 52v-30v-36h-62v708h62v-245v-30q28 37 70 58t89 21q71 0 122 -34.5t77 -93.5t26 -132t-26 -132t-77 -93.5t-122 -34.5q-48 0 -93.5 22zM416.5 106.5q42.5 56.5 42.5 145.5q0 88 -43 145t-120 57t-119.5 -57t-42.5 -145q0 -89 42 -145.5
t120 -56.5t120.5 56.5z" />
    <glyph glyph-name="c" unicode="c" horiz-adv-x="516" 
d="M149.5 28.5q-50.5 36.5 -76 96t-25.5 127.5t25.5 127.5t76 96t121.5 36.5q151 0 203 -139l-56 -22q-40 103 -147 103q-77 0 -117.5 -57.5t-40.5 -144.5t40.5 -144.5t117.5 -57.5q55 0 90.5 26t56.5 77l56 -22q-26 -68 -77.5 -103.5t-125.5 -35.5q-71 0 -121.5 36.5z" />
    <glyph glyph-name="d" unicode="d" horiz-adv-x="572" 
d="M151 26.5q-51 34.5 -77 93.5t-26 132t26 132t77 93.5t122 34.5q50 0 91 -20.5t68 -58.5v30v245h62v-708h-62v42v30q-23 -33 -67.5 -56.5t-91.5 -23.5q-71 0 -122 34.5zM396 106.5q42 56.5 42 145.5q0 88 -42.5 145t-119.5 57t-120 -57t-43 -145q0 -89 42.5 -145.5
t120.5 -56.5t120 56.5z" />
    <glyph glyph-name="e" unicode="e" horiz-adv-x="541" 
d="M493 252h-381q0 -86 42 -144t118 -58q57 0 92 25t63 83l55 -27q-38 -75 -88 -107t-122 -32q-65 0 -116 34t-79.5 93.5t-28.5 132.5q0 75 28 134t79 92.5t117 33.5q64 0 114.5 -29t78.5 -81.5t28 -121.5v-28zM429 310q-9 67 -49.5 105.5t-107.5 38.5q-56 0 -98.5 -37
t-56.5 -107h312z" />
    <glyph glyph-name="f" unicode="f" horiz-adv-x="314" 
d="M92 446h-80v58h80v32q0 87 40.5 129.5t115.5 42.5q36 0 60 -13l-13 -57q-26 12 -52 12q-42 0 -65.5 -26t-23.5 -78v-42h122v-58h-122v-446h-62v446z" />
    <glyph glyph-name="g" unicode="g" horiz-adv-x="481" 
d="M96 -168q-56 44 -56 122q0 35 14.5 62t37.5 44q-40 24 -40 82q0 30 17 53.5t45 36.5q-18 22 -28 50.5t-10 60.5q0 50 22.5 88.5t61.5 59.5t87 21q46 0 87 -23l90 51l29 -53l-70 -39q35 -45 35 -105q0 -50 -22.5 -88.5t-61.5 -59.5t-87 -21q-54 0 -94 24q-41 -18 -41 -56
q0 -25 17.5 -36.5t44.5 -11.5h130q69 0 110 -32.5t41 -99.5q0 -89 -56.5 -131.5t-150.5 -42.5q-96 0 -152 44zM324.5 259q31.5 31 31.5 84t-31.5 84t-77.5 31t-77.5 -31t-31.5 -84t31.5 -84t77.5 -31t77.5 31zM357 -125.5q38 30.5 38 79.5q0 86 -98 86h-103q-27 0 -49 3
q-45 -29 -45 -91q0 -50 37.5 -79t110.5 -29q71 0 109 30.5z" />
    <glyph glyph-name="h" unicode="h" horiz-adv-x="555" 
d="M78 708h62v-314q25 58 75 88t105 30q74 0 115.5 -43.5t41.5 -122.5v-346h-62v338q0 55 -27 85.5t-78 30.5q-46 0 -85 -29.5t-62 -84t-23 -125.5v-215h-62v708z" />
    <glyph glyph-name="i" unicode="i" horiz-adv-x="218" 
d="M78 504h62v-504h-62v504zM72.5 612.5q-14.5 14.5 -14.5 36.5t14.5 36.5t36.5 14.5t36.5 -14.5t14.5 -36.5t-14.5 -36.5t-36.5 -14.5t-36.5 14.5z" />
    <glyph glyph-name="j" unicode="j" horiz-adv-x="218" 
d="M1 -154q41 12 59 33.5t18 65.5v559h62v-568q0 -128 -125 -148zM72.5 612.5q-14.5 14.5 -14.5 36.5t14.5 36.5t36.5 14.5t36.5 -14.5t14.5 -36.5t-14.5 -36.5t-36.5 -14.5t-36.5 14.5z" />
    <glyph glyph-name="k" unicode="k" horiz-adv-x="459" 
d="M78 708h62v-427l211 223h78l-218 -231l236 -273h-79l-228 265v-265h-62v708z" />
    <glyph glyph-name="l" unicode="l" horiz-adv-x="218" 
d="M78 708h62v-708h-62v708z" />
    <glyph glyph-name="m" unicode="m" horiz-adv-x="822" 
d="M78 504h62v-105q24 52 65.5 82.5t94.5 30.5q114 0 137 -112q26 49 70.5 80.5t94.5 31.5q73 0 107.5 -41t34.5 -125v-346h-62v338q0 59 -20 87.5t-70 28.5q-41 0 -75.5 -28.5t-54.5 -81.5t-20 -123v-221h-62v338q0 59 -20 87.5t-70 28.5q-41 0 -75.5 -28.5t-54.5 -81.5
t-20 -123v-221h-62v504z" />
    <glyph glyph-name="n" unicode="n" horiz-adv-x="546" 
d="M78 504h62v-105q26 51 72.5 82t100.5 31q72 0 113.5 -43.5t41.5 -122.5v-346h-62v338q0 56 -25.5 86t-77.5 30q-46 0 -83 -28.5t-58.5 -81.5t-21.5 -123v-221h-62v504z" />
    <glyph glyph-name="o" unicode="o" horiz-adv-x="568" 
d="M159.5 28.5q-53.5 36.5 -82.5 96.5t-29 127t29 127t82.5 96.5t124.5 36.5t124.5 -36.5t82.5 -96.5t29 -127t-29 -127t-82.5 -96.5t-124.5 -36.5t-124.5 36.5zM376.5 78.5q38.5 28.5 58.5 75t20 98.5t-20 98.5t-58.5 75t-92.5 28.5t-92.5 -28.5t-58.5 -75t-20 -98.5
t20 -98.5t58.5 -75t92.5 -28.5t92.5 28.5z" />
    <glyph glyph-name="p" unicode="p" horiz-adv-x="572" 
d="M78 504h62v-42v-30q21 33 65.5 56.5t93.5 23.5q71 0 122 -34.5t77 -93.5t26 -132t-26 -132t-77 -93.5t-122 -34.5q-46 0 -90 21t-69 58v-30v-245h-62v708zM416 107q43 57 43 145q0 89 -42.5 145.5t-120.5 56.5t-120 -56.5t-42 -145.5q0 -88 42.5 -145t119.5 -57t120 57z
" />
    <glyph glyph-name="q" unicode="q" horiz-adv-x="572" 
d="M432 41v30q-27 -38 -68 -58.5t-91 -20.5q-71 0 -122 34.5t-77 93.5t-26 132t26 132t77 93.5t122 34.5q48 0 93.5 -22t65.5 -52v30v36h62v-708h-62v245zM395.5 107q42.5 57 42.5 145q0 89 -42 145.5t-120 56.5t-120.5 -56.5t-42.5 -145.5q0 -88 43 -145t120 -57t119.5 57z
" />
    <glyph glyph-name="r" unicode="r" horiz-adv-x="380" 
d="M78 504h62v-90q23 47 60.5 72.5t87.5 25.5q20 0 37.5 -4t38.5 -13l-14 -59q-33 18 -71 18q-39 0 -70.5 -29.5t-50 -88t-18.5 -141.5v-195h-62v504z" />
    <glyph glyph-name="s" unicode="s" horiz-adv-x="430" 
d="M105.5 32q-45.5 40 -59.5 98l55 29q16 -52 45.5 -80.5t81.5 -28.5q43 0 67 24t24 65q0 37 -27.5 58.5t-83.5 41.5q-62 22 -94.5 53.5t-32.5 87.5q0 60 40 96t101 36q48 0 82 -19t58 -59l-44 -38q-20 31 -44 44.5t-55 13.5q-32 0 -53 -19.5t-21 -52.5t26 -53.5t90 -43.5
q54 -20 88.5 -55.5t34.5 -89.5q0 -69 -42 -108.5t-114 -39.5q-77 0 -122.5 40z" />
    <glyph glyph-name="t" unicode="t" horiz-adv-x="343" 
d="M135 29.5q-34 37.5 -34 113.5v303h-89v58h89v163l62 41v-204h136v-58h-136v-313q0 -41 19.5 -62t52.5 -21q38 0 63 16l17 -56q-33 -18 -88 -18q-58 0 -92 37.5z" />
    <glyph glyph-name="u" unicode="u" horiz-adv-x="546" 
d="M119.5 35.5q-41.5 43.5 -41.5 122.5v346h62v-338q0 -56 25.5 -86t77.5 -30q46 0 83 28.5t58.5 81.5t21.5 123v221h62v-504h-62v105q-26 -51 -72.5 -82t-100.5 -31q-72 0 -113.5 43.5z" />
    <glyph glyph-name="v" unicode="v" horiz-adv-x="440" 
d="M16 504h65l139 -421l139 421h65l-170 -504h-68z" />
    <glyph glyph-name="w" unicode="w" horiz-adv-x="668" 
d="M14 504h65l118 -416l106 416h62l106 -416l118 416h65l-151 -504h-64l-105 412l-105 -412h-64z" />
    <glyph glyph-name="x" unicode="x" horiz-adv-x="428" 
d="M180 275l-142 229h69l107 -174l107 174h69l-142 -229l170 -275h-65l-139 220l-139 -220h-65z" />
    <glyph glyph-name="y" unicode="y" horiz-adv-x="440" 
d="M430 504l-250 -708h-62l72 208l-180 500h65l149 -404l141 404h65z" />
    <glyph glyph-name="z" unicode="z" horiz-adv-x="428" 
d="M36 30l257 416h-245v58h327v-34l-254 -412h265v-58h-350v30z" />
    <glyph glyph-name="braceleft" unicode="{" horiz-adv-x="279" 
d="M137 -22q-26 28 -26 76v183q0 45 -18 65t-61 20v56q43 0 61 20t18 65v183q0 48 26 76t68 28h46v-56h-30q-26 0 -38 -12t-12 -38v-197q0 -43 -15.5 -64t-47.5 -33q32 -12 47.5 -33t15.5 -64v-197q0 -26 12 -38t38 -12h30v-56h-46q-42 0 -68 28z" />
    <glyph glyph-name="bar" unicode="|" horiz-adv-x="240" 
d="M90 750h60v-800h-60v800z" />
    <glyph glyph-name="braceright" unicode="}" horiz-adv-x="279" 
d="M28 6h30q26 0 38 12t12 38v197q0 43 15.5 64t47.5 33q-32 12 -47.5 33t-15.5 64v197q0 26 -12 38t-38 12h-30v56h46q42 0 68 -28t26 -76v-183q0 -45 18 -65t61 -20v-56q-43 0 -61 -20t-18 -65v-183q0 -48 -26 -76t-68 -28h-46v56z" />
    <glyph glyph-name="asciitilde" unicode="~" horiz-adv-x="532" 
d="M314.5 278.5q-19.5 6.5 -46.5 20.5q-25 14 -44 20.5t-44 6.5q-26 0 -49 -12t-41 -33l-40 39q25 34 56.5 56t65.5 22q26 0 45.5 -6.5t46.5 -20.5q25 -14 44 -20.5t44 -6.5q26 0 49 12t41 33l40 -39q-25 -34 -56.5 -56t-65.5 -22q-26 0 -45.5 6.5z" />
    <glyph glyph-name="uni00A0" unicode="&#xa0;" horiz-adv-x="252" 
 />
    <glyph glyph-name="exclamdown" unicode="&#xa1;" horiz-adv-x="290" 
d="M105.5 403.5q-15.5 15.5 -15.5 39.5t15.5 39.5t39.5 15.5t39.5 -15.5t15.5 -39.5t-15.5 -39.5t-39.5 -15.5t-39.5 15.5zM125 312h40l22 -516h-84z" />
    <glyph glyph-name="cent" unicode="&#xa2;" horiz-adv-x="516" 
d="M243 91q-62 7 -106.5 44.5t-66.5 94t-22 120.5q0 63 22 119.5t66.5 94.5t106.5 45v141h60v-141q61 -7 104.5 -42t66.5 -96l-56 -22q-21 51 -56.5 77t-90.5 26q-77 0 -117.5 -57.5t-40.5 -144.5t40.5 -144.5t117.5 -57.5q55 0 90.5 26t56.5 77l56 -22q-47 -123 -171 -138
v-141h-60v141z" />
    <glyph glyph-name="sterling" unicode="&#xa3;" horiz-adv-x="519" 
d="M39 47q57 55 83.5 106t26.5 106q0 37 -13 76h-84v58h63q-12 32 -18.5 58t-6.5 56q0 94 50.5 147.5t133.5 53.5q66 0 113 -37.5t72 -103.5l-55 -25q-25 55 -54.5 81.5t-75.5 26.5q-54 0 -87 -37.5t-33 -106.5q0 -30 6 -54.5t17 -58.5h164v-58h-146q10 -40 10 -78
q0 -48 -23.5 -102t-56.5 -83q19 11 42 16.5t43 5.5q24 0 41.5 -7t42.5 -21q19 -10 30 -15t24 -5q33 0 53 17t48 67l47 -27q-32 -61 -65 -86t-81 -25q-27 0 -45 6.5t-42 18.5q-19 11 -33.5 16t-33.5 5q-33 0 -56 -11t-52 -35z" />
    <glyph glyph-name="currency" unicode="&#xa4;" horiz-adv-x="546" 
d="M29 118l87 67q-38 54 -38 122t38 122l-87 67l55 55l66 -85q53 43 123 43t123 -43l66 85l55 -55l-87 -67q38 -54 38 -122t-38 -122l87 -67l-55 -55l-66 85q-53 -43 -123 -43t-123 43l-66 -85zM374 200q38 41 38 107t-38 107t-101 41t-101 -41t-38 -107t38 -107t101 -41
t101 41z" />
    <glyph glyph-name="yen" unicode="&#xa5;" horiz-adv-x="498" 
d="M216 161h-161v56h161v87h-161v56h132l-175 340h77l160 -329l160 329h77l-175 -340h132v-56h-161v-87h161v-56h-161v-161h-66v161z" />
    <glyph glyph-name="brokenbar" unicode="&#xa6;" horiz-adv-x="240" 
d="M90 750h60v-349h-60v349zM90 299h60v-349h-60v349z" />
    <glyph glyph-name="section" unicode="&#xa7;" horiz-adv-x="494" 
d="M125 -174.5q-46 37.5 -63 108.5l56 19q14 -49 45.5 -78t79.5 -29q46 0 75.5 29.5t29.5 84.5q0 33 -19.5 58t-56.5 48t-110 60q-65 33 -92.5 68.5t-27.5 89.5q0 74 88 129q-24 24 -40 55.5t-16 68.5q0 52 24 91t63 59.5t84 20.5q72 0 117 -37t62 -109l-56 -19
q-32 107 -123 107q-45 0 -76 -28.5t-31 -77.5q0 -36 15.5 -62t52.5 -50.5t106 -55.5q74 -33 103 -70t29 -93q0 -79 -81 -130q24 -24 36.5 -50.5t12.5 -63.5q0 -57 -23.5 -98t-62 -62t-83.5 -21q-72 0 -118 37.5zM365.5 160.5q18.5 23.5 18.5 52.5q0 30 -21.5 53.5t-55 42
t-95.5 47.5q-7 4 -17 8.5t-22 10.5q-34 -16 -52.5 -39.5t-18.5 -52.5q0 -41 41.5 -71t131.5 -73l38 -18q34 16 52.5 39.5z" />
    <glyph glyph-name="dieresis" unicode="&#xa8;" horiz-adv-x="292" 
d="M34 604q-14 14 -14 34q0 21 14 35.5t35 14.5t35 -14.5t14 -35.5q0 -20 -14 -34t-35 -14t-35 14zM188 604q-14 14 -14 34q0 21 14 35.5t34 14.5q21 0 35.5 -14.5t14.5 -35.5q0 -20 -14.5 -34t-35.5 -14q-20 0 -34 14z" />
    <glyph glyph-name="copyright" unicode="&#xa9;" horiz-adv-x="872" 
d="M243 11q-86 51 -134.5 140t-48.5 199t48.5 199t134.5 140t193 51t193 -51t134.5 -140t48.5 -199t-48.5 -199t-134.5 -140t-193 -51t-193 51zM599.5 65q71.5 43 111 118t39.5 167t-39.5 167t-111 118t-163.5 43t-163.5 -43t-111 -118t-39.5 -167t39.5 -167t111 -118
t163.5 -43t163.5 43zM345.5 157q-44.5 23 -74.5 71.5t-30 121.5t30 121.5t74.5 71.5t90.5 23q62 0 106.5 -34.5t60.5 -97.5l-53 -14q-15 46 -42 69t-72 23q-60 0 -98 -41.5t-38 -120.5t38 -120.5t98 -41.5q45 0 72 23t42 69l53 -14q-16 -63 -60.5 -97.5t-106.5 -34.5
q-46 0 -90.5 23z" />
    <glyph glyph-name="ordfeminine" unicode="&#xaa;" horiz-adv-x="430" 
d="M102 327.5q-34 31.5 -34 88.5q0 62 49 96t131 34h66v17q0 48 -24 70.5t-67 22.5q-71 0 -93 -72l-48 12q10 51 48.5 79.5t92.5 28.5q64 0 102.5 -33.5t38.5 -106.5v-264h-38l-10 63q-18 -29 -51 -48t-76 -19q-53 0 -87 31.5zM277 378q37 34 37 107v15h-64q-66 0 -98 -22.5
t-32 -61.5q0 -34 20 -53t54 -19q46 0 83 34z" />
    <glyph glyph-name="guillemotleft" unicode="&#xab;" horiz-adv-x="603" 
d="M50 289v42l263 195v-68l-198 -148l198 -148v-68zM280 289v42l263 195v-68l-198 -148l198 -148v-68z" />
    <glyph glyph-name="logicalnot" unicode="&#xac;" horiz-adv-x="563" 
d="M429 322h-359v58h423v-238h-64v180z" />
    <glyph glyph-name="uni00AD" unicode="&#xad;" horiz-adv-x="469" 
d="M70 345h329v-56h-329v56z" />
    <glyph glyph-name="registered" unicode="&#xae;" horiz-adv-x="872" 
d="M243 11q-86 51 -134.5 140t-48.5 199t48.5 199t134.5 140t193 51t193 -51t134.5 -140t48.5 -199t-48.5 -199t-134.5 -140t-193 -51t-193 51zM599.5 65q71.5 43 111 118t39.5 167t-39.5 167t-111 118t-163.5 43t-163.5 -43t-111 -118t-39.5 -167t39.5 -167t111 -118
t163.5 -43t163.5 43zM300 563h144q61 0 97 -33.5t36 -88.5q0 -45 -27 -77.5t-69 -40.5l127 -186h-62l-126 182h-61v-182h-59v426zM444 373q36 0 55 18t19 50q0 33 -19 50.5t-55 17.5h-85v-136h85z" />
    <glyph glyph-name="macron" unicode="&#xaf;" horiz-adv-x="271" 
d="M15 660h241v-56h-241v56z" />
    <glyph glyph-name="degree" unicode="&#xb0;" horiz-adv-x="338" 
d="M90.5 513.5q-30.5 31.5 -30.5 79.5t30.5 79.5t78.5 31.5t78.5 -31.5t30.5 -79.5t-30.5 -79.5t-78.5 -31.5t-78.5 31.5zM213 547.5q17 17.5 17 45.5t-17 45.5t-44 17.5t-44 -17.5t-17 -45.5t17 -45.5t44 -17.5t44 17.5z" />
    <glyph glyph-name="plusminus" unicode="&#xb1;" horiz-adv-x="550" 
d="M247 370h-177v56h177v176h56v-176h177v-56h-177v-177h-56v177zM70 56h410v-56h-410v56z" />
    <glyph glyph-name="uni00B2" unicode="&#xb2;" horiz-adv-x="319" 
d="M34 319l147 183q22 28 31 47.5t9 42.5q0 29 -16 45.5t-46 16.5q-27 0 -43.5 -21t-20.5 -55l-54 14q5 49 37 80.5t81 31.5q54 0 85 -31t31 -81q0 -55 -39 -105l-111 -137h160v-50h-251v19z" />
    <glyph glyph-name="uni00B3" unicode="&#xb3;" horiz-adv-x="322" 
d="M76.5 327q-35.5 31 -40.5 86l54 8q4 -35 23 -56t52 -21q36 0 54 23.5t18 60.5t-18 59t-54 22q-19 0 -35 -10l-26 35l89 118h-135v48h213v-17l-100 -135q6 1 18 1q44 0 73 -32t29 -89q0 -56 -32.5 -94t-93.5 -38q-53 0 -88.5 31z" />
    <glyph glyph-name="acute" unicode="&#xb4;" horiz-adv-x="209" 
d="M95 700h93l-113 -140h-50z" />
    <glyph glyph-name="uni00B5" unicode="&#xb5;" horiz-adv-x="546" 
d="M78 504h62v-338q0 -56 25.5 -86t77.5 -30q46 0 83 28.5t58.5 81.5t21.5 123v221h62v-504h-62v105q-26 -51 -72.5 -82t-100.5 -31q-55 0 -93 26v-222h-62v708z" />
    <glyph glyph-name="paragraph" unicode="&#xb6;" horiz-adv-x="651" 
d="M234 354q-47 0 -87 23t-63 63t-23 87t23 87t63 63t87 23h349v-62h-58v-842h-66v842h-159v-842h-66v558z" />
    <glyph glyph-name="periodcentered" unicode="&#xb7;" horiz-adv-x="282" 
d="M104.5 313.5q-14.5 14.5 -14.5 36.5t14.5 36.5t36.5 14.5t36.5 -14.5t14.5 -36.5t-14.5 -36.5t-36.5 -14.5t-36.5 14.5z" />
    <glyph glyph-name="cedilla" unicode="&#xb8;" horiz-adv-x="175" 
d="M11 -183l98 123h55l-81 -154z" />
    <glyph glyph-name="uni00B9" unicode="&#xb9;" horiz-adv-x="221" 
d="M113 626l-85 -41v56l119 59h16v-400h-50v326z" />
    <glyph glyph-name="ordmasculine" unicode="&#xba;" horiz-adv-x="512" 
d="M158.5 325q-42.5 29 -65 76t-22.5 99t22.5 99t65 76t97.5 29t97.5 -29t65 -76t22.5 -99t-22.5 -99t-65 -76t-97.5 -29t-97.5 29zM352.5 390q34.5 46 34.5 110t-34.5 110t-96.5 46t-96.5 -46t-34.5 -110t34.5 -110t96.5 -46t96.5 46z" />
    <glyph glyph-name="guillemotright" unicode="&#xbb;" horiz-adv-x="603" 
d="M60 162l198 148l-198 148v68l263 -195v-42l-263 -195v68zM290 162l198 148l-198 148v68l263 -195v-42l-263 -195v68z" />
    <glyph glyph-name="onequarter" unicode="&#xbc;" horiz-adv-x="790" 
d="M113 626l-85 -41v56l119 59h16v-400h-50v326zM73 9l542 715l42 -33l-542 -715zM661 83h-171v17l162 300h59v-269h52v-48h-52v-83h-50v83zM661 131v195l-102 -195h102z" />
    <glyph glyph-name="onehalf" unicode="&#xbd;" horiz-adv-x="828" 
d="M113 626l-85 -41v56l119 59h16v-400h-50v326zM73 9l542 715l42 -33l-542 -715zM543 19l147 183q22 28 31 47.5t9 42.5q0 29 -16 45.5t-46 16.5q-27 0 -43.5 -21t-20.5 -55l-54 14q5 49 37 80.5t81 31.5q54 0 85 -31t31 -81q0 -55 -39 -105l-111 -137h160v-50h-251v19z
" />
    <glyph glyph-name="threequarters" unicode="&#xbe;" horiz-adv-x="881" 
d="M76.5 327q-35.5 31 -40.5 86l54 8q4 -35 23 -56t52 -21q36 0 54 23.5t18 60.5t-18 59t-54 22q-19 0 -35 -10l-26 35l89 118h-135v48h213v-17l-100 -135q6 1 18 1q44 0 73 -32t29 -89q0 -56 -32.5 -94t-93.5 -38q-53 0 -88.5 31zM164 9l542 715l42 -33l-542 -715zM752 83
h-171v17l162 300h59v-269h52v-48h-52v-83h-50v83zM752 131v195l-102 -195h102z" />
    <glyph glyph-name="questiondown" unicode="&#xbf;" horiz-adv-x="438" 
d="M249.5 482.5q15.5 -15.5 15.5 -39.5t-15.5 -39.5t-39.5 -15.5t-39.5 15.5t-15.5 39.5t15.5 39.5t39.5 15.5t39.5 -15.5zM300 268q36 -31 36 -90q0 -47 -27.5 -79t-86.5 -63q-49 -26 -70.5 -41t-29.5 -28.5t-8 -35.5q0 -40 25.5 -62.5t72.5 -22.5q45 0 72.5 25.5
t40.5 76.5l63 -11q-12 -70 -59 -109.5t-124 -39.5q-68 0 -111.5 39t-43.5 101q0 46 26.5 77t96.5 67q42 22 63.5 38.5t29.5 32t8 37.5q0 28 -16.5 44.5t-43.5 16.5q-30 0 -49 -15.5t-30 -50.5l-50 19q29 105 127 105q52 0 88 -31z" />
    <glyph glyph-name="Agrave" unicode="&#xc0;" horiz-adv-x="588" 
d="M265 700h58l253 -700h-68l-70 199h-288l-70 -199h-68zM417 261l-123 349l-123 -349h246zM156 896h93l70 -140h-50z" />
    <glyph glyph-name="Aacute" unicode="&#xc1;" horiz-adv-x="588" 
d="M265 700h58l253 -700h-68l-70 199h-288l-70 -199h-68zM417 261l-123 349l-123 -349h246zM339 896h93l-113 -140h-50z" />
    <glyph glyph-name="Acircumflex" unicode="&#xc2;" horiz-adv-x="588" 
d="M265 700h58l253 -700h-68l-70 199h-288l-70 -199h-68zM417 261l-123 349l-123 -349h246zM283 896h22l134 -140h-72l-73 78l-73 -78h-72z" />
    <glyph glyph-name="Atilde" unicode="&#xc3;" horiz-adv-x="588" 
d="M265 700h58l253 -700h-68l-70 199h-288l-70 -199h-68zM417 261l-123 349l-123 -349h246zM125 814q18 31 44 50t55 19q24 0 41 -6t36 -17q18 -10 29 -14t25 -4q32 0 62 41l45 -36q-18 -31 -44 -50t-55 -19q-24 0 -41 6t-36 17q-18 10 -29 14t-25 4q-32 0 -62 -41z" />
    <glyph glyph-name="Adieresis" unicode="&#xc4;" horiz-adv-x="588" 
d="M265 700h58l253 -700h-68l-70 199h-288l-70 -199h-68zM417 261l-123 349l-123 -349h246zM182 800q-14 14 -14 34q0 21 14 35.5t35 14.5t35 -14.5t14 -35.5q0 -20 -14 -34t-35 -14t-35 14zM336 800q-14 14 -14 34q0 21 14 35.5t34 14.5q21 0 35.5 -14.5t14.5 -35.5
q0 -20 -14.5 -34t-35.5 -14q-20 0 -34 14z" />
    <glyph glyph-name="Aring" unicode="&#xc5;" horiz-adv-x="588" 
d="M265 700h58l253 -700h-68l-70 199h-288l-70 -199h-68zM417 261l-123 349l-123 -349h246zM225 782q-28 27 -28 67q0 41 28 69.5t69 28.5q42 0 69.5 -28t27.5 -70q0 -40 -27.5 -67t-69.5 -27q-41 0 -69 27zM331 812.5q14 14.5 14 37.5q0 24 -14 39t-37 15
q-22 0 -36.5 -15.5t-14.5 -38.5t14.5 -37.5t36.5 -14.5q23 0 37 14.5z" />
    <glyph glyph-name="AE" unicode="&#xc6;" horiz-adv-x="820" 
d="M319 700h435v-62h-329v-234h269v-62h-269v-280h339v-62h-405v199h-191l-87 -199h-69zM359 261v349h-11l-153 -349h164z" />
    <glyph glyph-name="Ccedilla" unicode="&#xc7;" horiz-adv-x="675" 
d="M208.5 32q-70.5 40 -113.5 121t-43 197t43 197t113.5 121t152.5 40q99 0 168 -53.5t96 -146.5l-65 -19q-20 75 -70.5 116t-128.5 41q-71 0 -125 -34.5t-84.5 -101.5t-30.5 -160t30.5 -160t84.5 -101.5t125 -34.5q78 0 128.5 41t70.5 116l65 -19q-27 -93 -96 -146.5
t-168 -53.5q-82 0 -152.5 40zM244 -183l98 123h55l-81 -154z" />
    <glyph glyph-name="Egrave" unicode="&#xc8;" horiz-adv-x="551" 
d="M90 700h395v-62h-329v-234h269v-62h-269v-280h339v-62h-405v700zM158 896h93l70 -140h-50z" />
    <glyph glyph-name="Eacute" unicode="&#xc9;" horiz-adv-x="551" 
d="M90 700h395v-62h-329v-234h269v-62h-269v-280h339v-62h-405v700zM341 896h93l-113 -140h-50z" />
    <glyph glyph-name="Ecircumflex" unicode="&#xca;" horiz-adv-x="551" 
d="M90 700h395v-62h-329v-234h269v-62h-269v-280h339v-62h-405v700zM285 896h22l134 -140h-72l-73 78l-73 -78h-72z" />
    <glyph glyph-name="Edieresis" unicode="&#xcb;" horiz-adv-x="551" 
d="M90 700h395v-62h-329v-234h269v-62h-269v-280h339v-62h-405v700zM184 800q-14 14 -14 34q0 21 14 35.5t35 14.5t35 -14.5t14 -35.5q0 -20 -14 -34t-35 -14t-35 14zM338 800q-14 14 -14 34q0 21 14 35.5t34 14.5q21 0 35.5 -14.5t14.5 -35.5q0 -20 -14.5 -34t-35.5 -14
q-20 0 -34 14z" />
    <glyph glyph-name="Igrave" unicode="&#xcc;" horiz-adv-x="246" 
d="M90 700h66v-700h-66v700zM-15 896h93l70 -140h-50z" />
    <glyph glyph-name="Iacute" unicode="&#xcd;" horiz-adv-x="246" 
d="M90 700h66v-700h-66v700zM168 896h93l-113 -140h-50z" />
    <glyph glyph-name="Icircumflex" unicode="&#xce;" horiz-adv-x="246" 
d="M90 700h66v-700h-66v700zM112 896h22l134 -140h-72l-73 78l-73 -78h-72z" />
    <glyph glyph-name="Idieresis" unicode="&#xcf;" horiz-adv-x="246" 
d="M90 700h66v-700h-66v700zM11 800q-14 14 -14 34q0 21 14 35.5t35 14.5t35 -14.5t14 -35.5q0 -20 -14 -34t-35 -14t-35 14zM165 800q-14 14 -14 34q0 21 14 35.5t34 14.5q21 0 35.5 -14.5t14.5 -35.5q0 -20 -14.5 -34t-35.5 -14q-20 0 -34 14z" />
    <glyph glyph-name="Eth" unicode="&#xd0;" horiz-adv-x="644" 
d="M436.5 658q72.5 -42 114 -121.5t41.5 -186.5t-41.5 -186.5t-114 -121.5t-162.5 -42h-184v319h-70v62h70v319h184q90 0 162.5 -42zM398.5 93q56.5 31 90.5 96t34 161t-34 161t-90.5 96t-123.5 31h-119v-257h98v-62h-98v-257h119q67 0 123.5 31z" />
    <glyph glyph-name="Ntilde" unicode="&#xd1;" horiz-adv-x="671" 
d="M90 700h78l347 -595v595h66v-700h-78l-347 593v-593h-66v700zM167 814q18 31 44 50t55 19q24 0 41 -6t36 -17q18 -10 29 -14t25 -4q32 0 62 41l45 -36q-18 -31 -44 -50t-55 -19q-24 0 -41 6t-36 17q-18 10 -29 14t-25 4q-32 0 -62 -41z" />
    <glyph glyph-name="Ograve" unicode="&#xd2;" horiz-adv-x="718" 
d="M206 36q-70 44 -112 125t-42 189t42 189t112 125t153 44t153 -44t112 -125t42 -189t-42 -189t-112 -125t-153 -44t-153 44zM480 88q54 34 85.5 100.5t31.5 161.5t-31.5 161.5t-85.5 100.5t-121 34t-121 -34t-85.5 -100.5t-31.5 -161.5t31.5 -161.5t85.5 -100.5t121 -34
t121 34zM221 896h93l70 -140h-50z" />
    <glyph glyph-name="Oacute" unicode="&#xd3;" horiz-adv-x="718" 
d="M206 36q-70 44 -112 125t-42 189t42 189t112 125t153 44t153 -44t112 -125t42 -189t-42 -189t-112 -125t-153 -44t-153 44zM480 88q54 34 85.5 100.5t31.5 161.5t-31.5 161.5t-85.5 100.5t-121 34t-121 -34t-85.5 -100.5t-31.5 -161.5t31.5 -161.5t85.5 -100.5t121 -34
t121 34zM404 896h93l-113 -140h-50z" />
    <glyph glyph-name="Ocircumflex" unicode="&#xd4;" horiz-adv-x="718" 
d="M206 36q-70 44 -112 125t-42 189t42 189t112 125t153 44t153 -44t112 -125t42 -189t-42 -189t-112 -125t-153 -44t-153 44zM480 88q54 34 85.5 100.5t31.5 161.5t-31.5 161.5t-85.5 100.5t-121 34t-121 -34t-85.5 -100.5t-31.5 -161.5t31.5 -161.5t85.5 -100.5t121 -34
t121 34zM348 896h22l134 -140h-72l-73 78l-73 -78h-72z" />
    <glyph glyph-name="Otilde" unicode="&#xd5;" horiz-adv-x="718" 
d="M206 36q-70 44 -112 125t-42 189t42 189t112 125t153 44t153 -44t112 -125t42 -189t-42 -189t-112 -125t-153 -44t-153 44zM480 88q54 34 85.5 100.5t31.5 161.5t-31.5 161.5t-85.5 100.5t-121 34t-121 -34t-85.5 -100.5t-31.5 -161.5t31.5 -161.5t85.5 -100.5t121 -34
t121 34zM190 814q18 31 44 50t55 19q24 0 41 -6t36 -17q18 -10 29 -14t25 -4q32 0 62 41l45 -36q-18 -31 -44 -50t-55 -19q-24 0 -41 6t-36 17q-18 10 -29 14t-25 4q-32 0 -62 -41z" />
    <glyph glyph-name="Odieresis" unicode="&#xd6;" horiz-adv-x="718" 
d="M206 36q-70 44 -112 125t-42 189t42 189t112 125t153 44t153 -44t112 -125t42 -189t-42 -189t-112 -125t-153 -44t-153 44zM480 88q54 34 85.5 100.5t31.5 161.5t-31.5 161.5t-85.5 100.5t-121 34t-121 -34t-85.5 -100.5t-31.5 -161.5t31.5 -161.5t85.5 -100.5t121 -34
t121 34zM247 800q-14 14 -14 34q0 21 14 35.5t35 14.5t35 -14.5t14 -35.5q0 -20 -14 -34t-35 -14t-35 14zM401 800q-14 14 -14 34q0 21 14 35.5t34 14.5q21 0 35.5 -14.5t14.5 -35.5q0 -20 -14.5 -34t-35.5 -14q-20 0 -34 14z" />
    <glyph glyph-name="multiply" unicode="&#xd7;" horiz-adv-x="524" 
d="M69 162l153 154l-153 153l39 40l154 -154l152 153l40 -40l-153 -152l154 -154l-40 -39l-153 153l-154 -153z" />
    <glyph glyph-name="Oslash" unicode="&#xd8;" horiz-adv-x="718" 
d="M645.5 488q20.5 -63 20.5 -138q0 -108 -42 -189t-112 -125t-153 -44q-52 0 -99.5 17.5t-87.5 51.5l-59 -77l-46 35l64 83q-38 47 -58.5 110t-20.5 138q0 108 42 189t112 125t153 44q52 0 99.5 -17.5t87.5 -51.5l59 77l46 -35l-64 -83q38 -47 58.5 -110zM171 154l337 437
q-63 55 -149 55q-67 0 -121 -34t-85.5 -100.5t-31.5 -161.5q0 -119 50 -196zM480 88q54 34 85.5 100.5t31.5 161.5q0 119 -50 196l-337 -437q63 -55 149 -55q67 0 121 34z" />
    <glyph glyph-name="Ugrave" unicode="&#xd9;" horiz-adv-x="636" 
d="M198 18.5q-55 26.5 -87.5 79t-32.5 126.5v476h66v-482q0 -70 45 -117t129 -47t129 47t45 117v482h66v-476q0 -74 -32.5 -126.5t-87.5 -79t-120 -26.5t-120 26.5zM180 896h93l70 -140h-50z" />
    <glyph glyph-name="Uacute" unicode="&#xda;" horiz-adv-x="636" 
d="M198 18.5q-55 26.5 -87.5 79t-32.5 126.5v476h66v-482q0 -70 45 -117t129 -47t129 47t45 117v482h66v-476q0 -74 -32.5 -126.5t-87.5 -79t-120 -26.5t-120 26.5zM363 896h93l-113 -140h-50z" />
    <glyph glyph-name="Ucircumflex" unicode="&#xdb;" horiz-adv-x="636" 
d="M198 18.5q-55 26.5 -87.5 79t-32.5 126.5v476h66v-482q0 -70 45 -117t129 -47t129 47t45 117v482h66v-476q0 -74 -32.5 -126.5t-87.5 -79t-120 -26.5t-120 26.5zM307 896h22l134 -140h-72l-73 78l-73 -78h-72z" />
    <glyph glyph-name="Udieresis" unicode="&#xdc;" horiz-adv-x="636" 
d="M198 18.5q-55 26.5 -87.5 79t-32.5 126.5v476h66v-482q0 -70 45 -117t129 -47t129 47t45 117v482h66v-476q0 -74 -32.5 -126.5t-87.5 -79t-120 -26.5t-120 26.5zM206 800q-14 14 -14 34q0 21 14 35.5t35 14.5t35 -14.5t14 -35.5q0 -20 -14 -34t-35 -14t-35 14zM360 800
q-14 14 -14 34q0 21 14 35.5t34 14.5q21 0 35.5 -14.5t14.5 -35.5q0 -20 -14.5 -34t-35.5 -14q-20 0 -34 14z" />
    <glyph glyph-name="Yacute" unicode="&#xdd;" horiz-adv-x="512" 
d="M223 304l-211 396h77l167 -331l167 331h77l-211 -396v-304h-66v304zM301 896h93l-113 -140h-50z" />
    <glyph glyph-name="Thorn" unicode="&#xde;" horiz-adv-x="574" 
d="M90 700h66v-157h172q94 0 148 -51.5t54 -141.5t-54 -141.5t-148 -51.5h-172v-157h-66v700zM329 219q68 0 100 35.5t32 95.5t-32 95.5t-100 35.5h-173v-262h173z" />
    <glyph glyph-name="germandbls" unicode="&#xdf;" horiz-adv-x="566" 
d="M220 -1v62q37 -11 70 -11q75 0 114.5 40t39.5 109q0 78 -47.5 116.5t-125.5 38.5h-32v56h38q59 0 92 32.5t33 87.5t-32.5 87.5t-85.5 32.5q-59 0 -92.5 -41.5t-33.5 -121.5v-487h-64v354h-54v56h54v78q0 106 53 163t138 57q80 0 128.5 -48.5t48.5 -124.5q0 -56 -27 -97.5
t-68 -51.5q60 -17 100.5 -62t40.5 -124q0 -63 -27 -110t-75 -72.5t-109 -25.5q-40 0 -77 7z" />
    <glyph glyph-name="agrave" unicode="&#xe0;" horiz-adv-x="494" 
d="M94 29.5q-44 37.5 -44 115.5q0 82 60.5 123.5t168.5 41.5h87v22q0 63 -31 92.5t-85 29.5q-49 0 -78.5 -26t-41.5 -68l-60 14q10 63 60.5 100.5t119.5 37.5q77 0 127.5 -47.5t50.5 -130.5v-334h-47l-15 78q-23 -39 -62.5 -62.5t-96.5 -23.5q-69 0 -113 37.5zM284 68.5
q35 18.5 58.5 59.5t23.5 105v19h-85q-84 0 -125 -28t-41 -79q0 -46 26 -70.5t72 -24.5q36 0 71 18.5zM112 700h93l70 -140h-50z" />
    <glyph glyph-name="aacute" unicode="&#xe1;" horiz-adv-x="494" 
d="M94 29.5q-44 37.5 -44 115.5q0 82 60.5 123.5t168.5 41.5h87v22q0 63 -31 92.5t-85 29.5q-49 0 -78.5 -26t-41.5 -68l-60 14q10 63 60.5 100.5t119.5 37.5q77 0 127.5 -47.5t50.5 -130.5v-334h-47l-15 78q-23 -39 -62.5 -62.5t-96.5 -23.5q-69 0 -113 37.5zM284 68.5
q35 18.5 58.5 59.5t23.5 105v19h-85q-84 0 -125 -28t-41 -79q0 -46 26 -70.5t72 -24.5q36 0 71 18.5zM295 700h93l-113 -140h-50z" />
    <glyph glyph-name="acircumflex" unicode="&#xe2;" horiz-adv-x="494" 
d="M94 29.5q-44 37.5 -44 115.5q0 82 60.5 123.5t168.5 41.5h87v22q0 63 -31 92.5t-85 29.5q-49 0 -78.5 -26t-41.5 -68l-60 14q10 63 60.5 100.5t119.5 37.5q77 0 127.5 -47.5t50.5 -130.5v-334h-47l-15 78q-23 -39 -62.5 -62.5t-96.5 -23.5q-69 0 -113 37.5zM284 68.5
q35 18.5 58.5 59.5t23.5 105v19h-85q-84 0 -125 -28t-41 -79q0 -46 26 -70.5t72 -24.5q36 0 71 18.5zM239 700h22l134 -140h-72l-73 78l-73 -78h-72z" />
    <glyph glyph-name="atilde" unicode="&#xe3;" horiz-adv-x="494" 
d="M94 29.5q-44 37.5 -44 115.5q0 82 60.5 123.5t168.5 41.5h87v22q0 63 -31 92.5t-85 29.5q-49 0 -78.5 -26t-41.5 -68l-60 14q10 63 60.5 100.5t119.5 37.5q77 0 127.5 -47.5t50.5 -130.5v-334h-47l-15 78q-23 -39 -62.5 -62.5t-96.5 -23.5q-69 0 -113 37.5zM284 68.5
q35 18.5 58.5 59.5t23.5 105v19h-85q-84 0 -125 -28t-41 -79q0 -46 26 -70.5t72 -24.5q36 0 71 18.5zM81 618q18 31 44 50t55 19q24 0 41 -6t36 -17q18 -10 29 -14t25 -4q32 0 62 41l45 -36q-18 -31 -44 -50t-55 -19q-24 0 -41 6t-36 17q-18 10 -29 14t-25 4q-32 0 -62 -41z
" />
    <glyph glyph-name="adieresis" unicode="&#xe4;" horiz-adv-x="494" 
d="M94 29.5q-44 37.5 -44 115.5q0 82 60.5 123.5t168.5 41.5h87v22q0 63 -31 92.5t-85 29.5q-49 0 -78.5 -26t-41.5 -68l-60 14q10 63 60.5 100.5t119.5 37.5q77 0 127.5 -47.5t50.5 -130.5v-334h-47l-15 78q-23 -39 -62.5 -62.5t-96.5 -23.5q-69 0 -113 37.5zM284 68.5
q35 18.5 58.5 59.5t23.5 105v19h-85q-84 0 -125 -28t-41 -79q0 -46 26 -70.5t72 -24.5q36 0 71 18.5zM138 604q-14 14 -14 34q0 21 14 35.5t35 14.5t35 -14.5t14 -35.5q0 -20 -14 -34t-35 -14t-35 14zM292 604q-14 14 -14 34q0 21 14 35.5t34 14.5q21 0 35.5 -14.5
t14.5 -35.5q0 -20 -14.5 -34t-35.5 -14q-20 0 -34 14z" />
    <glyph glyph-name="aring" unicode="&#xe5;" horiz-adv-x="494" 
d="M94 29.5q-44 37.5 -44 115.5q0 82 60.5 123.5t168.5 41.5h87v22q0 63 -31 92.5t-85 29.5q-49 0 -78.5 -26t-41.5 -68l-60 14q10 63 60.5 100.5t119.5 37.5q77 0 127.5 -47.5t50.5 -130.5v-334h-47l-15 78q-23 -39 -62.5 -62.5t-96.5 -23.5q-69 0 -113 37.5zM284 68.5
q35 18.5 58.5 59.5t23.5 105v19h-85q-84 0 -125 -28t-41 -79q0 -46 26 -70.5t72 -24.5q36 0 71 18.5zM181 586q-28 27 -28 67q0 41 28 69.5t69 28.5q42 0 69.5 -28t27.5 -70q0 -40 -27.5 -67t-69.5 -27q-41 0 -69 27zM287 616.5q14 14.5 14 37.5q0 24 -14 39t-37 15
q-22 0 -36.5 -15.5t-14.5 -38.5t14.5 -37.5t36.5 -14.5q23 0 37 14.5z" />
    <glyph glyph-name="ae" unicode="&#xe6;" horiz-adv-x="859" 
d="M94 29.5q-44 37.5 -44 115.5q0 82 60.5 123.5t168.5 41.5h87v22q0 63 -31 92.5t-85 29.5q-49 0 -78.5 -26t-41.5 -68l-60 14q10 63 60.5 100.5t119.5 37.5q56 0 99.5 -26t63.5 -71q30 46 75.5 71.5t101.5 25.5q64 0 114.5 -29t78.5 -81.5t28 -121.5v-28h-380
q0 -90 42.5 -146t116.5 -56q56 0 92.5 25.5t61.5 78.5l56 -23q-38 -75 -88 -107t-122 -32q-67 0 -119 34.5t-76 92.5q-23 -64 -73 -95.5t-115 -31.5q-69 0 -113 37.5zM747 310q-9 67 -49.5 105.5t-107.5 38.5q-61 0 -101.5 -40t-53.5 -104h312zM284 68.5q35 18.5 58.5 59.5
t23.5 105v19h-85q-84 0 -125 -28t-41 -79q0 -46 26 -70.5t72 -24.5q36 0 71 18.5z" />
    <glyph glyph-name="ccedilla" unicode="&#xe7;" horiz-adv-x="516" 
d="M149.5 28.5q-50.5 36.5 -76 96t-25.5 127.5t25.5 127.5t76 96t121.5 36.5q151 0 203 -139l-56 -22q-40 103 -147 103q-77 0 -117.5 -57.5t-40.5 -144.5t40.5 -144.5t117.5 -57.5q55 0 90.5 26t56.5 77l56 -22q-26 -68 -77.5 -103.5t-125.5 -35.5q-71 0 -121.5 36.5z
M155 -183l98 123h55l-81 -154z" />
    <glyph glyph-name="egrave" unicode="&#xe8;" horiz-adv-x="541" 
d="M493 252h-381q0 -86 42 -144t118 -58q57 0 92 25t63 83l55 -27q-38 -75 -88 -107t-122 -32q-65 0 -116 34t-79.5 93.5t-28.5 132.5q0 75 28 134t79 92.5t117 33.5q64 0 114.5 -29t78.5 -81.5t28 -121.5v-28zM429 310q-9 67 -49.5 105.5t-107.5 38.5q-56 0 -98.5 -37
t-56.5 -107h312zM134 700h93l70 -140h-50z" />
    <glyph glyph-name="eacute" unicode="&#xe9;" horiz-adv-x="541" 
d="M493 252h-381q0 -86 42 -144t118 -58q57 0 92 25t63 83l55 -27q-38 -75 -88 -107t-122 -32q-65 0 -116 34t-79.5 93.5t-28.5 132.5q0 75 28 134t79 92.5t117 33.5q64 0 114.5 -29t78.5 -81.5t28 -121.5v-28zM429 310q-9 67 -49.5 105.5t-107.5 38.5q-56 0 -98.5 -37
t-56.5 -107h312zM317 700h93l-113 -140h-50z" />
    <glyph glyph-name="ecircumflex" unicode="&#xea;" horiz-adv-x="541" 
d="M493 252h-381q0 -86 42 -144t118 -58q57 0 92 25t63 83l55 -27q-38 -75 -88 -107t-122 -32q-65 0 -116 34t-79.5 93.5t-28.5 132.5q0 75 28 134t79 92.5t117 33.5q64 0 114.5 -29t78.5 -81.5t28 -121.5v-28zM429 310q-9 67 -49.5 105.5t-107.5 38.5q-56 0 -98.5 -37
t-56.5 -107h312zM261 700h22l134 -140h-72l-73 78l-73 -78h-72z" />
    <glyph glyph-name="edieresis" unicode="&#xeb;" horiz-adv-x="541" 
d="M493 252h-381q0 -86 42 -144t118 -58q57 0 92 25t63 83l55 -27q-38 -75 -88 -107t-122 -32q-65 0 -116 34t-79.5 93.5t-28.5 132.5q0 75 28 134t79 92.5t117 33.5q64 0 114.5 -29t78.5 -81.5t28 -121.5v-28zM429 310q-9 67 -49.5 105.5t-107.5 38.5q-56 0 -98.5 -37
t-56.5 -107h312zM160 604q-14 14 -14 34q0 21 14 35.5t35 14.5t35 -14.5t14 -35.5q0 -20 -14 -34t-35 -14t-35 14zM314 604q-14 14 -14 34q0 21 14 35.5t34 14.5q21 0 35.5 -14.5t14.5 -35.5q0 -20 -14.5 -34t-35.5 -14q-20 0 -34 14z" />
    <glyph glyph-name="igrave" unicode="&#xec;" horiz-adv-x="218" 
d="M78 504h62v-504h-62v504zM-29 700h93l70 -140h-50z" />
    <glyph glyph-name="iacute" unicode="&#xed;" horiz-adv-x="218" 
d="M78 504h62v-504h-62v504zM154 700h93l-113 -140h-50z" />
    <glyph glyph-name="icircumflex" unicode="&#xee;" horiz-adv-x="218" 
d="M78 504h62v-504h-62v504zM98 700h22l134 -140h-72l-73 78l-73 -78h-72z" />
    <glyph glyph-name="idieresis" unicode="&#xef;" horiz-adv-x="218" 
d="M78 504h62v-504h-62v504zM-3 604q-14 14 -14 34q0 21 14 35.5t35 14.5t35 -14.5t14 -35.5q0 -20 -14 -34t-35 -14t-35 14zM151 604q-14 14 -14 34q0 21 14 35.5t34 14.5q21 0 35.5 -14.5t14.5 -35.5q0 -20 -14.5 -34t-35.5 -14q-20 0 -34 14z" />
    <glyph glyph-name="eth" unicode="&#xf0;" horiz-adv-x="558" 
d="M155.5 28.5q-52.5 36.5 -80 96.5t-27.5 127t27.5 127t80 96.5t123.5 36.5q39 0 75.5 -15.5t60.5 -41.5q-13 39 -49 81.5t-85 79.5l-44 -65l-42 30l44 64q-40 25 -81 42l29 43q44 -20 82 -41l38 56l42 -30l-37 -54q102 -70 150 -170t48 -239q0 -67 -27.5 -127t-80 -96.5
t-123.5 -36.5t-123.5 36.5zM370.5 78.5q37.5 28.5 56 74.5t18.5 99t-18.5 99t-56 74.5t-91.5 28.5t-91.5 -28.5t-56 -74.5t-18.5 -99t18.5 -99t56 -74.5t91.5 -28.5t91.5 28.5z" />
    <glyph glyph-name="ntilde" unicode="&#xf1;" horiz-adv-x="546" 
d="M78 504h62v-105q26 51 72.5 82t100.5 31q72 0 113.5 -43.5t41.5 -122.5v-346h-62v338q0 56 -25.5 86t-77.5 30q-46 0 -83 -28.5t-58.5 -81.5t-21.5 -123v-221h-62v504zM115 618q18 31 44 50t55 19q24 0 41 -6t36 -17q18 -10 29 -14t25 -4q32 0 62 41l45 -36
q-18 -31 -44 -50t-55 -19q-24 0 -41 6t-36 17q-18 10 -29 14t-25 4q-32 0 -62 -41z" />
    <glyph glyph-name="ograve" unicode="&#xf2;" horiz-adv-x="568" 
d="M159.5 28.5q-53.5 36.5 -82.5 96.5t-29 127t29 127t82.5 96.5t124.5 36.5t124.5 -36.5t82.5 -96.5t29 -127t-29 -127t-82.5 -96.5t-124.5 -36.5t-124.5 36.5zM376.5 78.5q38.5 28.5 58.5 75t20 98.5t-20 98.5t-58.5 75t-92.5 28.5t-92.5 -28.5t-58.5 -75t-20 -98.5
t20 -98.5t58.5 -75t92.5 -28.5t92.5 28.5zM146 700h93l70 -140h-50z" />
    <glyph glyph-name="oacute" unicode="&#xf3;" horiz-adv-x="568" 
d="M159.5 28.5q-53.5 36.5 -82.5 96.5t-29 127t29 127t82.5 96.5t124.5 36.5t124.5 -36.5t82.5 -96.5t29 -127t-29 -127t-82.5 -96.5t-124.5 -36.5t-124.5 36.5zM376.5 78.5q38.5 28.5 58.5 75t20 98.5t-20 98.5t-58.5 75t-92.5 28.5t-92.5 -28.5t-58.5 -75t-20 -98.5
t20 -98.5t58.5 -75t92.5 -28.5t92.5 28.5zM329 700h93l-113 -140h-50z" />
    <glyph glyph-name="ocircumflex" unicode="&#xf4;" horiz-adv-x="568" 
d="M159.5 28.5q-53.5 36.5 -82.5 96.5t-29 127t29 127t82.5 96.5t124.5 36.5t124.5 -36.5t82.5 -96.5t29 -127t-29 -127t-82.5 -96.5t-124.5 -36.5t-124.5 36.5zM376.5 78.5q38.5 28.5 58.5 75t20 98.5t-20 98.5t-58.5 75t-92.5 28.5t-92.5 -28.5t-58.5 -75t-20 -98.5
t20 -98.5t58.5 -75t92.5 -28.5t92.5 28.5zM273 700h22l134 -140h-72l-73 78l-73 -78h-72z" />
    <glyph glyph-name="otilde" unicode="&#xf5;" horiz-adv-x="568" 
d="M159.5 28.5q-53.5 36.5 -82.5 96.5t-29 127t29 127t82.5 96.5t124.5 36.5t124.5 -36.5t82.5 -96.5t29 -127t-29 -127t-82.5 -96.5t-124.5 -36.5t-124.5 36.5zM376.5 78.5q38.5 28.5 58.5 75t20 98.5t-20 98.5t-58.5 75t-92.5 28.5t-92.5 -28.5t-58.5 -75t-20 -98.5
t20 -98.5t58.5 -75t92.5 -28.5t92.5 28.5zM115 618q18 31 44 50t55 19q24 0 41 -6t36 -17q18 -10 29 -14t25 -4q32 0 62 41l45 -36q-18 -31 -44 -50t-55 -19q-24 0 -41 6t-36 17q-18 10 -29 14t-25 4q-32 0 -62 -41z" />
    <glyph glyph-name="odieresis" unicode="&#xf6;" horiz-adv-x="568" 
d="M159.5 28.5q-53.5 36.5 -82.5 96.5t-29 127t29 127t82.5 96.5t124.5 36.5t124.5 -36.5t82.5 -96.5t29 -127t-29 -127t-82.5 -96.5t-124.5 -36.5t-124.5 36.5zM376.5 78.5q38.5 28.5 58.5 75t20 98.5t-20 98.5t-58.5 75t-92.5 28.5t-92.5 -28.5t-58.5 -75t-20 -98.5
t20 -98.5t58.5 -75t92.5 -28.5t92.5 28.5zM172 604q-14 14 -14 34q0 21 14 35.5t35 14.5t35 -14.5t14 -35.5q0 -20 -14 -34t-35 -14t-35 14zM326 604q-14 14 -14 34q0 21 14 35.5t34 14.5q21 0 35.5 -14.5t14.5 -35.5q0 -20 -14.5 -34t-35.5 -14q-20 0 -34 14z" />
    <glyph glyph-name="divide" unicode="&#xf7;" horiz-adv-x="550" 
d="M237.5 462.5q-14.5 14.5 -14.5 36.5t14.5 36.5t36.5 14.5t36.5 -14.5t14.5 -36.5t-14.5 -36.5t-36.5 -14.5t-36.5 14.5zM70 344h410v-56h-410v56zM237.5 96.5q-14.5 14.5 -14.5 36.5t14.5 36.5t36.5 14.5t36.5 -14.5t14.5 -36.5t-14.5 -36.5t-36.5 -14.5t-36.5 14.5z" />
    <glyph glyph-name="oslash" unicode="&#xf8;" horiz-adv-x="568" 
d="M460 428q29 -36 44.5 -81.5t15.5 -94.5q0 -67 -29 -127t-82.5 -96.5t-124.5 -36.5q-77 0 -134 43l-56 -71l-46 35l60 77q-29 36 -44.5 81.5t-15.5 94.5q0 67 29 127t82.5 96.5t124.5 36.5q77 0 134 -43l56 71l46 -35zM148 125l233 297q-42 32 -97 32q-54 0 -92.5 -28.5
t-58.5 -75t-20 -98.5q0 -71 35 -127zM420 379l-233 -297q42 -32 97 -32q54 0 92.5 28.5t58.5 75t20 98.5q0 71 -35 127z" />
    <glyph glyph-name="ugrave" unicode="&#xf9;" horiz-adv-x="546" 
d="M119.5 35.5q-41.5 43.5 -41.5 122.5v346h62v-338q0 -56 25.5 -86t77.5 -30q46 0 83 28.5t58.5 81.5t21.5 123v221h62v-504h-62v105q-26 -51 -72.5 -82t-100.5 -31q-72 0 -113.5 43.5zM135 700h93l70 -140h-50z" />
    <glyph glyph-name="uacute" unicode="&#xfa;" horiz-adv-x="546" 
d="M119.5 35.5q-41.5 43.5 -41.5 122.5v346h62v-338q0 -56 25.5 -86t77.5 -30q46 0 83 28.5t58.5 81.5t21.5 123v221h62v-504h-62v105q-26 -51 -72.5 -82t-100.5 -31q-72 0 -113.5 43.5zM318 700h93l-113 -140h-50z" />
    <glyph glyph-name="ucircumflex" unicode="&#xfb;" horiz-adv-x="546" 
d="M119.5 35.5q-41.5 43.5 -41.5 122.5v346h62v-338q0 -56 25.5 -86t77.5 -30q46 0 83 28.5t58.5 81.5t21.5 123v221h62v-504h-62v105q-26 -51 -72.5 -82t-100.5 -31q-72 0 -113.5 43.5zM262 700h22l134 -140h-72l-73 78l-73 -78h-72z" />
    <glyph glyph-name="udieresis" unicode="&#xfc;" horiz-adv-x="546" 
d="M119.5 35.5q-41.5 43.5 -41.5 122.5v346h62v-338q0 -56 25.5 -86t77.5 -30q46 0 83 28.5t58.5 81.5t21.5 123v221h62v-504h-62v105q-26 -51 -72.5 -82t-100.5 -31q-72 0 -113.5 43.5zM161 604q-14 14 -14 34q0 21 14 35.5t35 14.5t35 -14.5t14 -35.5q0 -20 -14 -34
t-35 -14t-35 14zM315 604q-14 14 -14 34q0 21 14 35.5t34 14.5q21 0 35.5 -14.5t14.5 -35.5q0 -20 -14.5 -34t-35.5 -14q-20 0 -34 14z" />
    <glyph glyph-name="yacute" unicode="&#xfd;" horiz-adv-x="440" 
d="M430 504l-250 -708h-62l72 208l-180 500h65l149 -404l141 404h65zM265 700h93l-113 -140h-50z" />
    <glyph glyph-name="thorn" unicode="&#xfe;" horiz-adv-x="572" 
d="M78 708h62v-245v-30q22 32 66 55.5t93 23.5q71 0 122 -34.5t77 -93.5t26 -132t-26 -132t-77 -93.5t-122 -34.5q-46 0 -90 21t-69 58v-28v-247h-62v912zM416 107q43 57 43 145q0 89 -42.5 145.5t-120.5 56.5t-120 -56.5t-42 -145.5q0 -88 42.5 -145t119.5 -57t120 57z" />
    <glyph glyph-name="ydieresis" unicode="&#xff;" horiz-adv-x="440" 
d="M430 504l-250 -708h-62l72 208l-180 500h65l149 -404l141 404h65zM108 604q-14 14 -14 34q0 21 14 35.5t35 14.5t35 -14.5t14 -35.5q0 -20 -14 -34t-35 -14t-35 14zM262 604q-14 14 -14 34q0 21 14 35.5t34 14.5q21 0 35.5 -14.5t14.5 -35.5q0 -20 -14.5 -34t-35.5 -14
q-20 0 -34 14z" />
    <glyph glyph-name="Amacron" unicode="&#x100;" horiz-adv-x="588" 
d="M265 700h58l253 -700h-68l-70 199h-288l-70 -199h-68zM417 261l-123 349l-123 -349h246zM173 856h241v-56h-241v56z" />
    <glyph glyph-name="amacron" unicode="&#x101;" horiz-adv-x="494" 
d="M94 29.5q-44 37.5 -44 115.5q0 82 60.5 123.5t168.5 41.5h87v22q0 63 -31 92.5t-85 29.5q-49 0 -78.5 -26t-41.5 -68l-60 14q10 63 60.5 100.5t119.5 37.5q77 0 127.5 -47.5t50.5 -130.5v-334h-47l-15 78q-23 -39 -62.5 -62.5t-96.5 -23.5q-69 0 -113 37.5zM284 68.5
q35 18.5 58.5 59.5t23.5 105v19h-85q-84 0 -125 -28t-41 -79q0 -46 26 -70.5t72 -24.5q36 0 71 18.5zM129 660h241v-56h-241v56z" />
    <glyph glyph-name="Abreve" unicode="&#x102;" horiz-adv-x="588" 
d="M265 700h58l253 -700h-68l-70 199h-288l-70 -199h-68zM417 261l-123 349l-123 -349h246zM217.5 817.5q-28.5 30.5 -28.5 78.5h51q0 -26 14 -42.5t40 -16.5q27 0 40.5 16.5t13.5 42.5h51q0 -48 -28 -78.5t-77 -30.5q-48 0 -76.5 30.5z" />
    <glyph glyph-name="abreve" unicode="&#x103;" horiz-adv-x="494" 
d="M94 29.5q-44 37.5 -44 115.5q0 82 60.5 123.5t168.5 41.5h87v22q0 63 -31 92.5t-85 29.5q-49 0 -78.5 -26t-41.5 -68l-60 14q10 63 60.5 100.5t119.5 37.5q77 0 127.5 -47.5t50.5 -130.5v-334h-47l-15 78q-23 -39 -62.5 -62.5t-96.5 -23.5q-69 0 -113 37.5zM284 68.5
q35 18.5 58.5 59.5t23.5 105v19h-85q-84 0 -125 -28t-41 -79q0 -46 26 -70.5t72 -24.5q36 0 71 18.5zM173.5 621.5q-28.5 30.5 -28.5 78.5h51q0 -26 14 -42.5t40 -16.5q27 0 40.5 16.5t13.5 42.5h51q0 -48 -28 -78.5t-77 -30.5q-48 0 -76.5 30.5z" />
    <glyph glyph-name="Aogonek" unicode="&#x104;" horiz-adv-x="588" 
d="M265 700h58l253 -700h-68l-70 199h-288l-70 -199h-68zM417 261l-123 349l-123 -349h246zM485.5 -148q-21.5 21 -21.5 56q0 25 13 49.5t37 42.5h62q-30 -27 -43 -44.5t-13 -35.5q0 -16 9 -24.5t24 -8.5t27 8l16 -50q-13 -8 -24.5 -11t-28.5 -3q-36 0 -57.5 21z" />
    <glyph glyph-name="aogonek" unicode="&#x105;" horiz-adv-x="494" 
d="M448 -155q-13 -8 -24.5 -11t-28.5 -3q-36 0 -57.5 21t-21.5 56q0 55 65 92l-15 78q-23 -39 -62.5 -62.5t-96.5 -23.5q-69 0 -113 37.5t-44 115.5q0 82 60.5 123.5t168.5 41.5h87v22q0 63 -31 92.5t-85 29.5q-49 0 -78.5 -26t-41.5 -68l-60 14q10 63 60.5 100.5
t119.5 37.5q77 0 127.5 -47.5t50.5 -130.5v-334q-30 -27 -43 -44.5t-13 -35.5q0 -16 9 -24.5t24 -8.5t27 8zM366 252h-85q-84 0 -125 -28t-41 -79q0 -46 26 -70.5t72 -24.5q36 0 71 18.5t58.5 59.5t23.5 105v19z" />
    <glyph glyph-name="Cacute" unicode="&#x106;" horiz-adv-x="675" 
d="M208.5 32q-70.5 40 -113.5 121t-43 197t43 197t113.5 121t152.5 40q99 0 168 -53.5t96 -146.5l-65 -19q-20 75 -70.5 116t-128.5 41q-71 0 -125 -34.5t-84.5 -101.5t-30.5 -160t30.5 -160t84.5 -101.5t125 -34.5q78 0 128.5 41t70.5 116l65 -19q-27 -93 -96 -146.5
t-168 -53.5q-82 0 -152.5 40zM406 896h93l-113 -140h-50z" />
    <glyph glyph-name="cacute" unicode="&#x107;" horiz-adv-x="516" 
d="M149.5 28.5q-50.5 36.5 -76 96t-25.5 127.5t25.5 127.5t76 96t121.5 36.5q151 0 203 -139l-56 -22q-40 103 -147 103q-77 0 -117.5 -57.5t-40.5 -144.5t40.5 -144.5t117.5 -57.5q55 0 90.5 26t56.5 77l56 -22q-26 -68 -77.5 -103.5t-125.5 -35.5q-71 0 -121.5 36.5z
M317 700h93l-113 -140h-50z" />
    <glyph glyph-name="Ccircumflex" unicode="&#x108;" horiz-adv-x="675" 
d="M208.5 32q-70.5 40 -113.5 121t-43 197t43 197t113.5 121t152.5 40q99 0 168 -53.5t96 -146.5l-65 -19q-20 75 -70.5 116t-128.5 41q-71 0 -125 -34.5t-84.5 -101.5t-30.5 -160t30.5 -160t84.5 -101.5t125 -34.5q78 0 128.5 41t70.5 116l65 -19q-27 -93 -96 -146.5
t-168 -53.5q-82 0 -152.5 40zM350 896h22l134 -140h-72l-73 78l-73 -78h-72z" />
    <glyph glyph-name="ccircumflex" unicode="&#x109;" horiz-adv-x="516" 
d="M149.5 28.5q-50.5 36.5 -76 96t-25.5 127.5t25.5 127.5t76 96t121.5 36.5q151 0 203 -139l-56 -22q-40 103 -147 103q-77 0 -117.5 -57.5t-40.5 -144.5t40.5 -144.5t117.5 -57.5q55 0 90.5 26t56.5 77l56 -22q-26 -68 -77.5 -103.5t-125.5 -35.5q-71 0 -121.5 36.5z
M261 700h22l134 -140h-72l-73 78l-73 -78h-72z" />
    <glyph glyph-name="Cdotaccent" unicode="&#x10a;" horiz-adv-x="675" 
d="M208.5 32q-70.5 40 -113.5 121t-43 197t43 197t113.5 121t152.5 40q99 0 168 -53.5t96 -146.5l-65 -19q-20 75 -70.5 116t-128.5 41q-71 0 -125 -34.5t-84.5 -101.5t-30.5 -160t30.5 -160t84.5 -101.5t125 -34.5q78 0 128.5 41t70.5 116l65 -19q-27 -93 -96 -146.5
t-168 -53.5q-82 0 -152.5 40zM324.5 808.5q-14.5 14.5 -14.5 36.5t14.5 36.5t36.5 14.5t36.5 -14.5t14.5 -36.5t-14.5 -36.5t-36.5 -14.5t-36.5 14.5z" />
    <glyph glyph-name="cdotaccent" unicode="&#x10b;" horiz-adv-x="516" 
d="M149.5 28.5q-50.5 36.5 -76 96t-25.5 127.5t25.5 127.5t76 96t121.5 36.5q151 0 203 -139l-56 -22q-40 103 -147 103q-77 0 -117.5 -57.5t-40.5 -144.5t40.5 -144.5t117.5 -57.5q55 0 90.5 26t56.5 77l56 -22q-26 -68 -77.5 -103.5t-125.5 -35.5q-71 0 -121.5 36.5z
M235.5 612.5q-14.5 14.5 -14.5 36.5t14.5 36.5t36.5 14.5t36.5 -14.5t14.5 -36.5t-14.5 -36.5t-36.5 -14.5t-36.5 14.5z" />
    <glyph glyph-name="Ccaron" unicode="&#x10c;" horiz-adv-x="675" 
d="M208.5 32q-70.5 40 -113.5 121t-43 197t43 197t113.5 121t152.5 40q99 0 168 -53.5t96 -146.5l-65 -19q-20 75 -70.5 116t-128.5 41q-71 0 -125 -34.5t-84.5 -101.5t-30.5 -160t30.5 -160t84.5 -101.5t125 -34.5q78 0 128.5 41t70.5 116l65 -19q-27 -93 -96 -146.5
t-168 -53.5q-82 0 -152.5 40zM216 896h72l73 -78l73 78h72l-134 -140h-22z" />
    <glyph glyph-name="ccaron" unicode="&#x10d;" horiz-adv-x="516" 
d="M149.5 28.5q-50.5 36.5 -76 96t-25.5 127.5t25.5 127.5t76 96t121.5 36.5q151 0 203 -139l-56 -22q-40 103 -147 103q-77 0 -117.5 -57.5t-40.5 -144.5t40.5 -144.5t117.5 -57.5q55 0 90.5 26t56.5 77l56 -22q-26 -68 -77.5 -103.5t-125.5 -35.5q-71 0 -121.5 36.5z
M127 700h72l73 -78l73 78h72l-134 -140h-22z" />
    <glyph glyph-name="Dcaron" unicode="&#x10e;" horiz-adv-x="644" 
d="M90 700h184q90 0 162.5 -42t114 -121.5t41.5 -186.5t-41.5 -186.5t-114 -121.5t-162.5 -42h-184v700zM275 62q67 0 123.5 31t90.5 96t34 161t-34 161t-90.5 96t-123.5 31h-119v-576h119zM94 896h72l73 -78l73 78h72l-134 -140h-22z" />
    <glyph glyph-name="dcaron" unicode="&#x10f;" horiz-adv-x="685" 
d="M151 26.5q-51 34.5 -77 93.5t-26 132t26 132t77 93.5t122 34.5q50 0 91 -20.5t68 -58.5v30v245h62v-708h-62v42v30q-23 -33 -67.5 -56.5t-91.5 -23.5q-71 0 -122 34.5zM396 106.5q42 56.5 42 145.5q0 88 -42.5 145t-119.5 57t-120 -57t-43 -145q0 -89 42.5 -145.5
t120.5 -56.5t120 56.5zM606 708h79l-66 -166h-43z" />
    <glyph glyph-name="Dcroat" unicode="&#x110;" horiz-adv-x="644" 
d="M436.5 658q72.5 -42 114 -121.5t41.5 -186.5t-41.5 -186.5t-114 -121.5t-162.5 -42h-184v319h-70v62h70v319h184q90 0 162.5 -42zM398.5 93q56.5 31 90.5 96t34 161t-34 161t-90.5 96t-123.5 31h-119v-257h98v-62h-98v-257h119q67 0 123.5 31z" />
    <glyph glyph-name="dcroat" unicode="&#x111;" horiz-adv-x="572" 
d="M567 578h-73v-578h-62v42v30q-23 -33 -67.5 -56.5t-91.5 -23.5q-71 0 -122 34.5t-77 93.5t-26 132t26 132t77 93.5t122 34.5q50 0 91 -20.5t68 -58.5v30v115h-135v56h135v74h62v-74h73v-56zM396 106.5q42 56.5 42 145.5q0 88 -42.5 145t-119.5 57t-120 -57t-43 -145
q0 -89 42.5 -145.5t120.5 -56.5t120 56.5z" />
    <glyph glyph-name="Emacron" unicode="&#x112;" horiz-adv-x="551" 
d="M90 700h395v-62h-329v-234h269v-62h-269v-280h339v-62h-405v700zM175 856h241v-56h-241v56z" />
    <glyph glyph-name="emacron" unicode="&#x113;" horiz-adv-x="541" 
d="M493 252h-381q0 -86 42 -144t118 -58q57 0 92 25t63 83l55 -27q-38 -75 -88 -107t-122 -32q-65 0 -116 34t-79.5 93.5t-28.5 132.5q0 75 28 134t79 92.5t117 33.5q64 0 114.5 -29t78.5 -81.5t28 -121.5v-28zM429 310q-9 67 -49.5 105.5t-107.5 38.5q-56 0 -98.5 -37
t-56.5 -107h312zM151 660h241v-56h-241v56z" />
    <glyph glyph-name="Ebreve" unicode="&#x114;" horiz-adv-x="551" 
d="M90 700h395v-62h-329v-234h269v-62h-269v-280h339v-62h-405v700zM219.5 817.5q-28.5 30.5 -28.5 78.5h51q0 -26 14 -42.5t40 -16.5q27 0 40.5 16.5t13.5 42.5h51q0 -48 -28 -78.5t-77 -30.5q-48 0 -76.5 30.5z" />
    <glyph glyph-name="ebreve" unicode="&#x115;" horiz-adv-x="541" 
d="M493 252h-381q0 -86 42 -144t118 -58q57 0 92 25t63 83l55 -27q-38 -75 -88 -107t-122 -32q-65 0 -116 34t-79.5 93.5t-28.5 132.5q0 75 28 134t79 92.5t117 33.5q64 0 114.5 -29t78.5 -81.5t28 -121.5v-28zM429 310q-9 67 -49.5 105.5t-107.5 38.5q-56 0 -98.5 -37
t-56.5 -107h312zM195.5 621.5q-28.5 30.5 -28.5 78.5h51q0 -26 14 -42.5t40 -16.5q27 0 40.5 16.5t13.5 42.5h51q0 -48 -28 -78.5t-77 -30.5q-48 0 -76.5 30.5z" />
    <glyph glyph-name="Edotaccent" unicode="&#x116;" horiz-adv-x="551" 
d="M90 700h395v-62h-329v-234h269v-62h-269v-280h339v-62h-405v700zM259.5 808.5q-14.5 14.5 -14.5 36.5t14.5 36.5t36.5 14.5t36.5 -14.5t14.5 -36.5t-14.5 -36.5t-36.5 -14.5t-36.5 14.5z" />
    <glyph glyph-name="edotaccent" unicode="&#x117;" horiz-adv-x="541" 
d="M493 252h-381q0 -86 42 -144t118 -58q57 0 92 25t63 83l55 -27q-38 -75 -88 -107t-122 -32q-65 0 -116 34t-79.5 93.5t-28.5 132.5q0 75 28 134t79 92.5t117 33.5q64 0 114.5 -29t78.5 -81.5t28 -121.5v-28zM429 310q-9 67 -49.5 105.5t-107.5 38.5q-56 0 -98.5 -37
t-56.5 -107h312zM235.5 612.5q-14.5 14.5 -14.5 36.5t14.5 36.5t36.5 14.5t36.5 -14.5t14.5 -36.5t-14.5 -36.5t-36.5 -14.5t-36.5 14.5z" />
    <glyph glyph-name="Eogonek" unicode="&#x118;" horiz-adv-x="551" 
d="M90 700h395v-62h-329v-234h269v-62h-269v-280h339v-62h-405v700zM404.5 -148q-21.5 21 -21.5 56q0 25 13 49.5t37 42.5h62q-30 -27 -43 -44.5t-13 -35.5q0 -16 9 -24.5t24 -8.5t27 8l16 -50q-13 -8 -24.5 -11t-28.5 -3q-36 0 -57.5 21z" />
    <glyph glyph-name="eogonek" unicode="&#x119;" horiz-adv-x="541" 
d="M493 252h-381q0 -86 42 -144t118 -58q57 0 92 25t63 83l55 -27q-29 -57 -63.5 -88.5t-79.5 -42.5q-30 -27 -43 -44.5t-13 -35.5q0 -16 9 -24.5t24 -8.5t27 8l16 -50q-13 -8 -24.5 -11t-28.5 -3q-36 0 -57.5 21t-21.5 56q0 22 10.5 44t29.5 40q-64 1 -114 35.5t-77.5 93.5
t-27.5 131q0 75 28 134t79 92.5t117 33.5q64 0 114.5 -29t78.5 -81.5t28 -121.5v-28zM429 310q-9 67 -49.5 105.5t-107.5 38.5q-56 0 -98.5 -37t-56.5 -107h312z" />
    <glyph glyph-name="Ecaron" unicode="&#x11a;" horiz-adv-x="551" 
d="M90 700h395v-62h-329v-234h269v-62h-269v-280h339v-62h-405v700zM151 896h72l73 -78l73 78h72l-134 -140h-22z" />
    <glyph glyph-name="ecaron" unicode="&#x11b;" horiz-adv-x="541" 
d="M493 252h-381q0 -86 42 -144t118 -58q57 0 92 25t63 83l55 -27q-38 -75 -88 -107t-122 -32q-65 0 -116 34t-79.5 93.5t-28.5 132.5q0 75 28 134t79 92.5t117 33.5q64 0 114.5 -29t78.5 -81.5t28 -121.5v-28zM429 310q-9 67 -49.5 105.5t-107.5 38.5q-56 0 -98.5 -37
t-56.5 -107h312zM127 700h72l73 -78l73 78h72l-134 -140h-22z" />
    <glyph glyph-name="Gcircumflex" unicode="&#x11c;" horiz-adv-x="695" 
d="M207 33q-70 41 -112.5 121.5t-42.5 195.5t42.5 195.5t112.5 121.5t152 41q103 0 173.5 -54.5t96.5 -149.5l-65 -18q-24 77 -76.5 118.5t-128.5 41.5q-70 0 -123.5 -34.5t-84 -101t-30.5 -160.5t30.5 -160.5t84 -101t123.5 -34.5q100 0 153.5 60.5t54.5 176.5h-162v62h228
v-353h-58l-8 108q-28 -54 -83.5 -85t-124.5 -31q-82 0 -152 41zM348 896h22l134 -140h-72l-73 78l-73 -78h-72z" />
    <glyph glyph-name="gcircumflex" unicode="&#x11d;" horiz-adv-x="481" 
d="M96 -168q-56 44 -56 122q0 35 14.5 62t37.5 44q-40 24 -40 82q0 30 17 53.5t45 36.5q-18 22 -28 50.5t-10 60.5q0 50 22.5 88.5t61.5 59.5t87 21q46 0 87 -23l90 51l29 -53l-70 -39q35 -45 35 -105q0 -50 -22.5 -88.5t-61.5 -59.5t-87 -21q-54 0 -94 24q-41 -18 -41 -56
q0 -25 17.5 -36.5t44.5 -11.5h130q69 0 110 -32.5t41 -99.5q0 -89 -56.5 -131.5t-150.5 -42.5q-96 0 -152 44zM324.5 259q31.5 31 31.5 84t-31.5 84t-77.5 31t-77.5 -31t-31.5 -84t31.5 -84t77.5 -31t77.5 31zM357 -125.5q38 30.5 38 79.5q0 86 -98 86h-103q-27 0 -49 3
q-45 -29 -45 -91q0 -50 37.5 -79t110.5 -29q71 0 109 30.5zM237 700h22l134 -140h-72l-73 78l-73 -78h-72z" />
    <glyph glyph-name="Gbreve" unicode="&#x11e;" horiz-adv-x="695" 
d="M207 33q-70 41 -112.5 121.5t-42.5 195.5t42.5 195.5t112.5 121.5t152 41q103 0 173.5 -54.5t96.5 -149.5l-65 -18q-24 77 -76.5 118.5t-128.5 41.5q-70 0 -123.5 -34.5t-84 -101t-30.5 -160.5t30.5 -160.5t84 -101t123.5 -34.5q100 0 153.5 60.5t54.5 176.5h-162v62h228
v-353h-58l-8 108q-28 -54 -83.5 -85t-124.5 -31q-82 0 -152 41zM282.5 817.5q-28.5 30.5 -28.5 78.5h51q0 -26 14 -42.5t40 -16.5q27 0 40.5 16.5t13.5 42.5h51q0 -48 -28 -78.5t-77 -30.5q-48 0 -76.5 30.5z" />
    <glyph glyph-name="gbreve" unicode="&#x11f;" horiz-adv-x="481" 
d="M96 -168q-56 44 -56 122q0 35 14.5 62t37.5 44q-40 24 -40 82q0 30 17 53.5t45 36.5q-18 22 -28 50.5t-10 60.5q0 50 22.5 88.5t61.5 59.5t87 21q46 0 87 -23l90 51l29 -53l-70 -39q35 -45 35 -105q0 -50 -22.5 -88.5t-61.5 -59.5t-87 -21q-54 0 -94 24q-41 -18 -41 -56
q0 -25 17.5 -36.5t44.5 -11.5h130q69 0 110 -32.5t41 -99.5q0 -89 -56.5 -131.5t-150.5 -42.5q-96 0 -152 44zM324.5 259q31.5 31 31.5 84t-31.5 84t-77.5 31t-77.5 -31t-31.5 -84t31.5 -84t77.5 -31t77.5 31zM357 -125.5q38 30.5 38 79.5q0 86 -98 86h-103q-27 0 -49 3
q-45 -29 -45 -91q0 -50 37.5 -79t110.5 -29q71 0 109 30.5zM171.5 621.5q-28.5 30.5 -28.5 78.5h51q0 -26 14 -42.5t40 -16.5q27 0 40.5 16.5t13.5 42.5h51q0 -48 -28 -78.5t-77 -30.5q-48 0 -76.5 30.5z" />
    <glyph glyph-name="Gdotaccent" unicode="&#x120;" horiz-adv-x="695" 
d="M207 33q-70 41 -112.5 121.5t-42.5 195.5t42.5 195.5t112.5 121.5t152 41q103 0 173.5 -54.5t96.5 -149.5l-65 -18q-24 77 -76.5 118.5t-128.5 41.5q-70 0 -123.5 -34.5t-84 -101t-30.5 -160.5t30.5 -160.5t84 -101t123.5 -34.5q100 0 153.5 60.5t54.5 176.5h-162v62h228
v-353h-58l-8 108q-28 -54 -83.5 -85t-124.5 -31q-82 0 -152 41zM322.5 808.5q-14.5 14.5 -14.5 36.5t14.5 36.5t36.5 14.5t36.5 -14.5t14.5 -36.5t-14.5 -36.5t-36.5 -14.5t-36.5 14.5z" />
    <glyph glyph-name="gdotaccent" unicode="&#x121;" horiz-adv-x="481" 
d="M96 -168q-56 44 -56 122q0 35 14.5 62t37.5 44q-40 24 -40 82q0 30 17 53.5t45 36.5q-18 22 -28 50.5t-10 60.5q0 50 22.5 88.5t61.5 59.5t87 21q46 0 87 -23l90 51l29 -53l-70 -39q35 -45 35 -105q0 -50 -22.5 -88.5t-61.5 -59.5t-87 -21q-54 0 -94 24q-41 -18 -41 -56
q0 -25 17.5 -36.5t44.5 -11.5h130q69 0 110 -32.5t41 -99.5q0 -89 -56.5 -131.5t-150.5 -42.5q-96 0 -152 44zM324.5 259q31.5 31 31.5 84t-31.5 84t-77.5 31t-77.5 -31t-31.5 -84t31.5 -84t77.5 -31t77.5 31zM357 -125.5q38 30.5 38 79.5q0 86 -98 86h-103q-27 0 -49 3
q-45 -29 -45 -91q0 -50 37.5 -79t110.5 -29q71 0 109 30.5zM211.5 612.5q-14.5 14.5 -14.5 36.5t14.5 36.5t36.5 14.5t36.5 -14.5t14.5 -36.5t-14.5 -36.5t-36.5 -14.5t-36.5 14.5z" />
    <glyph glyph-name="uni0122" unicode="&#x122;" horiz-adv-x="695" 
d="M207 33q-70 41 -112.5 121.5t-42.5 195.5t42.5 195.5t112.5 121.5t152 41q103 0 173.5 -54.5t96.5 -149.5l-65 -18q-24 77 -76.5 118.5t-128.5 41.5q-70 0 -123.5 -34.5t-84 -101t-30.5 -160.5t30.5 -160.5t84 -101t123.5 -34.5q100 0 153.5 60.5t54.5 176.5h-162v62h228
v-353h-58l-8 108q-28 -54 -83.5 -85t-124.5 -31q-82 0 -152 41zM323 -52h88l-91 -166h-38z" />
    <glyph glyph-name="uni0123" unicode="&#x123;" horiz-adv-x="481" 
d="M96 -168q-56 44 -56 122q0 35 14.5 62t37.5 44q-40 24 -40 82q0 30 17 53.5t45 36.5q-18 22 -28 50.5t-10 60.5q0 50 22.5 88.5t61.5 59.5t87 21q46 0 87 -23l90 51l29 -53l-70 -39q35 -45 35 -105q0 -50 -22.5 -88.5t-61.5 -59.5t-87 -21q-54 0 -94 24q-41 -18 -41 -56
q0 -25 17.5 -36.5t44.5 -11.5h130q69 0 110 -32.5t41 -99.5q0 -89 -56.5 -131.5t-150.5 -42.5q-96 0 -152 44zM324.5 259q31.5 31 31.5 84t-31.5 84t-77.5 31t-77.5 -31t-31.5 -84t31.5 -84t77.5 -31t77.5 31zM357 -125.5q38 30.5 38 79.5q0 86 -98 86h-103q-27 0 -49 3
q-45 -29 -45 -91q0 -50 37.5 -79t110.5 -29q71 0 109 30.5zM286 730h46l-41 -144h-86z" />
    <glyph glyph-name="Hcircumflex" unicode="&#x124;" horiz-adv-x="668" 
d="M90 700h66v-296h356v296h66v-700h-66v342h-356v-342h-66v700zM323 896h22l134 -140h-72l-73 78l-73 -78h-72z" />
    <glyph glyph-name="hcircumflex" unicode="&#x125;" horiz-adv-x="555" 
d="M78 708h62v-314q25 58 75 88t105 30q74 0 115.5 -43.5t41.5 -122.5v-346h-62v338q0 55 -27 85.5t-78 30.5q-46 0 -85 -29.5t-62 -84t-23 -125.5v-215h-62v708zM204 896h22l134 -140h-72l-73 78l-73 -78h-72z" />
    <glyph glyph-name="Hbar" unicode="&#x126;" horiz-adv-x="668" 
d="M647 523h-69v-523h-66v342h-356v-342h-66v523h-69v58h69v119h66v-119h356v119h66v-119h69v-58zM512 523h-356v-119h356v119z" />
    <glyph glyph-name="hbar" unicode="&#x127;" horiz-adv-x="555" 
d="M435.5 468.5q41.5 -43.5 41.5 -122.5v-346h-62v338q0 55 -27 85.5t-78 30.5q-46 0 -85 -29.5t-62 -84t-23 -125.5v-215h-62v578h-73v56h73v74h62v-74h135v-56h-135v-184q25 58 75 88t105 30q74 0 115.5 -43.5z" />
    <glyph glyph-name="Itilde" unicode="&#x128;" horiz-adv-x="246" 
d="M90 700h66v-700h-66v700zM-46 814q18 31 44 50t55 19q24 0 41 -6t36 -17q18 -10 29 -14t25 -4q32 0 62 41l45 -36q-18 -31 -44 -50t-55 -19q-24 0 -41 6t-36 17q-18 10 -29 14t-25 4q-32 0 -62 -41z" />
    <glyph glyph-name="itilde" unicode="&#x129;" horiz-adv-x="218" 
d="M78 504h62v-504h-62v504zM-60 618q18 31 44 50t55 19q24 0 41 -6t36 -17q18 -10 29 -14t25 -4q32 0 62 41l45 -36q-18 -31 -44 -50t-55 -19q-24 0 -41 6t-36 17q-18 10 -29 14t-25 4q-32 0 -62 -41z" />
    <glyph glyph-name="Imacron" unicode="&#x12a;" horiz-adv-x="246" 
d="M90 700h66v-700h-66v700zM2 856h241v-56h-241v56z" />
    <glyph glyph-name="imacron" unicode="&#x12b;" horiz-adv-x="218" 
d="M78 504h62v-504h-62v504zM-12 660h241v-56h-241v56z" />
    <glyph glyph-name="Ibreve" unicode="&#x12c;" horiz-adv-x="246" 
d="M90 700h66v-700h-66v700zM46.5 817.5q-28.5 30.5 -28.5 78.5h51q0 -26 14 -42.5t40 -16.5q27 0 40.5 16.5t13.5 42.5h51q0 -48 -28 -78.5t-77 -30.5q-48 0 -76.5 30.5z" />
    <glyph glyph-name="ibreve" unicode="&#x12d;" horiz-adv-x="218" 
d="M78 504h62v-504h-62v504zM32.5 621.5q-28.5 30.5 -28.5 78.5h51q0 -26 14 -42.5t40 -16.5q27 0 40.5 16.5t13.5 42.5h51q0 -48 -28 -78.5t-77 -30.5q-48 0 -76.5 30.5z" />
    <glyph glyph-name="Iogonek" unicode="&#x12e;" horiz-adv-x="246" 
d="M90 700h66v-700h-66v700zM65.5 -148q-21.5 21 -21.5 56q0 25 13 49.5t37 42.5h62q-30 -27 -43 -44.5t-13 -35.5q0 -16 9 -24.5t24 -8.5t27 8l16 -50q-13 -8 -24.5 -11t-28.5 -3q-36 0 -57.5 21z" />
    <glyph glyph-name="iogonek" unicode="&#x12f;" horiz-adv-x="218" 
d="M78 504h62v-504h-62v504zM72.5 612.5q-14.5 14.5 -14.5 36.5t14.5 36.5t36.5 14.5t36.5 -14.5t14.5 -36.5t-14.5 -36.5t-36.5 -14.5t-36.5 14.5zM49.5 -148q-21.5 21 -21.5 56q0 25 13 49.5t37 42.5h62q-30 -27 -43 -44.5t-13 -35.5q0 -16 9 -24.5t24 -8.5t27 8l16 -50
q-13 -8 -24.5 -11t-28.5 -3q-36 0 -57.5 21z" />
    <glyph glyph-name="Idotaccent" unicode="&#x130;" horiz-adv-x="246" 
d="M90 700h66v-700h-66v700zM86.5 808.5q-14.5 14.5 -14.5 36.5t14.5 36.5t36.5 14.5t36.5 -14.5t14.5 -36.5t-14.5 -36.5t-36.5 -14.5t-36.5 14.5z" />
    <glyph glyph-name="dotlessi" unicode="&#x131;" horiz-adv-x="218" 
d="M78 504h62v-504h-62v504z" />
    <glyph glyph-name="IJ" unicode="&#x132;" horiz-adv-x="749" 
d="M90 700h66v-700h-66v700zM336.5 43.5q-49.5 51.5 -60.5 127.5l68 15q9 -62 41 -97t89 -35q58 0 94.5 36t36.5 108v502h66v-495q0 -67 -27 -115.5t-72 -73t-98 -24.5q-88 0 -137.5 51.5z" />
    <glyph glyph-name="ij" unicode="&#x133;" horiz-adv-x="436" 
d="M78 504h62v-504h-62v504zM72.5 612.5q-14.5 14.5 -14.5 36.5t14.5 36.5t36.5 14.5t36.5 -14.5t14.5 -36.5t-14.5 -36.5t-36.5 -14.5t-36.5 14.5zM219 -154q41 12 59 33.5t18 65.5v559h62v-568q0 -128 -125 -148zM290.5 612.5q-14.5 14.5 -14.5 36.5t14.5 36.5t36.5 14.5
t36.5 -14.5t14.5 -36.5t-14.5 -36.5t-36.5 -14.5t-36.5 14.5z" />
    <glyph glyph-name="Jcircumflex" unicode="&#x134;" horiz-adv-x="503" 
d="M90.5 43.5q-49.5 51.5 -60.5 127.5l68 15q9 -62 41 -97t89 -35q58 0 94.5 36t36.5 108v502h66v-495q0 -67 -27 -115.5t-72 -73t-98 -24.5q-88 0 -137.5 51.5zM380 896h22l134 -140h-72l-73 78l-73 -78h-72z" />
    <glyph glyph-name="jcircumflex" unicode="&#x135;" horiz-adv-x="218" 
d="M1 -154q41 12 59 33.5t18 65.5v559h62v-568q0 -128 -125 -148zM98 700h22l134 -140h-72l-73 78l-73 -78h-72z" />
    <glyph glyph-name="uni0136" unicode="&#x136;" horiz-adv-x="554" 
d="M90 700h66v-299l273 299h84l-287 -314l312 -386h-81l-301 371v-371h-66v700zM254 -52h88l-91 -166h-38z" />
    <glyph glyph-name="uni0137" unicode="&#x137;" horiz-adv-x="459" 
d="M78 708h62v-427l211 223h78l-218 -231l236 -273h-79l-228 265v-265h-62v708zM197 -52h88l-91 -166h-38z" />
    <glyph glyph-name="kgreenlandic" unicode="&#x138;" horiz-adv-x="459" 
d="M78 504h62v-223l211 223h78l-218 -231l236 -273h-79l-228 265v-265h-62v504z" />
    <glyph glyph-name="Lacute" unicode="&#x139;" horiz-adv-x="524" 
d="M90 700h66v-638h328v-62h-394v700zM168 896h93l-113 -140h-50z" />
    <glyph glyph-name="lacute" unicode="&#x13a;" horiz-adv-x="218" 
d="M78 708h62v-708h-62v708zM154 896h93l-113 -140h-50z" />
    <glyph glyph-name="uni013B" unicode="&#x13b;" horiz-adv-x="524" 
d="M90 700h66v-638h328v-62h-394v700zM243 -52h88l-91 -166h-38z" />
    <glyph glyph-name="uni013C" unicode="&#x13c;" horiz-adv-x="218" 
d="M78 708h62v-708h-62v708zM65 -52h88l-91 -166h-38z" />
    <glyph glyph-name="Lcaron" unicode="&#x13d;" horiz-adv-x="524" 
d="M90 700h66v-638h328v-62h-394v700zM399 708h79l-66 -166h-43z" />
    <glyph glyph-name="lcaron" unicode="&#x13e;" horiz-adv-x="336" 
d="M78 708h62v-708h-62v708zM257 708h79l-66 -166h-43z" />
    <glyph glyph-name="Ldot" unicode="&#x13f;" horiz-adv-x="524" 
d="M90 700h66v-638h328v-62h-394v700zM353.5 312.5q-14.5 14.5 -14.5 36.5t14.5 36.5t36.5 14.5t36.5 -14.5t14.5 -36.5t-14.5 -36.5t-36.5 -14.5t-36.5 14.5z" />
    <glyph glyph-name="ldot" unicode="&#x140;" horiz-adv-x="416" 
d="M78 708h62v-708h-62v708zM286.5 312.5q-14.5 14.5 -14.5 36.5t14.5 36.5t36.5 14.5t36.5 -14.5t14.5 -36.5t-14.5 -36.5t-36.5 -14.5t-36.5 14.5z" />
    <glyph glyph-name="Lslash" unicode="&#x141;" horiz-adv-x="524" 
d="M484 62v-62h-394v253l-89 -51l-24 47l113 65v386h66v-347l111 64l27 -47l-138 -79v-229h328z" />
    <glyph glyph-name="lslash" unicode="&#x142;" horiz-adv-x="218" 
d="M140 336v-336h-62v302l-77 -43l-27 47l104 58v344h62v-310l77 43l27 -47z" />
    <glyph glyph-name="Nacute" unicode="&#x143;" horiz-adv-x="671" 
d="M90 700h78l347 -595v595h66v-700h-78l-347 593v-593h-66v700zM381 896h93l-113 -140h-50z" />
    <glyph glyph-name="nacute" unicode="&#x144;" horiz-adv-x="546" 
d="M78 504h62v-105q26 51 72.5 82t100.5 31q72 0 113.5 -43.5t41.5 -122.5v-346h-62v338q0 56 -25.5 86t-77.5 30q-46 0 -83 -28.5t-58.5 -81.5t-21.5 -123v-221h-62v504zM329 700h93l-113 -140h-50z" />
    <glyph glyph-name="uni0145" unicode="&#x145;" horiz-adv-x="671" 
d="M90 700h78l347 -595v595h66v-700h-78l-347 593v-593h-66v700zM292 -52h88l-91 -166h-38z" />
    <glyph glyph-name="uni0146" unicode="&#x146;" horiz-adv-x="546" 
d="M78 504h62v-105q26 51 72.5 82t100.5 31q72 0 113.5 -43.5t41.5 -122.5v-346h-62v338q0 56 -25.5 86t-77.5 30q-46 0 -83 -28.5t-58.5 -81.5t-21.5 -123v-221h-62v504zM229 -52h88l-91 -166h-38z" />
    <glyph glyph-name="Ncaron" unicode="&#x147;" horiz-adv-x="671" 
d="M90 700h78l347 -595v595h66v-700h-78l-347 593v-593h-66v700zM191 896h72l73 -78l73 78h72l-134 -140h-22z" />
    <glyph glyph-name="ncaron" unicode="&#x148;" horiz-adv-x="546" 
d="M78 504h62v-105q26 51 72.5 82t100.5 31q72 0 113.5 -43.5t41.5 -122.5v-346h-62v338q0 56 -25.5 86t-77.5 30q-46 0 -83 -28.5t-58.5 -81.5t-21.5 -123v-221h-62v504zM139 700h72l73 -78l73 78h72l-134 -140h-22z" />
    <glyph glyph-name="Eng" unicode="&#x14a;" horiz-adv-x="671" 
d="M393 -150q122 0 122 144v6l-359 593v-593h-66v700h78l347 -577v577h66v-699q0 -107 -51 -160t-137 -53v62z" />
    <glyph glyph-name="eng" unicode="&#x14b;" horiz-adv-x="546" 
d="M329 -154q41 12 59 33.5t18 65.5v393q0 56 -25.5 86t-77.5 30q-46 0 -83 -28.5t-58.5 -81.5t-21.5 -123v-221h-62v504h62v-105q26 51 72.5 82t100.5 31q72 0 113.5 -43.5t41.5 -122.5v-410q0 -128 -125 -148z" />
    <glyph glyph-name="Omacron" unicode="&#x14c;" horiz-adv-x="718" 
d="M206 36q-70 44 -112 125t-42 189t42 189t112 125t153 44t153 -44t112 -125t42 -189t-42 -189t-112 -125t-153 -44t-153 44zM480 88q54 34 85.5 100.5t31.5 161.5t-31.5 161.5t-85.5 100.5t-121 34t-121 -34t-85.5 -100.5t-31.5 -161.5t31.5 -161.5t85.5 -100.5t121 -34
t121 34zM238 856h241v-56h-241v56z" />
    <glyph glyph-name="omacron" unicode="&#x14d;" horiz-adv-x="568" 
d="M159.5 28.5q-53.5 36.5 -82.5 96.5t-29 127t29 127t82.5 96.5t124.5 36.5t124.5 -36.5t82.5 -96.5t29 -127t-29 -127t-82.5 -96.5t-124.5 -36.5t-124.5 36.5zM376.5 78.5q38.5 28.5 58.5 75t20 98.5t-20 98.5t-58.5 75t-92.5 28.5t-92.5 -28.5t-58.5 -75t-20 -98.5
t20 -98.5t58.5 -75t92.5 -28.5t92.5 28.5zM163 660h241v-56h-241v56z" />
    <glyph glyph-name="Obreve" unicode="&#x14e;" horiz-adv-x="718" 
d="M206 36q-70 44 -112 125t-42 189t42 189t112 125t153 44t153 -44t112 -125t42 -189t-42 -189t-112 -125t-153 -44t-153 44zM480 88q54 34 85.5 100.5t31.5 161.5t-31.5 161.5t-85.5 100.5t-121 34t-121 -34t-85.5 -100.5t-31.5 -161.5t31.5 -161.5t85.5 -100.5t121 -34
t121 34zM282.5 817.5q-28.5 30.5 -28.5 78.5h51q0 -26 14 -42.5t40 -16.5q27 0 40.5 16.5t13.5 42.5h51q0 -48 -28 -78.5t-77 -30.5q-48 0 -76.5 30.5z" />
    <glyph glyph-name="obreve" unicode="&#x14f;" horiz-adv-x="568" 
d="M159.5 28.5q-53.5 36.5 -82.5 96.5t-29 127t29 127t82.5 96.5t124.5 36.5t124.5 -36.5t82.5 -96.5t29 -127t-29 -127t-82.5 -96.5t-124.5 -36.5t-124.5 36.5zM376.5 78.5q38.5 28.5 58.5 75t20 98.5t-20 98.5t-58.5 75t-92.5 28.5t-92.5 -28.5t-58.5 -75t-20 -98.5
t20 -98.5t58.5 -75t92.5 -28.5t92.5 28.5zM207.5 621.5q-28.5 30.5 -28.5 78.5h51q0 -26 14 -42.5t40 -16.5q27 0 40.5 16.5t13.5 42.5h51q0 -48 -28 -78.5t-77 -30.5q-48 0 -76.5 30.5z" />
    <glyph glyph-name="Ohungarumlaut" unicode="&#x150;" horiz-adv-x="718" 
d="M206 36q-70 44 -112 125t-42 189t42 189t112 125t153 44t153 -44t112 -125t42 -189t-42 -189t-112 -125t-153 -44t-153 44zM480 88q54 34 85.5 100.5t31.5 161.5t-31.5 161.5t-85.5 100.5t-121 34t-121 -34t-85.5 -100.5t-31.5 -161.5t31.5 -161.5t85.5 -100.5t121 -34
t121 34zM328 896h93l-114 -140h-49zM480 896h93l-114 -140h-49z" />
    <glyph glyph-name="ohungarumlaut" unicode="&#x151;" horiz-adv-x="568" 
d="M159.5 28.5q-53.5 36.5 -82.5 96.5t-29 127t29 127t82.5 96.5t124.5 36.5t124.5 -36.5t82.5 -96.5t29 -127t-29 -127t-82.5 -96.5t-124.5 -36.5t-124.5 36.5zM376.5 78.5q38.5 28.5 58.5 75t20 98.5t-20 98.5t-58.5 75t-92.5 28.5t-92.5 -28.5t-58.5 -75t-20 -98.5
t20 -98.5t58.5 -75t92.5 -28.5t92.5 28.5zM233 700h93l-114 -140h-49zM385 700h93l-114 -140h-49z" />
    <glyph glyph-name="OE" unicode="&#x152;" horiz-adv-x="1061" 
d="M206 36q-70 44 -112 125t-42 189t42 189t112 125t153 44q72 0 135.5 -33.5t105.5 -94.5v120h395v-62h-329v-234h269v-62h-269v-280h339v-62h-405v120q-42 -61 -105.5 -94.5t-135.5 -33.5q-83 0 -153 44zM480 88q54 34 85.5 100.5t31.5 161.5t-31.5 161.5t-85.5 100.5
t-121 34t-121 -34t-85.5 -100.5t-31.5 -161.5t31.5 -161.5t85.5 -100.5t121 -34t121 34z" />
    <glyph glyph-name="oe" unicode="&#x153;" horiz-adv-x="948" 
d="M159.5 28.5q-53.5 36.5 -82.5 96.5t-29 127t29 127t82.5 96.5t124.5 36.5q67 0 118.5 -33t82.5 -89q28 57 78.5 89.5t115.5 32.5q64 0 114.5 -29t78.5 -81.5t28 -121.5v-28h-380q2 -98 44.5 -150t114.5 -52q56 0 92.5 25.5t61.5 78.5l56 -23q-38 -75 -88 -107t-122 -32
q-65 0 -115.5 32.5t-78.5 89.5q-31 -56 -82.5 -89t-118.5 -33q-71 0 -124.5 36.5zM376.5 78.5q38.5 28.5 58.5 75t20 98.5t-20 98.5t-58.5 75t-92.5 28.5t-92.5 -28.5t-58.5 -75t-20 -98.5t20 -98.5t58.5 -75t92.5 -28.5t92.5 28.5zM836 310q-9 67 -49.5 105.5t-107.5 38.5
q-61 0 -101 -40t-53 -104h311z" />
    <glyph glyph-name="Racute" unicode="&#x154;" horiz-adv-x="614" 
d="M90 700h225q95 0 147.5 -44.5t52.5 -132.5q0 -76 -40 -120t-113 -54l218 -349h-74l-219 346h-131v-346h-66v700zM311 408q69 0 103 28t34 87t-34 87t-103 28h-155v-230h155zM288 896h93l-113 -140h-50z" />
    <glyph glyph-name="racute" unicode="&#x155;" horiz-adv-x="380" 
d="M78 504h62v-90q23 47 60.5 72.5t87.5 25.5q20 0 37.5 -4t38.5 -13l-14 -59q-33 18 -71 18q-39 0 -70.5 -29.5t-50 -88t-18.5 -141.5v-195h-62v504zM250 700h93l-113 -140h-50z" />
    <glyph glyph-name="uni0156" unicode="&#x156;" horiz-adv-x="614" 
d="M90 700h225q95 0 147.5 -44.5t52.5 -132.5q0 -76 -40 -120t-113 -54l218 -349h-74l-219 346h-131v-346h-66v700zM311 408q69 0 103 28t34 87t-34 87t-103 28h-155v-230h155zM267 -52h88l-91 -166h-38z" />
    <glyph glyph-name="uni0157" unicode="&#x157;" horiz-adv-x="380" 
d="M78 504h62v-90q23 47 60.5 72.5t87.5 25.5q20 0 37.5 -4t38.5 -13l-14 -59q-33 18 -71 18q-39 0 -70.5 -29.5t-50 -88t-18.5 -141.5v-195h-62v504zM65 -52h88l-91 -166h-38z" />
    <glyph glyph-name="Rcaron" unicode="&#x158;" horiz-adv-x="614" 
d="M90 700h225q95 0 147.5 -44.5t52.5 -132.5q0 -76 -40 -120t-113 -54l218 -349h-74l-219 346h-131v-346h-66v700zM311 408q69 0 103 28t34 87t-34 87t-103 28h-155v-230h155zM98 896h72l73 -78l73 78h72l-134 -140h-22z" />
    <glyph glyph-name="rcaron" unicode="&#x159;" horiz-adv-x="380" 
d="M78 504h62v-90q23 47 60.5 72.5t87.5 25.5q20 0 37.5 -4t38.5 -13l-14 -59q-33 18 -71 18q-39 0 -70.5 -29.5t-50 -88t-18.5 -141.5v-195h-62v504zM60 700h72l73 -78l73 78h72l-134 -140h-22z" />
    <glyph glyph-name="Sacute" unicode="&#x15a;" horiz-adv-x="506" 
d="M157.5 17.5q-46.5 25.5 -76.5 68.5t-39 95l57 34q37 -161 162 -161q55 0 90.5 35t35.5 101q0 43 -19 72t-49.5 48.5t-83.5 44.5q-72 34 -113 78t-41 112q0 47 22 84.5t60.5 58t84.5 20.5q67 0 107 -28.5t63 -79.5l-54 -34q-36 80 -116 80q-46 0 -73.5 -28.5t-27.5 -67.5
q0 -38 19.5 -65.5t49 -45.5t78.5 -40q77 -35 119.5 -82.5t42.5 -123.5q0 -59 -25.5 -105t-70 -71t-99.5 -25q-57 0 -103.5 25.5zM293 896h93l-113 -140h-50z" />
    <glyph glyph-name="sacute" unicode="&#x15b;" horiz-adv-x="430" 
d="M105.5 32q-45.5 40 -59.5 98l55 29q16 -52 45.5 -80.5t81.5 -28.5q43 0 67 24t24 65q0 37 -27.5 58.5t-83.5 41.5q-62 22 -94.5 53.5t-32.5 87.5q0 60 40 96t101 36q48 0 82 -19t58 -59l-44 -38q-20 31 -44 44.5t-55 13.5q-32 0 -53 -19.5t-21 -52.5t26 -53.5t90 -43.5
q54 -20 88.5 -55.5t34.5 -89.5q0 -69 -42 -108.5t-114 -39.5q-77 0 -122.5 40zM267 700h93l-113 -140h-50z" />
    <glyph glyph-name="Scircumflex" unicode="&#x15c;" horiz-adv-x="506" 
d="M157.5 17.5q-46.5 25.5 -76.5 68.5t-39 95l57 34q37 -161 162 -161q55 0 90.5 35t35.5 101q0 43 -19 72t-49.5 48.5t-83.5 44.5q-72 34 -113 78t-41 112q0 47 22 84.5t60.5 58t84.5 20.5q67 0 107 -28.5t63 -79.5l-54 -34q-36 80 -116 80q-46 0 -73.5 -28.5t-27.5 -67.5
q0 -38 19.5 -65.5t49 -45.5t78.5 -40q77 -35 119.5 -82.5t42.5 -123.5q0 -59 -25.5 -105t-70 -71t-99.5 -25q-57 0 -103.5 25.5zM237 896h22l134 -140h-72l-73 78l-73 -78h-72z" />
    <glyph glyph-name="scircumflex" unicode="&#x15d;" horiz-adv-x="430" 
d="M105.5 32q-45.5 40 -59.5 98l55 29q16 -52 45.5 -80.5t81.5 -28.5q43 0 67 24t24 65q0 37 -27.5 58.5t-83.5 41.5q-62 22 -94.5 53.5t-32.5 87.5q0 60 40 96t101 36q48 0 82 -19t58 -59l-44 -38q-20 31 -44 44.5t-55 13.5q-32 0 -53 -19.5t-21 -52.5t26 -53.5t90 -43.5
q54 -20 88.5 -55.5t34.5 -89.5q0 -69 -42 -108.5t-114 -39.5q-77 0 -122.5 40zM211 700h22l134 -140h-72l-73 78l-73 -78h-72z" />
    <glyph glyph-name="Scedilla" unicode="&#x15e;" horiz-adv-x="506" 
d="M157.5 17.5q-46.5 25.5 -76.5 68.5t-39 95l57 34q37 -161 162 -161q55 0 90.5 35t35.5 101q0 43 -19 72t-49.5 48.5t-83.5 44.5q-72 34 -113 78t-41 112q0 47 22 84.5t60.5 58t84.5 20.5q67 0 107 -28.5t63 -79.5l-54 -34q-36 80 -116 80q-46 0 -73.5 -28.5t-27.5 -67.5
q0 -38 19.5 -65.5t49 -45.5t78.5 -40q77 -35 119.5 -82.5t42.5 -123.5q0 -59 -25.5 -105t-70 -71t-99.5 -25q-57 0 -103.5 25.5zM135 -183l98 123h55l-81 -154z" />
    <glyph glyph-name="scedilla" unicode="&#x15f;" horiz-adv-x="430" 
d="M105.5 32q-45.5 40 -59.5 98l55 29q16 -52 45.5 -80.5t81.5 -28.5q43 0 67 24t24 65q0 37 -27.5 58.5t-83.5 41.5q-62 22 -94.5 53.5t-32.5 87.5q0 60 40 96t101 36q48 0 82 -19t58 -59l-44 -38q-20 31 -44 44.5t-55 13.5q-32 0 -53 -19.5t-21 -52.5t26 -53.5t90 -43.5
q54 -20 88.5 -55.5t34.5 -89.5q0 -69 -42 -108.5t-114 -39.5q-77 0 -122.5 40zM99 -183l98 123h55l-81 -154z" />
    <glyph glyph-name="Scaron" unicode="&#x160;" horiz-adv-x="506" 
d="M157.5 17.5q-46.5 25.5 -76.5 68.5t-39 95l57 34q37 -161 162 -161q55 0 90.5 35t35.5 101q0 43 -19 72t-49.5 48.5t-83.5 44.5q-72 34 -113 78t-41 112q0 47 22 84.5t60.5 58t84.5 20.5q67 0 107 -28.5t63 -79.5l-54 -34q-36 80 -116 80q-46 0 -73.5 -28.5t-27.5 -67.5
q0 -38 19.5 -65.5t49 -45.5t78.5 -40q77 -35 119.5 -82.5t42.5 -123.5q0 -59 -25.5 -105t-70 -71t-99.5 -25q-57 0 -103.5 25.5zM103 896h72l73 -78l73 78h72l-134 -140h-22z" />
    <glyph glyph-name="scaron" unicode="&#x161;" horiz-adv-x="430" 
d="M105.5 32q-45.5 40 -59.5 98l55 29q16 -52 45.5 -80.5t81.5 -28.5q43 0 67 24t24 65q0 37 -27.5 58.5t-83.5 41.5q-62 22 -94.5 53.5t-32.5 87.5q0 60 40 96t101 36q48 0 82 -19t58 -59l-44 -38q-20 31 -44 44.5t-55 13.5q-32 0 -53 -19.5t-21 -52.5t26 -53.5t90 -43.5
q54 -20 88.5 -55.5t34.5 -89.5q0 -69 -42 -108.5t-114 -39.5q-77 0 -122.5 40zM77 700h72l73 -78l73 78h72l-134 -140h-22z" />
    <glyph glyph-name="uni0162" unicode="&#x162;" horiz-adv-x="544" 
d="M239 638h-209v62h484v-62h-209v-638h-66v638zM148 -183l98 123h55l-81 -154z" />
    <glyph glyph-name="uni0163" unicode="&#x163;" horiz-adv-x="343" 
d="M135 29.5q-34 37.5 -34 113.5v303h-89v58h89v163l62 41v-204h136v-58h-136v-313q0 -41 19.5 -62t52.5 -21q38 0 63 16l17 -56q-33 -18 -88 -18q-58 0 -92 37.5zM97 -183l98 123h55l-81 -154z" />
    <glyph glyph-name="Tcaron" unicode="&#x164;" horiz-adv-x="544" 
d="M239 638h-209v62h484v-62h-209v-638h-66v638zM127 896h72l73 -78l73 78h72l-134 -140h-22z" />
    <glyph glyph-name="tcaron" unicode="&#x165;" horiz-adv-x="343" 
d="M135 29.5q-34 37.5 -34 113.5v303h-89v58h89v163l62 41v-204h136v-58h-136v-313q0 -41 19.5 -62t52.5 -21q38 0 63 16l17 -56q-33 -18 -88 -18q-58 0 -92 37.5zM286 708h79l-66 -166h-43z" />
    <glyph glyph-name="Tbar" unicode="&#x166;" horiz-adv-x="544" 
d="M305 638v-257h84v-62h-84v-319h-66v319h-84v62h84v257h-209v62h484v-62h-209z" />
    <glyph glyph-name="tbar" unicode="&#x167;" horiz-adv-x="343" 
d="M315 10q-33 -18 -88 -18q-58 0 -92 37.5t-34 113.5v111h-85v56h85v136h-89v58h89v163l62 41v-204h136v-58h-136v-136h123v-56h-123v-121q0 -41 19.5 -62t52.5 -21q38 0 63 16z" />
    <glyph glyph-name="Utilde" unicode="&#x168;" horiz-adv-x="636" 
d="M198 18.5q-55 26.5 -87.5 79t-32.5 126.5v476h66v-482q0 -70 45 -117t129 -47t129 47t45 117v482h66v-476q0 -74 -32.5 -126.5t-87.5 -79t-120 -26.5t-120 26.5zM149 814q18 31 44 50t55 19q24 0 41 -6t36 -17q18 -10 29 -14t25 -4q32 0 62 41l45 -36q-18 -31 -44 -50
t-55 -19q-24 0 -41 6t-36 17q-18 10 -29 14t-25 4q-32 0 -62 -41z" />
    <glyph glyph-name="utilde" unicode="&#x169;" horiz-adv-x="546" 
d="M119.5 35.5q-41.5 43.5 -41.5 122.5v346h62v-338q0 -56 25.5 -86t77.5 -30q46 0 83 28.5t58.5 81.5t21.5 123v221h62v-504h-62v105q-26 -51 -72.5 -82t-100.5 -31q-72 0 -113.5 43.5zM104 618q18 31 44 50t55 19q24 0 41 -6t36 -17q18 -10 29 -14t25 -4q32 0 62 41
l45 -36q-18 -31 -44 -50t-55 -19q-24 0 -41 6t-36 17q-18 10 -29 14t-25 4q-32 0 -62 -41z" />
    <glyph glyph-name="Umacron" unicode="&#x16a;" horiz-adv-x="636" 
d="M198 18.5q-55 26.5 -87.5 79t-32.5 126.5v476h66v-482q0 -70 45 -117t129 -47t129 47t45 117v482h66v-476q0 -74 -32.5 -126.5t-87.5 -79t-120 -26.5t-120 26.5zM197 856h241v-56h-241v56z" />
    <glyph glyph-name="umacron" unicode="&#x16b;" horiz-adv-x="546" 
d="M119.5 35.5q-41.5 43.5 -41.5 122.5v346h62v-338q0 -56 25.5 -86t77.5 -30q46 0 83 28.5t58.5 81.5t21.5 123v221h62v-504h-62v105q-26 -51 -72.5 -82t-100.5 -31q-72 0 -113.5 43.5zM152 660h241v-56h-241v56z" />
    <glyph glyph-name="Ubreve" unicode="&#x16c;" horiz-adv-x="636" 
d="M198 18.5q-55 26.5 -87.5 79t-32.5 126.5v476h66v-482q0 -70 45 -117t129 -47t129 47t45 117v482h66v-476q0 -74 -32.5 -126.5t-87.5 -79t-120 -26.5t-120 26.5zM241.5 817.5q-28.5 30.5 -28.5 78.5h51q0 -26 14 -42.5t40 -16.5q27 0 40.5 16.5t13.5 42.5h51
q0 -48 -28 -78.5t-77 -30.5q-48 0 -76.5 30.5z" />
    <glyph glyph-name="ubreve" unicode="&#x16d;" horiz-adv-x="546" 
d="M119.5 35.5q-41.5 43.5 -41.5 122.5v346h62v-338q0 -56 25.5 -86t77.5 -30q46 0 83 28.5t58.5 81.5t21.5 123v221h62v-504h-62v105q-26 -51 -72.5 -82t-100.5 -31q-72 0 -113.5 43.5zM196.5 621.5q-28.5 30.5 -28.5 78.5h51q0 -26 14 -42.5t40 -16.5q27 0 40.5 16.5
t13.5 42.5h51q0 -48 -28 -78.5t-77 -30.5q-48 0 -76.5 30.5z" />
    <glyph glyph-name="Uring" unicode="&#x16e;" horiz-adv-x="636" 
d="M198 18.5q-55 26.5 -87.5 79t-32.5 126.5v476h66v-482q0 -70 45 -117t129 -47t129 47t45 117v482h66v-476q0 -74 -32.5 -126.5t-87.5 -79t-120 -26.5t-120 26.5zM249 782q-28 27 -28 67q0 41 28 69.5t69 28.5q42 0 69.5 -28t27.5 -70q0 -40 -27.5 -67t-69.5 -27
q-41 0 -69 27zM355 812.5q14 14.5 14 37.5q0 24 -14 39t-37 15q-22 0 -36.5 -15.5t-14.5 -38.5t14.5 -37.5t36.5 -14.5q23 0 37 14.5z" />
    <glyph glyph-name="uring" unicode="&#x16f;" horiz-adv-x="546" 
d="M119.5 35.5q-41.5 43.5 -41.5 122.5v346h62v-338q0 -56 25.5 -86t77.5 -30q46 0 83 28.5t58.5 81.5t21.5 123v221h62v-504h-62v105q-26 -51 -72.5 -82t-100.5 -31q-72 0 -113.5 43.5zM204 586q-28 27 -28 67q0 41 28 69.5t69 28.5q42 0 69.5 -28t27.5 -70
q0 -40 -27.5 -67t-69.5 -27q-41 0 -69 27zM310 616.5q14 14.5 14 37.5q0 24 -14 39t-37 15q-22 0 -36.5 -15.5t-14.5 -38.5t14.5 -37.5t36.5 -14.5q23 0 37 14.5z" />
    <glyph glyph-name="Uhungarumlaut" unicode="&#x170;" horiz-adv-x="636" 
d="M198 18.5q-55 26.5 -87.5 79t-32.5 126.5v476h66v-482q0 -70 45 -117t129 -47t129 47t45 117v482h66v-476q0 -74 -32.5 -126.5t-87.5 -79t-120 -26.5t-120 26.5zM287 896h93l-114 -140h-49zM439 896h93l-114 -140h-49z" />
    <glyph glyph-name="uhungarumlaut" unicode="&#x171;" horiz-adv-x="546" 
d="M119.5 35.5q-41.5 43.5 -41.5 122.5v346h62v-338q0 -56 25.5 -86t77.5 -30q46 0 83 28.5t58.5 81.5t21.5 123v221h62v-504h-62v105q-26 -51 -72.5 -82t-100.5 -31q-72 0 -113.5 43.5zM222 700h93l-114 -140h-49zM374 700h93l-114 -140h-49z" />
    <glyph glyph-name="Uogonek" unicode="&#x172;" horiz-adv-x="636" 
d="M558 700v-476q0 -91 -47.5 -148.5t-124.5 -75.5q-30 -27 -43 -44.5t-13 -35.5q0 -16 9 -24.5t24 -8.5t27 8l16 -50q-13 -8 -24.5 -11t-28.5 -3q-36 0 -57.5 21t-21.5 56q0 22 10.5 44t29.5 40q-64 1 -118 27.5t-86 78.5t-32 126v476h66v-482q0 -70 45 -117t129 -47
t129 47t45 117v482h66z" />
    <glyph glyph-name="uogonek" unicode="&#x173;" horiz-adv-x="546" 
d="M488 -155q-13 -8 -24.5 -11t-28.5 -3q-36 0 -57.5 21t-21.5 56q0 25 13 49.5t37 42.5v105q-26 -51 -72.5 -82t-100.5 -31q-72 0 -113.5 43.5t-41.5 122.5v346h62v-338q0 -56 25.5 -86t77.5 -30q46 0 83 28.5t58.5 81.5t21.5 123v221h62v-504q-30 -27 -43 -44.5t-13 -35.5
q0 -16 9 -24.5t24 -8.5t27 8z" />
    <glyph glyph-name="Wcircumflex" unicode="&#x174;" horiz-adv-x="860" 
d="M12 700h69l158 -597l161 523h60l161 -523l158 597h69l-192 -700h-67l-159 524l-159 -524h-67zM419 896h22l134 -140h-72l-73 78l-73 -78h-72z" />
    <glyph glyph-name="wcircumflex" unicode="&#x175;" horiz-adv-x="668" 
d="M14 504h65l118 -416l106 416h62l106 -416l118 416h65l-151 -504h-64l-105 412l-105 -412h-64zM323 700h22l134 -140h-72l-73 78l-73 -78h-72z" />
    <glyph glyph-name="Ycircumflex" unicode="&#x176;" horiz-adv-x="512" 
d="M223 304l-211 396h77l167 -331l167 331h77l-211 -396v-304h-66v304zM245 896h22l134 -140h-72l-73 78l-73 -78h-72z" />
    <glyph glyph-name="ycircumflex" unicode="&#x177;" horiz-adv-x="440" 
d="M430 504l-250 -708h-62l72 208l-180 500h65l149 -404l141 404h65zM209 700h22l134 -140h-72l-73 78l-73 -78h-72z" />
    <glyph glyph-name="Ydieresis" unicode="&#x178;" horiz-adv-x="512" 
d="M223 304l-211 396h77l167 -331l167 331h77l-211 -396v-304h-66v304zM144 800q-14 14 -14 34q0 21 14 35.5t35 14.5t35 -14.5t14 -35.5q0 -20 -14 -34t-35 -14t-35 14zM298 800q-14 14 -14 34q0 21 14 35.5t34 14.5q21 0 35.5 -14.5t14.5 -35.5q0 -20 -14.5 -34t-35.5 -14
q-20 0 -34 14z" />
    <glyph glyph-name="Zacute" unicode="&#x179;" horiz-adv-x="533" 
d="M43 32l352 606h-340v62h428v-32l-348 -606h355v-62h-447v32zM314 896h93l-113 -140h-50z" />
    <glyph glyph-name="zacute" unicode="&#x17a;" horiz-adv-x="428" 
d="M36 30l257 416h-245v58h327v-34l-254 -412h265v-58h-350v30zM257 700h93l-113 -140h-50z" />
    <glyph glyph-name="Zdotaccent" unicode="&#x17b;" horiz-adv-x="533" 
d="M43 32l352 606h-340v62h428v-32l-348 -606h355v-62h-447v32zM232.5 808.5q-14.5 14.5 -14.5 36.5t14.5 36.5t36.5 14.5t36.5 -14.5t14.5 -36.5t-14.5 -36.5t-36.5 -14.5t-36.5 14.5z" />
    <glyph glyph-name="zdotaccent" unicode="&#x17c;" horiz-adv-x="428" 
d="M36 30l257 416h-245v58h327v-34l-254 -412h265v-58h-350v30zM175.5 612.5q-14.5 14.5 -14.5 36.5t14.5 36.5t36.5 14.5t36.5 -14.5t14.5 -36.5t-14.5 -36.5t-36.5 -14.5t-36.5 14.5z" />
    <glyph glyph-name="Zcaron" unicode="&#x17d;" horiz-adv-x="533" 
d="M43 32l352 606h-340v62h428v-32l-348 -606h355v-62h-447v32zM124 896h72l73 -78l73 78h72l-134 -140h-22z" />
    <glyph glyph-name="zcaron" unicode="&#x17e;" horiz-adv-x="428" 
d="M36 30l257 416h-245v58h327v-34l-254 -412h265v-58h-350v30zM67 700h72l73 -78l73 78h72l-134 -140h-22z" />
    <glyph glyph-name="florin" unicode="&#x192;" horiz-adv-x="468" 
d="M-46 -208q-19 4 -28 9l24 57q24 -12 50 -12q47 0 72.5 25t36.5 79l96 496h-90l12 58h90l6 32q17 93 63 132.5t123 39.5q18 0 35 -3.5t26 -9.5l-24 -57q-12 7 -22.5 9.5t-27.5 2.5q-42 0 -70.5 -26t-38.5 -78l-8 -42h122l-12 -58h-122l-94 -486q-18 -94 -62 -133t-120 -39
q-18 0 -37 4z" />
    <glyph glyph-name="uni01B5" unicode="&#x1b5;" horiz-adv-x="533" 
d="M43 32l168 289h-114v58h148l150 259h-340v62h428v-32l-166 -289h120v-58h-153l-149 -259h355v-62h-447v32z" />
    <glyph glyph-name="uni01B6" unicode="&#x1b6;" horiz-adv-x="428" 
d="M36 30l127 206h-100v56h135l95 154h-245v58h327v-34l-110 -178h90v-56h-124l-110 -178h265v-58h-350v30z" />
    <glyph glyph-name="Aringacute" unicode="&#x1fa;" horiz-adv-x="588" 
d="M265 700h58l253 -700h-68l-70 199h-288l-70 -199h-68zM417 261l-123 349l-123 -349h246zM225 782q-28 27 -28 67q0 41 28 69.5t69 28.5q42 0 69.5 -28t27.5 -70q0 -40 -27.5 -67t-69.5 -27q-41 0 -69 27zM331 812.5q14 14.5 14 37.5q0 24 -14 39t-37 15
q-22 0 -36.5 -15.5t-14.5 -38.5t14.5 -37.5t36.5 -14.5q23 0 37 14.5zM339 1113h93l-113 -140h-50z" />
    <glyph glyph-name="aringacute" unicode="&#x1fb;" horiz-adv-x="494" 
d="M94 29.5q-44 37.5 -44 115.5q0 82 60.5 123.5t168.5 41.5h87v22q0 63 -31 92.5t-85 29.5q-49 0 -78.5 -26t-41.5 -68l-60 14q10 63 60.5 100.5t119.5 37.5q77 0 127.5 -47.5t50.5 -130.5v-334h-47l-15 78q-23 -39 -62.5 -62.5t-96.5 -23.5q-69 0 -113 37.5zM284 68.5
q35 18.5 58.5 59.5t23.5 105v19h-85q-84 0 -125 -28t-41 -79q0 -46 26 -70.5t72 -24.5q36 0 71 18.5zM181 586q-28 27 -28 67q0 41 28 69.5t69 28.5q42 0 69.5 -28t27.5 -70q0 -40 -27.5 -67t-69.5 -27q-41 0 -69 27zM287 616.5q14 14.5 14 37.5q0 24 -14 39t-37 15
q-22 0 -36.5 -15.5t-14.5 -38.5t14.5 -37.5t36.5 -14.5q23 0 37 14.5zM295 934h93l-113 -140h-50z" />
    <glyph glyph-name="AEacute" unicode="&#x1fc;" horiz-adv-x="820" 
d="M319 700h435v-62h-329v-234h269v-62h-269v-280h339v-62h-405v199h-191l-87 -199h-69zM359 261v349h-11l-153 -349h164zM591 896h93l-113 -140h-50z" />
    <glyph glyph-name="aeacute" unicode="&#x1fd;" horiz-adv-x="859" 
d="M94 29.5q-44 37.5 -44 115.5q0 82 60.5 123.5t168.5 41.5h87v22q0 63 -31 92.5t-85 29.5q-49 0 -78.5 -26t-41.5 -68l-60 14q10 63 60.5 100.5t119.5 37.5q56 0 99.5 -26t63.5 -71q30 46 75.5 71.5t101.5 25.5q64 0 114.5 -29t78.5 -81.5t28 -121.5v-28h-380
q0 -90 42.5 -146t116.5 -56q56 0 92.5 25.5t61.5 78.5l56 -23q-38 -75 -88 -107t-122 -32q-67 0 -119 34.5t-76 92.5q-23 -64 -73 -95.5t-115 -31.5q-69 0 -113 37.5zM747 310q-9 67 -49.5 105.5t-107.5 38.5q-61 0 -101.5 -40t-53.5 -104h312zM284 68.5q35 18.5 58.5 59.5
t23.5 105v19h-85q-84 0 -125 -28t-41 -79q0 -46 26 -70.5t72 -24.5q36 0 71 18.5zM463 700h93l-113 -140h-50z" />
    <glyph glyph-name="uni0218" unicode="&#x218;" horiz-adv-x="506" 
d="M157.5 17.5q-46.5 25.5 -76.5 68.5t-39 95l57 34q37 -161 162 -161q55 0 90.5 35t35.5 101q0 43 -19 72t-49.5 48.5t-83.5 44.5q-72 34 -113 78t-41 112q0 47 22 84.5t60.5 58t84.5 20.5q67 0 107 -28.5t63 -79.5l-54 -34q-36 80 -116 80q-46 0 -73.5 -28.5t-27.5 -67.5
q0 -38 19.5 -65.5t49 -45.5t78.5 -40q77 -35 119.5 -82.5t42.5 -123.5q0 -59 -25.5 -105t-70 -71t-99.5 -25q-57 0 -103.5 25.5zM215 -52h88l-91 -166h-38z" />
    <glyph glyph-name="uni0219" unicode="&#x219;" horiz-adv-x="430" 
d="M105.5 32q-45.5 40 -59.5 98l55 29q16 -52 45.5 -80.5t81.5 -28.5q43 0 67 24t24 65q0 37 -27.5 58.5t-83.5 41.5q-62 22 -94.5 53.5t-32.5 87.5q0 60 40 96t101 36q48 0 82 -19t58 -59l-44 -38q-20 31 -44 44.5t-55 13.5q-32 0 -53 -19.5t-21 -52.5t26 -53.5t90 -43.5
q54 -20 88.5 -55.5t34.5 -89.5q0 -69 -42 -108.5t-114 -39.5q-77 0 -122.5 40zM179 -52h88l-91 -166h-38z" />
    <glyph glyph-name="uni021A" unicode="&#x21a;" horiz-adv-x="544" 
d="M239 638h-209v62h484v-62h-209v-638h-66v638zM228 -52h88l-91 -166h-38z" />
    <glyph glyph-name="uni021B" unicode="&#x21b;" horiz-adv-x="343" 
d="M135 29.5q-34 37.5 -34 113.5v303h-89v58h89v163l62 41v-204h136v-58h-136v-313q0 -41 19.5 -62t52.5 -21q38 0 63 16l17 -56q-33 -18 -88 -18q-58 0 -92 37.5zM177 -52h88l-91 -166h-38z" />
    <glyph glyph-name="uni0237" unicode="&#x237;" horiz-adv-x="218" 
d="M1 -154q41 12 59 33.5t18 65.5v559h62v-568q0 -128 -125 -148z" />
    <glyph glyph-name="uni02BC" unicode="&#x2bc;" horiz-adv-x="244" 
d="M99 708h95l-111 -184h-45z" />
    <glyph glyph-name="circumflex" unicode="&#x2c6;" horiz-adv-x="370" 
d="M174 700h22l134 -140h-72l-73 78l-73 -78h-72z" />
    <glyph glyph-name="caron" unicode="&#x2c7;" horiz-adv-x="370" 
d="M40 700h72l73 -78l73 78h72l-134 -140h-22z" />
    <glyph glyph-name="uni02C9" unicode="&#x2c9;" horiz-adv-x="241" 
d="M0 660h241v-56h-241v56z" />
    <glyph glyph-name="breve" unicode="&#x2d8;" horiz-adv-x="266" 
d="M48.5 621.5q-28.5 30.5 -28.5 78.5h51q0 -26 14 -42.5t40 -16.5q27 0 40.5 16.5t13.5 42.5h51q0 -48 -28 -78.5t-77 -30.5q-48 0 -76.5 30.5z" />
    <glyph glyph-name="dotaccent" unicode="&#x2d9;" horiz-adv-x="250" 
d="M88.5 612.5q-14.5 14.5 -14.5 36.5t14.5 36.5t36.5 14.5t36.5 -14.5t14.5 -36.5t-14.5 -36.5t-36.5 -14.5t-36.5 14.5z" />
    <glyph glyph-name="ring" unicode="&#x2da;" horiz-adv-x="234" 
d="M48 586q-28 27 -28 67q0 41 28 69.5t69 28.5q42 0 69.5 -28t27.5 -70q0 -40 -27.5 -67t-69.5 -27q-41 0 -69 27zM154 616.5q14 14.5 14 37.5q0 24 -14 39t-37 15q-22 0 -36.5 -15.5t-14.5 -38.5t14.5 -37.5t36.5 -14.5q23 0 37 14.5z" />
    <glyph glyph-name="ogonek" unicode="&#x2db;" horiz-adv-x="208" 
d="M53.5 -148q-21.5 21 -21.5 56q0 25 13 49.5t37 42.5h62q-30 -27 -43 -44.5t-13 -35.5q0 -16 9 -24.5t24 -8.5t27 8l16 -50q-13 -8 -24.5 -11t-28.5 -3q-36 0 -57.5 21z" />
    <glyph glyph-name="tilde" unicode="&#x2dc;" horiz-adv-x="377" 
d="M20 618q18 31 44 50t55 19q24 0 41 -6t36 -17q18 -10 29 -14t25 -4q32 0 62 41l45 -36q-18 -31 -44 -50t-55 -19q-24 0 -41 6t-36 17q-18 10 -29 14t-25 4q-32 0 -62 -41z" />
    <glyph glyph-name="hungarumlaut" unicode="&#x2dd;" horiz-adv-x="361" 
d="M95 700h93l-114 -140h-49zM247 700h93l-114 -140h-49z" />
    <glyph glyph-name="gravecomb" unicode="&#x300;" horiz-adv-x="0" 
d="M-163 700h93l70 -140h-50z" />
    <glyph glyph-name="acutecomb" unicode="&#x301;" horiz-adv-x="0" 
d="M-93 700h93l-113 -140h-50z" />
    <glyph glyph-name="uni0302" unicode="&#x302;" horiz-adv-x="0" 
d="M-156 700h22l134 -140h-72l-73 78l-73 -78h-72z" />
    <glyph glyph-name="tildecomb" unicode="&#x303;" horiz-adv-x="0" 
d="M-337 618q18 31 44 50t55 19q24 0 41 -6t36 -17q18 -10 29 -14t25 -4q32 0 62 41l45 -36q-18 -31 -44 -50t-55 -19q-24 0 -41 6t-36 17q-18 10 -29 14t-25 4q-32 0 -62 -41z" />
    <glyph glyph-name="uni0304" unicode="&#x304;" horiz-adv-x="0" 
d="M-241 660h241v-56h-241v56z" />
    <glyph glyph-name="uni0306" unicode="&#x306;" horiz-adv-x="0" 
d="M-181.5 621.5q-28.5 30.5 -28.5 78.5h51q0 -26 14 -42.5t40 -16.5q27 0 40.5 16.5t13.5 42.5h51q0 -48 -28 -78.5t-77 -30.5q-48 0 -76.5 30.5z" />
    <glyph glyph-name="uni0307" unicode="&#x307;" horiz-adv-x="0" 
d="M-87.5 612.5q-14.5 14.5 -14.5 36.5t14.5 36.5t36.5 14.5t36.5 -14.5t14.5 -36.5t-14.5 -36.5t-36.5 -14.5t-36.5 14.5z" />
    <glyph glyph-name="uni0308" unicode="&#x308;" horiz-adv-x="0" 
d="M-238 604q-14 14 -14 34q0 21 14 35.5t35 14.5t35 -14.5t14 -35.5q0 -20 -14 -34t-35 -14t-35 14zM-84 604q-14 14 -14 34q0 21 14 35.5t34 14.5q21 0 35.5 -14.5t14.5 -35.5q0 -20 -14.5 -34t-35.5 -14q-20 0 -34 14z" />
    <glyph glyph-name="uni030A" unicode="&#x30a;" horiz-adv-x="0" 
d="M-166 586q-28 27 -28 67q0 41 28 69.5t69 28.5q42 0 69.5 -28t27.5 -70q0 -40 -27.5 -67t-69.5 -27q-41 0 -69 27zM-60 616.5q14 14.5 14 37.5q0 24 -14 39t-37 15q-22 0 -36.5 -15.5t-14.5 -38.5t14.5 -37.5t36.5 -14.5q23 0 37 14.5z" />
    <glyph glyph-name="uni030B" unicode="&#x30b;" horiz-adv-x="0" 
d="M-245 700h93l-114 -140h-49zM-93 700h93l-114 -140h-49z" />
    <glyph glyph-name="uni030C" unicode="&#x30c;" horiz-adv-x="0" 
d="M-290 700h72l73 -78l73 78h72l-134 -140h-22z" />
    <glyph glyph-name="uni0312" unicode="&#x312;" horiz-adv-x="0" 
d="M-46 730h46l-41 -144h-86z" />
    <glyph glyph-name="uni0326" unicode="&#x326;" horiz-adv-x="0" 
d="M-88 -52h88l-91 -166h-38z" />
    <glyph glyph-name="uni0327" unicode="&#x327;" horiz-adv-x="0" 
d="M-153 -183l98 123h55l-81 -154z" />
    <glyph glyph-name="uni0328" unicode="&#x328;" horiz-adv-x="0" 
d="M-110.5 -148q-21.5 21 -21.5 56q0 25 13 49.5t37 42.5h62q-30 -27 -43 -44.5t-13 -35.5q0 -16 9 -24.5t24 -8.5t27 8l16 -50q-13 -8 -24.5 -11t-28.5 -3q-36 0 -57.5 21z" />
    <glyph glyph-name="uni0335" unicode="&#x335;" horiz-adv-x="0" 
d="M-270 378h270v-56h-270v56z" />
    <glyph glyph-name="uni0336" unicode="&#x336;" horiz-adv-x="0" 
d="M-626 379h626v-58h-626v58z" />
    <glyph glyph-name="uni0337" unicode="&#x337;" horiz-adv-x="0" 
d="M-270 321l243 135l27 -47l-243 -135z" />
    <glyph glyph-name="uni0338" unicode="&#x338;" horiz-adv-x="0" 
d="M-472 -1l426 541l46 -35l-426 -541z" />
    <glyph glyph-name="uni037E" unicode="&#x37e;" horiz-adv-x="222" 
d="M84.5 378.5q-14.5 14.5 -14.5 36.5t14.5 36.5t36.5 14.5t36.5 -14.5t14.5 -36.5t-14.5 -36.5t-36.5 -14.5t-36.5 14.5zM80 88h92l-96 -165h-46z" />
    <glyph glyph-name="tonos" unicode="&#x384;" horiz-adv-x="259" 
d="M106 700h93l-89 -140h-50z" />
    <glyph glyph-name="dieresistonos" unicode="&#x385;" horiz-adv-x="329" 
d="M152 700h73l-79 -140h-40zM32 601q-12 12 -12 29q0 18 12 30.5t30 12.5q19 0 31 -12.5t12 -30.5q0 -17 -12 -29t-31 -12q-18 0 -30 12zM236.5 601q-12.5 12 -12.5 29q0 18 12.5 30.5t29.5 12.5q18 0 30.5 -12.5t12.5 -30.5q0 -17 -12.5 -29t-30.5 -12q-17 0 -29.5 12z
" />
    <glyph glyph-name="Alphatonos" unicode="&#x386;" horiz-adv-x="588" 
d="M265 700h58l253 -700h-68l-70 199h-288l-70 -199h-68zM417 261l-123 349l-123 -349h246zM82 700h93l-89 -140h-50z" />
    <glyph glyph-name="anoteleia" unicode="&#x387;" horiz-adv-x="222" 
d="M74.5 313.5q-14.5 14.5 -14.5 36.5t14.5 36.5t36.5 14.5t36.5 -14.5t14.5 -36.5t-14.5 -36.5t-36.5 -14.5t-36.5 14.5z" />
    <glyph glyph-name="Epsilontonos" unicode="&#x388;" horiz-adv-x="551" 
d="M90 700h395v-62h-329v-234h269v-62h-269v-280h339v-62h-405v700zM-53 700h93l-89 -140h-50z" />
    <glyph glyph-name="Etatonos" unicode="&#x389;" horiz-adv-x="668" 
d="M90 700h66v-296h356v296h66v-700h-66v342h-356v-342h-66v700zM-53 700h93l-89 -140h-50z" />
    <glyph glyph-name="Iotatonos" unicode="&#x38a;" horiz-adv-x="246" 
d="M90 700h66v-700h-66v700zM-53 700h93l-89 -140h-50z" />
    <glyph glyph-name="Omicrontonos" unicode="&#x38c;" horiz-adv-x="718" 
d="M206 36q-70 44 -112 125t-42 189t42 189t112 125t153 44t153 -44t112 -125t42 -189t-42 -189t-112 -125t-153 -44t-153 44zM480 88q54 34 85.5 100.5t31.5 161.5t-31.5 161.5t-85.5 100.5t-121 34t-121 -34t-85.5 -100.5t-31.5 -161.5t31.5 -161.5t85.5 -100.5t121 -34
t121 34zM-1 700h93l-89 -140h-50z" />
    <glyph glyph-name="Upsilontonos" unicode="&#x38e;" horiz-adv-x="512" 
d="M223 304l-211 396h77l167 -331l167 331h77l-211 -396v-304h-66v304zM-101 700h93l-89 -140h-50z" />
    <glyph glyph-name="Omegatonos" unicode="&#x38f;" horiz-adv-x="674" 
d="M44 62h160q-75 71 -122.5 153t-47.5 180q0 90 37 161t105.5 111.5t160.5 40.5t160.5 -40.5t105.5 -111.5t37 -161q0 -98 -47.5 -180t-122.5 -153h160v-62h-242v62q96 84 139.5 159.5t43.5 173.5q0 74 -29.5 131t-82.5 88.5t-122 31.5t-122 -31.5t-82.5 -88.5t-29.5 -131
q0 -98 43.5 -173.5t139.5 -159.5v-62h-242v62zM-33 700h93l-89 -140h-50z" />
    <glyph glyph-name="iotadieresistonos" unicode="&#x390;" horiz-adv-x="218" 
d="M78 504h62v-504h-62v504zM96 700h73l-79 -140h-40zM-24 601q-12 12 -12 29q0 18 12 30.5t30 12.5q19 0 31 -12.5t12 -30.5q0 -17 -12 -29t-31 -12q-18 0 -30 12zM180.5 601q-12.5 12 -12.5 29q0 18 12.5 30.5t29.5 12.5q18 0 30.5 -12.5t12.5 -30.5q0 -17 -12.5 -29
t-30.5 -12q-17 0 -29.5 12z" />
    <glyph glyph-name="Alpha" unicode="&#x391;" horiz-adv-x="588" 
d="M265 700h58l253 -700h-68l-70 199h-288l-70 -199h-68zM417 261l-123 349l-123 -349h246z" />
    <glyph glyph-name="Beta" unicode="&#x392;" horiz-adv-x="604" 
d="M90 700h225q92 0 143.5 -47.5t51.5 -131.5q0 -54 -24.5 -87.5t-63.5 -50.5q57 -20 90.5 -65t33.5 -116q0 -92 -58 -147t-157 -55h-241v700zM315 404q62 0 94.5 29.5t32.5 87.5t-32.5 87.5t-94.5 29.5h-159v-234h159zM318 62q79 0 119 32.5t40 107.5t-40 107.5t-119 32.5
h-162v-280h162z" />
    <glyph glyph-name="Gamma" unicode="&#x393;" horiz-adv-x="515" 
d="M90 700h395v-62h-329v-638h-66v700z" />
    <glyph glyph-name="uni0394" unicode="&#x394;" horiz-adv-x="588" 
d="M576 0h-564l253 700h58zM486 62l-192 548l-192 -548h384z" />
    <glyph glyph-name="Epsilon" unicode="&#x395;" horiz-adv-x="551" 
d="M90 700h395v-62h-329v-234h269v-62h-269v-280h339v-62h-405v700z" />
    <glyph glyph-name="Zeta" unicode="&#x396;" horiz-adv-x="533" 
d="M43 32l352 606h-340v62h428v-32l-348 -606h355v-62h-447v32z" />
    <glyph glyph-name="Eta" unicode="&#x397;" horiz-adv-x="668" 
d="M90 700h66v-296h356v296h66v-700h-66v342h-356v-342h-66v700z" />
    <glyph glyph-name="Theta" unicode="&#x398;" horiz-adv-x="718" 
d="M206 36q-70 44 -112 125t-42 189t42 189t112 125t153 44t153 -44t112 -125t42 -189t-42 -189t-112 -125t-153 -44t-153 44zM480 88q54 34 85.5 100.5t31.5 161.5t-31.5 161.5t-85.5 100.5t-121 34t-121 -34t-85.5 -100.5t-31.5 -161.5t31.5 -161.5t85.5 -100.5t121 -34
t121 34zM239 378h241v-56h-241v56z" />
    <glyph glyph-name="Iota" unicode="&#x399;" horiz-adv-x="246" 
d="M90 700h66v-700h-66v700z" />
    <glyph glyph-name="Kappa" unicode="&#x39a;" horiz-adv-x="554" 
d="M90 700h66v-299l273 299h84l-287 -314l312 -386h-81l-301 371v-371h-66v700z" />
    <glyph glyph-name="Lambda" unicode="&#x39b;" horiz-adv-x="588" 
d="M265 700h58l253 -700h-68l-214 610l-214 -610h-68z" />
    <glyph glyph-name="Mu" unicode="&#x39c;" horiz-adv-x="760" 
d="M90 700h82l208 -527l208 527h82v-700h-66v572l-203 -508h-42l-203 508v-572h-66v700z" />
    <glyph glyph-name="Nu" unicode="&#x39d;" horiz-adv-x="671" 
d="M90 700h78l347 -595v595h66v-700h-78l-347 593v-593h-66v700z" />
    <glyph glyph-name="Xi" unicode="&#x39e;" horiz-adv-x="537" 
d="M61 700h415v-62h-415v62zM111 404h315v-62h-315v62zM56 62h425v-62h-425v62z" />
    <glyph glyph-name="Omicron" unicode="&#x39f;" horiz-adv-x="718" 
d="M206 36q-70 44 -112 125t-42 189t42 189t112 125t153 44t153 -44t112 -125t42 -189t-42 -189t-112 -125t-153 -44t-153 44zM480 88q54 34 85.5 100.5t31.5 161.5t-31.5 161.5t-85.5 100.5t-121 34t-121 -34t-85.5 -100.5t-31.5 -161.5t31.5 -161.5t85.5 -100.5t121 -34
t121 34z" />
    <glyph glyph-name="Pi" unicode="&#x3a0;" horiz-adv-x="658" 
d="M90 700h478v-700h-66v638h-346v-638h-66v700z" />
    <glyph glyph-name="Rho" unicode="&#x3a1;" horiz-adv-x="574" 
d="M90 700h238q94 0 148 -51.5t54 -141.5t-54 -141.5t-148 -51.5h-172v-314h-66v700zM329 376q68 0 100 35.5t32 95.5t-32 95.5t-100 35.5h-173v-262h173z" />
    <glyph glyph-name="Sigma" unicode="&#x3a3;" horiz-adv-x="529" 
d="M57 32l215 318l-215 318v32h408v-62h-310l185 -278v-20l-185 -278h318v-62h-416v32z" />
    <glyph glyph-name="Tau" unicode="&#x3a4;" horiz-adv-x="544" 
d="M239 638h-209v62h484v-62h-209v-638h-66v638z" />
    <glyph glyph-name="Upsilon" unicode="&#x3a5;" horiz-adv-x="512" 
d="M223 304l-211 396h77l167 -331l167 331h77l-211 -396v-304h-66v304z" />
    <glyph glyph-name="Phi" unicode="&#x3a6;" horiz-adv-x="758" 
d="M346 72q-88 0 -154.5 34.5t-103 97.5t-36.5 146t36.5 146t103 97.5t154.5 34.5v72h66v-72q88 0 154.5 -34.5t103 -97.5t36.5 -146t-36.5 -146t-103 -97.5t-154.5 -34.5v-72h-66v72zM346 566q-104 0 -164.5 -58.5t-60.5 -157.5t60.5 -157.5t164.5 -58.5v432zM576.5 192.5
q60.5 58.5 60.5 157.5t-60.5 157.5t-164.5 58.5v-432q104 0 164.5 58.5z" />
    <glyph glyph-name="Chi" unicode="&#x3a7;" horiz-adv-x="556" 
d="M242 385l-183 315h73l146 -254l146 254h73l-183 -315l226 -385h-73l-189 323l-189 -323h-73z" />
    <glyph glyph-name="Psi" unicode="&#x3a8;" horiz-adv-x="722" 
d="M328 188q-76 0 -133 34t-87 93t-30 133v252h66v-252q0 -89 48.5 -143.5t130.5 -54.5h5v450h66v-450h5q82 0 130.5 54.5t48.5 143.5v252h66v-252q0 -74 -30 -133t-87 -93t-133 -34v-188h-66v188z" />
    <glyph glyph-name="uni03A9" unicode="&#x3a9;" horiz-adv-x="674" 
d="M44 62h160q-75 71 -122.5 153t-47.5 180q0 90 37 161t105.5 111.5t160.5 40.5t160.5 -40.5t105.5 -111.5t37 -161q0 -98 -47.5 -180t-122.5 -153h160v-62h-242v62q96 84 139.5 159.5t43.5 173.5q0 74 -29.5 131t-82.5 88.5t-122 31.5t-122 -31.5t-82.5 -88.5t-29.5 -131
q0 -98 43.5 -173.5t139.5 -159.5v-62h-242v62z" />
    <glyph glyph-name="Iotadieresis" unicode="&#x3aa;" horiz-adv-x="246" 
d="M90 700h66v-700h-66v700zM11 800q-14 14 -14 34q0 21 14 35.5t35 14.5t35 -14.5t14 -35.5q0 -20 -14 -34t-35 -14t-35 14zM165 800q-14 14 -14 34q0 21 14 35.5t34 14.5q21 0 35.5 -14.5t14.5 -35.5q0 -20 -14.5 -34t-35.5 -14q-20 0 -34 14z" />
    <glyph glyph-name="Upsilondieresis" unicode="&#x3ab;" horiz-adv-x="512" 
d="M223 304l-211 396h77l167 -331l167 331h77l-211 -396v-304h-66v304zM144 800q-14 14 -14 34q0 21 14 35.5t35 14.5t35 -14.5t14 -35.5q0 -20 -14 -34t-35 -14t-35 14zM298 800q-14 14 -14 34q0 21 14 35.5t34 14.5q21 0 35.5 -14.5t14.5 -35.5q0 -20 -14.5 -34t-35.5 -14
q-20 0 -34 14z" />
    <glyph glyph-name="alphatonos" unicode="&#x3ac;" horiz-adv-x="572" 
d="M151 26.5q-51 34.5 -77 93.5t-26 132t26 132t77 93.5t122 34.5q50 0 91 -20.5t68 -58.5v30v41h62v-504h-62v42v30q-23 -33 -67.5 -56.5t-91.5 -23.5q-71 0 -122 34.5zM396 106.5q42 56.5 42 145.5q0 88 -42.5 145t-119.5 57t-120 -57t-43 -145q0 -89 42.5 -145.5
t120.5 -56.5t120 56.5zM298 700h93l-89 -140h-50z" />
    <glyph glyph-name="epsilontonos" unicode="&#x3ad;" horiz-adv-x="424" 
d="M130.5 11q-38.5 19 -61.5 52.5t-23 75.5q0 48 25.5 79t66.5 47q-36 16 -55 46.5t-19 66.5q0 61 43 97.5t110 36.5q61 0 101 -31t50 -87l-57 -13q-9 37 -33.5 55t-60.5 18q-40 0 -65.5 -20.5t-25.5 -56.5q0 -40 26 -62.5t69 -22.5h27v-54h-25q-52 0 -82 -24t-30 -72
q0 -41 30.5 -66.5t73.5 -25.5q88 0 111 90l58 -11q-11 -64 -54.5 -100.5t-114.5 -36.5q-46 0 -84.5 19zM233 700h93l-89 -140h-50z" />
    <glyph glyph-name="etatonos" unicode="&#x3ae;" horiz-adv-x="546" 
d="M406 338q0 56 -25.5 86t-77.5 30q-46 0 -83 -28.5t-58.5 -81.5t-21.5 -123v-221h-62v504h62v-105q26 51 72.5 82t100.5 31q72 0 113.5 -43.5t41.5 -122.5v-550h-62v542zM302 700h93l-89 -140h-50z" />
    <glyph glyph-name="iotatonos" unicode="&#x3af;" horiz-adv-x="218" 
d="M78 504h62v-504h-62v504zM127 700h93l-89 -140h-50z" />
    <glyph glyph-name="upsilondieresistonos" unicode="&#x3b0;" horiz-adv-x="546" 
d="M131.5 46.5q-53.5 54.5 -53.5 161.5v296h62v-288q0 -87 36 -126.5t97 -39.5t97 39.5t36 126.5v288h62v-296q0 -107 -53.5 -161.5t-141.5 -54.5t-141.5 54.5zM260 700h73l-79 -140h-40zM140 601q-12 12 -12 29q0 18 12 30.5t30 12.5q19 0 31 -12.5t12 -30.5q0 -17 -12 -29
t-31 -12q-18 0 -30 12zM344.5 601q-12.5 12 -12.5 29q0 18 12.5 30.5t29.5 12.5q18 0 30.5 -12.5t12.5 -30.5q0 -17 -12.5 -29t-30.5 -12q-17 0 -29.5 12z" />
    <glyph glyph-name="alpha" unicode="&#x3b1;" horiz-adv-x="572" 
d="M151 26.5q-51 34.5 -77 93.5t-26 132t26 132t77 93.5t122 34.5q50 0 91 -20.5t68 -58.5v30v41h62v-504h-62v42v30q-23 -33 -67.5 -56.5t-91.5 -23.5q-71 0 -122 34.5zM396 106.5q42 56.5 42 145.5q0 88 -42.5 145t-119.5 57t-120 -57t-43 -145q0 -89 42.5 -145.5
t120.5 -56.5t120 56.5z" />
    <glyph glyph-name="beta" unicode="&#x3b2;" horiz-adv-x="540" 
d="M78 503q0 64 25.5 110.5t69 70.5t98.5 24q54 0 95.5 -22.5t64.5 -62.5t23 -90q0 -54 -30.5 -95.5t-72.5 -51.5q58 -15 99.5 -62t41.5 -125q0 -61 -27 -108t-74 -73t-106 -26q-46 0 -86 18.5t-57 47.5v-262h-64v707zM392 91.5q36 41.5 36 107.5q0 77 -47.5 116t-125.5 39
h-32v56h38q60 0 94.5 33.5t34.5 89.5q0 53 -34 85t-85 32q-59 0 -94 -35.5t-35 -107.5v-300q0 -76 38 -116.5t105 -40.5q71 0 107 41.5z" />
    <glyph glyph-name="gamma" unicode="&#x3b3;" horiz-adv-x="452" 
d="M195 4l-179 500h65l145 -408l145 408h65l-179 -500v-208h-62v208z" />
    <glyph glyph-name="delta" unicode="&#x3b4;" horiz-adv-x="568" 
d="M159.5 28.5q-53.5 36.5 -82.5 96.5t-29 127q0 64 26.5 120.5t77.5 93t120 41.5l-168 131v62h363v-62h-265l192 -147q66 -50 96 -109.5t30 -129.5q0 -67 -29 -127t-82.5 -96.5t-124.5 -36.5t-124.5 36.5zM376.5 78.5q38.5 28.5 58.5 75t20 98.5t-20 98.5t-58.5 75
t-92.5 28.5t-92.5 -28.5t-58.5 -75t-20 -98.5t20 -98.5t58.5 -75t92.5 -28.5t92.5 28.5z" />
    <glyph glyph-name="epsilon" unicode="&#x3b5;" horiz-adv-x="424" 
d="M130.5 11q-38.5 19 -61.5 52.5t-23 75.5q0 48 25.5 79t66.5 47q-36 16 -55 46.5t-19 66.5q0 61 43 97.5t110 36.5q61 0 101 -31t50 -87l-57 -13q-9 37 -33.5 55t-60.5 18q-40 0 -65.5 -20.5t-25.5 -56.5q0 -40 26 -62.5t69 -22.5h27v-54h-25q-52 0 -82 -24t-30 -72
q0 -41 30.5 -66.5t73.5 -25.5q88 0 111 90l58 -11q-11 -64 -54.5 -100.5t-114.5 -36.5q-46 0 -84.5 19z" />
    <glyph glyph-name="zeta" unicode="&#x3b6;" horiz-adv-x="457" 
d="M192.5 -195q-41.5 17 -71.5 50l40 55q43 -64 123 -64q42 0 69 22.5t27 64.5q0 38 -25.5 61.5t-79.5 23.5h-47q-79 0 -133.5 44.5t-54.5 130.5q0 54 24 102t75 104l221 243h-296v58h380v-50l-256 -284q-44 -49 -63.5 -88t-19.5 -81q0 -60 34.5 -90.5t98.5 -30.5h45
q75 0 118.5 -38.5t43.5 -100.5q0 -40 -18.5 -74t-55 -54.5t-87.5 -20.5q-50 0 -91.5 17z" />
    <glyph glyph-name="eta" unicode="&#x3b7;" horiz-adv-x="546" 
d="M406 338q0 56 -25.5 86t-77.5 30q-46 0 -83 -28.5t-58.5 -81.5t-21.5 -123v-221h-62v504h62v-105q26 51 72.5 82t100.5 31q72 0 113.5 -43.5t41.5 -122.5v-550h-62v542z" />
    <glyph glyph-name="theta" unicode="&#x3b8;" horiz-adv-x="610" 
d="M170 35.5q-58 43.5 -90 124.5t-32 190t32 190t90 124.5t135 43.5t135 -43.5t90 -124.5t32 -190t-32 -190t-90 -124.5t-135 -43.5t-135 43.5zM496 379q-4 132 -54 201.5t-137 69.5t-137 -69.5t-54 -201.5h382zM442 119.5q50 69.5 54 201.5h-382q4 -132 54 -201.5
t137 -69.5t137 69.5z" />
    <glyph glyph-name="iota" unicode="&#x3b9;" horiz-adv-x="218" 
d="M78 504h62v-504h-62v504z" />
    <glyph glyph-name="kappa" unicode="&#x3ba;" horiz-adv-x="459" 
d="M78 504h62v-223l211 223h78l-218 -231l236 -273h-79l-228 265v-265h-62v504z" />
    <glyph glyph-name="lambda" unicode="&#x3bb;" horiz-adv-x="440" 
d="M192 504l-28 77q-15 40 -34 55t-49 15q-17 0 -32 -6l-12 53q22 10 49 10q92 0 129 -102l215 -606h-65l-140 408l-150 -408h-65z" />
    <glyph glyph-name="uni03BC" unicode="&#x3bc;" horiz-adv-x="546" 
d="M78 504h62v-338q0 -56 25.5 -86t77.5 -30q46 0 83 28.5t58.5 81.5t21.5 123v221h62v-504h-62v105q-26 -51 -70.5 -82t-97.5 -31q-32 0 -58 11.5t-40 31.5v-239h-62v708z" />
    <glyph glyph-name="nu" unicode="&#x3bd;" horiz-adv-x="440" 
d="M16 504h65l139 -421l139 421h65l-170 -504h-68z" />
    <glyph glyph-name="xi" unicode="&#x3be;" horiz-adv-x="460" 
d="M190.5 -192q-40.5 20 -73.5 68l45 40q52 -70 116 -70q44 0 71 22t27 65q0 39 -25 62t-80 23h-35q-50 0 -93.5 23.5t-69 67t-25.5 101.5q0 68 34 111t84 61q-44 21 -71 59t-27 90q0 47 23 87.5t66.5 65t102.5 24.5q74 0 124.5 -40.5t63.5 -117.5l-62 -12q-11 54 -42.5 83
t-83.5 29q-57 0 -92 -33.5t-35 -86.5q0 -54 37 -86t99 -32h66v-58h-74q-62 0 -105 -36t-43 -106q0 -69 41 -102.5t97 -33.5h28q76 0 119 -36.5t43 -100.5q0 -65 -44 -108t-118 -43q-48 0 -88.5 20z" />
    <glyph glyph-name="omicron" unicode="&#x3bf;" horiz-adv-x="568" 
d="M159.5 28.5q-53.5 36.5 -82.5 96.5t-29 127t29 127t82.5 96.5t124.5 36.5t124.5 -36.5t82.5 -96.5t29 -127t-29 -127t-82.5 -96.5t-124.5 -36.5t-124.5 36.5zM376.5 78.5q38.5 28.5 58.5 75t20 98.5t-20 98.5t-58.5 75t-92.5 28.5t-92.5 -28.5t-58.5 -75t-20 -98.5
t20 -98.5t58.5 -75t92.5 -28.5t92.5 28.5z" />
    <glyph glyph-name="pi" unicode="&#x3c0;" horiz-adv-x="553" 
d="M115 448h-89v56h501v-56h-89v-448h-62v448h-199v-448h-62v448z" />
    <glyph glyph-name="rho" unicode="&#x3c1;" horiz-adv-x="572" 
d="M78 260q0 112 57.5 182t163.5 70q71 0 122 -34.5t77 -93.5t26 -132t-26 -132t-77 -93.5t-122 -34.5q-46 0 -90 21t-69 58v-30v-245h-62v464zM417.5 107q41.5 57 41.5 145q0 89 -41.5 145.5t-118.5 56.5t-118 -56t-41 -146q0 -89 41 -145.5t118 -56.5t118.5 57z" />
    <glyph glyph-name="uni03C2" unicode="&#x3c2;" horiz-adv-x="516" 
d="M142 -164l36 53q51 -43 105 -43q48 0 74.5 20t26.5 59q0 83 -90 83h-18q-61 0 -113.5 30t-83.5 85.5t-31 128.5q0 68 25.5 127.5t76 96t121.5 36.5q151 0 203 -139l-56 -22q-21 51 -56.5 77t-90.5 26q-77 0 -117.5 -57.5t-40.5 -144.5q0 -58 24 -100.5t64 -64t88 -21.5
h19q63 0 102 -35t39 -101q0 -39 -20 -71t-57.5 -51.5t-88.5 -19.5q-88 0 -141 48z" />
    <glyph glyph-name="sigma" unicode="&#x3c3;" horiz-adv-x="572" 
d="M159.5 28.5q-53.5 36.5 -82.5 96.5t-29 127t29 127t82.5 96.5t124.5 36.5q32 0 62 -8h220v-58h-122q37 -37 56.5 -88t19.5 -106q0 -67 -29 -127t-82.5 -96.5t-124.5 -36.5t-124.5 36.5zM376.5 78.5q38.5 28.5 58.5 75t20 98.5t-20 98.5t-58.5 75t-92.5 28.5t-92.5 -28.5
t-58.5 -75t-20 -98.5t20 -98.5t58.5 -75t92.5 -28.5t92.5 28.5z" />
    <glyph glyph-name="tau" unicode="&#x3c4;" horiz-adv-x="370" 
d="M154 446h-142v58h346v-58h-142v-446h-62v446z" />
    <glyph glyph-name="upsilon" unicode="&#x3c5;" horiz-adv-x="546" 
d="M131.5 46.5q-53.5 54.5 -53.5 161.5v296h62v-288q0 -87 36 -126.5t97 -39.5t97 39.5t36 126.5v288h62v-296q0 -107 -53.5 -161.5t-141.5 -54.5t-141.5 54.5z" />
    <glyph glyph-name="phi" unicode="&#x3c6;" horiz-adv-x="670" 
d="M304 -8q-77 0 -135 34.5t-89.5 94t-31.5 131.5q0 71 31 130t89 94t136 36v102h62v-102q78 -1 136 -36t89 -94t31 -130q0 -72 -31.5 -131.5t-89.5 -94t-135 -34.5v-196h-62v196zM304 50v404h-7q-84 0 -134 -56t-50 -146t50 -146t134 -56h7zM373 50q84 0 134 56t50 146
t-50 146t-134 56h-7v-404h7z" />
    <glyph glyph-name="chi" unicode="&#x3c7;" horiz-adv-x="428" 
d="M180 275l-142 229h69l107 -174l107 174h69l-142 -229l170 -275h-65l-139 220l-139 -220h-65z" />
    <glyph glyph-name="psi" unicode="&#x3c8;" horiz-adv-x="708" 
d="M323 -8q-76 0 -131.5 33.5t-84.5 92.5t-29 134v252h62v-252q0 -58 22.5 -104t64 -72t96.5 -26v564h62v-564q55 0 96.5 26t64 72t22.5 104v252h62v-252q0 -75 -29 -134t-84.5 -92.5t-131.5 -33.5v-196h-62v196z" />
    <glyph glyph-name="omega" unicode="&#x3c9;" horiz-adv-x="736" 
d="M131.5 17.5q-40.5 25.5 -65 76.5t-24.5 125q0 84 26 150t78 143l52 -37q-46 -66 -68.5 -126t-22.5 -128q0 -88 34 -129.5t85 -41.5q55 0 83 41t28 105v178h62v-178q0 -64 28 -105t83 -41q51 0 85 41.5t34 129.5q0 68 -22.5 128t-68.5 126l52 37q52 -77 78 -143t26 -150
q0 -74 -24.5 -125t-65 -76.5t-88.5 -25.5q-57 0 -91.5 24.5t-56.5 74.5q-22 -50 -56.5 -74.5t-91.5 -24.5q-48 0 -88.5 25.5z" />
    <glyph glyph-name="iotadieresis" unicode="&#x3ca;" horiz-adv-x="218" 
d="M78 504h62v-504h-62v504zM-3 604q-14 14 -14 34q0 21 14 35.5t35 14.5t35 -14.5t14 -35.5q0 -20 -14 -34t-35 -14t-35 14zM151 604q-14 14 -14 34q0 21 14 35.5t34 14.5q21 0 35.5 -14.5t14.5 -35.5q0 -20 -14.5 -34t-35.5 -14q-20 0 -34 14z" />
    <glyph glyph-name="upsilondieresis" unicode="&#x3cb;" horiz-adv-x="546" 
d="M131.5 46.5q-53.5 54.5 -53.5 161.5v296h62v-288q0 -87 36 -126.5t97 -39.5t97 39.5t36 126.5v288h62v-296q0 -107 -53.5 -161.5t-141.5 -54.5t-141.5 54.5zM161 604q-14 14 -14 34q0 21 14 35.5t35 14.5t35 -14.5t14 -35.5q0 -20 -14 -34t-35 -14t-35 14zM315 604
q-14 14 -14 34q0 21 14 35.5t34 14.5q21 0 35.5 -14.5t14.5 -35.5q0 -20 -14.5 -34t-35.5 -14q-20 0 -34 14z" />
    <glyph glyph-name="omicrontonos" unicode="&#x3cc;" horiz-adv-x="568" 
d="M159.5 28.5q-53.5 36.5 -82.5 96.5t-29 127t29 127t82.5 96.5t124.5 36.5t124.5 -36.5t82.5 -96.5t29 -127t-29 -127t-82.5 -96.5t-124.5 -36.5t-124.5 36.5zM376.5 78.5q38.5 28.5 58.5 75t20 98.5t-20 98.5t-58.5 75t-92.5 28.5t-92.5 -28.5t-58.5 -75t-20 -98.5
t20 -98.5t58.5 -75t92.5 -28.5t92.5 28.5zM302 700h93l-89 -140h-50z" />
    <glyph glyph-name="upsilontonos" unicode="&#x3cd;" horiz-adv-x="546" 
d="M131.5 46.5q-53.5 54.5 -53.5 161.5v296h62v-288q0 -87 36 -126.5t97 -39.5t97 39.5t36 126.5v288h62v-296q0 -107 -53.5 -161.5t-141.5 -54.5t-141.5 54.5zM291 700h93l-89 -140h-50z" />
    <glyph glyph-name="omegatonos" unicode="&#x3ce;" horiz-adv-x="736" 
d="M131.5 17.5q-40.5 25.5 -65 76.5t-24.5 125q0 84 26 150t78 143l52 -37q-46 -66 -68.5 -126t-22.5 -128q0 -88 34 -129.5t85 -41.5q55 0 83 41t28 105v178h62v-178q0 -64 28 -105t83 -41q51 0 85 41.5t34 129.5q0 68 -22.5 128t-68.5 126l52 37q52 -77 78 -143t26 -150
q0 -74 -24.5 -125t-65 -76.5t-88.5 -25.5q-57 0 -91.5 24.5t-56.5 74.5q-22 -50 -56.5 -74.5t-91.5 -24.5q-48 0 -88.5 25.5zM386 700h93l-89 -140h-50z" />
    <glyph glyph-name="uni0400" unicode="&#x400;" horiz-adv-x="551" 
d="M90 700h395v-62h-329v-234h269v-62h-269v-280h339v-62h-405v700zM158 896h93l70 -140h-50z" />
    <glyph glyph-name="uni0401" unicode="&#x401;" horiz-adv-x="551" 
d="M90 700h395v-62h-329v-234h269v-62h-269v-280h339v-62h-405v700zM184 800q-14 14 -14 34q0 21 14 35.5t35 14.5t35 -14.5t14 -35.5q0 -20 -14 -34t-35 -14t-35 14zM338 800q-14 14 -14 34q0 21 14 35.5t34 14.5q21 0 35.5 -14.5t14.5 -35.5q0 -20 -14.5 -34t-35.5 -14
q-20 0 -34 14z" />
    <glyph glyph-name="uni0402" unicode="&#x402;" horiz-adv-x="738" 
d="M426 0v64q22 -8 55 -8q62 0 102.5 39.5t40.5 114.5t-50.5 114.5t-125.5 39.5q-88 0 -161 -43v-321h-66v638h-191v62h478v-62h-221v-250q31 16 76.5 27t89.5 11q108 0 172.5 -58t64.5 -158q0 -66 -26 -115.5t-73.5 -76t-109.5 -26.5q-36 0 -55 8z" />
    <glyph glyph-name="uni0403" unicode="&#x403;" horiz-adv-x="515" 
d="M90 700h395v-62h-329v-638h-66v700zM337 896h93l-113 -140h-50z" />
    <glyph glyph-name="uni0404" unicode="&#x404;" horiz-adv-x="675" 
d="M489.5 95q50.5 41 70.5 116l65 -19q-27 -93 -96 -146.5t-168 -53.5q-82 0 -152.5 40t-113.5 121t-43 197t43 197t113.5 121t152.5 40q99 0 168 -53.5t96 -146.5l-65 -19q-20 75 -70.5 116t-128.5 41q-100 0 -164 -67t-74 -188h288v-62h-290q6 -131 71 -203t169 -72
q78 0 128.5 41z" />
    <glyph glyph-name="uni0405" unicode="&#x405;" horiz-adv-x="506" 
d="M157.5 17.5q-46.5 25.5 -76.5 68.5t-39 95l57 34q37 -161 162 -161q55 0 90.5 35t35.5 101q0 43 -19 72t-49.5 48.5t-83.5 44.5q-72 34 -113 78t-41 112q0 47 22 84.5t60.5 58t84.5 20.5q67 0 107 -28.5t63 -79.5l-54 -34q-36 80 -116 80q-46 0 -73.5 -28.5t-27.5 -67.5
q0 -38 19.5 -65.5t49 -45.5t78.5 -40q77 -35 119.5 -82.5t42.5 -123.5q0 -59 -25.5 -105t-70 -71t-99.5 -25q-57 0 -103.5 25.5z" />
    <glyph glyph-name="uni0406" unicode="&#x406;" horiz-adv-x="246" 
d="M90 700h66v-700h-66v700z" />
    <glyph glyph-name="uni0407" unicode="&#x407;" horiz-adv-x="246" 
d="M90 700h66v-700h-66v700zM11 800q-14 14 -14 34q0 21 14 35.5t35 14.5t35 -14.5t14 -35.5q0 -20 -14 -34t-35 -14t-35 14zM165 800q-14 14 -14 34q0 21 14 35.5t34 14.5q21 0 35.5 -14.5t14.5 -35.5q0 -20 -14.5 -34t-35.5 -14q-20 0 -34 14z" />
    <glyph glyph-name="uni0408" unicode="&#x408;" horiz-adv-x="503" 
d="M90.5 43.5q-49.5 51.5 -60.5 127.5l68 15q9 -62 41 -97t89 -35q58 0 94.5 36t36.5 108v502h66v-495q0 -67 -27 -115.5t-72 -73t-98 -24.5q-88 0 -137.5 51.5z" />
    <glyph glyph-name="uni0409" unicode="&#x409;" horiz-adv-x="991" 
d="M44 0v68q20 -6 39 -6q37 0 54.5 33.5t21.5 117.5l26 487h388v-284h157q101 0 159 -55.5t58 -152.5t-58 -152.5t-159 -55.5h-223v638h-263l-23 -430q-6 -110 -36.5 -161t-101.5 -51q-23 0 -39 4zM731 62q76 0 111.5 39.5t35.5 106.5t-35.5 106.5t-111.5 39.5h-158v-292
h158z" />
    <glyph glyph-name="uni040A" unicode="&#x40a;" horiz-adv-x="996" 
d="M896.5 351q55.5 -53 55.5 -146q0 -96 -55.5 -150.5t-151.5 -54.5h-233v342h-356v-342h-66v700h66v-296h356v296h66v-296h167q96 0 151.5 -53zM850 101q33 39 33 104q0 63 -33 100t-104 37h-168v-280h168q71 0 104 39z" />
    <glyph glyph-name="uni040B" unicode="&#x40b;" horiz-adv-x="758" 
d="M221 638h-191v62h478v-62h-221v-252q89 40 177 40q103 0 159.5 -48.5t56.5 -149.5v-228h-66v223q0 76 -42.5 108.5t-120.5 32.5q-87 0 -164 -46v-318h-66v638z" />
    <glyph glyph-name="uni040C" unicode="&#x40c;" horiz-adv-x="554" 
d="M90 700h66v-299l273 299h84l-287 -314l312 -386h-81l-301 371v-371h-66v700zM317 896h93l-113 -140h-50z" />
    <glyph glyph-name="uni040D" unicode="&#x40d;" horiz-adv-x="677" 
d="M90 700h66v-588l368 588h63v-700h-66v586l-368 -586h-63v700zM201 896h93l70 -140h-50z" />
    <glyph glyph-name="uni040E" unicode="&#x40e;" horiz-adv-x="524" 
d="M512 700l-299 -700h-67l81 189l-215 511h69l181 -428l182 428h68zM171.5 794q-30.5 37 -30.5 103h51q0 -42 17 -66t53 -24t53 24t17 66h51q0 -66 -30.5 -103t-90.5 -37t-90.5 37z" />
    <glyph glyph-name="uni040F" unicode="&#x40f;" horiz-adv-x="658" 
d="M296 0h-206v700h66v-638h346v638h66v-700h-206v-134h-66v134z" />
    <glyph glyph-name="uni0410" unicode="&#x410;" horiz-adv-x="588" 
d="M265 700h58l253 -700h-68l-70 199h-288l-70 -199h-68zM417 261l-123 349l-123 -349h246z" />
    <glyph glyph-name="uni0411" unicode="&#x411;" horiz-adv-x="574" 
d="M90 700h402v-62h-336v-242h172q94 0 148 -52.5t54 -145.5t-54 -145.5t-148 -52.5h-238v700zM329 62q68 0 100 37t32 99t-32 99t-100 37h-173v-272h173z" />
    <glyph glyph-name="uni0412" unicode="&#x412;" horiz-adv-x="604" 
d="M90 700h225q92 0 143.5 -47.5t51.5 -131.5q0 -54 -24.5 -87.5t-63.5 -50.5q57 -20 90.5 -65t33.5 -116q0 -92 -58 -147t-157 -55h-241v700zM315 404q62 0 94.5 29.5t32.5 87.5t-32.5 87.5t-94.5 29.5h-159v-234h159zM318 62q79 0 119 32.5t40 107.5t-40 107.5t-119 32.5
h-162v-280h162z" />
    <glyph glyph-name="uni0413" unicode="&#x413;" horiz-adv-x="515" 
d="M90 700h395v-62h-329v-638h-66v700z" />
    <glyph glyph-name="uni0414" unicode="&#x414;" horiz-adv-x="712" 
d="M40 62h45q24 29 36.5 60.5t19 88t13.5 173.5l19 316h423v-638h76v-196h-66v134h-500v-134h-66v196zM530 62v576h-301l-14 -255q-6 -114 -12.5 -173t-15.5 -90.5t-26 -57.5h369z" />
    <glyph glyph-name="uni0415" unicode="&#x415;" horiz-adv-x="551" 
d="M90 700h395v-62h-329v-234h269v-62h-269v-280h339v-62h-405v700z" />
    <glyph glyph-name="uni0416" unicode="&#x416;" horiz-adv-x="862" 
d="M328 386l-289 314h84l275 -299v299h66v-299l275 299h84l-289 -314l312 -386h-81l-301 371v-371h-66v371l-301 -371h-81z" />
    <glyph glyph-name="uni0417" unicode="&#x417;" horiz-adv-x="568" 
d="M134 42q-67 50 -86 137l60 18q15 -70 67 -109.5t123 -39.5q73 0 115.5 41.5t42.5 109.5q0 75 -51 110t-119 35h-49v60h49q65 0 103.5 32.5t38.5 92.5q0 56 -39.5 89.5t-104.5 33.5q-55 0 -95.5 -35t-50.5 -93l-59 12q8 51 38.5 90.5t74.5 60.5t91 21q65 0 112.5 -23.5
t72 -64t24.5 -89.5q0 -52 -27 -92.5t-76 -60.5q63 -22 97 -66.5t34 -107.5q0 -60 -27.5 -108.5t-78 -76t-117.5 -27.5q-96 0 -163 50z" />
    <glyph glyph-name="uni0418" unicode="&#x418;" horiz-adv-x="677" 
d="M90 700h66v-588l368 588h63v-700h-66v586l-368 -586h-63v700z" />
    <glyph glyph-name="uni0419" unicode="&#x419;" horiz-adv-x="677" 
d="M90 700h66v-588l368 588h63v-700h-66v586l-368 -586h-63v700zM248.5 794q-30.5 37 -30.5 103h51q0 -42 17 -66t53 -24t53 24t17 66h51q0 -66 -30.5 -103t-90.5 -37t-90.5 37z" />
    <glyph glyph-name="uni041A" unicode="&#x41a;" horiz-adv-x="554" 
d="M90 700h66v-299l273 299h84l-287 -314l312 -386h-81l-301 371v-371h-66v700z" />
    <glyph glyph-name="uni041B" unicode="&#x41b;" horiz-adv-x="680" 
d="M44 0v68q20 -6 39 -6q37 0 54.5 33.5t21.5 117.5l26 487h405v-700h-66v638h-280l-23 -430q-6 -110 -36.5 -161t-101.5 -51q-23 0 -39 4z" />
    <glyph glyph-name="uni041C" unicode="&#x41c;" horiz-adv-x="760" 
d="M90 700h82l208 -527l208 527h82v-700h-66v572l-203 -508h-42l-203 508v-572h-66v700z" />
    <glyph glyph-name="uni041D" unicode="&#x41d;" horiz-adv-x="668" 
d="M90 700h66v-296h356v296h66v-700h-66v342h-356v-342h-66v700z" />
    <glyph glyph-name="uni041E" unicode="&#x41e;" horiz-adv-x="718" 
d="M206 36q-70 44 -112 125t-42 189t42 189t112 125t153 44t153 -44t112 -125t42 -189t-42 -189t-112 -125t-153 -44t-153 44zM480 88q54 34 85.5 100.5t31.5 161.5t-31.5 161.5t-85.5 100.5t-121 34t-121 -34t-85.5 -100.5t-31.5 -161.5t31.5 -161.5t85.5 -100.5t121 -34
t121 34z" />
    <glyph glyph-name="uni041F" unicode="&#x41f;" horiz-adv-x="658" 
d="M90 700h478v-700h-66v638h-346v-638h-66v700z" />
    <glyph glyph-name="uni0420" unicode="&#x420;" horiz-adv-x="574" 
d="M90 700h238q94 0 148 -51.5t54 -141.5t-54 -141.5t-148 -51.5h-172v-314h-66v700zM329 376q68 0 100 35.5t32 95.5t-32 95.5t-100 35.5h-173v-262h173z" />
    <glyph glyph-name="uni0421" unicode="&#x421;" horiz-adv-x="675" 
d="M208.5 32q-70.5 40 -113.5 121t-43 197t43 197t113.5 121t152.5 40q99 0 168 -53.5t96 -146.5l-65 -19q-20 75 -70.5 116t-128.5 41q-71 0 -125 -34.5t-84.5 -101.5t-30.5 -160t30.5 -160t84.5 -101.5t125 -34.5q78 0 128.5 41t70.5 116l65 -19q-27 -93 -96 -146.5
t-168 -53.5q-82 0 -152.5 40z" />
    <glyph glyph-name="uni0422" unicode="&#x422;" horiz-adv-x="544" 
d="M239 638h-209v62h484v-62h-209v-638h-66v638z" />
    <glyph glyph-name="uni0423" unicode="&#x423;" horiz-adv-x="524" 
d="M512 700l-299 -700h-67l81 189l-215 511h69l181 -428l182 428h68z" />
    <glyph glyph-name="uni0424" unicode="&#x424;" horiz-adv-x="782" 
d="M358 74h-7q-86 0 -154 34.5t-106.5 97t-38.5 144.5t38.5 144.5t106.5 97t154 34.5h7v84h66v-84h7q86 0 154 -34.5t106.5 -97t38.5 -144.5t-38.5 -144.5t-106.5 -97t-154 -34.5h-7v-84h-66v84zM358 132v436h-10q-70 0 -122.5 -28t-80.5 -77.5t-28 -112.5t28 -112.5
t80.5 -77.5t122.5 -28h10zM434 132q70 0 122.5 28t80.5 77.5t28 112.5t-28 112.5t-80.5 77.5t-122.5 28h-10v-436h10z" />
    <glyph glyph-name="uni0425" unicode="&#x425;" horiz-adv-x="556" 
d="M242 385l-183 315h73l146 -254l146 254h73l-183 -315l226 -385h-73l-189 323l-189 -323h-73z" />
    <glyph glyph-name="uni0426" unicode="&#x426;" horiz-adv-x="684" 
d="M578 0h-488v700h66v-638h346v638h66v-638h76v-196h-66v134z" />
    <glyph glyph-name="uni0427" unicode="&#x427;" horiz-adv-x="641" 
d="M485 309q-43 -17 -86 -24.5t-94 -7.5q-227 0 -227 224v199h66v-194q0 -90 43 -128.5t121 -38.5q52 0 93.5 8t83.5 27v326h66v-700h-66v309z" />
    <glyph glyph-name="uni0428" unicode="&#x428;" horiz-adv-x="946" 
d="M90 700h66v-638h284v638h66v-638h284v638h66v-700h-766v700z" />
    <glyph glyph-name="uni0429" unicode="&#x429;" horiz-adv-x="972" 
d="M866 0h-776v700h66v-638h284v638h66v-638h284v638h66v-638h76v-196h-66v134z" />
    <glyph glyph-name="uni042A" unicode="&#x42a;" horiz-adv-x="674" 
d="M190 638h-166v62h232v-284h157q101 0 159 -55.5t58 -152.5t-58 -152.5t-159 -55.5h-223v638zM414 62q76 0 111.5 39.5t35.5 106.5t-35.5 106.5t-111.5 39.5h-158v-292h158z" />
    <glyph glyph-name="uni042B" unicode="&#x42b;" horiz-adv-x="790" 
d="M90 700h66v-284h157q101 0 159 -55.5t58 -152.5t-58 -152.5t-159 -55.5h-223v700zM314 62q76 0 111.5 39.5t35.5 106.5t-35.5 106.5t-111.5 39.5h-158v-292h158zM634 700h66v-700h-66v700z" />
    <glyph glyph-name="uni042C" unicode="&#x42c;" horiz-adv-x="574" 
d="M90 700h66v-284h157q101 0 159 -55.5t58 -152.5t-58 -152.5t-159 -55.5h-223v700zM314 62q76 0 111.5 39.5t35.5 106.5t-35.5 106.5t-111.5 39.5h-158v-292h158z" />
    <glyph glyph-name="uni042D" unicode="&#x42d;" horiz-adv-x="675" 
d="M466.5 668q70.5 -40 113.5 -121t43 -197t-43 -197t-113.5 -121t-152.5 -40q-99 0 -168 53.5t-96 146.5l65 19q20 -75 70.5 -116t128.5 -41q104 0 169 72t71 203h-290v62h288q-10 121 -74 188t-164 67q-78 0 -128.5 -41t-70.5 -116l-65 19q27 93 96 146.5t168 53.5
q82 0 152.5 -40z" />
    <glyph glyph-name="uni042E" unicode="&#x42e;" horiz-adv-x="931" 
d="M727.5 664q69.5 -44 110.5 -125.5t41 -188.5q0 -108 -41 -189t-110.5 -125t-150.5 -44q-80 0 -148.5 43t-110.5 122.5t-43 184.5h-119v-342h-66v700h66v-296h122q10 93 52.5 161.5t107.5 105.5t139 37q81 0 150.5 -44zM695 88q53 34 84 100.5t31 161.5t-31 161.5
t-84 100.5t-118 34t-118 -34t-84 -100.5t-31 -161.5t31 -161.5t84 -100.5t118 -34t118 34z" />
    <glyph glyph-name="uni042F" unicode="&#x42f;" horiz-adv-x="614" 
d="M524 700v-700h-66v328h-131l-219 -328h-74l218 331q-73 11 -113 57t-40 126q0 92 53 139t147 47h225zM458 638h-155q-66 0 -101.5 -30.5t-35.5 -93.5t35.5 -93.5t101.5 -30.5h155v248z" />
    <glyph glyph-name="uni0430" unicode="&#x430;" horiz-adv-x="494" 
d="M94 29.5q-44 37.5 -44 115.5q0 82 60.5 123.5t168.5 41.5h87v22q0 63 -31 92.5t-85 29.5q-49 0 -78.5 -26t-41.5 -68l-60 14q10 63 60.5 100.5t119.5 37.5q77 0 127.5 -47.5t50.5 -130.5v-334h-47l-15 78q-23 -39 -62.5 -62.5t-96.5 -23.5q-69 0 -113 37.5zM284 68.5
q35 18.5 58.5 59.5t23.5 105v19h-85q-84 0 -125 -28t-41 -79q0 -46 26 -70.5t72 -24.5q36 0 71 18.5z" />
    <glyph glyph-name="uni0431" unicode="&#x431;" horiz-adv-x="573" 
d="M112.5 69q-64.5 77 -64.5 229q0 157 39 237t96 105.5t144 34.5q10 1 46 4.5t64 10.5t47 19l19 -52q-30 -17 -64 -24t-86 -12l-23 -2q-69 -7 -114 -25t-76.5 -71.5t-38.5 -158.5q25 63 78 95.5t125 32.5q67 0 117.5 -33.5t77 -90.5t26.5 -126t-29 -126t-83 -90.5
t-125 -33.5q-111 0 -175.5 77zM414.5 105q45.5 55 45.5 137t-45.5 137t-126.5 55t-126.5 -55t-45.5 -137t45.5 -137t126.5 -55t126.5 55z" />
    <glyph glyph-name="uni0432" unicode="&#x432;" horiz-adv-x="482" 
d="M78 504h189q63 0 101.5 -33.5t38.5 -91.5q0 -34 -16 -60.5t-41 -42.5q36 -17 56.5 -48t20.5 -74q0 -68 -44 -111t-118 -43h-187v504zM266 298q39 0 59 19t20 55t-20 55t-59 19h-126v-148h126zM262 58q51 0 77 23.5t26 67.5t-26 67.5t-77 23.5h-122v-182h122z" />
    <glyph glyph-name="uni0433" unicode="&#x433;" horiz-adv-x="414" 
d="M78 504h310v-58h-248v-446h-62v504z" />
    <glyph glyph-name="uni0434" unicode="&#x434;" horiz-adv-x="583" 
d="M30 58h59q18 24 28.5 69.5t16.5 129.5l18 247h325v-446h76v-182h-62v124h-399v-124h-62v182zM415 58v388h-209l-14 -194q-11 -148 -37 -194h260z" />
    <glyph glyph-name="uni0435" unicode="&#x435;" horiz-adv-x="541" 
d="M493 252h-381q0 -86 42 -144t118 -58q57 0 92 25t63 83l55 -27q-38 -75 -88 -107t-122 -32q-65 0 -116 34t-79.5 93.5t-28.5 132.5q0 75 28 134t79 92.5t117 33.5q64 0 114.5 -29t78.5 -81.5t28 -121.5v-28zM429 310q-9 67 -49.5 105.5t-107.5 38.5q-56 0 -98.5 -37
t-56.5 -107h312z" />
    <glyph glyph-name="uni0436" unicode="&#x436;" horiz-adv-x="700" 
d="M248 273l-218 231h78l211 -223v223h62v-223l211 223h78l-218 -231l236 -273h-79l-228 265v-265h-62v265l-228 -265h-79z" />
    <glyph glyph-name="uni0437" unicode="&#x437;" horiz-adv-x="434" 
d="M93 33q-46 41 -53 110l62 7q5 -46 35 -73t80 -27q49 0 77.5 25.5t28.5 66.5q0 46 -30.5 71t-85.5 25h-22v54h22q43 0 72 22t29 61q0 37 -25 58t-67 21q-41 0 -68.5 -21t-35.5 -59l-56 15q13 58 55.5 90.5t104.5 32.5q68 0 111 -35.5t43 -93.5q0 -82 -72 -115
q43 -14 66.5 -46t23.5 -79q0 -44 -22.5 -78.5t-61.5 -53.5t-87 -19q-78 0 -124 41z" />
    <glyph glyph-name="uni0438" unicode="&#x438;" horiz-adv-x="550" 
d="M78 504h62v-416l266 416h66v-504h-62v416l-266 -416h-66v504z" />
    <glyph glyph-name="uni0439" unicode="&#x439;" horiz-adv-x="550" 
d="M78 504h62v-416l266 416h66v-504h-62v416l-266 -416h-66v504zM186.5 597.5q-32.5 37.5 -32.5 102.5h51q0 -42 17 -66t53 -24t53 24t17 66h51q0 -65 -32.5 -102.5t-88.5 -37.5t-88.5 37.5z" />
    <glyph glyph-name="uni043A" unicode="&#x43a;" horiz-adv-x="459" 
d="M78 504h62v-223l211 223h78l-218 -231l236 -273h-79l-228 265v-265h-62v504z" />
    <glyph glyph-name="uni043B" unicode="&#x43b;" horiz-adv-x="554" 
d="M29 0v58q18 -5 34 -5q29 0 42.5 24t17.5 87l24 340h329v-504h-62v446h-212l-20 -289q-5 -84 -32 -123t-87 -39q-17 0 -34 5z" />
    <glyph glyph-name="uni043C" unicode="&#x43c;" horiz-adv-x="626" 
d="M78 504h84l151 -363l151 363h84v-504h-62v406l-151 -360h-44l-151 360v-406h-62v504z" />
    <glyph glyph-name="uni043D" unicode="&#x43d;" horiz-adv-x="544" 
d="M78 504h62v-206h264v206h62v-504h-62v240h-264v-240h-62v504z" />
    <glyph glyph-name="uni043E" unicode="&#x43e;" horiz-adv-x="568" 
d="M159.5 28.5q-53.5 36.5 -82.5 96.5t-29 127t29 127t82.5 96.5t124.5 36.5t124.5 -36.5t82.5 -96.5t29 -127t-29 -127t-82.5 -96.5t-124.5 -36.5t-124.5 36.5zM376.5 78.5q38.5 28.5 58.5 75t20 98.5t-20 98.5t-58.5 75t-92.5 28.5t-92.5 -28.5t-58.5 -75t-20 -98.5
t20 -98.5t58.5 -75t92.5 -28.5t92.5 28.5z" />
    <glyph glyph-name="uni043F" unicode="&#x43f;" horiz-adv-x="534" 
d="M78 504h378v-504h-62v446h-254v-446h-62v504z" />
    <glyph glyph-name="uni0440" unicode="&#x440;" horiz-adv-x="572" 
d="M78 504h62v-42v-30q21 33 65.5 56.5t93.5 23.5q71 0 122 -34.5t77 -93.5t26 -132t-26 -132t-77 -93.5t-122 -34.5q-46 0 -90 21t-69 58v-30v-245h-62v708zM416 107q43 57 43 145q0 89 -42.5 145.5t-120.5 56.5t-120 -56.5t-42 -145.5q0 -88 42.5 -145t119.5 -57t120 57z
" />
    <glyph glyph-name="uni0441" unicode="&#x441;" horiz-adv-x="516" 
d="M149.5 28.5q-50.5 36.5 -76 96t-25.5 127.5t25.5 127.5t76 96t121.5 36.5q151 0 203 -139l-56 -22q-40 103 -147 103q-77 0 -117.5 -57.5t-40.5 -144.5t40.5 -144.5t117.5 -57.5q55 0 90.5 26t56.5 77l56 -22q-26 -68 -77.5 -103.5t-125.5 -35.5q-71 0 -121.5 36.5z" />
    <glyph glyph-name="uni0442" unicode="&#x442;" horiz-adv-x="452" 
d="M195 446h-162v58h386v-58h-162v-446h-62v446z" />
    <glyph glyph-name="uni0443" unicode="&#x443;" horiz-adv-x="440" 
d="M430 504l-250 -708h-62l72 208l-180 500h65l149 -404l141 404h65z" />
    <glyph glyph-name="uni0444" unicode="&#x444;" horiz-adv-x="682" 
d="M310 -8q-80 0 -139.5 35.5t-91 95t-31.5 129.5t31.5 129.5t91 95t139.5 35.5v196h62v-196q80 0 139.5 -35.5t91 -95t31.5 -129.5t-31.5 -129.5t-91 -95t-139.5 -35.5v-196h-62v196zM310 50v404h-7q-89 0 -139.5 -56t-50.5 -146t50.5 -146t139.5 -56h7zM379 50
q89 0 139.5 56t50.5 146t-50.5 146t-139.5 56h-7v-404h7z" />
    <glyph glyph-name="uni0445" unicode="&#x445;" horiz-adv-x="428" 
d="M180 275l-142 229h69l107 -174l107 174h69l-142 -229l170 -275h-65l-139 220l-139 -220h-65z" />
    <glyph glyph-name="uni0446" unicode="&#x446;" horiz-adv-x="562" 
d="M470 0h-392v504h62v-446h254v446h62v-446h76v-182h-62v124z" />
    <glyph glyph-name="uni0447" unicode="&#x447;" horiz-adv-x="522" 
d="M382 215q-33 -15 -68.5 -22t-65.5 -7q-86 0 -132 42t-46 124v152h62v-151q0 -61 29.5 -86t89.5 -25q40 0 70 7t61 22v233h62v-504h-62v215z" />
    <glyph glyph-name="uni0448" unicode="&#x448;" horiz-adv-x="788" 
d="M78 504h62v-446h223v446h62v-446h223v446h62v-504h-632v504z" />
    <glyph glyph-name="uni0449" unicode="&#x449;" horiz-adv-x="816" 
d="M724 0h-646v504h62v-446h223v446h62v-446h223v446h62v-446h76v-182h-62v124z" />
    <glyph glyph-name="uni044A" unicode="&#x44a;" horiz-adv-x="533" 
d="M147 446h-123v58h185v-202h111q81 0 123 -41t42 -110t-42 -110t-123 -41h-173v446zM313 58q52 0 77.5 22.5t25.5 70.5q0 93 -103 93h-104v-186h104z" />
    <glyph glyph-name="uni044B" unicode="&#x44b;" horiz-adv-x="660" 
d="M78 504h62v-202h111q81 0 123 -41t42 -110t-42 -110t-123 -41h-173v504zM244 58q52 0 77.5 22.5t25.5 70.5q0 93 -103 93h-104v-186h104zM520 504h62v-504h-62v504z" />
    <glyph glyph-name="uni044C" unicode="&#x44c;" horiz-adv-x="464" 
d="M78 504h62v-202h111q81 0 123 -41t42 -110t-42 -110t-123 -41h-173v504zM244 58q52 0 77.5 22.5t25.5 70.5q0 93 -103 93h-104v-186h104z" />
    <glyph glyph-name="uni044D" unicode="&#x44d;" horiz-adv-x="511" 
d="M124 26q-52 34 -82 101l58 26q42 -103 149 -103q70 0 106 47.5t42 125.5h-221v58h221q-6 78 -42 125.5t-106 47.5q-107 0 -149 -103l-58 26q30 67 82 101t123 34t119.5 -36.5t72.5 -95.5t24 -128t-24 -128t-72.5 -95.5t-119.5 -36.5t-123 34z" />
    <glyph glyph-name="uni044E" unicode="&#x44e;" horiz-adv-x="736" 
d="M579.5 476.5q52.5 -35.5 80.5 -95t28 -129.5t-28 -129.5t-80.5 -95t-121.5 -35.5q-67 0 -118.5 33.5t-80 90t-31.5 123.5h-88v-239h-62v504h62v-207h91q9 60 39 109t78 77.5t110 28.5q69 0 121.5 -35.5zM579.5 108q43.5 58 43.5 144t-43.5 144t-121.5 58t-121.5 -58
t-43.5 -144t43.5 -144t121.5 -58t121.5 58z" />
    <glyph glyph-name="uni044F" unicode="&#x44f;" horiz-adv-x="469" 
d="M391 504v-504h-62v212h-110h-8l-115 -212h-69l125 223q-45 16 -71 51.5t-26 83.5q0 64 45.5 105t118.5 41h172zM329 446h-113q-46 0 -72.5 -22t-26.5 -66t26.5 -66t72.5 -22h113v176z" />
    <glyph glyph-name="uni0450" unicode="&#x450;" horiz-adv-x="541" 
d="M493 252h-381q0 -86 42 -144t118 -58q57 0 92 25t63 83l55 -27q-38 -75 -88 -107t-122 -32q-65 0 -116 34t-79.5 93.5t-28.5 132.5q0 75 28 134t79 92.5t117 33.5q64 0 114.5 -29t78.5 -81.5t28 -121.5v-28zM429 310q-9 67 -49.5 105.5t-107.5 38.5q-56 0 -98.5 -37
t-56.5 -107h312zM134 700h93l70 -140h-50z" />
    <glyph glyph-name="uni0451" unicode="&#x451;" horiz-adv-x="541" 
d="M493 252h-381q0 -86 42 -144t118 -58q57 0 92 25t63 83l55 -27q-38 -75 -88 -107t-122 -32q-65 0 -116 34t-79.5 93.5t-28.5 132.5q0 75 28 134t79 92.5t117 33.5q64 0 114.5 -29t78.5 -81.5t28 -121.5v-28zM429 310q-9 67 -49.5 105.5t-107.5 38.5q-56 0 -98.5 -37
t-56.5 -107h312zM160 604q-14 14 -14 34q0 21 14 35.5t35 14.5t35 -14.5t14 -35.5q0 -20 -14 -34t-35 -14t-35 14zM314 604q-14 14 -14 34q0 21 14 35.5t34 14.5q21 0 35.5 -14.5t14.5 -35.5q0 -20 -14.5 -34t-35.5 -14q-20 0 -34 14z" />
    <glyph glyph-name="uni0452" unicode="&#x452;" horiz-adv-x="555" 
d="M338 -154q41 12 59 33.5t18 65.5v393q0 55 -27 85.5t-78 30.5q-46 0 -85 -29.5t-62 -84t-23 -125.5v-215h-62v578h-73v56h73v74h62v-74h135v-56h-135v-184q25 58 75 88t105 30q74 0 115.5 -43.5t41.5 -122.5v-410q0 -128 -125 -148z" />
    <glyph glyph-name="uni0453" unicode="&#x453;" horiz-adv-x="414" 
d="M78 504h310v-58h-248v-446h-62v504zM266 700h93l-113 -140h-50z" />
    <glyph glyph-name="uni0454" unicode="&#x454;" horiz-adv-x="516" 
d="M149.5 28.5q-50.5 36.5 -76 96t-25.5 127.5t25.5 127.5t76 96t121.5 36.5q151 0 203 -139l-56 -22q-40 103 -147 103q-70 0 -110.5 -48.5t-46.5 -124.5h221v-58h-221q6 -76 46.5 -124.5t110.5 -48.5q55 0 90.5 26t56.5 77l56 -22q-26 -68 -77.5 -103.5t-125.5 -35.5
q-71 0 -121.5 36.5z" />
    <glyph glyph-name="uni0455" unicode="&#x455;" horiz-adv-x="430" 
d="M105.5 32q-45.5 40 -59.5 98l55 29q16 -52 45.5 -80.5t81.5 -28.5q43 0 67 24t24 65q0 37 -27.5 58.5t-83.5 41.5q-62 22 -94.5 53.5t-32.5 87.5q0 60 40 96t101 36q48 0 82 -19t58 -59l-44 -38q-20 31 -44 44.5t-55 13.5q-32 0 -53 -19.5t-21 -52.5t26 -53.5t90 -43.5
q54 -20 88.5 -55.5t34.5 -89.5q0 -69 -42 -108.5t-114 -39.5q-77 0 -122.5 40z" />
    <glyph glyph-name="uni0456" unicode="&#x456;" horiz-adv-x="218" 
d="M78 504h62v-504h-62v504zM72.5 612.5q-14.5 14.5 -14.5 36.5t14.5 36.5t36.5 14.5t36.5 -14.5t14.5 -36.5t-14.5 -36.5t-36.5 -14.5t-36.5 14.5z" />
    <glyph glyph-name="uni0457" unicode="&#x457;" horiz-adv-x="218" 
d="M78 504h62v-504h-62v504zM-2.5 612.5q-14.5 14.5 -14.5 36.5t14.5 36.5t36.5 14.5t36.5 -14.5t14.5 -36.5t-14.5 -36.5t-36.5 -14.5t-36.5 14.5zM147.5 612.5q-14.5 14.5 -14.5 36.5t14.5 36.5t36.5 14.5t36.5 -14.5t14.5 -36.5t-14.5 -36.5t-36.5 -14.5t-36.5 14.5z" />
    <glyph glyph-name="uni0458" unicode="&#x458;" horiz-adv-x="218" 
d="M1 -154q41 12 59 33.5t18 65.5v559h62v-568q0 -128 -125 -148zM72.5 612.5q-14.5 14.5 -14.5 36.5t14.5 36.5t36.5 14.5t36.5 -14.5t14.5 -36.5t-14.5 -36.5t-36.5 -14.5t-36.5 14.5z" />
    <glyph glyph-name="uni0459" unicode="&#x459;" horiz-adv-x="780" 
d="M29 0v58q18 -5 34 -5q29 0 42.5 24t17.5 87l24 340h309v-202h111q81 0 123 -41t42 -110t-42 -110t-123 -41h-173v446h-192l-20 -289q-5 -84 -32 -123t-87 -39q-17 0 -34 5zM560 58q52 0 77.5 22.5t25.5 70.5q0 93 -103 93h-104v-186h104z" />
    <glyph glyph-name="uni045A" unicode="&#x45a;" horiz-adv-x="790" 
d="M78 504h62v-206h264v206h62v-206h111q81 0 123 -40.5t42 -108.5t-42 -108.5t-123 -40.5h-173v240h-264v-240h-62v504zM570 58q52 0 77.5 22t25.5 69q0 46 -25.5 68.5t-77.5 22.5h-104v-182h104z" />
    <glyph glyph-name="uni045B" unicode="&#x45b;" horiz-adv-x="555" 
d="M435.5 468.5q41.5 -43.5 41.5 -122.5v-346h-62v338q0 55 -27 85.5t-78 30.5q-46 0 -85 -29.5t-62 -84t-23 -125.5v-215h-62v578h-73v56h73v74h62v-74h135v-56h-135v-184q25 58 75 88t105 30q74 0 115.5 -43.5z" />
    <glyph glyph-name="uni045C" unicode="&#x45c;" horiz-adv-x="459" 
d="M78 504h62v-223l211 223h78l-218 -231l236 -273h-79l-228 265v-265h-62v504zM288 700h93l-113 -140h-50z" />
    <glyph glyph-name="uni045D" unicode="&#x45d;" horiz-adv-x="550" 
d="M78 504h62v-416l266 416h66v-504h-62v416l-266 -416h-66v504zM137 700h93l70 -140h-50z" />
    <glyph glyph-name="uni045E" unicode="&#x45e;" horiz-adv-x="440" 
d="M430 504l-250 -708h-62l72 208l-180 500h65l149 -404l141 404h65zM131.5 597.5q-32.5 37.5 -32.5 102.5h51q0 -42 17 -66t53 -24t53 24t17 66h51q0 -65 -32.5 -102.5t-88.5 -37.5t-88.5 37.5z" />
    <glyph glyph-name="uni045F" unicode="&#x45f;" horiz-adv-x="534" 
d="M236 0h-158v504h62v-446h254v446h62v-504h-158v-124h-62v124z" />
    <glyph glyph-name="uni0462" unicode="&#x462;" horiz-adv-x="644" 
d="M546 334.5q54 -51.5 54 -141.5t-54 -141.5t-148 -51.5h-238v509h-160v62h160v129h66v-129h256v-62h-256v-123h172q94 0 148 -51.5zM499 97.5q32 35.5 32 95.5t-32 95.5t-100 35.5h-173v-262h173q68 0 100 35.5z" />
    <glyph glyph-name="uni0463" unicode="&#x463;" horiz-adv-x="527" 
d="M437 257.5q42 -40.5 42 -108.5t-42 -108.5t-123 -40.5h-173v448h-125v56h125v204h62v-204h172v-56h-172v-150h111q81 0 123 -40.5zM391.5 80q25.5 22 25.5 69q0 46 -25.5 68.5t-77.5 22.5h-111v-182h111q52 0 77.5 22z" />
    <glyph glyph-name="uni0472" unicode="&#x472;" horiz-adv-x="718" 
d="M512 664q70 -44 112 -125t42 -189t-42 -189t-112 -125t-153 -44t-153 44t-112 125t-42 189t42 189t112 125t153 44t153 -44zM243 615.5q-52 -30.5 -84.5 -91t-36.5 -146.5h474q-4 86 -36.5 146.5t-84.5 91t-116 30.5t-116 -30.5zM475 84.5q52 30.5 84.5 91t36.5 146.5
h-474q4 -86 36.5 -146.5t84.5 -91t116 -30.5t116 30.5z" />
    <glyph glyph-name="uni0473" unicode="&#x473;" horiz-adv-x="568" 
d="M408.5 475.5q53.5 -36.5 82.5 -96.5t29 -127t-29 -127t-82.5 -96.5t-124.5 -36.5t-124.5 36.5t-82.5 96.5t-29 127t29 127t82.5 96.5t124.5 36.5t124.5 -36.5zM166.5 404q-44.5 -50 -52.5 -124h340q-8 74 -52.5 124t-117.5 50t-117.5 -50zM401.5 100q44.5 50 52.5 124
h-340q8 -74 52.5 -124t117.5 -50t117.5 50z" />
    <glyph glyph-name="uni0474" unicode="&#x474;" horiz-adv-x="685" 
d="M12 700h68l212 -606l176 502q19 55 47.5 83.5t75.5 28.5q43 0 74 -21l-27 -55q-21 14 -46 14q-23 0 -37 -17.5t-25 -50.5l-203 -578h-70z" />
    <glyph glyph-name="uni0475" unicode="&#x475;" horiz-adv-x="528" 
d="M16 504h65l139 -421l114 345q13 39 39 61.5t66 22.5q43 0 73 -24l-29 -51q-22 17 -44 17q-15 0 -26.5 -9t-16.5 -25l-142 -420h-68z" />
    <glyph glyph-name="uni0490" unicode="&#x490;" horiz-adv-x="515" 
d="M90 700h329v134h66v-196h-329v-638h-66v700z" />
    <glyph glyph-name="uni0491" unicode="&#x491;" horiz-adv-x="414" 
d="M78 504h246v124h64v-182h-248v-446h-62v504z" />
    <glyph glyph-name="uni0E3F" unicode="&#xe3f;" horiz-adv-x="604" 
d="M512.5 318q33.5 -45 33.5 -116q0 -92 -58 -147t-157 -55h-50v-90h-60v90h-131v700h131v90h60v-90h34q92 0 143.5 -47.5t51.5 -131.5q0 -54 -24.5 -87.5t-63.5 -50.5q57 -20 90.5 -65zM156 404h159q62 0 94.5 29.5t32.5 87.5t-32.5 87.5t-94.5 29.5h-159v-234zM437 94.5
q40 32.5 40 107.5t-40 107.5t-119 32.5h-162v-280h162q79 0 119 32.5z" />
    <glyph glyph-name="Wgrave" unicode="&#x1e80;" horiz-adv-x="860" 
d="M12 700h69l158 -597l161 523h60l161 -523l158 597h69l-192 -700h-67l-159 524l-159 -524h-67zM292 896h93l70 -140h-50z" />
    <glyph glyph-name="wgrave" unicode="&#x1e81;" horiz-adv-x="668" 
d="M14 504h65l118 -416l106 416h62l106 -416l118 416h65l-151 -504h-64l-105 412l-105 -412h-64zM196 700h93l70 -140h-50z" />
    <glyph glyph-name="Wacute" unicode="&#x1e82;" horiz-adv-x="860" 
d="M12 700h69l158 -597l161 523h60l161 -523l158 597h69l-192 -700h-67l-159 524l-159 -524h-67zM475 896h93l-113 -140h-50z" />
    <glyph glyph-name="wacute" unicode="&#x1e83;" horiz-adv-x="668" 
d="M14 504h65l118 -416l106 416h62l106 -416l118 416h65l-151 -504h-64l-105 412l-105 -412h-64zM379 700h93l-113 -140h-50z" />
    <glyph glyph-name="Wdieresis" unicode="&#x1e84;" horiz-adv-x="860" 
d="M12 700h69l158 -597l161 523h60l161 -523l158 597h69l-192 -700h-67l-159 524l-159 -524h-67zM318 800q-14 14 -14 34q0 21 14 35.5t35 14.5t35 -14.5t14 -35.5q0 -20 -14 -34t-35 -14t-35 14zM472 800q-14 14 -14 34q0 21 14 35.5t34 14.5q21 0 35.5 -14.5t14.5 -35.5
q0 -20 -14.5 -34t-35.5 -14q-20 0 -34 14z" />
    <glyph glyph-name="wdieresis" unicode="&#x1e85;" horiz-adv-x="668" 
d="M14 504h65l118 -416l106 416h62l106 -416l118 416h65l-151 -504h-64l-105 412l-105 -412h-64zM222 604q-14 14 -14 34q0 21 14 35.5t35 14.5t35 -14.5t14 -35.5q0 -20 -14 -34t-35 -14t-35 14zM376 604q-14 14 -14 34q0 21 14 35.5t34 14.5q21 0 35.5 -14.5t14.5 -35.5
q0 -20 -14.5 -34t-35.5 -14q-20 0 -34 14z" />
    <glyph glyph-name="uni1E9E" unicode="&#x1e9e;" horiz-adv-x="616" 
d="M238 11v62q57 -23 104 -23q75 0 112.5 40t37.5 112q0 84 -51.5 118t-126.5 34h-27v34l147 250h-150q-61 0 -94.5 -39.5t-33.5 -119.5v-479h-66v480q0 106 54 163t140 57h229v-41l-151 -257q49 -3 94 -24.5t73.5 -64.5t28.5 -107q0 -100 -59.5 -157t-154.5 -57
q-50 0 -106 19z" />
    <glyph glyph-name="Ygrave" unicode="&#x1ef2;" horiz-adv-x="512" 
d="M223 304l-211 396h77l167 -331l167 331h77l-211 -396v-304h-66v304zM118 896h93l70 -140h-50z" />
    <glyph glyph-name="ygrave" unicode="&#x1ef3;" horiz-adv-x="440" 
d="M430 504l-250 -708h-62l72 208l-180 500h65l149 -404l141 404h65zM82 700h93l70 -140h-50z" />
    <glyph glyph-name="endash" unicode="&#x2013;" horiz-adv-x="549" 
d="M70 345h409v-56h-409v56z" />
    <glyph glyph-name="emdash" unicode="&#x2014;" horiz-adv-x="754" 
d="M70 345h614v-56h-614v56z" />
    <glyph glyph-name="quoteleft" unicode="&#x2018;" horiz-adv-x="244" 
d="M161 708h45l-61 -184h-95z" />
    <glyph glyph-name="quoteright" unicode="&#x2019;" horiz-adv-x="244" 
d="M99 708h95l-111 -184h-45z" />
    <glyph glyph-name="quotesinglbase" unicode="&#x201a;" horiz-adv-x="244" 
d="M99 88h95l-111 -184h-45z" />
    <glyph glyph-name="quotedblleft" unicode="&#x201c;" horiz-adv-x="387" 
d="M161 708h45l-61 -184h-95zM304 708h45l-61 -184h-95z" />
    <glyph glyph-name="quotedblright" unicode="&#x201d;" horiz-adv-x="387" 
d="M99 708h95l-111 -184h-45zM242 708h95l-111 -184h-45z" />
    <glyph glyph-name="quotedblbase" unicode="&#x201e;" horiz-adv-x="387" 
d="M99 88h95l-111 -184h-45zM242 88h95l-111 -184h-45z" />
    <glyph glyph-name="dagger" unicode="&#x2020;" horiz-adv-x="400" 
d="M170 448h-135v56h135v246h60v-246h135v-56h-135v-498h-60v498z" />
    <glyph glyph-name="daggerdbl" unicode="&#x2021;" horiz-adv-x="400" 
d="M170 196h-135v56h135v196h-135v56h135v246h60v-246h135v-56h-135v-196h135v-56h-135v-246h-60v246z" />
    <glyph glyph-name="bullet" unicode="&#x2022;" horiz-adv-x="310" 
d="M109 284q-19 19 -19 46t19 46t46 19t46 -19t19 -46t-19 -46t-46 -19t-46 19z" />
    <glyph glyph-name="ellipsis" unicode="&#x2026;" horiz-adv-x="676" 
d="M74.5 12.5q-14.5 14.5 -14.5 36.5t14.5 36.5t36.5 14.5t36.5 -14.5t14.5 -36.5t-14.5 -36.5t-36.5 -14.5t-36.5 14.5zM301.5 12.5q-14.5 14.5 -14.5 36.5t14.5 36.5t36.5 14.5t36.5 -14.5t14.5 -36.5t-14.5 -36.5t-36.5 -14.5t-36.5 14.5zM528.5 12.5
q-14.5 14.5 -14.5 36.5t14.5 36.5t36.5 14.5t36.5 -14.5t14.5 -36.5t-14.5 -36.5t-36.5 -14.5t-36.5 14.5z" />
    <glyph glyph-name="perthousand" unicode="&#x2030;" horiz-adv-x="1204" 
d="M130 9l542 715l42 -33l-542 -715zM138.5 409.5q-35.5 21.5 -56 58t-20.5 80.5t20.5 80.5t56 58t80.5 21.5t80.5 -21.5t56 -58t20.5 -80.5t-20.5 -80.5t-56 -58t-80.5 -21.5t-80.5 21.5zM294 472q28 30 28 76t-28 76t-75 30t-75 -30t-28 -76t28 -76t75 -30t75 30z
M544.5 13.5q-35.5 21.5 -56 58t-20.5 80.5t20.5 80.5t56 58t80.5 21.5t80.5 -21.5t56 -58t20.5 -80.5t-20.5 -80.5t-56 -58t-80.5 -21.5t-80.5 21.5zM904.5 13.5q-35.5 21.5 -56 58t-20.5 80.5t20.5 80.5t56 58t80.5 21.5t80.5 -21.5t56 -58t20.5 -80.5t-20.5 -80.5t-56 -58
t-80.5 -21.5t-80.5 21.5zM700 76q28 30 28 76t-28 76t-75 30t-75 -30t-28 -76t28 -76t75 -30t75 30zM1060 76q28 30 28 76t-28 76t-75 30t-75 -30t-28 -76t28 -76t75 -30t75 30z" />
    <glyph glyph-name="guilsinglleft" unicode="&#x2039;" horiz-adv-x="373" 
d="M50 289v42l263 195v-68l-198 -148l198 -148v-68z" />
    <glyph glyph-name="guilsinglright" unicode="&#x203a;" horiz-adv-x="373" 
d="M60 162l198 148l-198 148v68l263 -195v-42l-263 -195v68z" />
    <glyph glyph-name="fraction" unicode="&#x2044;" horiz-adv-x="288" 
d="M-148 9l542 715l42 -33l-542 -715z" />
    <glyph glyph-name="uni2048" unicode="&#x2048;" horiz-adv-x="663" 
d="M138 228q-36 31 -36 90q0 47 27.5 79t86.5 63q49 26 70.5 41t29.5 28.5t8 35.5q0 40 -25.5 62.5t-72.5 22.5q-45 0 -72.5 -25.5t-40.5 -76.5l-63 11q12 70 59 109.5t124 39.5q68 0 111.5 -39t43.5 -101q0 -46 -26.5 -77t-96.5 -67q-42 -22 -63.5 -38.5t-29.5 -32
t-8 -37.5q0 -27 17 -44t43 -17q30 0 49 15.5t30 50.5l50 -19q-29 -105 -127 -105q-52 0 -88 31zM188.5 13.5q-15.5 15.5 -15.5 39.5t15.5 39.5t39.5 15.5t39.5 -15.5t15.5 -39.5t-15.5 -39.5t-39.5 -15.5t-39.5 15.5zM476 700h84l-22 -516h-40zM478.5 13.5
q-15.5 15.5 -15.5 39.5t15.5 39.5t39.5 15.5t39.5 -15.5t15.5 -39.5t-15.5 -39.5t-39.5 -15.5t-39.5 15.5z" />
    <glyph glyph-name="uni2049" unicode="&#x2049;" horiz-adv-x="663" 
d="M103 700h84l-22 -516h-40zM105.5 13.5q-15.5 15.5 -15.5 39.5t15.5 39.5t39.5 15.5t39.5 -15.5t15.5 -39.5t-15.5 -39.5t-39.5 -15.5t-39.5 15.5zM363 228q-36 31 -36 90q0 47 27.5 79t86.5 63q49 26 70.5 41t29.5 28.5t8 35.5q0 40 -25.5 62.5t-72.5 22.5
q-45 0 -72.5 -25.5t-40.5 -76.5l-63 11q12 70 59 109.5t124 39.5q68 0 111.5 -39t43.5 -101q0 -46 -26.5 -77t-96.5 -67q-42 -22 -63.5 -38.5t-29.5 -32t-8 -37.5q0 -27 17 -44t43 -17q30 0 49 15.5t30 50.5l50 -19q-29 -105 -127 -105q-52 0 -88 31zM413.5 13.5
q-15.5 15.5 -15.5 39.5t15.5 39.5t39.5 15.5t39.5 -15.5t15.5 -39.5t-15.5 -39.5t-39.5 -15.5t-39.5 15.5z" />
    <glyph glyph-name="uni2070" unicode="&#x2070;" horiz-adv-x="377" 
d="M82 351.5q-38 55.5 -38 148.5t38 148.5t107 55.5t106.5 -55.5t37.5 -148.5t-37.5 -148.5t-106.5 -55.5t-107 55.5zM255.5 384q24.5 40 24.5 116t-24.5 116t-66.5 40t-66.5 -40t-24.5 -116t24.5 -116t66.5 -40t66.5 40z" />
    <glyph glyph-name="uni2074" unicode="&#x2074;" horiz-adv-x="331" 
d="M202 383h-171v17l162 300h59v-269h52v-48h-52v-83h-50v83zM202 431v195l-102 -195h102z" />
    <glyph glyph-name="uni2075" unicode="&#x2075;" horiz-adv-x="323" 
d="M78.5 324.5q-33.5 28.5 -40.5 81.5l49 9q15 -71 74 -71q37 0 56.5 23t19.5 64q0 43 -20 65.5t-56 22.5q-23 0 -43.5 -12.5t-34.5 -32.5l-36 8l21 218h199v-48h-156l-13 -115q11 12 31 20t40 8q57 0 89.5 -35.5t32.5 -98.5q0 -62 -35.5 -98.5t-94.5 -36.5
q-49 0 -82.5 28.5z" />
    <glyph glyph-name="uni2076" unicode="&#x2076;" horiz-adv-x="349" 
d="M80 333.5q-36 37.5 -36 94.5q0 42 24 85l109 191h54l-91 -155q5 5 18 7.5t23 2.5q56 0 90 -36t34 -95q0 -57 -35.5 -94.5t-94.5 -37.5t-95 37.5zM230.5 367.5q20.5 23.5 20.5 60.5q0 39 -20 61t-56 22t-56.5 -22.5t-20.5 -60.5q0 -37 21 -60.5t56 -23.5t55.5 23.5z" />
    <glyph glyph-name="uni2077" unicode="&#x2077;" horiz-adv-x="282" 
d="M196 652h-164v48h228v-22l-155 -378h-54z" />
    <glyph glyph-name="uni2078" unicode="&#x2078;" horiz-adv-x="338" 
d="M79.5 329q-35.5 33 -35.5 89q0 36 17.5 61.5t44.5 35.5q-20 11 -33.5 33t-13.5 50q0 47 30.5 76.5t79.5 29.5t79.5 -29.5t30.5 -76.5q0 -28 -13.5 -50t-33.5 -33q27 -10 44.5 -35.5t17.5 -61.5q0 -56 -35.5 -89t-89.5 -33t-89.5 33zM214 554q17 17 17 44q0 28 -17 45
t-45 17t-45 -17t-17 -45q0 -27 17 -44t45 -17t45 17zM221 364.5q19 20.5 19 53.5q0 34 -19 52.5t-52 18.5t-52 -18.5t-19 -52.5q0 -33 19 -53.5t52 -20.5t52 20.5z" />
    <glyph glyph-name="uni2079" unicode="&#x2079;" horiz-adv-x="349" 
d="M209 451q-5 -5 -18 -7.5t-23 -2.5q-56 0 -90 36t-34 95q0 57 35.5 94.5t94.5 37.5t95 -37.5t36 -94.5q0 -42 -24 -85l-109 -191h-54zM230.5 511.5q20.5 22.5 20.5 60.5q0 37 -21 60.5t-56 23.5t-55.5 -23.5t-20.5 -60.5q0 -39 20 -61t56 -22t56.5 22.5z" />
    <glyph glyph-name="uni2080" unicode="&#x2080;" horiz-adv-x="377" 
d="M82 -152.5q-38 55.5 -38 148.5t38 148.5t107 55.5t106.5 -55.5t37.5 -148.5t-37.5 -148.5t-106.5 -55.5t-107 55.5zM255.5 -120q24.5 40 24.5 116t-24.5 116t-66.5 40t-66.5 -40t-24.5 -116t24.5 -116t66.5 -40t66.5 40z" />
    <glyph glyph-name="uni2081" unicode="&#x2081;" horiz-adv-x="221" 
d="M113 122l-85 -41v56l119 59h16v-400h-50v326z" />
    <glyph glyph-name="uni2082" unicode="&#x2082;" horiz-adv-x="319" 
d="M34 -185l147 183q22 28 31 47.5t9 42.5q0 29 -16 45.5t-46 16.5q-27 0 -43.5 -21t-20.5 -55l-54 14q5 49 37 80.5t81 31.5q54 0 85 -31t31 -81q0 -55 -39 -105l-111 -137h160v-50h-251v19z" />
    <glyph glyph-name="uni2083" unicode="&#x2083;" horiz-adv-x="322" 
d="M76.5 -177q-35.5 31 -40.5 86l54 8q4 -35 23 -56t52 -21q36 0 54 23.5t18 60.5t-18 59t-54 22q-19 0 -35 -10l-26 35l89 118h-135v48h213v-17l-100 -135q6 1 18 1q44 0 73 -32t29 -89q0 -56 -32.5 -94t-93.5 -38q-53 0 -88.5 31z" />
    <glyph glyph-name="uni2084" unicode="&#x2084;" horiz-adv-x="331" 
d="M202 -121h-171v17l162 300h59v-269h52v-48h-52v-83h-50v83zM202 -73v195l-102 -195h102z" />
    <glyph glyph-name="uni2085" unicode="&#x2085;" horiz-adv-x="323" 
d="M78.5 -179.5q-33.5 28.5 -40.5 81.5l49 9q15 -71 74 -71q37 0 56.5 23t19.5 64q0 43 -20 65.5t-56 22.5q-23 0 -43.5 -12.5t-34.5 -32.5l-36 8l21 218h199v-48h-156l-13 -115q11 12 31 20t40 8q57 0 89.5 -35.5t32.5 -98.5q0 -62 -35.5 -98.5t-94.5 -36.5
q-49 0 -82.5 28.5z" />
    <glyph glyph-name="uni2086" unicode="&#x2086;" horiz-adv-x="349" 
d="M80 -170.5q-36 37.5 -36 94.5q0 42 24 85l109 191h54l-91 -155q5 5 18 7.5t23 2.5q56 0 90 -36t34 -95q0 -57 -35.5 -94.5t-94.5 -37.5t-95 37.5zM230.5 -136.5q20.5 23.5 20.5 60.5q0 39 -20 61t-56 22t-56.5 -22.5t-20.5 -60.5q0 -37 21 -60.5t56 -23.5t55.5 23.5z" />
    <glyph glyph-name="uni2087" unicode="&#x2087;" horiz-adv-x="282" 
d="M196 148h-164v48h228v-22l-155 -378h-54z" />
    <glyph glyph-name="uni2088" unicode="&#x2088;" horiz-adv-x="338" 
d="M79.5 -175q-35.5 33 -35.5 89q0 36 17.5 61.5t44.5 35.5q-20 11 -33.5 33t-13.5 50q0 47 30.5 76.5t79.5 29.5t79.5 -29.5t30.5 -76.5q0 -28 -13.5 -50t-33.5 -33q27 -10 44.5 -35.5t17.5 -61.5q0 -56 -35.5 -89t-89.5 -33t-89.5 33zM214 50q17 17 17 44q0 28 -17 45
t-45 17t-45 -17t-17 -45q0 -27 17 -44t45 -17t45 17zM221 -139.5q19 20.5 19 53.5q0 34 -19 52.5t-52 18.5t-52 -18.5t-19 -52.5q0 -33 19 -53.5t52 -20.5t52 20.5z" />
    <glyph glyph-name="uni2089" unicode="&#x2089;" horiz-adv-x="349" 
d="M209 -53q-5 -5 -18 -7.5t-23 -2.5q-56 0 -90 36t-34 95q0 57 35.5 94.5t94.5 37.5t95 -37.5t36 -94.5q0 -42 -24 -85l-109 -191h-54zM230.5 7.5q20.5 22.5 20.5 60.5q0 37 -21 60.5t-56 23.5t-55.5 -23.5t-20.5 -60.5q0 -39 20 -61t56 -22t56.5 22.5z" />
    <glyph glyph-name="franc" unicode="&#x20a3;" horiz-adv-x="531" 
d="M159 638v-242h276v-62h-276v-144h142v-62h-142v-128h-66v128h-55v62h55v510h402v-62h-336z" />
    <glyph glyph-name="uni20A8" unicode="&#x20a8;" horiz-adv-x="968" 
d="M90 700h225q95 0 147.5 -44.5t52.5 -132.5q0 -76 -40 -120t-113 -54l218 -349h-74l-219 346h-131v-346h-66v700zM311 408q69 0 103 28t34 87t-34 87t-103 28h-155v-230h155zM643.5 32q-45.5 40 -59.5 98l55 29q16 -52 45.5 -80.5t81.5 -28.5q43 0 67 24t24 65
q0 37 -27.5 58.5t-83.5 41.5q-62 22 -94.5 53.5t-32.5 87.5q0 60 40 96t101 36q48 0 82 -19t58 -59l-44 -38q-20 31 -44 44.5t-55 13.5q-32 0 -53 -19.5t-21 -52.5t26 -53.5t90 -43.5q54 -20 88.5 -55.5t34.5 -89.5q0 -69 -42 -108.5t-114 -39.5q-77 0 -122.5 40z" />
    <glyph glyph-name="uni20A9" unicode="&#x20a9;" horiz-adv-x="600" 
d="M531 345h51v-62h-61l-45 -283h-67l-61 283h-96l-61 -283h-67l-45 283h-61v62h51l-57 355h65l52 -355h80l61 281h60l61 -281h80l52 355h65zM335 345l-35 160l-35 -160h70zM195 283h-57l23 -156zM462 283h-57l34 -156z" />
    <glyph glyph-name="uni20AA" unicode="&#x20aa;" horiz-adv-x="748" 
d="M489 156h-62v388q0 100 -100 100h-175v-644h-62v700h237q162 0 162 -156v-388zM259 544h62v-388q0 -100 100 -100h175v644h62v-700h-237q-162 0 -162 156v388z" />
    <glyph glyph-name="dong" unicode="&#x20ab;" horiz-adv-x="478" 
d="M97.5 229.5q-43.5 53.5 -43.5 138.5q0 84 43.5 138t121.5 54q36 0 65 -14.5t48 -39.5v30v64h-98v48h98v52h58v-52h50v-48h-50v-418h-58v19v30q-16 -23 -47 -39t-65 -16q-79 0 -122.5 53.5zM307 267q29 39 29 101t-29 100.5t-81 38.5q-53 0 -82 -38.5t-29 -100.5
q0 -63 29 -101.5t82 -38.5q52 0 81 39zM48 118h392v-48h-392v48z" />
    <glyph glyph-name="Euro" unicode="&#x20ac;" horiz-adv-x="612" 
d="M201.5 62q-67.5 70 -83.5 187h-83l29 56h50v45v45h-79l29 56h54q16 117 83.5 187t175.5 70q66 0 112 -29t79 -87l-55 -30q-20 43 -55.5 66.5t-80.5 23.5q-78 0 -128.5 -52t-65.5 -149h258l-29 -56h-234v-45v-45h263l-29 -56h-229q15 -97 65.5 -149t128.5 -52
q45 0 80.5 23.5t55.5 66.5l55 -30q-33 -58 -79 -87t-112 -29q-108 0 -175.5 70z" />
    <glyph glyph-name="uni20AD" unicode="&#x20ad;" horiz-adv-x="530" 
d="M144 356h-12v-356h-66v356h-44v56h44v288h66v-288h10l263 288h84l-263 -288h270v-56h-270l288 -356h-81z" />
    <glyph glyph-name="uni20B1" unicode="&#x20b1;" horiz-adv-x="641" 
d="M605 526h-67q1 -6 1 -19t-1 -19h67v-62h-80q-20 -54 -69 -83t-119 -29h-172v-314h-66v426h-63v62h63v38h-63v62h63v112h238q70 0 119 -29t69 -83h80v-62zM165 588h284q-32 50 -111 50h-173v-50zM469 526h-304v-38h304q1 6 1 19t-1 19zM449 426h-284v-50h173q79 0 111 50z
" />
    <glyph glyph-name="uni20B4" unicode="&#x20b4;" horiz-adv-x="526" 
d="M476 450v-56h-434v56h285q54 39 54 100q0 39 -27.5 67.5t-73.5 28.5q-80 0 -116 -80l-54 34q23 51 63 79.5t107 28.5q46 0 84.5 -20.5t60.5 -56.5t22 -82q0 -59 -32 -99h61zM42 306h434v-56h-317q-13 -28 -13 -65q0 -63 33.5 -97t87.5 -34q101 0 145 107l58 -34
q-26 -60 -79 -97.5t-124 -37.5q-55 0 -98 24.5t-67.5 68t-24.5 98.5q0 34 12 67h-47v56z" />
    <glyph glyph-name="uni20B8" unicode="&#x20b8;" horiz-adv-x="504" 
d="M30 700h444v-62h-444v62zM219 486h-189v62h444v-62h-189v-486h-66v486z" />
    <glyph glyph-name="uni20B9" unicode="&#x20b9;" horiz-adv-x="544" 
d="M409 641q32 -35 38 -89h61v-58h-61q-9 -72 -60.5 -110t-137.5 -38h-97l300 -346h-86l-330 376v29h209q60 0 94.5 21.5t42.5 67.5h-346v58h346q-8 46 -42.5 67.5t-94.5 21.5h-209v59h472v-59h-99z" />
    <glyph glyph-name="uni20BA" unicode="&#x20ba;" horiz-adv-x="524" 
d="M476 259v-66q0 -91 -52.5 -142t-146.5 -51h-178v181l-77 -48v62l77 48v58l-77 -48v62l77 48v337h66v-295l176 110v-62l-176 -110v-58l176 110v-62l-176 -110v-161h113q68 0 100 35.5t32 95.5v66h66z" />
    <glyph glyph-name="uni20BD" unicode="&#x20bd;" horiz-adv-x="593" 
d="M175 314v-90h252v-62h-252v-162h-66v162h-73v62h73v90h-73v62h73v324h238q94 0 148 -51.5t54 -141.5t-54 -141.5t-148 -51.5h-172zM175 376h173q68 0 100 35.5t32 95.5t-32 95.5t-100 35.5h-173v-262z" />
    <glyph glyph-name="uni20BF" unicode="&#x20bf;" horiz-adv-x="604" 
d="M499.5 67q-46.5 -53 -127.5 -64v-73h-66v70h-49v-70h-66v70h-101v700h101v70h66v-70h49v70h66v-75q66 -14 102 -59t36 -115q0 -54 -24.5 -87.5t-63.5 -50.5q57 -20 90.5 -65t33.5 -116q0 -82 -46.5 -135zM156 404h159q62 0 94.5 29.5t32.5 87.5t-32.5 87.5t-94.5 29.5
h-159v-234zM437 94.5q40 32.5 40 107.5t-40 107.5t-119 32.5h-162v-280h162q79 0 119 32.5z" />
    <glyph glyph-name="uni2113" unicode="&#x2113;" horiz-adv-x="393" 
d="M366 122q-21 -64 -55 -97t-93 -33t-92 33t-33 99v196q-23 -17 -45 -30l-32 45q49 31 77 53v207q0 46 24.5 79.5t76.5 33.5q51 0 73.5 -32.5t22.5 -77.5q0 -57 -29 -115t-80 -96l-22 -17v-249q0 -35 16.5 -53t45.5 -18q34 0 55.5 20.5t37.5 72.5zM159 592v-151
q32 30 50.5 72.5t18.5 84.5q0 50 -34 50q-35 0 -35 -56z" />
    <glyph glyph-name="uni2116" unicode="&#x2116;" horiz-adv-x="1095" 
d="M778 354.5q-40 26.5 -61.5 70.5t-21.5 93t21.5 93t61.5 70.5t93 26.5t93 -26.5t61.5 -70.5t21.5 -93t-21.5 -93t-61.5 -70.5t-93 -26.5t-93 26.5zM90 700h78l347 -595v595h66v-700h-78l-347 593v-593h-66v700zM952.5 425.5q29.5 39.5 29.5 92.5t-29.5 92.5t-81.5 39.5
t-81.5 -39.5t-29.5 -92.5t29.5 -92.5t81.5 -39.5t81.5 39.5zM726 246h290v-56h-290v56z" />
    <glyph glyph-name="uni2117" unicode="&#x2117;" horiz-adv-x="872" 
d="M243 11q-86 51 -134.5 140t-48.5 199t48.5 199t134.5 140t193 51t193 -51t134.5 -140t48.5 -199t-48.5 -199t-134.5 -140t-193 -51t-193 51zM599.5 65q71.5 43 111 118t39.5 167t-39.5 167t-111 118t-163.5 43t-163.5 -43t-111 -118t-39.5 -167t39.5 -167t111 -118
t163.5 -43t163.5 43zM314 563h144q61 0 97 -33.5t36 -88.5q0 -59 -35.5 -90.5t-97.5 -31.5h-85v-182h-59v426zM458 373q36 0 55 18t19 50q0 33 -19 50.5t-55 17.5h-85v-136h85z" />
    <glyph glyph-name="uni2120" unicode="&#x2120;" horiz-adv-x="808" 
d="M84.5 322.5q-36.5 30.5 -44.5 77.5l40 25q9 -44 31 -66t61 -22q32 0 53 18.5t21 50.5q0 33 -21.5 55t-70.5 40q-90 33 -90 110q0 42 29 69.5t76 27.5q41 0 64 -17t40 -50l-39 -25q-19 47 -65 47q-26 0 -42 -15t-16 -38q0 -27 17 -41.5t39.5 -24t30.5 -13.5
q46 -21 71.5 -49t25.5 -74q0 -50 -36.5 -83t-87.5 -33q-50 0 -86.5 30.5zM380 700h52l118 -282l118 282h52v-400h-49v295l-107 -258h-28l-107 258v-295h-49v400z" />
    <glyph glyph-name="trademark" unicode="&#x2122;" horiz-adv-x="811" 
d="M144 656h-114v44h277v-44h-114v-356h-49v356zM383 700h52l118 -282l118 282h52v-400h-49v295l-107 -258h-28l-107 258v-295h-49v400z" />
    <glyph glyph-name="uni2126" unicode="&#x2126;" horiz-adv-x="674" 
d="M44 62h160q-75 71 -122.5 153t-47.5 180q0 90 37 161t105.5 111.5t160.5 40.5t160.5 -40.5t105.5 -111.5t37 -161q0 -98 -47.5 -180t-122.5 -153h160v-62h-242v62q96 84 139.5 159.5t43.5 173.5q0 74 -29.5 131t-82.5 88.5t-122 31.5t-122 -31.5t-82.5 -88.5t-29.5 -131
q0 -98 43.5 -173.5t139.5 -159.5v-62h-242v62z" />
    <glyph glyph-name="estimated" unicode="&#x212e;" horiz-adv-x="762" 
d="M157 149q33 -50 93.5 -79.5t130.5 -29.5q86 0 156.5 39.5t102.5 109.5h56q-43 -88 -128.5 -142t-186.5 -54q-104 0 -184 48t-123.5 129.5t-43.5 179.5q0 99 43.5 181t123.5 129.5t184 47.5q101 0 181 -45.5t125 -127t45 -185.5h-575v-201zM252.5 635.5
q-59.5 -27.5 -95.5 -75.5v-163h453v160q-31 45 -92.5 75.5t-136.5 30.5q-69 0 -128.5 -27.5z" />
    <glyph glyph-name="uni2153" unicode="&#x2153;" horiz-adv-x="831" 
d="M113 626l-85 -41v56l119 59h16v-400h-50v326zM73 9l542 715l42 -33l-542 -715zM585.5 27q-35.5 31 -40.5 86l54 8q4 -35 23 -56t52 -21q36 0 54 23.5t18 60.5t-18 59t-54 22q-19 0 -35 -10l-26 35l89 118h-135v48h213v-17l-100 -135q6 1 18 1q44 0 73 -32t29 -89
q0 -56 -32.5 -94t-93.5 -38q-53 0 -88.5 31z" />
    <glyph glyph-name="uni2154" unicode="&#x2154;" horiz-adv-x="929" 
d="M34 319l147 183q22 28 31 47.5t9 42.5q0 29 -16 45.5t-46 16.5q-27 0 -43.5 -21t-20.5 -55l-54 14q5 49 37 80.5t81 31.5q54 0 85 -31t31 -81q0 -55 -39 -105l-111 -137h160v-50h-251v19zM171 9l542 715l42 -33l-542 -715zM683.5 27q-35.5 31 -40.5 86l54 8q4 -35 23 -56
t52 -21q36 0 54 23.5t18 60.5t-18 59t-54 22q-19 0 -35 -10l-26 35l89 118h-135v48h213v-17l-100 -135q6 1 18 1q44 0 73 -32t29 -89q0 -56 -32.5 -94t-93.5 -38q-53 0 -88.5 31z" />
    <glyph glyph-name="oneeighth" unicode="&#x215b;" horiz-adv-x="837" 
d="M113 626l-85 -41v56l119 59h16v-400h-50v326zM73 9l542 715l42 -33l-542 -715zM578.5 29q-35.5 33 -35.5 89q0 36 17.5 61.5t44.5 35.5q-20 11 -33.5 33t-13.5 50q0 47 30.5 76.5t79.5 29.5t79.5 -29.5t30.5 -76.5q0 -28 -13.5 -50t-33.5 -33q27 -10 44.5 -35.5
t17.5 -61.5q0 -56 -35.5 -89t-89.5 -33t-89.5 33zM713 254q17 17 17 44q0 28 -17 45t-45 17t-45 -17t-17 -45q0 -27 17 -44t45 -17t45 17zM720 64.5q19 20.5 19 53.5q0 34 -19 52.5t-52 18.5t-52 -18.5t-19 -52.5q0 -33 19 -53.5t52 -20.5t52 20.5z" />
    <glyph glyph-name="threeeighths" unicode="&#x215c;" horiz-adv-x="928" 
d="M76.5 327q-35.5 31 -40.5 86l54 8q4 -35 23 -56t52 -21q36 0 54 23.5t18 60.5t-18 59t-54 22q-19 0 -35 -10l-26 35l89 118h-135v48h213v-17l-100 -135q6 1 18 1q44 0 73 -32t29 -89q0 -56 -32.5 -94t-93.5 -38q-53 0 -88.5 31zM164 9l542 715l42 -33l-542 -715z
M669.5 29q-35.5 33 -35.5 89q0 36 17.5 61.5t44.5 35.5q-20 11 -33.5 33t-13.5 50q0 47 30.5 76.5t79.5 29.5t79.5 -29.5t30.5 -76.5q0 -28 -13.5 -50t-33.5 -33q27 -10 44.5 -35.5t17.5 -61.5q0 -56 -35.5 -89t-89.5 -33t-89.5 33zM804 254q17 17 17 44q0 28 -17 45t-45 17
t-45 -17t-17 -45q0 -27 17 -44t45 -17t45 17zM811 64.5q19 20.5 19 53.5q0 34 -19 52.5t-52 18.5t-52 -18.5t-19 -52.5q0 -33 19 -53.5t52 -20.5t52 20.5z" />
    <glyph glyph-name="fiveeighths" unicode="&#x215d;" horiz-adv-x="929" 
d="M78.5 324.5q-33.5 28.5 -40.5 81.5l49 9q15 -71 74 -71q37 0 56.5 23t19.5 64q0 43 -20 65.5t-56 22.5q-23 0 -43.5 -12.5t-34.5 -32.5l-36 8l21 218h199v-48h-156l-13 -115q11 12 31 20t40 8q57 0 89.5 -35.5t32.5 -98.5q0 -62 -35.5 -98.5t-94.5 -36.5
q-49 0 -82.5 28.5zM165 9l542 715l42 -33l-542 -715zM670.5 29q-35.5 33 -35.5 89q0 36 17.5 61.5t44.5 35.5q-20 11 -33.5 33t-13.5 50q0 47 30.5 76.5t79.5 29.5t79.5 -29.5t30.5 -76.5q0 -28 -13.5 -50t-33.5 -33q27 -10 44.5 -35.5t17.5 -61.5q0 -56 -35.5 -89
t-89.5 -33t-89.5 33zM805 254q17 17 17 44q0 28 -17 45t-45 17t-45 -17t-17 -45q0 -27 17 -44t45 -17t45 17zM812 64.5q19 20.5 19 53.5q0 34 -19 52.5t-52 18.5t-52 -18.5t-19 -52.5q0 -33 19 -53.5t52 -20.5t52 20.5z" />
    <glyph glyph-name="seveneighths" unicode="&#x215e;" horiz-adv-x="848" 
d="M196 652h-164v48h228v-22l-155 -378h-54zM84 9l542 715l42 -33l-542 -715zM589.5 29q-35.5 33 -35.5 89q0 36 17.5 61.5t44.5 35.5q-20 11 -33.5 33t-13.5 50q0 47 30.5 76.5t79.5 29.5t79.5 -29.5t30.5 -76.5q0 -28 -13.5 -50t-33.5 -33q27 -10 44.5 -35.5t17.5 -61.5
q0 -56 -35.5 -89t-89.5 -33t-89.5 33zM724 254q17 17 17 44q0 28 -17 45t-45 17t-45 -17t-17 -45q0 -27 17 -44t45 -17t45 17zM731 64.5q19 20.5 19 53.5q0 34 -19 52.5t-52 18.5t-52 -18.5t-19 -52.5q0 -33 19 -53.5t52 -20.5t52 20.5z" />
    <glyph glyph-name="arrowleft" unicode="&#x2190;" horiz-adv-x="643" 
d="M54 350l226 225l41 -42l-151 -154h419v-58h-419l151 -154l-41 -42z" />
    <glyph glyph-name="arrowup" unicode="&#x2191;" horiz-adv-x="630" 
d="M286 502l-154 -151l-42 41l225 226l225 -226l-42 -41l-154 151v-420h-58v420z" />
    <glyph glyph-name="arrowright" unicode="&#x2192;" horiz-adv-x="643" 
d="M322 167l151 154h-419v58h419l-151 154l41 42l226 -225l-226 -225z" />
    <glyph glyph-name="arrowdown" unicode="&#x2193;" horiz-adv-x="630" 
d="M90 308l42 41l154 -151v420h58v-420l154 151l42 -41l-225 -226z" />
    <glyph glyph-name="arrowboth" unicode="&#x2194;" horiz-adv-x="749" 
d="M695 350l-226 -225l-41 42l151 154h-409l151 -154l-41 -42l-226 225l226 225l41 -42l-151 -154h409l-151 154l41 42z" />
    <glyph glyph-name="arrowupdn" unicode="&#x2195;" horiz-adv-x="630" 
d="M498 291l42 -41l-225 -226l-225 226l42 41l154 -151v420l-154 -151l-42 41l225 226l225 -226l-42 -41l-154 151v-420z" />
    <glyph glyph-name="uni2196" unicode="&#x2196;" horiz-adv-x="634" 
d="M179 446v-215h-61v319h318v-62h-215l296 -295l-43 -43z" />
    <glyph glyph-name="uni2197" unicode="&#x2197;" horiz-adv-x="634" 
d="M118 193l296 295h-215v62h318v-319h-61v215l-295 -296z" />
    <glyph glyph-name="uni2198" unicode="&#x2198;" horiz-adv-x="634" 
d="M199 212h215l-296 295l43 43l295 -296v215h61v-319h-318v62z" />
    <glyph glyph-name="uni2199" unicode="&#x2199;" horiz-adv-x="634" 
d="M117 469h61v-215l295 296l43 -43l-296 -295h215v-62h-318v319z" />
    <glyph glyph-name="partialdiff" unicode="&#x2202;" horiz-adv-x="574" 
d="M143 19q-45 27 -70 75.5t-25 111.5q0 81 33.5 151.5t96 112.5t144.5 42q41 0 80.5 -16t57.5 -41q-9 89 -52 142t-110 53q-45 0 -76 -24t-52 -66l-65 17q27 60 78 95.5t122 35.5q107 0 164 -91t57 -262q0 -99 -31 -181.5t-94 -132t-155 -49.5q-58 0 -103 27zM355.5 84
q48.5 34 75 90.5t26.5 120.5q0 75 -38 117t-106 42q-61 0 -106 -35t-69 -91.5t-24 -119.5q0 -70 36.5 -114t95.5 -44q61 0 109.5 34z" />
    <glyph glyph-name="uni2206" unicode="&#x2206;" horiz-adv-x="562" 
d="M12 16l236 684h66l236 -684v-16h-538v16zM468 58l-187 549l-187 -549h374z" />
    <glyph glyph-name="product" unicode="&#x220f;" horiz-adv-x="533" 
d="M90 700h353v-700h-62v644h-229v-644h-62v700z" />
    <glyph glyph-name="summation" unicode="&#x2211;" horiz-adv-x="529" 
d="M57 15l215 335l-215 335v15h416v-56h-322l183 -286v-16l-183 -286h322v-56h-416v15z" />
    <glyph glyph-name="minus" unicode="&#x2212;" horiz-adv-x="550" 
d="M70 344h410v-56h-410v56z" />
    <glyph glyph-name="uni2215" unicode="&#x2215;" horiz-adv-x="518" 
d="M444 750h66l-436 -800h-66z" />
    <glyph glyph-name="uni2219" unicode="&#x2219;" horiz-adv-x="360" 
d="M116.5 239.5q-26.5 26.5 -26.5 63.5q0 38 26.5 64t63.5 26q38 0 64 -26t26 -64q0 -37 -26 -63.5t-64 -26.5q-37 0 -63.5 26.5z" />
    <glyph glyph-name="radical" unicode="&#x221a;" horiz-adv-x="510" 
d="M132 333h-94v56h133l93 -281l182 600h56l-215 -708h-47z" />
    <glyph glyph-name="infinity" unicode="&#x221e;" horiz-adv-x="870" 
d="M106.5 221q-49.5 53 -49.5 138t49.5 138t130.5 53q59 0 106.5 -34t91.5 -99q44 65 91.5 99t106.5 34q81 0 130.5 -53t49.5 -138t-49.5 -138t-130.5 -53q-59 0 -106.5 34t-91.5 99q-44 -65 -91.5 -99t-106.5 -34q-81 0 -130.5 53zM334.5 258.5q40.5 34.5 73.5 100.5
q-33 66 -73.5 100.5t-84.5 34.5q-60 0 -95.5 -36t-35.5 -99t35.5 -99t95.5 -36q44 0 84.5 34.5zM715.5 260q35.5 36 35.5 99t-35.5 99t-95.5 36q-44 0 -84.5 -34.5t-73.5 -100.5q33 -66 73.5 -100.5t84.5 -34.5q60 0 95.5 36z" />
    <glyph glyph-name="integral" unicode="&#x222b;" horiz-adv-x="468" 
d="M-46 -208q-19 4 -28 9l24 57q24 -12 50 -12q47 0 72.5 25t36.5 79l114 586q18 93 63.5 132.5t122.5 39.5q18 0 35 -3.5t26 -9.5l-24 -57q-12 7 -22.5 9.5t-27.5 2.5q-42 0 -70.5 -26t-38.5 -78l-114 -586q-18 -94 -62 -133t-120 -39q-18 0 -37 4z" />
    <glyph glyph-name="approxequal" unicode="&#x2248;" horiz-adv-x="532" 
d="M314.5 178.5q-19.5 6.5 -46.5 20.5q-25 14 -44 20.5t-44 6.5q-26 0 -49 -12t-41 -33l-40 39q25 34 56.5 56t65.5 22q26 0 45.5 -6.5t46.5 -20.5q25 -14 44 -20.5t44 -6.5q26 0 49 12t41 33l40 -39q-25 -34 -56.5 -56t-65.5 -22q-26 0 -45.5 6.5zM314.5 378.5
q-19.5 6.5 -46.5 20.5q-25 14 -44 20.5t-44 6.5q-26 0 -49 -12t-41 -33l-40 39q25 34 56.5 56t65.5 22q26 0 45.5 -6.5t46.5 -20.5q25 -14 44 -20.5t44 -6.5q26 0 49 12t41 33l40 -39q-25 -34 -56.5 -56t-65.5 -22q-26 0 -45.5 6.5z" />
    <glyph glyph-name="notequal" unicode="&#x2260;" horiz-adv-x="527" 
d="M120 123l48 83h-98v56h130l63 110h-193v56h225l64 111l48 -28l-48 -83h98v-56h-130l-63 -110h193v-56h-225l-64 -111z" />
    <glyph glyph-name="lessequal" unicode="&#x2264;" horiz-adv-x="550" 
d="M107 368v68l334 180v-62l-283 -152l283 -152v-62zM70 56h410v-56h-410v56z" />
    <glyph glyph-name="greaterequal" unicode="&#x2265;" horiz-adv-x="550" 
d="M108 250l283 152l-283 152v62l334 -180v-68l-334 -180v62zM70 56h410v-56h-410v56z" />
    <glyph glyph-name="lozenge" unicode="&#x25ca;" horiz-adv-x="560" 
d="M69 350l180 350h62l180 -350l-180 -350h-62zM427 350l-147 286l-147 -286l147 -286z" />
    <glyph glyph-name="uniF8FF" unicode="&#xf8ff;" horiz-adv-x="792" 
d="M106.5 6.5q-6.5 6.5 -6.5 15.5v595q0 7 4.5 13.5t11.5 8.5l270 78l10 2l10 -2l270 -78q7 -2 11.5 -8.5t4.5 -13.5v-595q0 -9 -6.5 -15.5t-15.5 -6.5l-7 1l-267 77l-267 -77l-7 -1q-9 0 -15.5 6.5zM374 669l-230 -67q4 -62 35 -114t82.5 -84.5t112.5 -37.5v303z
M530.5 403.5q51.5 32.5 82.5 84.5t35 114l-230 67v-303q61 5 112.5 37.5zM374 118v204q-73 6 -134 43.5t-97 97.5v-412zM649 463q-37 -60 -97.5 -97.5t-133.5 -43.5v-204l231 -67v412z" />
    <glyph glyph-name="fi" unicode="&#xfb01;" horiz-adv-x="514" 
d="M92 446h-80v58h80v16q0 59 26.5 101.5t71 64.5t98.5 22q64 0 110 -29l-13 -57q-49 28 -102 28q-58 0 -93.5 -33.5t-35.5 -86.5v-26h282v-504h-62v446h-220v-446h-62v446z" />
    <glyph glyph-name="fl" unicode="&#xfb02;" horiz-adv-x="514" 
d="M92 446h-80v58h80v32q0 87 40.5 129.5t115.5 42.5h188v-708h-62v650h-131q-42 0 -65.5 -26t-23.5 -78v-42h122v-58h-122v-446h-62v446z" />
    <glyph glyph-name="uni0122.ss02" horiz-adv-x="695" 
d="M207 33q-70 41 -112.5 121.5t-42.5 195.5t42.5 195.5t112.5 121.5t152 41q103 0 173.5 -54.5t96.5 -149.5l-65 -18q-24 77 -76.5 118.5t-128.5 41.5q-70 0 -123.5 -34.5t-84 -101t-30.5 -160.5t30.5 -160.5t84 -101t123.5 -34.5q100 0 153.5 60.5t54.5 176.5h-162v62h228
v-353h-58l-8 108q-28 -54 -83.5 -85t-124.5 -31q-82 0 -152 41zM312 -230q22 15 38 38.5t16 44.5q-47 12 -47 51q0 21 14 35t36 14t37 -16t15 -41q0 -39 -27.5 -77t-68.5 -65z" />
    <glyph glyph-name="uni0136.ss02" horiz-adv-x="554" 
d="M90 700h66v-299l273 299h84l-287 -314l312 -386h-81l-301 371v-371h-66v700zM243 -230q22 15 38 38.5t16 44.5q-47 12 -47 51q0 21 14 35t36 14t37 -16t15 -41q0 -39 -27.5 -77t-68.5 -65z" />
    <glyph glyph-name="Lcaron.ss02" horiz-adv-x="524" 
d="M90 700h66v-638h328v-62h-394v700zM369 550q22 15 38 38.5t16 44.5q-47 12 -47 51q0 21 14 35t36 14t37 -16t15 -41q0 -39 -27.5 -77t-68.5 -65z" />
    <glyph glyph-name="uni013B.ss02" horiz-adv-x="524" 
d="M90 700h66v-638h328v-62h-394v700zM232 -230q22 15 38 38.5t16 44.5q-47 12 -47 51q0 21 14 35t36 14t37 -16t15 -41q0 -39 -27.5 -77t-68.5 -65z" />
    <glyph glyph-name="uni0145.ss02" horiz-adv-x="671" 
d="M90 700h78l347 -595v595h66v-700h-78l-347 593v-593h-66v700zM281 -230q22 15 38 38.5t16 44.5q-47 12 -47 51q0 21 14 35t36 14t37 -16t15 -41q0 -39 -27.5 -77t-68.5 -65z" />
    <glyph glyph-name="uni0156.ss02" horiz-adv-x="614" 
d="M90 700h225q95 0 147.5 -44.5t52.5 -132.5q0 -76 -40 -120t-113 -54l218 -349h-74l-219 346h-131v-346h-66v700zM311 408q69 0 103 28t34 87t-34 87t-103 28h-155v-230h155zM256 -230q22 15 38 38.5t16 44.5q-47 12 -47 51q0 21 14 35t36 14t37 -16t15 -41
q0 -39 -27.5 -77t-68.5 -65z" />
    <glyph glyph-name="uni0218.ss02" horiz-adv-x="506" 
d="M157.5 17.5q-46.5 25.5 -76.5 68.5t-39 95l57 34q37 -161 162 -161q55 0 90.5 35t35.5 101q0 43 -19 72t-49.5 48.5t-83.5 44.5q-72 34 -113 78t-41 112q0 47 22 84.5t60.5 58t84.5 20.5q67 0 107 -28.5t63 -79.5l-54 -34q-36 80 -116 80q-46 0 -73.5 -28.5t-27.5 -67.5
q0 -38 19.5 -65.5t49 -45.5t78.5 -40q77 -35 119.5 -82.5t42.5 -123.5q0 -59 -25.5 -105t-70 -71t-99.5 -25q-57 0 -103.5 25.5zM204 -230q22 15 38 38.5t16 44.5q-47 12 -47 51q0 21 14 35t36 14t37 -16t15 -41q0 -39 -27.5 -77t-68.5 -65z" />
    <glyph glyph-name="uni021A.ss02" horiz-adv-x="544" 
d="M239 638h-209v62h484v-62h-209v-638h-66v638zM217 -230q22 15 38 38.5t16 44.5q-47 12 -47 51q0 21 14 35t36 14t37 -16t15 -41q0 -39 -27.5 -77t-68.5 -65z" />
    <glyph glyph-name="i.loclTRK" horiz-adv-x="218" 
d="M78 504h62v-504h-62v504zM72.5 612.5q-14.5 14.5 -14.5 36.5t14.5 36.5t36.5 14.5t36.5 -14.5t14.5 -36.5t-14.5 -36.5t-36.5 -14.5t-36.5 14.5z" />
    <glyph glyph-name="a.ss01" horiz-adv-x="572" 
d="M151 26.5q-51 34.5 -77 93.5t-26 132t26 132t77 93.5t122 34.5q50 0 91 -20.5t68 -58.5v30v41h62v-504h-62v42v30q-23 -33 -67.5 -56.5t-91.5 -23.5q-71 0 -122 34.5zM396 106.5q42 56.5 42 145.5q0 88 -42.5 145t-119.5 57t-120 -57t-43 -145q0 -89 42.5 -145.5
t120.5 -56.5t120 56.5z" />
    <glyph glyph-name="aacute.ss01" horiz-adv-x="572" 
d="M151 26.5q-51 34.5 -77 93.5t-26 132t26 132t77 93.5t122 34.5q50 0 91 -20.5t68 -58.5v30v41h62v-504h-62v42v30q-23 -33 -67.5 -56.5t-91.5 -23.5q-71 0 -122 34.5zM396 106.5q42 56.5 42 145.5q0 88 -42.5 145t-119.5 57t-120 -57t-43 -145q0 -89 42.5 -145.5
t120.5 -56.5t120 56.5zM325 700h93l-113 -140h-50z" />
    <glyph glyph-name="abreve.ss01" horiz-adv-x="572" 
d="M151 26.5q-51 34.5 -77 93.5t-26 132t26 132t77 93.5t122 34.5q50 0 91 -20.5t68 -58.5v30v41h62v-504h-62v42v30q-23 -33 -67.5 -56.5t-91.5 -23.5q-71 0 -122 34.5zM396 106.5q42 56.5 42 145.5q0 88 -42.5 145t-119.5 57t-120 -57t-43 -145q0 -89 42.5 -145.5
t120.5 -56.5t120 56.5zM203.5 621.5q-28.5 30.5 -28.5 78.5h51q0 -26 14 -42.5t40 -16.5q27 0 40.5 16.5t13.5 42.5h51q0 -48 -28 -78.5t-77 -30.5q-48 0 -76.5 30.5z" />
    <glyph glyph-name="acircumflex.ss01" horiz-adv-x="572" 
d="M151 26.5q-51 34.5 -77 93.5t-26 132t26 132t77 93.5t122 34.5q50 0 91 -20.5t68 -58.5v30v41h62v-504h-62v42v30q-23 -33 -67.5 -56.5t-91.5 -23.5q-71 0 -122 34.5zM396 106.5q42 56.5 42 145.5q0 88 -42.5 145t-119.5 57t-120 -57t-43 -145q0 -89 42.5 -145.5
t120.5 -56.5t120 56.5zM269 700h22l134 -140h-72l-73 78l-73 -78h-72z" />
    <glyph glyph-name="adieresis.ss01" horiz-adv-x="572" 
d="M151 26.5q-51 34.5 -77 93.5t-26 132t26 132t77 93.5t122 34.5q50 0 91 -20.5t68 -58.5v30v41h62v-504h-62v42v30q-23 -33 -67.5 -56.5t-91.5 -23.5q-71 0 -122 34.5zM396 106.5q42 56.5 42 145.5q0 88 -42.5 145t-119.5 57t-120 -57t-43 -145q0 -89 42.5 -145.5
t120.5 -56.5t120 56.5zM168 604q-14 14 -14 34q0 21 14 35.5t35 14.5t35 -14.5t14 -35.5q0 -20 -14 -34t-35 -14t-35 14zM322 604q-14 14 -14 34q0 21 14 35.5t34 14.5q21 0 35.5 -14.5t14.5 -35.5q0 -20 -14.5 -34t-35.5 -14q-20 0 -34 14z" />
    <glyph glyph-name="agrave.ss01" horiz-adv-x="572" 
d="M151 26.5q-51 34.5 -77 93.5t-26 132t26 132t77 93.5t122 34.5q50 0 91 -20.5t68 -58.5v30v41h62v-504h-62v42v30q-23 -33 -67.5 -56.5t-91.5 -23.5q-71 0 -122 34.5zM396 106.5q42 56.5 42 145.5q0 88 -42.5 145t-119.5 57t-120 -57t-43 -145q0 -89 42.5 -145.5
t120.5 -56.5t120 56.5zM142 700h93l70 -140h-50z" />
    <glyph glyph-name="amacron.ss01" horiz-adv-x="572" 
d="M151 26.5q-51 34.5 -77 93.5t-26 132t26 132t77 93.5t122 34.5q50 0 91 -20.5t68 -58.5v30v41h62v-504h-62v42v30q-23 -33 -67.5 -56.5t-91.5 -23.5q-71 0 -122 34.5zM396 106.5q42 56.5 42 145.5q0 88 -42.5 145t-119.5 57t-120 -57t-43 -145q0 -89 42.5 -145.5
t120.5 -56.5t120 56.5zM159 660h241v-56h-241v56z" />
    <glyph glyph-name="aogonek.ss01" horiz-adv-x="572" 
d="M514 -155q-13 -8 -24.5 -11t-28.5 -3q-36 0 -57.5 21t-21.5 56q0 25 13 49.5t37 42.5v42v30q-23 -33 -67.5 -56.5t-91.5 -23.5q-71 0 -122 34.5t-77 93.5t-26 132t26 132t77 93.5t122 34.5q50 0 91 -20.5t68 -58.5v30v41h62v-504q-30 -27 -43 -44.5t-13 -35.5
q0 -16 9 -24.5t24 -8.5t27 8zM396 106.5q42 56.5 42 145.5q0 88 -42.5 145t-119.5 57t-120 -57t-43 -145q0 -89 42.5 -145.5t120.5 -56.5t120 56.5z" />
    <glyph glyph-name="aring.ss01" horiz-adv-x="572" 
d="M151 26.5q-51 34.5 -77 93.5t-26 132t26 132t77 93.5t122 34.5q50 0 91 -20.5t68 -58.5v30v41h62v-504h-62v42v30q-23 -33 -67.5 -56.5t-91.5 -23.5q-71 0 -122 34.5zM396 106.5q42 56.5 42 145.5q0 88 -42.5 145t-119.5 57t-120 -57t-43 -145q0 -89 42.5 -145.5
t120.5 -56.5t120 56.5zM211 586q-28 27 -28 67q0 41 28 69.5t69 28.5q42 0 69.5 -28t27.5 -70q0 -40 -27.5 -67t-69.5 -27q-41 0 -69 27zM317 616.5q14 14.5 14 37.5q0 24 -14 39t-37 15q-22 0 -36.5 -15.5t-14.5 -38.5t14.5 -37.5t36.5 -14.5q23 0 37 14.5z" />
    <glyph glyph-name="aringacute.ss01" horiz-adv-x="572" 
d="M151 26.5q-51 34.5 -77 93.5t-26 132t26 132t77 93.5t122 34.5q50 0 91 -20.5t68 -58.5v30v41h62v-504h-62v42v30q-23 -33 -67.5 -56.5t-91.5 -23.5q-71 0 -122 34.5zM396 106.5q42 56.5 42 145.5q0 88 -42.5 145t-119.5 57t-120 -57t-43 -145q0 -89 42.5 -145.5
t120.5 -56.5t120 56.5zM211 586q-28 27 -28 67q0 41 28 69.5t69 28.5q42 0 69.5 -28t27.5 -70q0 -40 -27.5 -67t-69.5 -27q-41 0 -69 27zM317 616.5q14 14.5 14 37.5q0 24 -14 39t-37 15q-22 0 -36.5 -15.5t-14.5 -38.5t14.5 -37.5t36.5 -14.5q23 0 37 14.5zM325 934h93
l-113 -140h-50z" />
    <glyph glyph-name="atilde.ss01" horiz-adv-x="572" 
d="M151 26.5q-51 34.5 -77 93.5t-26 132t26 132t77 93.5t122 34.5q50 0 91 -20.5t68 -58.5v30v41h62v-504h-62v42v30q-23 -33 -67.5 -56.5t-91.5 -23.5q-71 0 -122 34.5zM396 106.5q42 56.5 42 145.5q0 88 -42.5 145t-119.5 57t-120 -57t-43 -145q0 -89 42.5 -145.5
t120.5 -56.5t120 56.5zM111 618q18 31 44 50t55 19q24 0 41 -6t36 -17q18 -10 29 -14t25 -4q32 0 62 41l45 -36q-18 -31 -44 -50t-55 -19q-24 0 -41 6t-36 17q-18 10 -29 14t-25 4q-32 0 -62 -41z" />
    <glyph glyph-name="ae.ss01" horiz-adv-x="922" 
d="M151 26.5q-51 34.5 -77 93.5t-26 132t26 132t77 93.5t122 34.5q50 0 91 -20.5t68 -58.5v71h62v-62q62 70 159 70q64 0 114.5 -29t78.5 -81.5t28 -121.5v-28h-380q0 -90 42.5 -146t116.5 -56q57 0 92 25t63 83l55 -27q-38 -75 -88 -107t-122 -32q-48 0 -88.5 18t-70.5 52
v-62h-62v72q-23 -33 -67.5 -56.5t-91.5 -23.5q-71 0 -122 34.5zM396 106.5q42 56.5 42 145.5q0 88 -42.5 145t-119.5 57t-120 -57t-43 -145q0 -89 42.5 -145.5t120.5 -56.5t120 56.5zM810 310q-9 67 -49.5 105.5t-107.5 38.5q-61 0 -101.5 -40t-53.5 -104h312z" />
    <glyph glyph-name="aeacute.ss01" horiz-adv-x="922" 
d="M151 26.5q-51 34.5 -77 93.5t-26 132t26 132t77 93.5t122 34.5q50 0 91 -20.5t68 -58.5v71h62v-62q62 70 159 70q64 0 114.5 -29t78.5 -81.5t28 -121.5v-28h-380q0 -90 42.5 -146t116.5 -56q57 0 92 25t63 83l55 -27q-38 -75 -88 -107t-122 -32q-48 0 -88.5 18t-70.5 52
v-62h-62v72q-23 -33 -67.5 -56.5t-91.5 -23.5q-71 0 -122 34.5zM396 106.5q42 56.5 42 145.5q0 88 -42.5 145t-119.5 57t-120 -57t-43 -145q0 -89 42.5 -145.5t120.5 -56.5t120 56.5zM810 310q-9 67 -49.5 105.5t-107.5 38.5q-61 0 -101.5 -40t-53.5 -104h312zM509 700h93
l-113 -140h-50z" />
    <glyph glyph-name="dcaron.ss02" horiz-adv-x="685" 
d="M151 26.5q-51 34.5 -77 93.5t-26 132t26 132t77 93.5t122 34.5q50 0 91 -20.5t68 -58.5v30v245h62v-708h-62v42v30q-23 -33 -67.5 -56.5t-91.5 -23.5q-71 0 -122 34.5zM396 106.5q42 56.5 42 145.5q0 88 -42.5 145t-119.5 57t-120 -57t-43 -145q0 -89 42.5 -145.5
t120.5 -56.5t120 56.5zM576 550q22 15 38 38.5t16 44.5q-47 12 -47 51q0 21 14 35t36 14t37 -16t15 -41q0 -39 -27.5 -77t-68.5 -65z" />
    <glyph glyph-name="uni0123.ss02" horiz-adv-x="481" 
d="M96 -168q-56 44 -56 122q0 35 14.5 62t37.5 44q-40 24 -40 82q0 30 17 53.5t45 36.5q-18 22 -28 50.5t-10 60.5q0 50 22.5 88.5t61.5 59.5t87 21q46 0 87 -23l90 51l29 -53l-70 -39q35 -45 35 -105q0 -50 -22.5 -88.5t-61.5 -59.5t-87 -21q-54 0 -94 24q-41 -18 -41 -56
q0 -25 17.5 -36.5t44.5 -11.5h130q69 0 110 -32.5t41 -99.5q0 -89 -56.5 -131.5t-150.5 -42.5q-96 0 -152 44zM324.5 259q31.5 31 31.5 84t-31.5 84t-77.5 31t-77.5 -31t-31.5 -84t31.5 -84t77.5 -31t77.5 31zM357 -125.5q38 30.5 38 79.5q0 86 -98 86h-103q-27 0 -49 3
q-45 -29 -45 -91q0 -50 37.5 -79t110.5 -29q71 0 109 30.5zM211 578q-15 16 -15 41q0 39 27.5 77t68.5 65l13 -16q-22 -15 -38 -38.5t-16 -44.5q47 -12 47 -51q0 -21 -14 -35t-36 -14t-37 16z" />
    <glyph glyph-name="uni0137.ss02" horiz-adv-x="459" 
d="M78 708h62v-427l211 223h78l-218 -231l236 -273h-79l-228 265v-265h-62v708zM186 -230q22 15 38 38.5t16 44.5q-47 12 -47 51q0 21 14 35t36 14t37 -16t15 -41q0 -39 -27.5 -77t-68.5 -65z" />
    <glyph glyph-name="lcaron.ss02" horiz-adv-x="317" 
d="M78 708h62v-708h-62v708zM208 550q22 15 38 38.5t16 44.5q-47 12 -47 51q0 21 14 35t36 14t37 -16t15 -41q0 -39 -27.5 -77t-68.5 -65z" />
    <glyph glyph-name="uni013C.ss02" horiz-adv-x="218" 
d="M78 708h62v-708h-62v708zM54 -230q22 15 38 38.5t16 44.5q-47 12 -47 51q0 21 14 35t36 14t37 -16t15 -41q0 -39 -27.5 -77t-68.5 -65z" />
    <glyph glyph-name="uni0146.ss02" horiz-adv-x="546" 
d="M78 504h62v-105q26 51 72.5 82t100.5 31q72 0 113.5 -43.5t41.5 -122.5v-346h-62v338q0 56 -25.5 86t-77.5 30q-46 0 -83 -28.5t-58.5 -81.5t-21.5 -123v-221h-62v504zM218 -230q22 15 38 38.5t16 44.5q-47 12 -47 51q0 21 14 35t36 14t37 -16t15 -41q0 -39 -27.5 -77
t-68.5 -65z" />
    <glyph glyph-name="uni0157.ss02" horiz-adv-x="380" 
d="M78 504h62v-90q23 47 60.5 72.5t87.5 25.5q20 0 37.5 -4t38.5 -13l-14 -59q-33 18 -71 18q-39 0 -70.5 -29.5t-50 -88t-18.5 -141.5v-195h-62v504zM54 -230q22 15 38 38.5t16 44.5q-47 12 -47 51q0 21 14 35t36 14t37 -16t15 -41q0 -39 -27.5 -77t-68.5 -65z" />
    <glyph glyph-name="uni0219.ss02" horiz-adv-x="430" 
d="M105.5 32q-45.5 40 -59.5 98l55 29q16 -52 45.5 -80.5t81.5 -28.5q43 0 67 24t24 65q0 37 -27.5 58.5t-83.5 41.5q-62 22 -94.5 53.5t-32.5 87.5q0 60 40 96t101 36q48 0 82 -19t58 -59l-44 -38q-20 31 -44 44.5t-55 13.5q-32 0 -53 -19.5t-21 -52.5t26 -53.5t90 -43.5
q54 -20 88.5 -55.5t34.5 -89.5q0 -69 -42 -108.5t-114 -39.5q-77 0 -122.5 40zM168 -230q22 15 38 38.5t16 44.5q-47 12 -47 51q0 21 14 35t36 14t37 -16t15 -41q0 -39 -27.5 -77t-68.5 -65z" />
    <glyph glyph-name="tcaron.ss02" horiz-adv-x="343" 
d="M135 29.5q-34 37.5 -34 113.5v303h-89v58h89v163l62 41v-204h136v-58h-136v-313q0 -41 19.5 -62t52.5 -21q38 0 63 16l17 -56q-33 -18 -88 -18q-58 0 -92 37.5zM256 550q22 15 38 38.5t16 44.5q-47 12 -47 51q0 21 14 35t36 14t37 -16t15 -41q0 -39 -27.5 -77t-68.5 -65z
" />
    <glyph glyph-name="uni021B.ss02" horiz-adv-x="343" 
d="M135 29.5q-34 37.5 -34 113.5v303h-89v58h89v163l62 41v-204h136v-58h-136v-313q0 -41 19.5 -62t52.5 -21q38 0 63 16l17 -56q-33 -18 -88 -18q-58 0 -92 37.5zM166 -230q22 15 38 38.5t16 44.5q-47 12 -47 51q0 21 14 35t36 14t37 -16t15 -41q0 -39 -27.5 -77t-68.5 -65
z" />
    <glyph glyph-name="f_b" horiz-adv-x="868" 
d="M501.5 14q-45.5 22 -65.5 52v-30v-36h-62v650h-131q-42 0 -65.5 -26t-23.5 -78v-42h122v-58h-122v-446h-62v446h-80v58h80v32q0 87 40.5 129.5t115.5 42.5h188v-245v-30q28 37 70 58t89 21q71 0 122 -34.5t77 -93.5t26 -132t-26 -132t-77 -93.5t-122 -34.5
q-48 0 -93.5 22zM712.5 106.5q42.5 56.5 42.5 145.5q0 88 -43 145t-120 57t-119.5 -57t-42.5 -145q0 -89 42 -145.5t120 -56.5t120.5 56.5z" />
    <glyph glyph-name="f_f_b" horiz-adv-x="1150" 
d="M783.5 14q-45.5 22 -65.5 52v-30v-36h-62v650h-131q-42 0 -65.5 -26t-23.5 -78v-42h122v-58h-122v-446h-62v446h-220v-446h-62v446h-80v58h80v32q0 87 40.5 129.5t115.5 42.5q36 0 60 -13l-13 -57q-26 12 -52 12q-42 0 -65.5 -26t-23.5 -78v-42h220v32q0 87 40.5 129.5
t115.5 42.5h188v-245v-30q28 37 70 58t89 21q71 0 122 -34.5t77 -93.5t26 -132t-26 -132t-77 -93.5t-122 -34.5q-48 0 -93.5 22zM994.5 106.5q42.5 56.5 42.5 145.5q0 88 -43 145t-120 57t-119.5 -57t-42.5 -145q0 -89 42 -145.5t120 -56.5t120.5 56.5z" />
    <glyph glyph-name="f_f_h" horiz-adv-x="1133" 
d="M92 446h-80v58h80v32q0 87 40.5 129.5t115.5 42.5q36 0 60 -13l-13 -57q-26 12 -52 12q-42 0 -65.5 -26t-23.5 -78v-42h220v32q0 87 40.5 129.5t115.5 42.5h188v-314q25 58 75 88t105 30q74 0 115.5 -43.5t41.5 -122.5v-346h-62v338q0 55 -27 85.5t-78 30.5
q-46 0 -85 -29.5t-62 -84t-23 -125.5v-215h-62v650h-131q-42 0 -65.5 -26t-23.5 -78v-42h122v-58h-122v-446h-62v446h-220v-446h-62v446z" />
    <glyph glyph-name="f_f_j" horiz-adv-x="776" 
d="M579 -154q41 12 59 33.5t18 65.5v501h-220v-446h-62v446h-220v-446h-62v446h-80v58h80v32q0 87 40.5 129.5t115.5 42.5q36 0 60 -13l-13 -57q-26 12 -52 12q-42 0 -65.5 -26t-23.5 -78v-42h220v16q0 59 26.5 101.5t71 64.5t98.5 22q64 0 110 -29l-13 -57q-49 28 -102 28
q-58 0 -93.5 -33.5t-35.5 -86.5v-26h282v-568q0 -128 -125 -148z" />
    <glyph glyph-name="f_f_k" horiz-adv-x="1037" 
d="M92 446h-80v58h80v32q0 87 40.5 129.5t115.5 42.5q36 0 60 -13l-13 -57q-26 12 -52 12q-42 0 -65.5 -26t-23.5 -78v-42h220v32q0 87 40.5 129.5t115.5 42.5h188v-427l211 223h78l-218 -231l236 -273h-79l-228 265v-265h-62v650h-131q-42 0 -65.5 -26t-23.5 -78v-42h122
v-58h-122v-446h-62v446h-220v-446h-62v446z" />
    <glyph glyph-name="f_h" horiz-adv-x="851" 
d="M92 446h-80v58h80v32q0 87 40.5 129.5t115.5 42.5h188v-314q25 58 75 88t105 30q74 0 115.5 -43.5t41.5 -122.5v-346h-62v338q0 55 -27 85.5t-78 30.5q-46 0 -85 -29.5t-62 -84t-23 -125.5v-215h-62v650h-131q-42 0 -65.5 -26t-23.5 -78v-42h122v-58h-122v-446h-62v446z
" />
    <glyph glyph-name="f_j" horiz-adv-x="494" 
d="M297 -154q41 12 59 33.5t18 65.5v501h-220v-446h-62v446h-80v58h80v16q0 59 26.5 101.5t71 64.5t98.5 22q64 0 110 -29l-13 -57q-49 28 -102 28q-58 0 -93.5 -33.5t-35.5 -86.5v-26h282v-568q0 -128 -125 -148z" />
    <glyph glyph-name="f_k" horiz-adv-x="755" 
d="M92 446h-80v58h80v32q0 87 40.5 129.5t115.5 42.5h188v-427l211 223h78l-218 -231l236 -273h-79l-228 265v-265h-62v650h-131q-42 0 -65.5 -26t-23.5 -78v-42h122v-58h-122v-446h-62v446z" />
    <glyph glyph-name="uni0414.loclBGR" horiz-adv-x="712" 
d="M672 62v-196h-66v134h-500v-134h-66v196h61l226 638h58l226 -638h61zM168 62h376l-188 550z" />
    <glyph glyph-name="uni041B.loclBGR" horiz-adv-x="584" 
d="M257 700h70l245 -700h-68l-212 606l-212 -606h-68z" />
    <glyph glyph-name="uni0432.loclBGR" horiz-adv-x="522" 
d="M128.5 52q-50.5 60 -50.5 171v274q0 72 26.5 119.5t70 69.5t95.5 22q49 0 89.5 -20t64 -58.5t23.5 -90.5q0 -111 -101 -157q52 -18 86.5 -63t34.5 -111q0 -100 -53 -158t-144 -58t-141.5 60zM254 404q55 0 93 35t38 93q0 57 -31.5 87.5t-84.5 30.5t-91 -35.5t-38 -122.5
v-88h114zM370.5 89.5q34.5 39.5 34.5 113.5q0 143 -167 143h-98v-121q0 -95 35 -135t95 -40q66 0 100.5 39.5z" />
    <glyph glyph-name="uni0433.loclBGR" horiz-adv-x="430" 
d="M88 29.5q-42 37.5 -42 106.5q0 55 33.5 92t89.5 57q62 22 89 44.5t27 56.5q0 33 -20.5 50.5t-53.5 17.5q-31 0 -55 -13.5t-44 -44.5l-45 38q44 78 141 78q63 0 102 -33.5t39 -94.5q0 -56 -33.5 -90t-93.5 -55q-56 -19 -83.5 -42t-27.5 -61q0 -41 24 -63.5t67 -22.5
q51 0 81.5 28.5t45.5 80.5l55 -29q-17 -60 -62 -99t-120 -39q-72 0 -114 37.5z" />
    <glyph glyph-name="uni0434.loclBGR" horiz-adv-x="572" 
d="M143.5 -173q-56.5 39 -79.5 106l62 21q18 -54 56.5 -81t101.5 -27q39 0 72.5 17t54.5 52t21 85v49v37q-26 -41 -68.5 -63.5t-90.5 -22.5q-71 0 -122 34t-77 92t-26 130t26 130t77 92t122 34q48 0 93.5 -22t65.5 -52v30v36h62v-500q0 -98 -57.5 -157t-152.5 -59
q-84 0 -140.5 39zM395.5 114.5q42.5 56.5 42.5 141.5q0 88 -42 143t-120 55t-120.5 -55.5t-42.5 -142.5q0 -86 43 -142t120 -56t119.5 56.5z" />
    <glyph glyph-name="uni0436.loclBGR" horiz-adv-x="700" 
d="M248 273l-218 231h78l211 -223v427h62v-427l211 223h78l-218 -231l236 -273h-79l-228 265v-265h-62v265l-228 -265h-79z" />
    <glyph glyph-name="uni0437.loclBGR" horiz-adv-x="477" 
d="M100.5 -163.5q-53.5 48.5 -60.5 132.5l62 7q6 -57 41 -93.5t91 -36.5q61 0 96.5 43t35.5 114q0 69 -42.5 109t-112.5 40h-31v58h39q55 0 90 31.5t35 91.5q0 58 -30.5 89.5t-79.5 31.5q-47 0 -79.5 -26t-41.5 -80l-56 12q11 66 58.5 109t118.5 43q80 0 126 -46t46 -125
q0 -57 -28 -99t-68 -58q55 -21 88 -69t33 -112t-26.5 -113t-71.5 -75.5t-99 -26.5q-80 0 -133.5 48.5z" />
    <glyph glyph-name="uni0438.loclBGR" horiz-adv-x="546" 
d="M119.5 35.5q-41.5 43.5 -41.5 122.5v346h62v-338q0 -56 25.5 -86t77.5 -30q46 0 83 28.5t58.5 81.5t21.5 123v221h62v-504h-62v105q-26 -51 -72.5 -82t-100.5 -31q-72 0 -113.5 43.5z" />
    <glyph glyph-name="uni0439.loclBGR" horiz-adv-x="546" 
d="M119.5 35.5q-41.5 43.5 -41.5 122.5v346h62v-338q0 -56 25.5 -86t77.5 -30q46 0 83 28.5t58.5 81.5t21.5 123v221h62v-504h-62v105q-26 -51 -72.5 -82t-100.5 -31q-72 0 -113.5 43.5zM184.5 597.5q-32.5 37.5 -32.5 102.5h51q0 -42 17 -66t53 -24t53 24t17 66h51
q0 -65 -32.5 -102.5t-88.5 -37.5t-88.5 37.5z" />
    <glyph glyph-name="uni043A.loclBGR" horiz-adv-x="459" 
d="M78 708h62v-427l211 223h78l-218 -231l236 -273h-79l-228 265v-265h-62v708z" />
    <glyph glyph-name="uni043B.loclBGR" horiz-adv-x="440" 
d="M186 504h68l170 -504h-65l-139 421l-139 -421h-65z" />
    <glyph glyph-name="uni043F.loclBGR" horiz-adv-x="546" 
d="M78 504h62v-105q26 51 72.5 82t100.5 31q72 0 113.5 -43.5t41.5 -122.5v-346h-62v338q0 56 -25.5 86t-77.5 30q-46 0 -83 -28.5t-58.5 -81.5t-21.5 -123v-221h-62v504z" />
    <glyph glyph-name="uni0442.loclBGR" horiz-adv-x="822" 
d="M78 504h62v-105q24 52 65.5 82.5t94.5 30.5q114 0 137 -112q26 49 70.5 80.5t94.5 31.5q73 0 107.5 -41t34.5 -125v-346h-62v338q0 59 -20 87.5t-70 28.5q-41 0 -75.5 -28.5t-54.5 -81.5t-20 -123v-221h-62v338q0 59 -20 87.5t-70 28.5q-41 0 -75.5 -28.5t-54.5 -81.5
t-20 -123v-221h-62v504z" />
    <glyph glyph-name="uni0446.loclBGR" horiz-adv-x="574" 
d="M482 0h-76v105q-26 -51 -72.5 -82t-100.5 -31q-72 0 -113.5 43.5t-41.5 122.5v346h62v-338q0 -56 25.5 -86t77.5 -30q46 0 83 28.5t58.5 81.5t21.5 123v221h62v-446h76v-182h-62v124z" />
    <glyph glyph-name="uni0448.loclBGR" horiz-adv-x="822" 
d="M112.5 33q-34.5 41 -34.5 125v346h62v-338q0 -59 20 -87.5t70 -28.5q41 0 75.5 28.5t54.5 81.5t20 123v221h62v-338q0 -59 20 -87.5t70 -28.5q41 0 75.5 28.5t54.5 81.5t20 123v221h62v-504h-62v105q-24 -52 -65.5 -82.5t-94.5 -30.5q-114 0 -137 112
q-26 -49 -70.5 -80.5t-94.5 -31.5q-73 0 -107.5 41z" />
    <glyph glyph-name="uni0449.loclBGR" horiz-adv-x="850" 
d="M758 0h-76v105q-24 -52 -65.5 -82.5t-94.5 -30.5q-114 0 -137 112q-26 -49 -70.5 -80.5t-94.5 -31.5q-73 0 -107.5 41t-34.5 125v346h62v-338q0 -59 20 -87.5t70 -28.5q41 0 75.5 28.5t54.5 81.5t20 123v221h62v-338q0 -59 20 -87.5t70 -28.5q41 0 75.5 28.5t54.5 81.5
t20 123v221h62v-446h76v-182h-62v124z" />
    <glyph glyph-name="uni044C.loclBGR" horiz-adv-x="489" 
d="M124.5 39.5q-46.5 47.5 -46.5 136.5v328h62v-202q55 17 111 17q87 0 135 -44t48 -119q0 -46 -24.5 -83.5t-66 -59t-91.5 -21.5q-81 0 -127.5 47.5zM338.5 80q33.5 30 33.5 76q0 50 -35.5 77.5t-92.5 27.5q-62 0 -104 -17v-67q0 -127 112 -127q53 0 86.5 30z" />
    <glyph glyph-name="uni044A.loclBGR" horiz-adv-x="551" 
d="M193.5 39.5q-46.5 47.5 -46.5 136.5v270h-123v58h185v-202q55 17 111 17q87 0 135 -44t48 -119q0 -46 -24.5 -83.5t-66 -59t-91.5 -21.5q-81 0 -127.5 47.5zM407.5 80q33.5 30 33.5 76q0 50 -35.5 77.5t-92.5 27.5q-62 0 -104 -17v-67q0 -127 112 -127q53 0 86.5 30z" />
    <glyph glyph-name="uni044E.loclBGR" horiz-adv-x="736" 
d="M579.5 476.5q52.5 -35.5 80.5 -95t28 -129.5t-28 -129.5t-80.5 -95t-121.5 -35.5q-67 0 -118.5 33.5t-80 90t-31.5 123.5h-88v-239h-62v708h62v-411h91q9 60 39 109t78 77.5t110 28.5q69 0 121.5 -35.5zM579.5 108q43.5 58 43.5 144t-43.5 144t-121.5 58t-121.5 -58
t-43.5 -144t43.5 -144t121.5 -58t121.5 58z" />
    <glyph glyph-name="uni04570457" horiz-adv-x="436" 
d="M-3 604q-14 14 -14 34q0 21 14 35.5t35 14.5t35 -14.5t14 -35.5q0 -20 -14 -34t-35 -14t-35 14zM121 604q-14 14 -14 34q0 21 14 35.5t35 14.5t35 -14.5t14 -35.5q0 -20 -14 -34t-35 -14t-35 14zM245 604q-14 14 -14 34q0 21 14 35.5t35 14.5t35 -14.5t14 -35.5
q0 -20 -14 -34t-35 -14t-35 14zM369 604q-14 14 -14 34q0 21 14 35.5t34 14.5q21 0 35.5 -14.5t14.5 -35.5q0 -20 -14.5 -34t-35.5 -14q-20 0 -34 14zM78 504h62v-504h-62v504zM296 504h62v-504h-62v504z" />
    <glyph glyph-name="lambda_lambda" horiz-adv-x="795" 
d="M785 0h-65l-140 408l-150 -408h-65l-140 408l-150 -408h-65l182 504l-28 77q-14 40 -33.5 55t-49.5 15q-17 0 -32 -6l-12 53q22 10 49 10q92 0 129 -102l183 -515l149 413l-28 77q-15 41 -34 55.5t-49 14.5q-17 0 -32 -6l-12 53q22 10 49 10q92 0 129 -102z" />
    <glyph glyph-name="zero.osf" horiz-adv-x="568" 
d="M159.5 28.5q-53.5 36.5 -82.5 96.5t-29 127t29 127t82.5 96.5t124.5 36.5t124.5 -36.5t82.5 -96.5t29 -127t-29 -127t-82.5 -96.5t-124.5 -36.5t-124.5 36.5zM376.5 78.5q38.5 28.5 58.5 75t20 98.5t-20 98.5t-58.5 75t-92.5 28.5t-92.5 -28.5t-58.5 -75t-20 -98.5
t20 -98.5t58.5 -75t92.5 -28.5t92.5 28.5z" />
    <glyph glyph-name="one.osf" horiz-adv-x="305" 
d="M165 398l-116 -73v76l162 103h16v-504h-62v398z" />
    <glyph glyph-name="two.osf" horiz-adv-x="427" 
d="M36 23l168 175l20 21q40 41 58 69.5t18 69.5q0 50 -26 74t-68 24q-48 0 -76 -28t-33 -83l-61 13q5 67 52 110.5t119 43.5q67 0 112 -39t45 -114q0 -50 -27.5 -92.5t-87.5 -104.5l-104 -106h248v-56h-357v23z" />
    <glyph glyph-name="three.osf" horiz-adv-x="532" 
d="M117 -151q-59 53 -69 147l62 9q8 -70 47 -111.5t106 -41.5q76 0 116.5 44.5t40.5 121.5q0 81 -41 124t-116 43q-33 0 -62 -18l-30 39l181 242h-269v56h366v-17l-189 -251q9 3 26 3q52 0 97.5 -26t73 -76.5t27.5 -118.5q0 -65 -26.5 -115.5t-76.5 -78.5t-118 -28
q-87 0 -146 53z" />
    <glyph glyph-name="four.osf" horiz-adv-x="540" 
d="M353 -35h-309v17l295 522h76v-483h93v-56h-93v-161h-62v161zM353 21v395l-221 -395h221z" />
    <glyph glyph-name="five.osf" horiz-adv-x="505" 
d="M113.5 -155.5q-55.5 48.5 -67.5 143.5l61 11q20 -147 149 -147q71 0 109 48t38 132q0 88 -38 134t-104 46q-52 0 -91 -26t-63 -68l-44 10l36 376h327v-56h-271l-24 -231q51 51 136 51q59 0 104.5 -28.5t70.5 -82t25 -125.5q0 -69 -26 -122.5t-73.5 -83.5t-111.5 -30
q-87 0 -142.5 48.5z" />
    <glyph glyph-name="six.osf" horiz-adv-x="532" 
d="M152.5 22q-49.5 30 -77 82t-27.5 116q0 72 45 149l199 339h65l-156 -277q10 8 29.5 12.5t35.5 4.5q64 0 113.5 -30t77 -82t27.5 -116t-27.5 -116t-77 -82t-113.5 -30t-113.5 30zM345.5 70q35.5 22 55 61.5t19.5 88.5q0 79 -43 125.5t-111 46.5t-111 -46.5t-43 -125.5
q0 -49 19.5 -88.5t55 -61.5t79.5 -22t79.5 22z" />
    <glyph glyph-name="seven.osf" horiz-adv-x="454" 
d="M348 448h-314v56h388v-20l-277 -680h-65z" />
    <glyph glyph-name="eight.osf" horiz-adv-x="520" 
d="M155 15.5q-48 23.5 -76.5 69.5t-28.5 111q0 64 32 113.5t80 67.5q-38 20 -63 58.5t-25 90.5q0 53 23.5 94.5t65.5 64.5t97 23t97 -23t65.5 -64.5t23.5 -94.5q0 -52 -25 -90.5t-63 -58.5q48 -18 80 -67.5t32 -113.5q0 -65 -28.5 -111t-76.5 -69.5t-105 -23.5t-105 23.5z
M350 434.5q34 34.5 34 91.5t-34 91.5t-90 34.5t-90 -34.5t-34 -91.5t34 -91.5t90 -34.5t90 34.5zM366.5 87.5q39.5 39.5 39.5 108.5t-40 108.5t-106 39.5t-106 -39.5t-40 -108.5t40 -108.5t106 -39.5q67 0 106.5 39.5z" />
    <glyph glyph-name="nine.osf" horiz-adv-x="532" 
d="M331 73q-10 -8 -29.5 -12.5t-35.5 -4.5q-64 0 -113.5 30t-77 82t-27.5 116t27.5 116t77 82t113.5 30t113.5 -30t77 -82t27.5 -116q0 -63 -37 -129l-207 -359h-65zM377 158.5q43 46.5 43 125.5q0 49 -19.5 88.5t-55 61.5t-79.5 22t-79.5 -22t-55 -61.5t-19.5 -88.5
q0 -79 43 -125.5t111 -46.5t111 46.5z" />
    <glyph glyph-name="zero.osf.zero" horiz-adv-x="568" 
d="M408.5 475.5q53.5 -36.5 82.5 -96.5t29 -127t-29 -127t-82.5 -96.5t-124.5 -36.5t-124.5 36.5t-82.5 96.5t-29 127t29 127t82.5 96.5t124.5 36.5t124.5 -36.5zM126 171q13 -39 38 -68l196 333q-36 18 -76 18q-54 0 -92.5 -28.5t-58.5 -75t-20 -98.5q0 -42 13 -81z
M376.5 78.5q38.5 28.5 58.5 75t20 98.5q0 42 -12.5 79.5t-36.5 66.5l-195 -331q32 -17 73 -17q54 0 92.5 28.5z" />
    <glyph glyph-name="zero.tf" 
d="M130.5 88.5q-61.5 96.5 -61.5 261.5t61.5 261.5t179.5 96.5t179.5 -96.5t61.5 -261.5t-61.5 -261.5t-179.5 -96.5t-179.5 96.5zM405 86q40 38 61 106.5t21 157.5t-21 157.5t-61 106.5t-95 38t-95 -38t-61 -106.5t-21 -157.5t21 -157.5t61 -106.5t95 -38t95 38z" />
    <glyph glyph-name="one.tf" 
d="M149 62h130v532l-116 -73v76l162 103h16v-638h130v-62h-322v62z" />
    <glyph glyph-name="two.tf" 
d="M103 23l255 330q48 61 63 94t15 77q0 59 -33 93.5t-91 34.5q-54 0 -90.5 -39.5t-45.5 -101.5l-58 11q8 82 61 134t133 52q83 0 135.5 -49t52.5 -137q0 -47 -21.5 -91t-63.5 -98l-214 -277h316v-56h-414v23z" />
    <glyph glyph-name="three.tf" 
d="M161 45q-59 53 -69 147l62 9q8 -70 47 -111.5t106 -41.5q76 0 116.5 44.5t40.5 121.5q0 81 -41 124t-116 43q-33 0 -62 -18l-30 39l181 242h-269v56h366v-17l-189 -251q9 3 26 3q52 0 97.5 -26t73 -76.5t27.5 -118.5q0 -65 -26.5 -115.5t-76.5 -78.5t-118 -28
q-87 0 -146 53z" />
    <glyph glyph-name="four.tf" 
d="M387 161h-309v17l295 522h76v-483h93v-56h-93v-161h-62v161zM387 217v395l-221 -395h221z" />
    <glyph glyph-name="five.tf" 
d="M166.5 40.5q-55.5 48.5 -67.5 143.5l61 11q20 -147 149 -147q71 0 109 48t38 132q0 88 -38 134t-104 46q-52 0 -91 -26t-63 -68l-44 10l36 376h327v-56h-271l-24 -231q51 51 136 51q59 0 104.5 -28.5t70.5 -82t25 -125.5q0 -69 -26 -122.5t-73.5 -83.5t-111.5 -30
q-87 0 -142.5 48.5z" />
    <glyph glyph-name="six.tf" 
d="M196.5 22q-49.5 30 -77 82t-27.5 116q0 72 45 149l199 339h65l-156 -277q10 8 29.5 12.5t35.5 4.5q64 0 113.5 -30t77 -82t27.5 -116t-27.5 -116t-77 -82t-113.5 -30t-113.5 30zM389.5 70q35.5 22 55 61.5t19.5 88.5q0 79 -43 125.5t-111 46.5t-111 -46.5t-43 -125.5
q0 -49 19.5 -88.5t55 -61.5t79.5 -22t79.5 22z" />
    <glyph glyph-name="seven.tf" 
d="M430 644h-314v56h388v-20l-277 -680h-65z" />
    </font>
</defs>
</svg>
