<svg width="24" height="24" viewBox="0 0 24 24" fill="none" xmlns="http://www.w3.org/2000/svg">
<path d="M7.47837 6.74338C7.44237 6.57639 7.62137 6.42638 7.62237 6.24739C7.63637 6.06739 7.68437 5.88938 7.74137 5.71738C7.77237 5.63038 7.77337 5.54138 7.75637 5.44138C7.73937 5.34338 7.86537 5.28338 7.77737 5.16138C7.76937 5.15038 7.78537 5.13738 7.79037 5.12538C7.87037 4.91638 7.91837 4.68038 8.08737 4.51938C8.27437 4.33238 8.36637 4.09539 8.54037 3.90938C8.66237 3.48138 9.05237 3.24438 9.35737 2.96038C9.45537 2.87238 9.55337 2.77238 9.71537 2.76938C9.84837 2.76538 9.90437 2.58238 10.0764 2.64238C10.0904 2.64738 10.0964 2.60938 10.1084 2.59538C10.1374 2.56138 10.1614 2.50738 10.2024 2.49938C10.4594 2.47138 10.4534 2.47538 10.6154 2.33138C10.6344 2.31338 10.6834 2.36138 10.7094 2.35438C10.8184 2.32938 10.9264 2.30638 11.0284 2.26238C11.1214 2.22038 11.2414 2.28838 11.3114 2.14138C11.3274 2.11038 11.3744 2.12638 11.4074 2.12038C11.5124 2.09738 11.6194 2.10138 11.7244 2.08538C11.8464 2.07038 11.9684 2.10938 12.0904 2.01138C12.1454 1.96638 12.2164 2.09838 12.2474 2.07338C12.3084 2.02638 12.3644 2.01638 12.4204 2.02938C12.4764 2.04038 12.5224 2.10138 12.5764 2.11238C12.6224 2.12138 12.6794 2.07138 12.7294 2.07638C12.8524 2.08738 12.9664 2.16138 13.0874 2.14038C13.2194 2.11438 13.3284 2.16038 13.4424 2.19238C13.5594 2.23238 13.6654 2.29738 13.7844 2.33238C13.8794 2.35638 13.9254 2.45238 13.9884 2.51938C14.0494 2.58738 14.1834 2.55838 14.1814 2.70938C14.1814 2.71638 14.1924 2.71538 14.1974 2.71938C14.3264 2.84138 14.4584 2.96538 14.5854 3.08438C14.8114 3.28438 15.0314 3.48938 15.2214 3.71938C15.2714 3.78638 15.3624 3.83038 15.3244 3.95738C15.3164 3.98338 15.3644 3.99238 15.3644 4.01838C15.3654 4.11538 15.5694 4.05538 15.5334 4.17438C15.5004 4.27938 15.5794 4.31538 15.6104 4.38038C15.6474 4.45238 15.6974 4.51738 15.7274 4.59238C15.7494 4.64338 15.7884 4.68038 15.8624 4.69538C15.7784 4.80538 15.8974 4.84538 15.8724 4.93538C15.8554 4.99438 15.8494 5.07538 15.9004 5.09038C16.0164 5.12538 16.0044 5.21338 16.0424 5.27938C16.1004 5.37938 16.0904 5.50138 16.2124 5.58138C16.2634 5.61638 16.2604 5.68438 16.2654 5.74038C16.2724 5.79238 16.2324 5.85438 16.2394 5.90438C16.2504 5.99938 16.2754 6.08839 16.3604 6.16839C16.4374 6.23939 16.3374 6.35739 16.4774 6.41938C16.4964 6.42738 16.4934 6.45538 16.4854 6.47438C16.4434 6.57238 16.4234 6.65439 16.5104 6.74739C16.5784 6.82339 16.5324 6.93338 16.5374 7.02738C16.5404 7.12738 16.5734 7.23138 16.5384 7.32838C16.5144 7.38938 16.6864 7.42538 16.5744 7.49638C16.5144 7.53438 16.5404 7.61338 16.5344 7.67438C16.5264 7.73638 16.5534 7.80538 16.5184 7.86138C16.3454 8.15638 16.4154 8.47938 16.2974 8.77438C16.2554 8.89739 16.3094 9.05738 16.1304 9.13438C16.2134 9.25438 16.0934 9.33738 16.1324 9.44338C16.1594 9.51238 16.1374 9.55738 16.1194 9.60638C16.0084 9.93138 15.8544 10.2414 15.6944 10.5474C15.5954 10.7524 15.5054 10.9654 15.3854 11.1644C15.3524 11.2204 15.3294 11.2824 15.2264 11.2944C15.1524 11.3044 15.0914 11.3724 15.1184 11.4834C15.1234 11.5054 15.1184 11.5364 15.1014 11.5364C14.8944 11.5354 14.9364 11.7394 14.8474 11.8404C14.6834 12.0424 14.4134 12.1254 14.2284 12.2974C14.1844 12.3314 14.1024 12.3274 14.1324 12.4414C14.0424 12.3904 14.0434 12.4444 14.0234 12.5094C14.0024 12.5764 13.9294 12.6314 13.8614 12.6134C13.7664 12.5834 13.7264 12.6334 13.6674 12.6554C13.6054 12.6794 13.5504 12.7194 13.4894 12.7454C13.2244 12.8424 12.9514 12.9254 12.6674 12.9484C12.6124 12.9544 12.5524 12.9254 12.4964 12.9174C12.4414 12.9114 12.3874 12.9624 12.3264 12.8734C12.3034 12.8394 12.2524 12.8704 12.2144 12.8734C12.0784 12.8884 11.9374 12.8324 11.8134 12.8924C11.6864 12.9524 11.5674 12.8674 11.4354 12.9694C11.3974 12.9994 11.3464 12.9484 11.2994 12.9464C11.1014 12.9454 10.9614 12.7744 10.7384 12.8464C10.7104 12.7354 10.6284 12.7304 10.5604 12.6984C10.5094 12.6774 10.4784 12.6014 10.3884 12.6744C10.3774 12.6824 10.3604 12.6744 10.3514 12.6644C10.3034 12.6104 10.2844 12.5254 10.2094 12.5064C10.1504 12.4864 10.0744 12.5124 10.0184 12.4734C9.80937 12.3354 9.70837 12.0904 9.49637 11.9714C9.50237 11.8694 9.44337 11.8264 9.39437 11.7734C9.31137 11.6784 9.14537 11.6654 9.07637 11.5484C9.01537 11.4364 8.95637 11.3164 8.83637 11.2584C8.63237 11.1544 8.57437 10.9454 8.44537 10.7884C8.41537 10.7464 8.35437 10.7134 8.41937 10.6224C8.43437 10.6004 8.39837 10.5574 8.36337 10.5584C8.29037 10.5614 8.30737 10.5074 8.27037 10.4904C8.16437 10.4404 8.35537 10.2464 8.14837 10.2494L8.02237 9.97638C7.97737 9.88638 7.94137 9.79339 7.91137 9.69738C7.89737 9.65338 7.86037 9.61738 7.90837 9.54938C7.94037 9.50338 7.92237 9.43038 7.87137 9.41438C7.74937 9.37538 7.77137 9.28438 7.74637 9.21238C7.66937 8.99438 7.61137 8.76938 7.58037 8.53938C7.56337 8.43938 7.58137 8.33438 7.59437 8.23038C7.60437 8.12738 7.52137 8.02938 7.60137 7.92138C7.60737 7.91338 7.60137 7.90338 7.59837 7.89538C7.57937 7.85738 7.54137 7.81938 7.54637 7.77938C7.55137 7.72738 7.63437 7.65438 7.59537 7.62738C7.51937 7.57338 7.59837 7.53138 7.60437 7.48738C7.62237 7.36038 7.81137 7.28338 8.04337 7.29838C8.09437 7.30138 8.15137 7.31438 8.19137 7.33038C8.44637 7.42938 8.43437 7.42738 8.45537 7.58438C8.47237 7.78039 8.37137 7.99138 8.44337 8.18738C8.33937 8.33938 8.45537 8.46538 8.45537 8.60438C8.45537 8.75038 8.40337 8.92038 8.51237 9.03638C8.61837 9.15138 8.66137 9.28039 8.70437 9.41238C8.73637 9.51238 8.73137 9.62938 8.76837 9.72938C8.80537 9.83438 8.87937 9.92439 8.89937 10.0354C8.91337 10.1034 8.87537 10.2054 8.95037 10.2384C9.10937 10.3094 9.10337 10.4794 9.23037 10.5604C9.39537 10.6774 9.46937 10.8544 9.62637 10.9654C9.70637 11.0284 9.79837 11.0744 9.86337 11.1464C9.89337 11.1794 9.92437 11.2074 9.92237 11.2774C9.91937 11.3494 9.97037 11.4044 10.0664 11.3874C10.1054 11.3814 10.1514 11.3914 10.1504 11.4244C10.1484 11.5614 10.2474 11.5964 10.3234 11.6454C10.3714 11.6754 10.3674 11.7944 10.4204 11.7804C10.5084 11.7554 10.5344 11.8114 10.5844 11.8354C10.6194 11.8534 10.6754 11.8414 10.6604 11.9374C10.6564 11.9624 10.6874 11.9864 10.7074 11.9734C10.8224 11.8984 10.8584 11.9844 10.9224 12.0144C11.0814 12.0614 11.2304 12.1384 11.3894 12.1734C11.5234 12.2084 11.6654 12.1174 11.7894 12.1674C11.8784 12.0504 11.9574 12.1214 12.0414 12.1144C12.1044 12.1104 12.1694 12.1464 12.2364 12.1654C12.3044 12.1854 12.3644 12.1594 12.4414 12.1914C12.5394 12.2344 12.6314 12.1594 12.7264 12.1454C12.7794 12.1324 12.8104 12.0494 12.8954 12.1384C12.9074 12.1504 12.9304 12.1384 12.9334 12.1214C12.9554 11.9844 13.0484 11.9914 13.1234 11.9984C13.2494 12.0174 13.3244 11.9394 13.4214 11.9034C13.4974 11.8634 13.5604 11.8004 13.6374 11.7614C13.6924 11.7304 13.7304 11.6834 13.8104 11.6774C13.8734 11.6744 13.8834 11.5804 13.9224 11.5364C13.9624 11.4914 14.0124 11.4574 14.0584 11.4194L14.1954 11.2774L14.3324 11.1354C14.3824 11.0844 14.4164 11.0184 14.4714 10.9714C14.5224 10.9264 14.6024 10.9034 14.6494 10.8534C14.7754 10.7054 14.7714 10.4794 14.9114 10.3424C14.8614 10.2534 14.9404 10.2424 14.9814 10.2024C15.0194 10.1664 15.0804 10.1324 15.0254 10.0484C15.0104 10.0254 15.0274 10.0044 15.0324 9.98439C15.0414 9.93839 15.1324 9.93839 15.0994 9.86138C15.0754 9.80738 15.1394 9.77238 15.1514 9.72438C15.1634 9.67438 15.2464 9.64538 15.1624 9.56339C15.3524 9.54239 15.1434 9.36738 15.2464 9.31238C15.2784 9.29438 15.2984 9.26838 15.3234 9.24538C15.3364 9.23438 15.3624 9.22538 15.3594 9.21038C15.2914 8.93738 15.4824 8.74238 15.4874 8.49538C15.4874 8.46538 15.4624 8.43139 15.4534 8.39938C15.4494 8.38439 15.4484 8.36838 15.4574 8.35638C15.5414 8.24038 15.5454 8.23939 15.4984 8.10939C15.4874 8.07738 15.5044 8.04638 15.5014 8.01438C15.4944 7.93138 15.5334 7.85538 15.4744 7.76638C15.4134 7.67838 15.5374 7.59838 15.5954 7.51138C15.6454 7.43538 15.7054 7.35738 15.7004 7.27038C15.6754 7.05338 15.6854 6.83538 15.6484 6.62038C15.6444 6.59338 15.6644 6.55238 15.6334 6.54238C15.5034 6.49738 15.4214 6.46038 15.6104 6.36738C15.6194 6.36338 15.6144 6.34138 15.6014 6.33838C15.4634 6.31038 15.5104 6.23238 15.5014 6.17338C15.4734 5.94338 15.2604 5.77738 15.2384 5.55238C15.2324 5.51638 15.1834 5.48338 15.2144 5.44838C15.2794 5.37338 15.1384 5.40738 15.1534 5.35938C15.1654 5.31838 15.0994 5.29538 15.1224 5.25538C15.1984 5.11238 15.1064 5.02738 15.0264 4.96538C14.9534 4.90438 14.8664 4.85338 14.8604 4.76638C14.8534 4.58838 14.7344 4.47938 14.6434 4.35638C14.5584 4.22138 14.4444 4.11038 14.3314 4.00138C14.2874 3.95538 14.2704 3.87038 14.1484 3.91638C14.1234 3.92538 14.1114 3.89739 14.1014 3.87838C14.0784 3.83338 14.0724 3.76738 14.0354 3.73638C14.0004 3.70238 13.9324 3.71238 13.8834 3.69938C13.8434 3.68938 13.8234 3.65638 13.7564 3.68338C13.7074 3.70338 13.6894 3.64538 13.6864 3.56838C13.6804 3.41838 13.6524 3.26938 13.5364 3.22638L13.2414 3.09538C13.1994 3.08038 13.1624 3.05438 13.0994 3.08938C13.0414 3.12238 12.9824 3.08438 12.9434 3.03238C12.8824 2.95338 12.8094 2.91938 12.7164 2.96738C12.6844 2.98538 12.6524 2.97938 12.6224 2.97538C12.4424 2.93738 12.2604 2.92038 12.0764 2.91338C12.0314 2.91038 11.9864 2.92838 11.9484 2.84838C11.9204 2.95038 11.8744 2.92038 11.8354 2.91538C11.7764 2.90838 11.7144 2.86738 11.6524 2.86238C11.5804 2.85638 11.5114 2.88438 11.4534 2.95438C11.4014 3.02138 11.3044 2.94238 11.2564 3.03838C11.2484 3.05738 11.2074 3.00938 11.1904 3.02038C11.1214 3.06338 11.0084 3.00138 10.9834 3.15138C10.9814 3.16438 10.9654 3.16838 10.9544 3.15938C10.8214 3.06138 10.7734 3.19938 10.7084 3.26538C10.6354 3.33438 10.5074 3.27938 10.4224 3.33038C10.3254 3.38638 10.2494 3.47738 10.1354 3.49838C9.92637 3.52338 9.81237 3.68338 9.66837 3.79838C9.52537 3.92338 9.38937 4.05938 9.28137 4.21738C9.23337 4.28638 9.22337 4.38038 9.18137 4.45038C9.13637 4.52938 9.08337 4.60538 9.03337 4.68138L8.89937 4.90238C8.87837 4.93738 8.89437 4.99538 8.80037 4.98738C8.78137 4.98538 8.76437 5.00538 8.77137 5.02038C8.82237 5.12938 8.78037 5.18438 8.67637 5.22238C8.64637 5.23238 8.65437 5.27138 8.63337 5.29038C8.57337 5.34438 8.62637 5.43238 8.62537 5.50138C8.62237 5.56338 8.52037 5.60238 8.62737 5.69438C8.64237 5.70638 8.63437 5.73438 8.61437 5.73838C8.37037 5.79238 8.67037 6.01938 8.45637 6.08638C8.56737 6.16138 8.41837 6.17738 8.42837 6.21938C8.44337 6.27938 8.46437 6.33739 8.44937 6.39239C8.43637 6.44439 8.42737 6.49739 8.42837 6.55138C8.43137 6.64938 8.36137 6.74338 8.45037 6.84838C8.48237 6.88338 8.50237 6.94439 8.40237 6.97838C8.38437 6.98439 8.38637 7.00638 8.39037 7.02038C8.42437 7.12838 8.30937 7.25538 8.12637 7.28438C8.01937 7.30038 7.88837 7.29938 7.77937 7.28438C7.72537 7.27738 7.69237 7.22438 7.65437 7.19038C7.58837 7.13138 7.49537 7.07038 7.47037 7.00338C7.44137 6.92438 7.46737 6.83938 7.47637 6.73838L7.47837 6.74338Z" fill="black"/>
<path d="M21.9869 20.977C21.9259 20.743 21.9769 20.564 21.9719 20.36C21.9689 20.25 21.9759 20.142 21.9799 20.034C21.9839 19.919 21.9579 19.809 21.9369 19.699C21.9229 19.625 22.0389 19.525 21.9319 19.434C22.0939 19.184 21.7569 18.957 21.8829 18.699C21.8939 18.678 21.8789 18.622 21.8599 18.612C21.7279 18.539 21.7659 18.393 21.7029 18.291C21.6409 18.178 21.5349 18.099 21.5019 17.967C21.4909 17.919 21.4489 17.873 21.4449 17.829C21.4379 17.671 21.3689 17.545 21.2229 17.473C21.2039 17.463 21.1809 17.421 21.1849 17.402C21.2019 17.307 21.1199 17.258 21.0739 17.196C20.9699 17.066 20.8559 16.943 20.7309 16.832C20.6029 16.71 20.4659 16.594 20.3149 16.501C20.1799 16.415 20.0229 16.373 19.8839 16.301C19.5569 16.138 19.2109 16.041 18.9049 15.93C18.5959 15.82 18.2729 15.754 17.9839 15.58C17.8159 15.479 17.6059 15.446 17.4139 15.386C17.2449 15.333 17.1179 15.194 16.9359 15.169C16.7689 15.146 16.5839 15.175 16.4609 15.016C16.4509 15.004 16.4219 14.993 16.4079 14.999C16.2449 15.063 16.1189 14.943 15.9749 14.914C15.9399 14.907 15.9069 14.847 15.8809 14.852C15.7389 14.876 15.6269 14.761 15.5009 14.768C15.3639 14.776 15.2429 14.744 15.1239 14.696C15.0239 14.656 14.9339 14.589 14.8349 14.547C14.7699 14.52 14.6979 14.468 14.6219 14.529C14.5809 14.443 14.4939 14.434 14.4169 14.408L14.2309 14.347L14.1829 14.331H13.3219C13.2669 14.331 13.2069 14.331 13.1579 14.351C13.0129 14.407 12.8769 14.4 12.7289 14.351C12.6349 14.321 12.5049 14.302 12.4279 14.344C12.3419 14.391 12.2659 14.383 12.1859 14.385C11.9939 14.39 11.8009 14.375 11.6109 14.39C11.3959 14.407 11.2199 14.308 11.0529 14.211C10.9689 14.162 10.8739 14.132 10.8199 14.168C10.7459 14.217 10.6789 14.205 10.6079 14.217C10.5189 14.231 10.4319 14.269 10.3439 14.269C10.2559 14.269 10.1689 14.233 10.0799 14.217C10.0429 14.21 9.98893 14.2 9.96693 14.219C9.93493 14.246 9.90093 14.262 9.86693 14.27L9.74893 14.289C9.67693 14.333 9.58793 14.341 9.50993 14.368C9.23893 14.463 8.96593 14.554 8.68993 14.636C8.42093 14.716 8.16493 14.832 7.87593 14.852C7.72893 14.862 7.58493 14.949 7.44393 15.029C7.29393 15.115 7.11293 15.208 6.90793 15.163C6.85193 15.151 6.78093 15.218 6.71793 15.216C6.64193 15.214 6.64093 15.336 6.54093 15.293C6.49393 15.273 6.41693 15.325 6.35293 15.339C5.95293 15.425 5.60893 15.658 5.21893 15.773C5.11693 15.803 4.98393 15.793 4.92793 15.921C4.92293 15.933 4.88493 15.946 4.87793 15.94C4.72293 15.817 4.65993 15.902 4.57493 16.04C4.55593 16.072 4.48193 16.078 4.43193 16.097C4.04393 16.251 3.67493 16.464 3.36693 16.745C3.24693 16.859 3.10793 16.929 2.97693 17.021C2.82893 17.12 2.62793 17.207 2.58093 17.384C2.52893 17.554 2.43393 17.682 2.36893 17.833C2.34693 17.892 2.30893 17.948 2.29493 18.008C2.24893 18.25 2.24793 18.244 2.12493 18.476C2.11193 18.501 2.10693 18.532 2.10493 18.56C2.09993 18.619 2.11193 18.678 2.10493 18.736C2.02993 19.197 1.94893 19.672 2.06993 20.07C2.07693 20.092 2.05893 20.121 2.05293 20.147C2.03993 20.199 2.03293 20.253 2.01293 20.302C1.95093 20.459 2.15693 20.608 2.02293 20.765C2.11293 20.84 2.06193 20.941 2.06993 21.03C2.07793 21.115 2.04293 21.217 2.07893 21.283C2.12993 21.377 2.06093 21.445 2.07193 21.525L2.07693 21.585L2.10693 21.926L2.38693 21.892C2.40493 21.89 2.42093 21.886 2.43193 21.876C2.51893 21.804 2.61993 21.833 2.70693 21.846C2.80093 21.86 2.88993 21.91 2.97893 21.84C3.31493 21.879 3.63693 21.773 3.96893 21.785C4.08693 21.789 4.20693 21.828 4.32593 21.837C4.45193 21.846 4.57793 21.839 4.70393 21.839H5.40193C5.50893 21.839 5.61593 21.843 5.72193 21.837C5.82693 21.831 5.93793 21.778 6.03193 21.809C6.15393 21.85 6.25993 21.829 6.37193 21.835L6.83793 21.838C7.02593 21.848 7.20493 21.82 7.40793 21.88C7.53193 21.917 7.70493 21.943 7.81593 21.847C7.82993 21.835 7.87593 21.833 7.89093 21.845C8.00093 21.935 8.10193 21.882 8.20293 21.887C8.38993 21.896 8.57593 21.849 8.75593 21.9C8.90193 21.941 9.02293 21.924 9.15593 21.941C9.28893 21.959 9.42693 21.99 9.55593 21.991C9.72393 21.991 9.91393 22.031 10.0429 21.937C10.3159 21.975 10.5299 21.874 10.7879 21.878L11.7199 21.873C11.8469 21.87 12.0039 21.913 12.0859 21.823C12.0999 21.807 12.1719 21.812 12.1959 21.831C12.2879 21.899 12.3589 21.874 12.4279 21.869C12.5249 21.862 12.6329 21.885 12.7169 21.832C12.7659 21.801 12.9189 21.874 13.0239 21.872C13.1909 21.869 13.3459 21.835 13.5479 21.913C13.5969 21.932 13.6649 21.915 13.6999 21.893C13.7839 21.84 13.9139 21.84 14.0219 21.877C14.1279 21.913 14.2039 21.91 14.2859 21.91C14.4659 21.911 14.6289 21.887 14.7959 21.867C15.1039 21.83 15.4599 21.864 15.7579 21.807C15.9719 21.767 16.2629 21.829 16.4579 21.755C16.5469 21.721 16.7079 21.777 16.8349 21.79C17.0399 21.811 17.2209 21.788 17.4199 21.794C17.6109 21.8 17.8209 21.832 18.0069 21.832C18.2519 21.832 18.5029 21.84 18.7119 21.791C18.9209 21.742 19.2319 21.808 19.5009 21.823C19.7589 21.838 19.9639 21.784 20.2709 21.861C20.6059 21.826 21.0389 21.909 21.3929 21.894C21.6719 21.883 21.6809 21.889 21.7149 21.744C21.7199 21.721 21.7109 21.689 21.6869 21.66C21.6629 21.631 21.6169 21.611 21.5829 21.585H21.6139V21.581C21.6569 21.627 21.6989 21.667 21.7389 21.687C21.8429 21.743 21.9349 21.544 21.9269 21.31C21.9259 21.28 21.9269 21.237 21.9399 21.23C22.0139 21.193 22.0099 21.056 21.9889 20.977H21.9869Z" fill="black"/>
</svg>
