<svg width="10" height="16" viewBox="0 0 10 16" fill="none" xmlns="http://www.w3.org/2000/svg">
<path d="M7.08222 8.21805C6.87734 8.33205 6.72435 8.48553 6.61893 8.59129C6.61329 8.59695 6.6078 8.60246 6.60243 8.60783C6.48035 8.72999 6.39997 8.80695 6.32561 8.8565C6.30214 8.85745 6.27794 8.85982 6.25312 8.86393C6.12639 8.88492 6.03242 8.94263 5.96765 8.99952C5.84789 9.04237 5.75425 9.10627 5.68255 9.16647C5.63499 9.20641 5.59346 9.24796 5.56678 9.27466L5.565 9.27644C5.53379 9.30766 5.51795 9.32338 5.50237 9.33698C5.48726 9.35017 5.47296 9.36425 5.45954 9.37916C5.46042 9.37817 5.45976 9.37897 5.45601 9.38272L5.43814 9.40021L5.43731 9.40102C5.42227 9.41568 5.39244 9.44475 5.36239 9.48021C5.31641 9.53447 5.26806 9.60551 5.23341 9.69565C5.20627 9.71903 5.15591 9.76409 5.10832 9.82782C5.04444 9.86076 4.96365 9.91624 4.89815 10.0077C4.8884 10.0147 4.87865 10.0221 4.86894 10.0301C4.77581 10.1064 4.72554 10.1987 4.69873 10.2693C4.67078 10.2924 4.64541 10.3186 4.6231 10.3473C4.61782 10.3514 4.60984 10.3576 4.59723 10.3672L4.59389 10.3697C4.57439 10.3846 4.53649 10.4134 4.5006 10.4464C4.46398 10.48 4.39826 10.5454 4.34971 10.6427C4.33793 10.6662 4.32812 10.6905 4.32028 10.7153C4.31149 10.7247 4.30272 10.7348 4.29409 10.7454C4.29376 10.7458 4.29342 10.7462 4.29309 10.7466C4.16044 10.7789 4.04503 10.8648 3.97651 10.9857C3.83993 11.0395 3.75845 11.1348 3.71247 11.2117C3.26406 11.4303 2.81086 11.8214 2.5489 12.2494C2.47737 12.3118 2.39656 12.3662 2.28605 12.4406C2.26416 12.4553 2.24109 12.4709 2.21671 12.4874C2.05723 12.5954 1.85291 12.7403 1.67694 12.962C1.6212 13.0322 1.58537 13.1162 1.5732 13.205C1.57302 13.2063 1.56881 13.2344 1.5186 13.2932C1.46762 13.353 1.39155 13.4185 1.28947 13.4933C1.23978 13.5297 1.18837 13.5651 1.13414 13.6021C1.12617 13.6076 1.11803 13.6131 1.10978 13.6187C1.06447 13.6496 1.01563 13.6829 0.971008 13.7147C0.918605 13.7521 0.858958 13.7968 0.804368 13.8458C0.754482 13.8907 0.679095 13.9651 0.623863 14.0676C0.603474 14.1054 0.588051 14.1457 0.577973 14.1875C0.522626 14.417 0.591299 14.6322 0.652115 14.7667C0.719912 14.9166 0.82027 15.0601 0.936451 15.1776C1.04814 15.2906 1.20815 15.4136 1.40734 15.4696C1.575 15.5168 1.7714 15.5137 1.95227 15.4224C1.96968 15.4209 1.98879 15.4185 2.00896 15.4148C2.07419 15.4026 2.17749 15.3711 2.27258 15.2843C2.37028 15.195 2.41493 15.0928 2.43365 15.0026C2.47489 14.9708 2.55839 14.9039 2.63181 14.7996C2.65846 14.7827 2.68543 14.7624 2.7113 14.738C2.75756 14.7102 2.80002 14.6756 2.83732 14.6347C2.85792 14.6121 2.87547 14.5892 2.89041 14.5668C2.94059 14.5426 2.9864 14.5107 3.02586 14.4729C3.09261 14.4088 3.15174 14.3134 3.17587 14.2021C3.18328 14.1903 3.19044 14.1778 3.19726 14.1646C3.27944 14.13 3.39099 14.0621 3.46931 13.9285C3.47099 13.9257 3.47264 13.9228 3.47426 13.9199C3.74073 13.7493 3.93537 13.5095 4.07479 13.3377C4.08719 13.3224 4.09915 13.3077 4.11069 13.2936C4.32882 13.0269 4.46385 12.8844 4.63063 12.8217C4.66089 12.8103 4.68998 12.7961 4.71749 12.7791C4.84733 12.6989 4.92428 12.6318 4.97077 12.5913C4.97866 12.5845 4.98567 12.5784 4.99191 12.5731L4.99327 12.5719C5.01487 12.5536 5.04609 12.5272 5.16046 12.4709C5.24868 12.4275 5.32164 12.3593 5.37087 12.2754C5.43368 12.2437 5.49004 12.1986 5.53547 12.142C5.56073 12.1106 5.58178 12.0766 5.59848 12.0409C5.67251 11.9934 5.73166 11.9278 5.77142 11.8517C5.80932 11.8138 5.85234 11.7603 5.88542 11.6887C5.88585 11.6878 5.88628 11.6869 5.88671 11.6859C5.92768 11.6671 5.98537 11.6363 6.0422 11.5879C6.07214 11.5624 6.10232 11.5316 6.12997 11.4952C6.22251 11.4358 6.30248 11.3598 6.35425 11.3085C6.39039 11.2727 6.43513 11.2257 6.4682 11.191C6.48271 11.1758 6.49497 11.1629 6.50328 11.1544C6.51392 11.1434 6.52177 11.1356 6.52739 11.1301C6.56117 11.1075 6.59215 11.0808 6.61959 11.0506C6.65084 11.0162 6.67576 10.9812 6.69559 10.9485C6.75987 10.9231 6.82413 10.8845 6.88313 10.8277C6.98202 10.7326 7.02454 10.6235 7.0433 10.5597C7.10862 10.4977 7.20851 10.4219 7.32989 10.3488C7.48151 10.2575 7.61935 10.1987 7.69781 10.1787C7.86329 10.1364 7.99574 10.0126 8.04905 9.85033C8.05185 9.8418 8.05799 9.82418 8.10253 9.78017C8.12698 9.75601 8.15742 9.72925 8.20141 9.69208C8.21024 9.68462 8.21985 9.67654 8.23007 9.66796C8.26615 9.63764 8.3097 9.60107 8.35223 9.56342C8.37865 9.54004 8.4025 9.51394 8.42339 9.48558C8.43723 9.4769 8.45065 9.46984 8.47582 9.45659C8.49042 9.44891 8.50897 9.43914 8.53385 9.42578L8.53827 9.4234C8.6209 9.37906 8.81236 9.27631 8.93165 9.06509C9.10812 9.00735 9.21616 8.87945 9.26035 8.8226C9.32701 8.73683 9.37852 8.63943 9.41545 8.54744C9.45257 8.45499 9.48359 8.34652 9.49514 8.23327C9.5011 8.17491 9.50406 8.09476 9.48902 8.00601C9.50371 7.79382 9.42869 7.60293 9.33317 7.46222C9.23284 7.31445 9.09448 7.19451 8.94055 7.10793C8.90571 7.07491 8.87319 7.04846 8.84933 7.02948C8.8289 7.01322 8.80763 6.99695 8.79063 6.98393C8.78793 6.98186 8.78534 6.97988 8.78288 6.97799C8.77103 6.96891 8.761 6.96117 8.75208 6.95415C8.74819 6.93896 8.74351 6.92348 8.73794 6.90779C8.71173 6.83403 8.6692 6.76635 8.6124 6.71018C8.55712 6.65551 8.49794 6.62113 8.44759 6.59965C8.4412 6.59692 8.43486 6.59437 8.42858 6.59197C8.30189 6.40857 8.14117 6.26681 8.02942 6.16823C8.02179 6.16151 8.01439 6.15498 8.00725 6.14866C7.87035 6.02747 7.77615 5.94137 7.712 5.86297C7.71026 5.84832 7.70791 5.83342 7.70489 5.81829C7.67741 5.68088 7.60693 5.58569 7.54527 5.5253C7.49328 5.40728 7.42002 5.31886 7.35727 5.25571C7.31266 5.21081 7.26658 5.17206 7.23707 5.14726L7.23572 5.14612C7.20093 5.11687 7.18351 5.10216 7.16838 5.08763C7.15481 5.07458 7.14051 5.06232 7.12555 5.05089L7.1256 5.05092C7.1256 5.05092 7.1241 5.04975 7.12019 5.04644L7.10046 5.02938L7.09991 5.02891C7.08352 5.01468 7.05206 4.98737 7.01402 4.96011C6.95222 4.91582 6.87541 4.87301 6.78095 4.84483C6.75575 4.81984 6.70407 4.7693 6.63095 4.72348C6.58916 4.65617 6.52561 4.58276 6.43207 4.52719C6.42409 4.51771 6.41565 4.50833 6.40673 4.49908C6.33064 4.42018 6.24586 4.37801 6.17757 4.35533C6.16734 4.35194 6.15724 4.34893 6.14751 4.34626C6.12043 4.3177 6.09005 4.29241 6.05699 4.27094C6.05242 4.26607 6.04545 4.25844 6.03393 4.24568L6.03117 4.24262C6.01468 4.22432 5.98285 4.18901 5.9467 4.15573C5.90833 4.1204 5.84168 4.06485 5.74844 4.02482C5.72085 4.01298 5.6924 4.00371 5.66347 3.99704C5.65094 3.98663 5.63745 3.97626 5.62299 3.96618C5.57978 3.83717 5.48478 3.72859 5.35699 3.67016C5.2893 3.53121 5.17987 3.45863 5.10617 3.42282C4.85884 2.99647 4.42821 2.58105 3.97403 2.34429C3.89917 2.2685 3.84412 2.20173 3.78026 2.12429C3.73005 2.06339 3.6744 1.9959 3.5994 1.91223C3.42824 1.72127 3.21243 1.52374 2.87783 1.38785C2.85878 1.38012 2.83927 1.37356 2.81941 1.36823C2.76194 1.35279 2.70162 1.31203 2.57908 1.15487C2.56513 1.13698 2.54762 1.11388 2.52798 1.08794C2.48149 1.02658 2.423 0.949373 2.37116 0.887883C2.28846 0.78977 2.17797 0.674235 2.03093 0.582088C1.97979 0.550041 1.92327 0.527517 1.8641 0.515606C1.6518 0.472866 1.44615 0.525707 1.30453 0.580001C1.15053 0.639038 0.998288 0.728255 0.870516 0.835061C0.751248 0.934759 0.606558 1.08884 0.538298 1.29414C0.501739 1.4041 0.483874 1.54008 0.518792 1.68613C0.534094 1.75013 0.557899 1.80917 0.588179 1.86299C0.590168 1.87768 0.59286 1.89322 0.596469 1.90935C0.614175 1.98848 0.65713 2.09501 0.755252 2.18511C0.851626 2.27361 0.95939 2.30778 1.0383 2.31994C1.0434 2.32073 1.04846 2.32144 1.05347 2.32207C1.05509 2.32382 1.05679 2.32566 1.05858 2.3276C1.09575 2.36779 1.17057 2.44873 1.28534 2.51652C1.30541 2.5433 1.32857 2.5689 1.35484 2.59247C1.38945 2.64051 1.42871 2.67883 1.46754 2.7088C1.49295 2.72842 1.51843 2.74465 1.54284 2.75808C1.57287 2.80898 1.61024 2.85326 1.65123 2.88871C1.72482 2.95233 1.81957 2.99722 1.92287 3.01177C1.94157 3.02237 1.96174 3.03236 1.98345 3.04136C2.02624 3.12465 2.1025 3.2261 2.23795 3.29275C2.24287 3.29518 2.2478 3.29751 2.25271 3.29976C2.33125 3.40436 2.41962 3.49229 2.50447 3.56649C2.63834 3.68355 2.79022 3.78848 2.91625 3.87556C2.92529 3.88181 2.9342 3.88797 2.94297 3.89403C3.2446 4.10275 3.39496 4.227 3.45702 4.36665C3.47018 4.39628 3.48619 4.42455 3.50483 4.45108C3.55716 4.52557 3.60453 4.58255 3.65192 4.63157C3.68496 4.66577 3.72759 4.70443 3.74108 4.71667C3.74319 4.71858 3.74459 4.71985 3.74513 4.72036C3.74556 4.72076 3.74608 4.72122 3.74669 4.72176C3.75482 4.72894 3.77946 4.75069 3.84569 4.86505C3.89669 4.95312 3.97312 5.02315 4.06434 5.06636C4.09136 5.11087 4.12551 5.15144 4.16609 5.18628C4.21259 5.22618 4.26525 5.2566 4.32124 5.2769C4.3747 5.34858 4.44597 5.40389 4.52674 5.43818C4.52797 5.43924 4.5292 5.44031 4.53045 5.44138C4.57177 5.47674 4.62599 5.51323 4.69443 5.54009C4.7005 5.54247 4.70657 5.54473 4.71266 5.54688C4.73532 5.58808 4.77068 5.64296 4.82361 5.69568C4.85611 5.72806 4.89386 5.75821 4.93663 5.78394C5.00257 5.87193 5.08487 5.95176 5.15197 6.01188C5.27634 6.12328 5.43054 6.23878 5.52903 6.29831C5.53868 6.31802 5.55016 6.33904 5.56377 6.3605C5.60589 6.4269 5.67202 6.50313 5.77223 6.55987C5.83522 6.59554 5.89977 6.61677 5.96205 6.62768C5.98961 6.64987 5.99985 6.66611 6.0077 6.68004C6.02824 6.71653 6.04528 6.76482 6.08662 6.89821C6.11824 7.0002 6.18165 7.08933 6.2675 7.15261C6.26834 7.15333 6.26953 7.15435 6.27107 7.15569C6.27763 7.16145 6.2872 7.1702 6.29944 7.18199C6.324 7.20563 6.35305 7.23539 6.38102 7.26587C6.40686 7.29403 6.42754 7.31821 6.44111 7.33528C6.51412 7.47827 6.6524 7.57835 6.81223 7.60224C6.81285 7.60289 6.81348 7.60356 6.81413 7.60425C6.82713 7.61805 6.84132 7.63408 6.86091 7.65652C6.86317 7.65911 6.86553 7.66182 6.86799 7.66465C6.88484 7.68398 6.9061 7.70838 6.92775 7.73211C6.95071 7.75726 6.97913 7.78738 7.01284 7.81899C7.03247 7.85746 7.0527 7.89129 7.07108 7.92005C7.09983 7.96503 7.13202 8.00931 7.15713 8.04316C7.12692 8.11222 7.10229 8.16983 7.08222 8.21805ZM4.64517 5.3973C4.64517 5.39717 4.64606 5.39885 4.64781 5.40275C4.64604 5.39939 4.64516 5.39743 4.64517 5.3973ZM4.25823 5.12417C4.25819 5.12418 4.25712 5.12392 4.25521 5.12338C4.25733 5.12389 4.25828 5.12416 4.25823 5.12417ZM4.2364 5.10794L4.23661 5.10848C4.23592 5.1069 4.23587 5.10663 4.2364 5.10794ZM6.71629 4.92986C6.71629 4.9299 6.716 4.92907 6.71543 4.9272C6.716 4.92888 6.71629 4.92982 6.71629 4.92986ZM6.05573 4.32746C6.05575 4.32746 6.05643 4.32758 6.05768 4.32783L6.05573 4.32746ZM2.37682 15.0498C2.37679 15.0498 2.37724 15.0493 2.37825 15.0483C2.37735 15.0493 2.37684 15.0498 2.37682 15.0498ZM5.64832 11.9477L5.64883 11.9474L5.64832 11.9477ZM6.53694 11.1211C6.54127 11.1172 6.54067 11.1182 6.53574 11.1222C6.53618 11.1218 6.53658 11.1214 6.53694 11.1211ZM5.4456 12.071C5.44562 12.0711 5.44521 12.0726 5.44432 12.0755C5.44515 12.0723 5.44559 12.0709 5.4456 12.071ZM5.4282 12.1135C5.42819 12.1135 5.42851 12.1133 5.42919 12.1131C5.42919 12.1131 5.42918 12.1131 5.42917 12.1131C5.42854 12.1134 5.42821 12.1135 5.4282 12.1135ZM4.63286 10.3393C4.63269 10.3395 4.63251 10.3396 4.63232 10.3398C4.63295 10.3392 4.63327 10.3389 4.63324 10.339C4.63322 10.339 4.6331 10.3391 4.63286 10.3393ZM4.66843 10.3834C4.66842 10.3833 4.66864 10.3822 4.66912 10.3802C4.66868 10.3824 4.66845 10.3834 4.66843 10.3834Z" fill="black" stroke="white" stroke-linejoin="round"/>
</svg>
