<svg width="10" height="7" viewBox="0 0 10 7" fill="none" xmlns="http://www.w3.org/2000/svg">
<path d="M5.02339 0.515814C4.88736 0.473034 4.7312 0.591868 4.65277 0.772496C4.56116 0.84855 4.4869 1.03948 4.36197 1.05057C4.28355 1.02918 4.36405 1.17812 4.30228 1.17732C4.033 1.28586 3.86435 1.68673 3.56591 1.84992C3.47014 1.80556 3.48193 1.89825 3.43543 1.91726C3.31467 1.93311 3.25846 2.04481 3.17725 2.13354C3.13978 2.18504 3.09119 2.22227 3.08148 2.30783C3.0558 2.41478 2.93781 2.43696 2.94128 2.55897C2.88645 2.58986 2.80178 2.57323 2.81844 2.69048C2.66228 2.7087 2.80109 2.78475 2.63591 2.91151C2.59912 2.98122 2.51306 3.02717 2.48877 3.08659C2.5207 3.20226 2.44158 3.19988 2.41104 3.24821C2.36454 3.31713 2.29999 3.39714 2.23198 3.38843C2.1938 3.51281 2.1938 3.51202 2.0661 3.56826C2.03556 3.58094 2.04667 3.66333 2.03348 3.67997C1.74615 3.80435 1.41093 4.14184 1.25477 4.48962C1.00562 4.76453 0.746741 4.87385 0.607934 5.23273C0.521179 5.57181 0.155423 5.67242 0.00412281 5.92593C-0.0409895 6.16122 0.294924 6.66587 0.483701 6.44563C0.522567 6.40998 0.601687 6.4797 0.589195 6.38622C0.598217 6.20004 0.789771 6.18182 0.80504 6.0004C0.812674 5.9703 0.907063 6.02813 0.864727 5.93069C1.02019 5.98693 0.896652 5.7049 1.06183 5.77145C1.07502 5.7762 1.08751 5.76115 1.08196 5.74689C1.03962 5.64469 1.11458 5.66054 1.12915 5.61617C1.14512 5.56784 1.13054 5.49021 1.17982 5.47436C1.23048 5.41574 1.35055 5.47674 1.31793 5.32939C1.69132 5.15589 1.8454 4.50785 2.25974 4.31454C2.41867 4.19729 2.35899 4.17669 2.58177 4.04122C2.60467 3.9723 2.59218 3.86377 2.71919 3.88119C2.6831 3.75048 2.80109 3.7275 2.84134 3.70849C2.83093 3.62372 2.91352 3.63719 2.91421 3.57064C2.88715 3.3607 3.16754 3.45181 3.11271 3.27831C3.1946 3.32584 3.44376 2.97647 3.48332 2.90121C3.46458 2.7396 3.66932 2.82595 3.66932 2.69682C3.66169 2.63898 3.68529 2.62235 3.70403 2.59779C3.81368 2.42191 3.93445 2.38309 4.10726 2.32685C4.14821 2.26664 4.31964 2.0971 4.36267 2.08522C4.36058 1.90063 4.56116 1.8214 4.65138 1.68039C4.78931 1.63927 4.90137 1.47408 5.02408 1.46862C5.48876 1.68834 5.41756 1.63313 5.42176 1.64236C5.50921 1.9545 5.85484 2.10661 5.97907 2.43776C5.94021 2.5455 6.02072 2.53282 6.03668 2.58511C6.05056 2.72058 6.14703 2.78396 6.22407 2.87665C6.26849 2.91864 6.30041 2.9733 6.37467 2.98439C6.46698 3.01371 6.48641 3.1468 6.59191 3.14205C6.61828 3.20384 6.6044 3.2997 6.70504 3.28069C6.721 3.45577 6.78693 3.30049 6.89589 3.48667C6.95628 3.52786 6.99584 3.62531 7.04719 3.65224C7.14714 3.6158 7.14505 3.70532 7.18739 3.73939C7.24708 3.79167 7.31579 3.86535 7.30885 3.9414C7.41642 3.98418 7.41573 3.98418 7.46431 4.12837C7.47541 4.16244 7.5469 4.15055 7.56078 4.1656C7.66836 4.48963 7.96055 4.86752 8.26106 5.0426C8.45331 5.24858 8.54006 5.51001 8.76632 5.69856C9.12999 5.75085 9.34515 6.36245 9.50339 6.45197C9.70674 6.50347 10.1433 6.12478 9.95312 5.91088C9.92189 5.86731 9.98227 5.77779 9.90176 5.79205C9.74075 5.78254 9.72478 5.56547 9.56793 5.54883C9.54156 5.54012 9.59153 5.43396 9.50755 5.48149C9.55613 5.30641 9.31253 5.44584 9.37013 5.25967C9.3743 5.24462 9.36111 5.23036 9.34931 5.23669C9.26047 5.28423 9.27435 5.20025 9.23618 5.18362C9.19454 5.16539 9.12652 5.18203 9.11334 5.12658C9.06198 5.06953 9.11542 4.93406 8.98772 4.97051C8.83711 4.54983 8.27703 4.37634 8.10976 3.90892C8.01052 3.74018 7.97859 3.77028 7.8731 3.54529C7.81341 3.51994 7.71972 3.53341 7.73498 3.39081C7.62255 3.43121 7.60173 3.29812 7.58577 3.25375C7.5122 3.26563 7.524 3.17294 7.46639 3.17215C7.28455 3.20226 7.36437 2.88695 7.21307 2.94795C7.2679 2.85447 6.97363 2.6374 6.93893 2.56293C6.87993 2.50668 6.77652 2.53599 6.77999 2.41003C6.78415 2.28803 6.65992 2.34665 6.62453 2.28169C6.45102 2.12245 6.26224 1.78338 6.21019 1.56948C6.05403 1.5156 5.97283 1.38093 5.84929 1.23436C5.7084 1.14088 5.70701 0.900837 5.53489 0.857264C5.47173 0.834289 5.40164 0.801016 5.42315 0.675052C5.40441 0.5784 5.13443 0.454813 5.02408 0.516607L5.02339 0.515814Z" fill="black"/>
</svg>
