<svg width="24" height="24" viewBox="0 0 24 24" fill="none" xmlns="http://www.w3.org/2000/svg">
<path d="M20.0878 20.6004C20.0638 20.3954 20.0598 20.1884 20.0548 19.9824C20.0458 19.5834 20.0818 19.2004 20.0858 18.8054C20.0888 18.6744 20.0698 18.5364 20.0548 18.3964C20.0438 18.3004 20.1338 18.2524 20.0568 18.0844C20.1868 17.8994 19.9588 17.4194 20.1018 17.2394C20.1128 17.2254 20.1138 17.1574 20.1018 17.1324C20.0188 16.9534 20.0768 16.8344 20.0628 16.6864C20.0478 16.5254 19.9938 16.3534 20.0178 16.2054C20.0268 16.1524 20.0118 16.0714 20.0288 16.0324C20.0878 15.8934 20.0938 15.7304 20.0298 15.5264C20.0208 15.4984 20.0258 15.4434 20.0378 15.4334C20.0978 15.3844 20.0708 15.2664 20.0738 15.1744L20.0798 14.5804C20.0818 14.3694 20.0898 14.1614 20.0828 13.9474C20.0768 13.7554 20.0418 13.5544 20.0398 13.3644C20.0348 12.9294 20.0348 12.4964 20.0458 12.0664C20.0558 11.6454 20.0218 11.2154 20.0948 10.8064C20.1368 10.5684 20.1058 10.2894 20.1048 10.0294C20.1028 9.80037 20.1918 9.60137 20.1618 9.36137C20.1338 9.14137 20.0528 8.91838 20.1618 8.71338C20.1698 8.69738 20.1708 8.65637 20.1618 8.64138C20.0558 8.45638 20.1278 8.26038 20.1118 8.07038C20.1078 8.02438 20.1528 7.96338 20.1408 7.93138C20.0708 7.74838 20.0528 7.51538 20.0348 7.32038C20.0278 7.24438 20.0288 7.16738 20.0268 7.09138C20.0238 6.98638 20.0238 6.83938 20.0058 6.69838C20.0468 6.57738 19.9668 6.44938 19.8858 6.34738C19.6588 6.06338 19.4448 5.76938 19.2138 5.49138L19.1918 5.46338C19.1498 5.41038 19.0848 5.37338 18.9898 5.36938C18.8998 5.36438 18.8048 5.34737 18.7278 5.37738C18.6208 5.41937 18.5338 5.40238 18.4378 5.37138C18.4198 5.36538 18.3908 5.36238 18.3788 5.37138C18.2908 5.44637 18.1838 5.38138 18.0958 5.41338C17.9938 5.45038 17.8938 5.45338 17.7908 5.44838C17.7358 5.44538 17.6828 5.41838 17.6268 5.41138C17.5678 5.40438 17.4998 5.39238 17.4488 5.41338C17.3278 5.46438 17.2058 5.44238 17.0838 5.45038C17.0018 5.45638 16.9198 5.43138 16.8368 5.48438C16.7998 5.50838 16.7208 5.48738 16.6698 5.46538C16.5928 5.43238 16.4988 5.47938 16.4328 5.40938C16.3828 5.44238 16.3288 5.45237 16.2688 5.45038L16.0088 5.44838C15.9328 5.44338 15.8538 5.47038 15.7798 5.42238C15.6968 5.36838 15.6278 5.48538 15.5418 5.45138C15.5188 5.44238 15.4808 5.46038 15.4638 5.44838C15.3808 5.38738 15.2878 5.41237 15.1988 5.41138H14.8368C14.8278 5.29537 14.7998 5.18038 14.7658 5.07538C14.7058 4.89138 14.6708 4.70837 14.6168 4.52338C14.5948 4.44837 14.5728 4.37138 14.5768 4.29338C14.5788 4.24938 14.5898 4.20438 14.5738 4.16438C14.5638 4.13838 14.5438 4.11738 14.5308 4.09238C14.4968 4.03038 14.5118 3.95937 14.4948 3.89337C14.4808 3.83938 14.4508 3.79738 14.4298 3.74638C14.3898 3.64638 14.3678 3.53938 14.3398 3.43537C14.3248 3.37937 14.3078 3.32137 14.2678 3.28038C14.2558 3.26837 14.2418 3.25837 14.2318 3.24437C14.2178 3.22537 14.2118 3.20237 14.2058 3.17937C14.1718 3.05537 14.1218 2.93638 14.0568 2.82538C14.0428 2.80138 14.0278 2.77738 14.0198 2.75038C14.0118 2.72338 14.0108 2.69538 14.0078 2.66738C13.9908 2.50538 13.9048 2.35938 13.8138 2.22338C13.6618 1.99338 13.5008 1.75538 13.3298 1.54038C13.1078 1.26238 12.7298 1.16038 12.3948 1.07938C12.1758 1.02638 11.9508 0.986375 11.7268 1.00438C11.4718 1.02438 11.2318 1.11938 11.0008 1.22338C10.9578 1.24238 10.6208 1.43938 10.6398 1.50338C10.6768 1.62438 10.4998 1.52238 10.5338 1.63438C10.2428 1.95138 10.0258 2.33238 9.76778 2.67238C9.67777 2.68638 9.73777 2.75938 9.72977 2.81038C9.73277 2.78938 9.65578 2.86338 9.65177 2.87138C9.63177 2.90438 9.63877 2.96338 9.62378 3.00038C9.58577 3.09637 9.48678 3.16438 9.46978 3.26938C9.46378 3.30538 9.46977 3.34238 9.46077 3.37738C9.44077 3.45338 9.35178 3.51938 9.38378 3.59138C9.38778 3.62538 9.37378 3.63037 9.36377 3.63637C9.31077 3.66337 9.30778 3.73537 9.30478 3.79437C9.29878 3.90037 9.26877 4.00237 9.23577 4.10337C9.23077 4.11737 9.13578 4.30838 9.12878 4.28638C9.15878 4.37738 9.12077 4.38538 9.09877 4.46038C9.07277 4.54737 9.07378 4.64937 9.05478 4.74338C9.01678 4.93138 8.97878 5.12038 8.94077 5.30838L8.92978 5.36238C8.79978 5.31838 8.67177 5.33038 8.54478 5.33438C8.11678 5.34838 7.68678 5.28438 7.26078 5.37138C6.99978 5.35337 6.73978 5.38538 6.47578 5.33938C6.24878 5.30038 6.01078 5.33138 5.77678 5.33138C5.76378 5.33138 5.74478 5.32538 5.73778 5.33138C5.65078 5.40538 5.54578 5.34738 5.45378 5.37338C5.35978 5.39938 5.26678 5.41438 5.16978 5.41238C4.51778 5.39938 4.40078 5.55538 3.93578 5.99938C3.87478 6.05738 3.81678 6.12138 3.76278 6.18738C3.64278 6.23938 3.54878 6.34338 3.52778 6.48138L3.50778 6.61738C3.49678 6.69338 3.49578 6.76838 3.51578 6.84138C3.56978 7.03438 3.54678 7.21538 3.56078 7.40138C3.56578 7.47338 3.55578 7.54838 3.56778 7.61738C3.61478 7.89238 3.61678 7.89138 3.56978 8.18638C3.56478 8.21738 3.56778 8.25338 3.57378 8.28538C3.58578 8.35138 3.61078 8.41538 3.61478 8.48138C3.64678 9.01937 3.55378 9.56437 3.66978 10.0974C3.67578 10.1264 3.65978 10.1634 3.65378 10.1964C3.64178 10.2624 3.63478 10.3314 3.61578 10.3954C3.55678 10.5964 3.75378 10.7884 3.62478 10.9894C3.71078 11.0854 3.66178 11.2154 3.66978 11.3294C3.67678 11.4384 3.64378 11.5684 3.67778 11.6534C3.72678 11.7744 3.66078 11.8614 3.67178 11.9634C3.67678 12.0094 3.67178 12.0674 3.69178 12.0974C3.76178 12.2064 3.73278 12.3344 3.72078 12.4444C3.70778 12.5634 3.65878 12.6734 3.72678 12.7874C3.68978 13.2084 3.79078 13.6194 3.77978 14.0374C3.77578 14.1864 3.73778 14.3334 3.72878 14.4834C3.71978 14.6414 3.72678 14.8004 3.72678 14.9584V16.2384C3.73378 16.3714 3.78578 16.5204 3.75478 16.6334C3.71478 16.7804 3.73478 16.9164 3.72878 17.0564L3.72478 17.6414C3.71778 18.7104 3.66278 19.7854 3.69478 20.8584C3.69578 20.8934 3.69978 20.9344 3.72778 20.9554C3.74778 20.9704 3.77378 20.9714 3.79878 20.9724C4.17678 20.9814 4.55478 20.9884 4.93278 20.9994C5.27278 21.0084 5.60378 20.9384 5.94178 20.9434L7.12878 20.9404C7.29178 20.9374 7.47578 20.9824 7.61177 20.8894C7.63578 20.8734 7.72477 20.8784 7.74977 20.8974C7.84277 20.9674 7.94177 20.9414 8.03177 20.9374C8.15777 20.9304 8.28678 20.9544 8.41178 20.8994C8.48577 20.8674 8.65377 20.9434 8.78877 20.9414C9.00177 20.9384 9.21177 20.9044 9.44177 20.9844C9.49677 21.0034 9.59078 20.9864 9.64278 20.9644C9.76877 20.9094 9.93377 20.9104 10.0588 20.9474C10.1818 20.9844 10.2788 20.9814 10.3828 20.9814C10.6108 20.9824 10.8278 20.9574 11.0458 20.9364C11.4498 20.8974 11.8918 20.9324 12.2908 20.8744C12.5758 20.8334 12.9268 20.8974 13.1998 20.8204C13.3238 20.7854 13.5108 20.8424 13.6678 20.8564C13.9218 20.8784 14.1598 20.8534 14.4108 20.8604C14.6518 20.8664 14.9078 20.8984 15.1458 20.8984C15.4578 20.8984 15.7748 20.9054 16.0558 20.8544C16.3378 20.8044 16.7118 20.8704 17.0488 20.8844C17.3728 20.8984 17.6498 20.8444 18.0158 20.9194C18.3978 20.8884 18.7808 20.9734 19.1598 20.9464C19.3098 20.9364 19.4378 20.8954 19.5898 20.8944C19.7228 20.8934 19.9038 20.9734 20.0318 20.9044C20.0388 20.9004 20.0288 20.8914 20.0298 20.8834C20.0878 20.8854 20.1358 20.8884 20.1368 20.8944C20.1168 20.7974 20.1008 20.6994 20.0888 20.6004H20.0878ZM9.54577 5.27338C9.46677 5.14838 9.57177 5.22538 9.56978 5.13138C9.64578 4.93038 9.51478 4.61637 9.66778 4.48338C9.73978 4.34238 9.78077 4.08338 9.83077 4.07138C9.78577 4.01038 9.79178 3.93138 9.87778 3.91438C9.82078 3.82438 9.95477 3.52838 9.97977 3.42438C9.98577 3.40138 9.99077 3.37738 10.0008 3.35538C10.0148 3.32538 10.0368 3.30037 10.0578 3.27437C10.1818 3.12437 10.2788 2.95438 10.3688 2.78238C10.4038 2.71538 10.4268 2.63038 10.4738 2.57438C10.5198 2.51938 10.6078 2.50138 10.6328 2.42738C10.6558 2.38638 10.5868 2.26838 10.7088 2.30138C10.6698 2.29138 10.9718 1.98238 10.9888 1.96638C11.0948 1.86238 11.1798 1.75238 11.3198 1.68838C11.4208 1.64238 11.5308 1.62038 11.6398 1.60338C11.8988 1.56438 12.1478 1.56738 12.3998 1.64238C12.5618 1.69038 12.7138 1.77938 12.8588 1.81638C12.8968 1.82638 12.9308 1.90638 12.9108 1.97538C12.9988 1.95438 13.0888 2.07238 13.0798 2.14138C13.0498 2.20538 13.1758 2.13338 13.1648 2.18438C13.1438 2.28638 13.2688 2.39538 13.3128 2.47138C13.3888 2.60038 13.4228 2.74938 13.5058 2.87738C13.5138 2.88938 13.5208 2.90038 13.5248 2.91438C13.5328 2.94638 13.5158 2.97837 13.5028 3.00837C13.5408 3.00237 13.5628 3.05238 13.5628 3.09138C13.5628 3.13038 13.5548 3.17537 13.5828 3.20237C13.5978 3.21637 13.6188 3.22137 13.6358 3.23137C13.6528 3.24137 13.6668 3.26438 13.6558 3.28238C13.6218 3.32238 13.6438 3.35337 13.6648 3.37037C13.7088 3.40637 13.7428 3.53737 13.7718 3.59037C13.8268 3.69037 13.8738 3.79437 13.9108 3.90138C13.9198 3.92638 13.9288 3.95237 13.9358 3.97837C13.9468 4.01638 13.9568 4.05437 13.9668 4.09238L13.9878 4.17338C14.0078 4.24838 14.0268 4.32437 14.0458 4.39937C14.0708 4.49638 14.0928 4.59338 14.1178 4.69038C14.1278 4.72738 14.1418 4.76437 14.1508 4.80238C14.1608 4.84337 14.1458 4.89538 14.1548 4.93038C14.1638 4.96838 14.1718 5.00738 14.1808 5.04538C14.1888 5.08438 14.1968 5.12338 14.2048 5.16238L14.2558 5.41138C13.9388 5.40438 13.6238 5.34737 13.3068 5.34538L12.7528 5.34238C12.6568 5.34238 12.5618 5.34138 12.4658 5.34238C12.2748 5.34438 12.0828 5.35138 11.8918 5.35938C11.8158 5.36238 11.5268 5.30838 11.4718 5.33738C11.3528 5.40038 11.2288 5.36638 11.1068 5.37338H10.7868C10.7538 5.37438 10.7098 5.36138 10.6888 5.37738C10.5918 5.45138 10.4848 5.40638 10.3838 5.41338C10.2708 5.42138 10.1578 5.41538 10.0448 5.41138C10.0168 5.41038 9.98678 5.37738 9.96278 5.38238C9.75778 5.42238 9.75877 5.42138 9.51277 5.37738H9.51178C9.43178 5.32737 9.58077 5.31938 9.54577 5.27638V5.27338ZM18.9728 20.4084C18.8058 20.4064 18.5528 20.4814 18.3978 20.4454C18.1568 20.3894 17.9878 20.4284 17.7778 20.4134C17.5708 20.3984 17.3568 20.3724 17.1598 20.3674L15.8248 20.3534C15.6788 20.3534 15.5108 20.3254 15.4068 20.3884C15.3628 20.4154 15.2108 20.4084 15.1298 20.3784C15.0078 20.3324 14.9308 20.3464 14.8398 20.3434L14.2628 20.3364L13.6868 20.3314C13.5848 20.4614 13.3188 20.2804 13.1688 20.3254C13.1158 20.3414 13.0278 20.3124 12.9868 20.3574C12.9678 20.3784 12.8618 20.3854 12.8328 20.3684C12.7088 20.2964 12.6098 20.3214 12.5118 20.3244C12.1318 20.3354 11.7288 20.2884 11.3678 20.3574C11.1588 20.3974 10.8958 20.3754 10.6518 20.3574C10.3938 20.3374 10.1898 20.4144 9.94177 20.4104C9.80177 20.4084 9.66377 20.4194 9.52278 20.3554C9.08178 20.3914 8.61777 20.2974 8.17177 20.2924C8.04777 20.2914 7.96578 20.3404 7.85477 20.3524C7.72078 20.3664 7.60278 20.3144 7.47778 20.2954C7.45578 20.2924 7.42078 20.2924 7.41278 20.3014C7.34378 20.3834 7.22078 20.3424 7.12078 20.3454C6.98378 20.3494 6.84178 20.3644 6.71178 20.2924C6.39778 20.4074 6.03778 20.3184 5.70278 20.3444C5.26478 20.3774 4.85478 20.4224 4.39278 20.4104C4.33978 20.1334 4.35378 19.8334 4.31878 19.5534C4.27678 19.2114 4.32278 18.8324 4.34378 18.4894C4.35878 18.2434 4.26778 17.8624 4.37278 17.6384C4.41378 17.5504 4.40978 17.3854 4.37578 17.2854C4.34278 17.1884 4.30778 17.1294 4.38078 17.0504C4.29378 16.9714 4.33278 16.8514 4.33078 16.7494C4.32178 16.2704 4.40278 15.7984 4.39278 15.3164C4.38778 15.0704 4.25278 14.8214 4.38178 14.5704C4.39178 14.5514 4.37978 14.4984 4.36678 14.4724C4.29578 14.3404 4.29978 14.1604 4.33978 14.0614C4.39478 13.9264 4.38378 13.8054 4.38078 13.6814L4.33078 12.3584L4.32678 10.3464C4.32678 10.2444 4.32978 10.1474 4.29178 10.0374C4.23178 9.86237 4.30778 9.63838 4.21878 9.45638C4.33878 9.21138 4.25578 8.93938 4.27078 8.68138C4.30378 8.11538 4.23478 7.54338 4.31078 6.97738C4.36778 6.97838 4.42178 6.98238 4.45778 7.00438C4.60078 7.08938 4.66178 6.95438 4.78278 6.97138C4.97178 6.99738 5.17078 6.97838 5.36678 6.97838C5.54978 6.97838 5.75178 7.01538 5.91078 6.96938C6.10678 6.91138 6.26478 6.93538 6.44078 6.97738C6.47378 6.98538 6.52678 6.99038 6.54778 6.97738C6.70778 6.87538 6.90478 6.96438 7.06578 6.91938C7.25178 6.86838 7.43578 6.86438 7.62278 6.87138C7.72377 6.87538 7.82078 6.91338 7.92177 6.92138C8.02977 6.93038 8.15478 6.94838 8.24778 6.91838C8.46777 6.84838 8.69277 6.87938 8.91477 6.86738C9.06477 6.85938 9.21478 6.89438 9.36678 6.82138C9.43477 6.78838 9.57877 6.81738 9.67177 6.84738C9.81277 6.89238 9.98478 6.82737 10.1048 6.92438C10.1958 6.87838 10.2948 6.86438 10.4038 6.86838L10.8788 6.87138C11.0188 6.87838 11.1618 6.84038 11.2978 6.90738C11.4498 6.98138 11.5758 6.82038 11.7338 6.86838C11.7758 6.88138 11.8448 6.85538 11.8768 6.87238C12.0288 6.95638 12.1988 6.92238 12.3608 6.92338L14.0798 6.92738C14.7698 6.92938 15.4968 6.95237 16.2008 6.97638C16.5738 6.98938 16.9458 7.00438 17.3178 7.02438C17.6498 7.04138 17.9598 6.98038 18.2818 6.98338C18.3818 6.98438 18.4798 7.02438 18.5808 7.03238C18.6838 7.03938 18.7818 7.02938 18.8858 6.98938C18.9418 6.96838 19.0798 7.06838 19.1758 7.03038C19.2658 6.99538 19.3568 6.98738 19.4478 6.98438V7.23138C19.4478 7.29138 19.4298 7.36938 19.4518 7.40738C19.5538 7.58538 19.4918 7.77638 19.5008 7.95938C19.5118 8.16238 19.5048 8.36637 19.4988 8.56838C19.4978 8.61838 19.4528 8.66738 19.4588 8.71138C19.4954 8.96071 19.4941 9.22937 19.4548 9.51737C19.4448 9.58838 19.4728 9.67537 19.4848 9.75537C19.4898 9.78837 19.5138 9.83638 19.5048 9.85238C19.3988 10.0524 19.5078 10.3294 19.4488 10.5274C19.3788 10.7574 19.4038 11.0014 19.4108 11.2424C19.4328 12.0144 19.3588 12.7504 19.4758 13.5564C19.4578 14.0144 19.5008 14.4994 19.4498 14.9444C19.4068 15.3244 19.4498 15.7714 19.4548 16.1904C19.4548 16.2144 19.4488 16.2424 19.4568 16.2614C19.5438 16.4714 19.4798 16.6184 19.5108 16.8014C19.5428 16.9904 19.5608 17.1684 19.5598 17.3434C19.5578 18.0084 19.5518 18.6714 19.5548 19.3354C19.5568 19.7054 19.5618 20.0764 19.5718 20.4484C19.3708 20.4304 19.1708 20.4124 18.9688 20.4104L18.9728 20.4084Z" fill="black"/>
</svg>
