<svg xmlns="http://www.w3.org/2000/svg" width="16.667" height="16.667" viewBox="0 0 16.667 16.667">
  <g id="disable" transform="translate(-75 -828)">
    <g id="wheelchair" transform="translate(73.253 826.515)">
      <path id="Path_42" data-name="Path 42" d="M21.9,7.182A1.182,1.182,0,1,1,20.721,6,1.182,1.182,0,0,1,21.9,7.182ZM19.92,14.91l.461-.033q0-.046,0-.093a2.028,2.028,0,0,0-2.866-1.846,3.343,3.343,0,0,0,.115.868C18.093,15.087,19.92,14.91,19.92,14.91Z" transform="translate(-9.23 -2.515)" fill="#3a356d"/>
      <path id="Path_43" data-name="Path 43" d="M19.574,21.245a.658.658,0,0,1-1.16.6C18,21.212,16.966,19.4,16.966,19.4l-.209.015v0A3.379,3.379,0,1,1,12.2,16.253V14.267l-.878-.659.405-.541,1.149.862v.743A2.5,2.5,0,0,1,13.183,14c.7-.983.832-1.055,1.6-.983s2.064,2.634,2.064,2.634,1.632.387,2.256.6.232,1.071-.168,1.055a17.1,17.1,0,0,1-2.888-.4,4.144,4.144,0,0,1-.792-.983l-.049.649a3.4,3.4,0,0,1,.961.934c.609.053,1.3.109,1.5.109a.46.46,0,0,1,.472.266S19.27,20.544,19.574,21.245ZM15.2,17.424l-.056-.05a2.706,2.706,0,1,0,.056.05Z" transform="translate(-4.253 -7.15)" fill="#3a356d" fill-rule="evenodd"/>
    </g>
    <path id="parking-sign" d="M16.167,2H4.5A2.5,2.5,0,0,0,2,4.5V16.167a2.5,2.5,0,0,0,2.5,2.5H16.167a2.5,2.5,0,0,0,2.5-2.5V4.5A2.5,2.5,0,0,0,16.167,2ZM17,16.167a.833.833,0,0,1-.833.833H4.5a.833.833,0,0,1-.833-.833V4.5A.833.833,0,0,1,4.5,3.667H16.167A.833.833,0,0,1,17,4.5Z" transform="translate(73 826)" fill="#3a356d"/>
  </g>
</svg>
