<svg width="24" height="24" viewBox="0 0 24 24" fill="none" xmlns="http://www.w3.org/2000/svg">
<path d="M21.6378 15.1916C21.5338 15.2416 21.4228 15.1016 21.3058 15.1256C21.1878 15.1486 21.0688 15.1346 20.9507 15.1286C20.8907 15.1256 20.8347 15.1476 20.7767 15.1876C20.7207 15.2266 20.6567 15.1386 20.6027 15.2516C20.5977 15.2616 20.5867 15.2526 20.5787 15.2526C20.4357 15.2526 20.2897 15.2996 20.1507 15.2406C19.9897 15.1706 19.8297 15.2186 19.6697 15.1916C19.4087 15.3246 19.1457 15.2266 18.8837 15.2486C18.8017 15.2556 18.7197 15.2806 18.6357 15.2006C18.5637 15.1316 18.4767 15.2546 18.4016 15.1336C18.3956 15.1236 18.3806 15.1506 18.3696 15.1556C18.3436 15.1686 18.3146 15.1996 18.2906 15.1886C18.1406 15.1216 18.1406 15.1206 18.0156 15.1816C18.0006 15.1886 17.9826 15.1386 17.9656 15.1366C17.8966 15.1296 17.8266 15.1216 17.7576 15.1336C17.6956 15.1446 17.6296 15.0746 17.5706 15.1886C17.5576 15.2136 17.5306 15.1926 17.5106 15.1926C17.4456 15.1926 17.3796 15.1856 17.3146 15.1946C17.2406 15.2046 17.1646 15.1536 17.0916 15.2496C17.0596 15.2916 17.0136 15.1796 16.9946 15.2036C16.9596 15.2476 16.9266 15.2596 16.8926 15.2506C16.8586 15.2426 16.8256 15.1976 16.7926 15.1966C16.7636 15.1956 16.7346 15.2476 16.7046 15.2506C16.6316 15.2596 16.5526 15.2126 16.4856 15.2646C16.4136 15.3206 16.3446 15.3066 16.2736 15.3136C16.2006 15.3206 16.1266 15.3056 16.0536 15.3186C15.9966 15.3286 15.9456 15.2806 15.8926 15.2546C15.8396 15.2286 15.7795 15.3086 15.7315 15.1936C15.7295 15.1886 15.7235 15.1936 15.7195 15.1936C15.6085 15.1736 15.4975 15.1406 15.3865 15.1356C15.1945 15.1256 15.0025 15.1356 14.8105 15.1316C14.7565 15.1306 14.6995 15.1686 14.6485 15.0746C14.6375 15.0546 14.6145 15.0836 14.6005 15.0696C14.5475 15.0166 14.5055 15.1956 14.4545 15.1136C14.4095 15.0396 14.3605 15.0816 14.3145 15.0736C14.2615 15.0656 14.2085 15.0756 14.1555 15.0706C14.1185 15.0666 14.0855 15.0826 14.0555 15.1336C14.0155 15.0256 13.9575 15.0986 13.9105 15.0476C13.8795 15.0146 13.8315 14.9826 13.8085 15.0186C13.7575 15.0996 13.7075 15.0616 13.6575 15.0706C13.5825 15.0846 13.5075 15.0496 13.4345 15.1276C13.4035 15.1606 13.3615 15.1406 13.3255 15.1306C13.2914 15.1206 13.2584 15.0786 13.2254 15.0746C13.1624 15.0666 13.1014 15.0706 13.0384 15.1276C12.9844 15.1776 12.9184 15.0776 12.8644 15.1916C12.8574 15.2066 12.8394 15.2016 12.8284 15.1916C12.7694 15.1446 12.7164 15.1176 12.6514 15.1826C12.5984 15.2346 12.5304 15.1936 12.4694 15.1936C12.4044 15.1936 12.3374 15.2156 12.2744 15.1856C12.2334 15.1666 12.2134 15.3176 12.1654 15.2226C12.1394 15.1716 12.0884 15.1976 12.0484 15.1946C12.0074 15.1906 11.9644 15.2136 11.9264 15.1906C11.7224 15.0686 11.5164 15.1696 11.3114 15.1296C11.2254 15.1126 11.1344 15.2046 11.0524 15.0716C10.9914 15.1716 10.9164 15.0856 10.8574 15.1526C10.8204 15.1956 10.7874 15.1906 10.7534 15.1916C10.5283 15.1956 10.3043 15.1866 10.0793 15.1966C9.93132 15.2036 9.78431 15.2396 9.63631 15.2526C9.59431 15.2556 9.5543 15.2686 9.5093 15.2066C9.4763 15.1616 9.4163 15.1576 9.3713 15.2366C9.3623 15.2516 9.3453 15.2646 9.3383 15.2536C9.25429 15.1096 9.17129 15.2596 9.08829 15.2656C8.92628 15.2766 8.76927 15.1866 8.60827 15.1966C8.57427 15.1986 8.53426 15.1556 8.50726 15.2526C8.48126 15.1716 8.46126 15.2106 8.42826 15.2476C8.39426 15.2856 8.33926 15.2896 8.31025 15.2436C8.27025 15.1806 8.23325 15.2036 8.19525 15.1966C8.15425 15.1896 8.11325 15.1986 8.07325 15.1946C7.90124 15.1756 7.72923 15.1566 7.55623 15.1316C7.52222 15.1266 7.48922 15.0906 7.45622 15.0736C7.42222 15.0566 7.38622 15.1026 7.35322 15.0196C7.34122 14.9886 7.30622 15.0116 7.28221 15.0116C7.19621 15.0116 7.10421 14.9606 7.0272 15.0256C6.9512 15.0906 6.8692 15.0106 6.7992 15.1286C6.7792 15.1616 6.74319 15.1276 6.71519 15.1346C6.60019 15.1636 6.48218 15.0646 6.37018 15.1946C6.32918 15.1136 6.28018 15.1296 6.23317 15.1356C6.19917 15.1396 6.15917 15.0936 6.13117 15.1866C6.12817 15.1976 6.11617 15.1976 6.10817 15.1936C6.06717 15.1716 6.02917 15.1136 5.98316 15.1296C5.94416 15.1436 5.91316 15.2006 5.87116 15.1986C5.71915 15.1946 5.56915 15.0896 5.41614 15.1326C5.37414 15.0596 5.32614 15.0726 5.27914 15.0706C5.19613 15.0666 5.11713 15.1586 5.03213 15.1366C4.95112 15.1166 4.86512 15.0916 4.78812 15.1416C4.65611 15.2276 4.52411 15.1746 4.3931 15.1916C4.3591 15.1956 4.3211 15.2286 4.2911 15.1406C4.2841 15.1196 4.2471 15.1286 4.2371 15.1556C4.2151 15.2126 4.19009 15.1766 4.16909 15.1966C4.11009 15.2546 4.05209 15.0286 3.99309 15.1946H3.79708C3.73208 15.1946 3.66607 15.1976 3.60107 15.1936C3.57007 15.1916 3.54107 15.2106 3.50907 15.1516C3.48807 15.1116 3.43806 15.1046 3.41706 15.1406C3.36706 15.2266 3.31606 15.1906 3.26606 15.1926C3.11505 15.1986 2.96405 15.2006 2.81304 15.1926C2.74704 15.1886 2.68103 15.1536 2.61503 15.1346C2.54803 15.1146 2.47803 15.1756 2.41302 15.0956C2.40802 15.0896 2.40102 15.0926 2.39602 15.0956C2.37002 15.1076 2.34302 15.1356 2.31702 15.1306C2.28302 15.1246 2.23902 15.0496 2.21902 15.0816C2.18102 15.1456 2.15601 15.0756 2.12701 15.0686C2.04401 15.0476 1.99201 14.8826 2.00101 14.6816C2.00301 14.6376 2.01301 14.5886 2.02501 14.5546C2.10001 14.3366 2.10101 14.3476 2.22102 14.3356C2.37402 14.3196 2.52303 14.4446 2.67603 14.3996C2.77604 14.5116 2.88204 14.4376 2.98405 14.4616C3.09105 14.4866 3.19906 14.5786 3.30406 14.5136C3.40806 14.4486 3.51007 14.4626 3.61307 14.4646C3.69107 14.4656 3.76908 14.5096 3.84808 14.5196C3.92908 14.5296 4.01309 14.5006 4.09309 14.5296C4.14309 14.5476 4.19509 14.6196 4.2421 14.5776C4.3451 14.4836 4.4501 14.5646 4.55111 14.5166C4.69111 14.4486 4.83212 14.4936 4.96912 14.4506C5.04313 14.4276 5.11713 14.3996 5.19213 14.4026C5.22613 14.4036 5.25914 14.4006 5.29514 14.4446C5.33214 14.4896 5.38714 14.4906 5.43314 14.4276C5.45214 14.4016 5.48414 14.3826 5.50115 14.4046C5.57015 14.4986 5.64215 14.4596 5.71215 14.4566C5.75716 14.4546 5.80716 14.5426 5.83316 14.5056C5.87816 14.4446 5.91916 14.4716 5.96116 14.4636C5.99116 14.4586 6.02517 14.4296 6.05217 14.5096C6.05917 14.5306 6.08817 14.5366 6.09717 14.5186C6.14717 14.4146 6.20517 14.4656 6.25917 14.4626C6.39018 14.4556 6.52018 14.4546 6.65119 14.4626C6.75919 14.4686 6.8632 14.3556 6.9722 14.3996C7.03821 14.2946 7.11221 14.3406 7.18221 14.3426C7.23621 14.3436 7.29022 14.3796 7.34322 14.3996C7.39622 14.4196 7.44922 14.4006 7.50622 14.4476C7.57623 14.5046 7.66023 14.4536 7.73723 14.4646C7.77923 14.4706 7.82624 14.4126 7.86424 14.5116C7.86924 14.5246 7.88924 14.5226 7.89624 14.5096C7.95124 14.4046 8.02124 14.4336 8.07025 14.4746C8.15125 14.5406 8.22825 14.5106 8.30725 14.5216C8.37226 14.5306 8.43826 14.5166 8.50326 14.5256C8.55026 14.5326 8.59627 14.5106 8.64527 14.5546C8.68327 14.5886 8.73227 14.5316 8.77727 14.5246C8.82227 14.5176 8.86728 14.5236 8.91228 14.5236H9.20629C9.25929 14.5236 9.31229 14.5156 9.3653 14.5256C9.4153 14.5356 9.4643 14.5776 9.5143 14.5816C9.65431 14.5946 9.79231 14.4816 9.93332 14.5226C9.97132 14.4476 10.0083 14.5016 10.0483 14.5166C10.0853 14.5296 10.1283 14.5616 10.1643 14.4846C10.1743 14.4626 10.1943 14.4676 10.2093 14.4626C10.2433 14.4506 10.2723 14.5246 10.3133 14.4696C10.3413 14.4316 10.3853 14.4686 10.4223 14.4606C10.4603 14.4516 10.5043 14.5066 10.5363 14.4106C10.6033 14.5536 10.6683 14.3346 10.7354 14.4006C10.7564 14.4216 10.7794 14.4296 10.8024 14.4426C10.8134 14.4496 10.8264 14.4676 10.8354 14.4606C11.0144 14.3306 11.1964 14.4356 11.3764 14.3996C11.3984 14.3956 11.4194 14.3666 11.4424 14.3536C11.4534 14.3476 11.4654 14.3446 11.4754 14.3496C11.5744 14.4016 11.5734 14.3996 11.6664 14.3466C11.6894 14.3336 11.7144 14.3446 11.7384 14.3386C11.8004 14.3236 11.8614 14.3486 11.9254 14.2886C11.9904 14.2286 12.0604 14.3356 12.1274 14.3826C12.1874 14.4236 12.2454 14.4706 12.3104 14.4656C12.4734 14.4536 12.6374 14.4616 12.8004 14.4616C12.8204 14.4616 12.8494 14.4836 12.8604 14.4576C12.9074 14.3526 12.9484 14.2816 12.9934 14.4606C12.9954 14.4696 13.0124 14.4686 13.0164 14.4586C13.0564 14.3466 13.1094 14.4016 13.1544 14.4046C13.3275 14.4176 13.4975 14.2936 13.6715 14.3386C13.6995 14.3456 13.7375 14.3176 13.7535 14.3536C13.7885 14.4306 13.8055 14.3066 13.8355 14.3336C13.8605 14.3566 13.8985 14.3116 13.9195 14.3426C13.9965 14.4566 14.0815 14.4216 14.1545 14.3836C14.2225 14.3486 14.2925 14.3086 14.3525 14.3466C14.4725 14.4216 14.5915 14.3886 14.7105 14.3966C14.8325 14.4046 14.9555 14.4026 15.0775 14.3966C15.1275 14.3936 15.1815 14.4396 15.2275 14.3406C15.2365 14.3206 15.2595 14.3316 15.2755 14.3386C15.3135 14.3556 15.3505 14.3946 15.3875 14.3946C15.4245 14.3946 15.4625 14.3546 15.4995 14.3386C15.5295 14.3266 15.5585 14.3386 15.5895 14.2856C15.6125 14.2466 15.6525 14.2786 15.6885 14.3316C15.7595 14.4366 15.8345 14.5426 15.9266 14.5246C16.0076 14.5086 16.0896 14.5246 16.1716 14.5196C16.2056 14.5176 16.2386 14.5256 16.2746 14.4756C16.3076 14.4306 16.3626 14.4496 16.4026 14.4826C16.4656 14.5346 16.5236 14.5416 16.5856 14.4826C16.6066 14.4616 16.6326 14.4626 16.6556 14.4616C16.7986 14.4596 16.9416 14.4606 17.0846 14.4616C17.1186 14.4616 17.1556 14.4426 17.1836 14.5166C17.2066 14.4296 17.2426 14.4576 17.2726 14.4646C17.3186 14.4736 17.3636 14.5126 17.4096 14.5206C17.4646 14.5296 17.5176 14.5216 17.5716 14.4686C17.6216 14.4196 17.6826 14.4996 17.7366 14.4276C17.7466 14.4136 17.7676 14.4646 17.7826 14.4596C17.8446 14.4416 17.9116 14.5216 17.9686 14.4026C17.9736 14.3926 17.9866 14.3926 17.9926 14.4026C18.0636 14.5246 18.1346 14.4326 18.2056 14.4006C18.2826 14.3656 18.3526 14.4656 18.4287 14.4636C18.5147 14.4606 18.6037 14.4246 18.6847 14.4716C18.8247 14.5526 18.9647 14.5126 19.1037 14.5226C19.2467 14.5326 19.3897 14.5306 19.5327 14.5226C19.5947 14.5186 19.6567 14.4756 19.7187 14.4666C19.7877 14.4566 19.8577 14.4646 19.9267 14.4646C19.9917 14.4646 20.0577 14.4616 20.1227 14.4656C20.1537 14.4676 20.1877 14.4326 20.2137 14.5086C20.2187 14.5236 20.2377 14.5286 20.2457 14.5176C20.3017 14.4356 20.3557 14.4406 20.4127 14.5146C20.4287 14.5356 20.4527 14.5156 20.4717 14.5266C20.5257 14.5566 20.5717 14.4856 20.6207 14.4636C20.6667 14.4426 20.7177 14.5186 20.7587 14.4056C20.7637 14.3906 20.7867 14.3896 20.7937 14.4056C20.8847 14.5956 20.9898 14.2806 21.0808 14.4546C21.1168 14.3466 21.1548 14.4696 21.1838 14.4546C21.2258 14.4306 21.2658 14.4016 21.3098 14.4036C21.3508 14.4056 21.3918 14.4106 21.4318 14.4036C21.5058 14.3896 21.5818 14.4396 21.6558 14.3516C21.6808 14.3226 21.7268 14.3026 21.7578 14.3886C21.7628 14.4036 21.7798 14.4016 21.7898 14.3976C21.8718 14.3646 21.9708 14.4586 21.9908 14.6156C22.0028 14.7076 22.0018 14.8206 21.9918 14.9166C21.9868 14.9636 21.9518 14.9946 21.9288 15.0286C21.8898 15.0876 21.8528 15.1706 21.8098 15.1946C21.7598 15.2236 21.7038 15.2016 21.6378 15.2016V15.1916Z" fill="black"/>
<path d="M2.36222 9.59447C2.46623 9.64447 2.57723 9.50447 2.69424 9.52847C2.81224 9.55147 2.93125 9.53747 3.04925 9.53147C3.10925 9.52847 3.16525 9.55047 3.22326 9.59047C3.27926 9.62947 3.34326 9.54147 3.39726 9.65447C3.40226 9.66447 3.41327 9.65547 3.42126 9.65547C3.56427 9.65547 3.71028 9.70247 3.84928 9.64347C4.01029 9.57347 4.17029 9.62147 4.3303 9.59447C4.59131 9.72747 4.85432 9.62947 5.11633 9.65147C5.19833 9.65847 5.28034 9.68347 5.36434 9.60347C5.43634 9.53447 5.52335 9.65747 5.59835 9.53647C5.60435 9.52647 5.61935 9.55347 5.63035 9.55847C5.65635 9.57147 5.68535 9.60247 5.70935 9.59147C5.85936 9.52447 5.85936 9.52347 5.98437 9.58447C5.99936 9.59147 6.01737 9.54147 6.03437 9.53947C6.10337 9.53247 6.17337 9.52447 6.24238 9.53647C6.30438 9.54747 6.37038 9.47746 6.42938 9.59147C6.44238 9.61647 6.46938 9.59547 6.48938 9.59547C6.55439 9.59547 6.62039 9.58847 6.68539 9.59747C6.7594 9.60747 6.8354 9.55647 6.9084 9.65247C6.9404 9.69447 6.9864 9.58247 7.0054 9.60647C7.04041 9.65047 7.07341 9.66247 7.10741 9.65347C7.14141 9.64547 7.17441 9.60047 7.20741 9.59947C7.23641 9.59847 7.26542 9.65047 7.29542 9.65347C7.36842 9.66247 7.44742 9.61547 7.51442 9.66747C7.58643 9.72347 7.65543 9.70947 7.72643 9.71647C7.79944 9.72347 7.87344 9.70847 7.94644 9.72147C8.00344 9.73147 8.05445 9.68347 8.10745 9.65747C8.16045 9.63147 8.22045 9.71147 8.26845 9.59647C8.27045 9.59147 8.27645 9.59647 8.28046 9.59647C8.39146 9.57647 8.50246 9.54347 8.61347 9.53847C8.80548 9.52847 8.99748 9.53847 9.18949 9.53447C9.24349 9.53347 9.3005 9.57147 9.3515 9.47746C9.3625 9.45746 9.3855 9.48646 9.3995 9.47246C9.4525 9.41946 9.4945 9.59847 9.5455 9.51647C9.59051 9.44246 9.63951 9.48446 9.68551 9.47646C9.73851 9.46846 9.79151 9.47846 9.84452 9.47346C9.88152 9.46946 9.91452 9.48546 9.94452 9.53647C9.98452 9.42846 10.0425 9.50147 10.0895 9.45046C10.1205 9.41746 10.1685 9.38546 10.1915 9.42146C10.2425 9.50247 10.2925 9.46446 10.3425 9.47346C10.4175 9.48747 10.4925 9.45246 10.5655 9.53047C10.5965 9.56347 10.6385 9.54347 10.6745 9.53347C10.7086 9.52347 10.7416 9.48146 10.7746 9.47746C10.8376 9.46946 10.8986 9.47346 10.9616 9.53047C11.0156 9.58047 11.0816 9.48046 11.1356 9.59447C11.1426 9.60947 11.1606 9.60447 11.1716 9.59447C11.2306 9.54747 11.2836 9.52047 11.3486 9.58547C11.4016 9.63747 11.4696 9.59647 11.5306 9.59647C11.5956 9.59647 11.6626 9.61847 11.7256 9.58847C11.7666 9.56947 11.7866 9.72047 11.8346 9.62547C11.8606 9.57447 11.9116 9.60047 11.9516 9.59747C11.9926 9.59347 12.0356 9.61647 12.0736 9.59347C12.2776 9.47146 12.4836 9.57247 12.6886 9.53247C12.7746 9.51547 12.8656 9.60747 12.9476 9.47446C13.0086 9.57447 13.0836 9.48847 13.1426 9.55547C13.1796 9.59847 13.2126 9.59347 13.2466 9.59447C13.4717 9.59847 13.6957 9.58947 13.9207 9.59947C14.0687 9.60647 14.2157 9.64247 14.3637 9.65547C14.4057 9.65847 14.4457 9.67147 14.4907 9.60947C14.5237 9.56447 14.5837 9.56047 14.6287 9.63947C14.6377 9.65447 14.6547 9.66747 14.6617 9.65647C14.7457 9.51247 14.8287 9.66247 14.9117 9.66847C15.0737 9.67947 15.2307 9.58947 15.3917 9.59947C15.4257 9.60147 15.4657 9.55847 15.4927 9.65547C15.5187 9.57447 15.5387 9.61347 15.5717 9.65047C15.6057 9.68847 15.6607 9.69247 15.6897 9.64647C15.7297 9.58347 15.7667 9.60647 15.8047 9.59947C15.8458 9.59247 15.8868 9.60147 15.9268 9.59747C16.0988 9.57847 16.2708 9.55947 16.4438 9.53447C16.4778 9.52947 16.5108 9.49346 16.5438 9.47646C16.5778 9.45946 16.6138 9.50547 16.6468 9.42246C16.6588 9.39146 16.6938 9.41446 16.7178 9.41446C16.8038 9.41446 16.8958 9.36346 16.9728 9.42846C17.0488 9.49347 17.1308 9.41346 17.2008 9.53147C17.2208 9.56447 17.2568 9.53047 17.2848 9.53747C17.3998 9.56647 17.5178 9.46746 17.6298 9.59747C17.6708 9.51647 17.7198 9.53247 17.7668 9.53847C17.8008 9.54247 17.8408 9.49647 17.8688 9.58947C17.8718 9.60047 17.8838 9.60047 17.8918 9.59647C17.9328 9.57447 17.9708 9.51647 18.0168 9.53247C18.0558 9.54647 18.0868 9.60347 18.1288 9.60147C18.2808 9.59747 18.4309 9.49246 18.5839 9.53547C18.6259 9.46246 18.6739 9.47546 18.7209 9.47346C18.8039 9.46946 18.8829 9.56147 18.9679 9.53947C19.0489 9.51947 19.1349 9.49447 19.2119 9.54447C19.3439 9.63047 19.4759 9.57747 19.6069 9.59447C19.6409 9.59847 19.6789 9.63147 19.7089 9.54347C19.7159 9.52247 19.7529 9.53147 19.7629 9.55847C19.7849 9.61547 19.8099 9.57947 19.8309 9.59947C19.8899 9.65747 19.9479 9.43146 20.0069 9.59747H20.2029C20.2679 9.59747 20.3339 9.60047 20.3989 9.59647C20.4299 9.59447 20.4589 9.61347 20.4909 9.55447C20.5119 9.51447 20.5619 9.50747 20.5829 9.54347C20.6329 9.62947 20.6839 9.59347 20.7339 9.59547C20.8849 9.60147 21.036 9.60347 21.187 9.59547C21.253 9.59147 21.319 9.55647 21.385 9.53747C21.452 9.51747 21.522 9.57847 21.587 9.49847C21.592 9.49247 21.599 9.49547 21.604 9.49847C21.63 9.51047 21.657 9.53847 21.683 9.53347C21.717 9.52747 21.761 9.45246 21.781 9.48446C21.819 9.54847 21.844 9.47847 21.873 9.47146C21.956 9.45046 22.008 9.28546 21.999 9.08445C21.997 9.04045 21.987 8.99145 21.975 8.95744C21.9 8.73944 21.899 8.75044 21.779 8.73844C21.626 8.72243 21.477 8.84744 21.324 8.80244C21.224 8.91444 21.118 8.84044 21.016 8.86444C20.9089 8.88944 20.8009 8.98145 20.6959 8.91644C20.5919 8.85144 20.4899 8.86544 20.3869 8.86744C20.3089 8.86844 20.2309 8.91244 20.1519 8.92244C20.0709 8.93244 19.9869 8.90344 19.9069 8.93244C19.8569 8.95044 19.8049 9.02245 19.7579 8.98045C19.6549 8.88644 19.5499 8.96745 19.4489 8.91944C19.3089 8.85144 19.1679 8.89644 19.0309 8.85344C18.9569 8.83044 18.8829 8.80244 18.8079 8.80544C18.7739 8.80644 18.7409 8.80344 18.7049 8.84744C18.6679 8.89244 18.6129 8.89344 18.5669 8.83044C18.5479 8.80444 18.5159 8.78544 18.4989 8.80744C18.4299 8.90144 18.3578 8.86244 18.2878 8.85944C18.2428 8.85744 18.1928 8.94544 18.1668 8.90844C18.1218 8.84744 18.0808 8.87444 18.0388 8.86644C18.0088 8.86144 17.9748 8.83244 17.9478 8.91244C17.9408 8.93344 17.9118 8.93944 17.9028 8.92144C17.8528 8.81744 17.7948 8.86844 17.7408 8.86544C17.6098 8.85844 17.4798 8.85744 17.3488 8.86544C17.2408 8.87144 17.1368 8.75844 17.0278 8.80244C16.9618 8.69743 16.8878 8.74344 16.8178 8.74544C16.7638 8.74644 16.7098 8.78244 16.6568 8.80244C16.6038 8.82244 16.5508 8.80344 16.4938 8.85044C16.4238 8.90744 16.3398 8.85644 16.2628 8.86744C16.2208 8.87344 16.1738 8.81544 16.1358 8.91444C16.1308 8.92744 16.1108 8.92544 16.1038 8.91244C16.0488 8.80744 15.9788 8.83644 15.9298 8.87744C15.8488 8.94344 15.7717 8.91344 15.6927 8.92444C15.6277 8.93344 15.5617 8.91944 15.4967 8.92844C15.4497 8.93544 15.4037 8.91344 15.3547 8.95744C15.3167 8.99145 15.2677 8.93444 15.2227 8.92744C15.1777 8.92044 15.1327 8.92644 15.0877 8.92644H14.7937C14.7407 8.92644 14.6877 8.91844 14.6347 8.92844C14.5847 8.93844 14.5357 8.98045 14.4857 8.98445C14.3457 8.99745 14.2077 8.88444 14.0667 8.92544C14.0287 8.85044 13.9917 8.90444 13.9517 8.91944C13.9147 8.93244 13.8717 8.96444 13.8357 8.88744C13.8257 8.86544 13.8057 8.87044 13.7907 8.86544C13.7567 8.85344 13.7277 8.92744 13.6867 8.87244C13.6587 8.83444 13.6147 8.87144 13.5777 8.86344C13.5397 8.85444 13.4957 8.90944 13.4637 8.81344C13.3967 8.95644 13.3317 8.73744 13.2646 8.80344C13.2436 8.82444 13.2206 8.83244 13.1976 8.84544C13.1866 8.85244 13.1736 8.87044 13.1646 8.86344C12.9856 8.73344 12.8036 8.83844 12.6236 8.80244C12.6016 8.79844 12.5806 8.76944 12.5576 8.75644C12.5466 8.75044 12.5346 8.74744 12.5246 8.75244C12.4256 8.80444 12.4266 8.80244 12.3336 8.74944C12.3106 8.73644 12.2856 8.74744 12.2616 8.74144C12.1996 8.72644 12.1386 8.75144 12.0746 8.69143C12.0096 8.63143 11.9396 8.73844 11.8726 8.78544C11.8126 8.82644 11.7546 8.87344 11.6896 8.86844C11.5266 8.85644 11.3626 8.86444 11.1996 8.86444C11.1796 8.86444 11.1506 8.88644 11.1396 8.86044C11.0926 8.75544 11.0516 8.68443 11.0066 8.86344C11.0046 8.87244 10.9876 8.87144 10.9836 8.86144C10.9436 8.74944 10.8906 8.80444 10.8456 8.80744C10.6725 8.82044 10.5025 8.69643 10.3285 8.74144C10.3005 8.74844 10.2625 8.72044 10.2465 8.75644C10.2115 8.83344 10.1945 8.70943 10.1645 8.73644C10.1395 8.75944 10.1015 8.71443 10.0805 8.74544C10.0035 8.85944 9.91852 8.82444 9.84552 8.78644C9.77751 8.75144 9.70751 8.71144 9.64751 8.74944C9.5275 8.82444 9.4085 8.79144 9.28949 8.79944C9.16749 8.80744 9.04448 8.80544 8.92248 8.79944C8.87248 8.79644 8.81848 8.84244 8.77247 8.74344C8.76347 8.72343 8.74047 8.73444 8.72447 8.74144C8.68647 8.75844 8.64947 8.79744 8.61247 8.79744C8.57547 8.79744 8.53746 8.75744 8.50046 8.74144C8.47046 8.72944 8.44146 8.74144 8.41046 8.68843C8.38746 8.64943 8.34746 8.68143 8.31146 8.73444C8.24045 8.83944 8.16545 8.94544 8.07345 8.92744C7.99244 8.91144 7.91044 8.92744 7.82844 8.92244C7.79444 8.92044 7.76143 8.92844 7.72543 8.87844C7.69243 8.83344 7.63743 8.85244 7.59743 8.88544C7.53443 8.93744 7.47642 8.94444 7.41442 8.88544C7.39342 8.86444 7.36742 8.86544 7.34442 8.86444C7.20141 8.86244 7.05841 8.86344 6.9154 8.86444C6.8814 8.86444 6.8444 8.84544 6.8164 8.91944C6.7934 8.83244 6.75739 8.86044 6.72739 8.86744C6.68139 8.87644 6.63639 8.91544 6.59039 8.92344C6.53539 8.93244 6.48238 8.92444 6.42838 8.87144C6.37838 8.82244 6.31738 8.90244 6.26338 8.83044C6.25338 8.81644 6.23237 8.86744 6.21737 8.86244C6.15537 8.84444 6.08837 8.92444 6.03137 8.80544C6.02637 8.79544 6.01337 8.79544 6.00737 8.80544C5.93636 8.92744 5.86536 8.83544 5.79436 8.80344C5.71735 8.76844 5.64735 8.86844 5.57135 8.86644C5.48535 8.86344 5.39634 8.82744 5.31534 8.87444C5.17533 8.95544 5.03533 8.91544 4.89632 8.92544C4.75332 8.93544 4.61031 8.93344 4.46731 8.92544C4.4053 8.92144 4.3433 8.87844 4.2813 8.86944C4.2123 8.85944 4.14229 8.86744 4.07329 8.86744C4.00829 8.86744 3.94229 8.86444 3.87728 8.86844C3.84628 8.87044 3.81228 8.83544 3.78628 8.91144C3.78128 8.92644 3.76228 8.93144 3.75428 8.92044C3.69828 8.83844 3.64427 8.84344 3.58727 8.91744C3.57127 8.93844 3.54727 8.91844 3.52827 8.92944C3.47427 8.95944 3.42826 8.88844 3.37926 8.86644C3.33326 8.84544 3.28226 8.92144 3.24126 8.80844C3.23626 8.79344 3.21326 8.79244 3.20626 8.80844C3.11525 8.99845 3.01025 8.68343 2.91924 8.85744C2.88324 8.74944 2.84524 8.87244 2.81624 8.85744C2.77424 8.83344 2.73424 8.80444 2.69024 8.80644C2.64923 8.80844 2.60823 8.81344 2.56823 8.80644C2.49423 8.79244 2.41823 8.84244 2.34422 8.75444C2.31922 8.72544 2.27322 8.70543 2.24222 8.79144C2.23722 8.80644 2.22022 8.80444 2.21022 8.80044C2.12821 8.76744 2.02921 8.86144 2.00921 9.01845C1.99721 9.11045 1.99821 9.22345 2.00821 9.31946C2.01321 9.36646 2.04821 9.39746 2.07121 9.43146C2.11021 9.49047 2.14721 9.57347 2.19022 9.59747C2.24022 9.62647 2.29622 9.60447 2.36222 9.60447V9.59447Z" fill="black"/>
<path d="M9.2919 7.35648C9.2899 7.31148 9.2979 7.26748 9.30591 7.22348L9.30091 7.02247L9.1019 7.01947C9.0499 7.00947 8.99889 6.99747 8.94589 7.00047C8.89689 7.00347 8.84789 7.07447 8.79789 7.00647C8.79389 7.00147 8.78389 7.00647 8.77888 7.01447C8.75288 7.05147 8.71688 7.04947 8.69688 7.02847C8.66988 6.99947 8.64588 7.00547 8.62188 7.00647L8.35887 7.03247L7.95985 7.03447C7.93985 7.03447 7.92085 7.03247 7.89885 7.05247C7.86385 7.08447 7.81985 7.04347 7.78385 7.09147C7.73484 7.02847 7.68184 7.07147 7.62984 7.06347C7.50884 7.04447 7.38583 7.09247 7.26583 7.03447C7.25183 7.02747 7.23682 7.02947 7.22082 7.03147L7.01882 7.05447L7.02782 7.22248L7.02982 7.25048C7.02782 7.27348 7.04082 7.30448 7.01682 7.31948C6.97181 7.34848 7.04382 7.35948 7.03482 7.38448C7.02082 7.42149 7.03082 7.46149 7.03082 7.50049C7.03082 7.53649 7.01082 7.57649 7.03582 7.60849C7.06682 7.64749 7.05382 7.6785 7.03182 7.7135C7.02782 7.7205 7.02482 7.7305 7.03182 7.7345C7.08582 7.7665 7.03882 7.8055 7.06282 7.8375C7.08982 7.8745 7.09182 7.9105 7.08782 7.94851C7.08582 7.96851 7.06582 7.98751 7.06082 8.00751C7.05582 8.02851 7.04682 8.05351 7.06282 8.07251C7.09982 8.11651 7.02482 8.12351 7.03182 8.16751C7.03582 8.19752 7.01782 8.22752 7.05682 8.25752C7.07382 8.27052 7.05882 8.29952 7.04282 8.31852C7.01882 8.34652 7.05282 8.38052 7.00182 8.40452C7.02582 8.42252 7.03382 8.44252 7.03182 8.46353L7.02982 8.55753C7.02682 8.58553 7.04582 8.61353 7.01082 8.64053C6.97181 8.67053 7.05682 8.69553 7.03182 8.72754C7.02482 8.73554 7.03882 8.74954 7.02982 8.75554C6.98581 8.78554 7.00382 8.81954 7.00282 8.85154L7.00082 9.19255C6.99782 9.25856 7.06982 9.35556 7.05982 9.42156V9.42856C7.00482 9.45756 7.04282 9.49257 7.03082 9.52457C7.01882 9.55657 6.99582 9.58657 7.00082 9.62057C7.00682 9.66357 6.99982 9.70757 7.00282 9.75158C7.00582 9.79358 6.99982 9.83458 7.02582 9.87658C7.05082 9.91658 6.99982 9.96958 7.00382 10.0126C7.00582 10.0306 7.02982 10.0476 7.02982 10.0646C7.02982 10.0846 7.00782 10.1036 7.00382 10.1236C6.99982 10.1436 7.00582 10.1636 7.02682 10.1846C7.03782 10.1956 6.98481 10.2236 7.00482 10.2416C7.05082 10.2846 7.02582 10.3296 7.03082 10.3736C7.03482 10.4126 7.03082 10.4506 7.03082 10.4896C7.03082 10.5016 7.02082 10.5176 7.03282 10.5256C7.08682 10.5606 7.05382 10.5996 7.05882 10.6366C7.06382 10.6776 7.06082 10.7186 7.05782 10.7596C7.05782 10.7696 7.03282 10.7806 7.03682 10.7896C7.06582 10.8636 7.06482 10.8636 7.03382 10.9526C7.02882 10.9676 7.04282 10.9836 7.04982 10.9996C7.05282 11.0066 7.06482 11.0146 7.06082 11.0186C7.00382 11.0626 7.06082 11.1146 7.02882 11.1576C6.99982 11.1956 6.99982 11.2326 7.00282 11.2696L7.01582 11.4406L7.21982 11.4496L7.25783 11.4466C7.42383 11.4366 7.60284 11.4806 7.75885 11.4156C7.86485 11.4266 7.95985 11.4026 8.07386 11.4316C8.17286 11.4556 8.26086 11.4316 8.35187 11.4286H8.36687C8.37787 11.3776 8.43987 11.4526 8.46787 11.4356C8.49587 11.4176 8.52588 11.4076 8.56388 11.4076C8.63988 11.4076 8.71788 11.4106 8.78489 11.3986C8.85089 11.3876 8.96189 11.4366 9.01189 11.4146C9.0529 11.4126 9.1799 11.4286 9.2019 11.4176C9.2059 11.3766 9.1899 11.3196 9.1959 11.2856C9.1989 11.2706 9.2229 11.2786 9.2009 11.2346C9.1899 11.2126 9.2159 11.2096 9.2189 11.1916C9.2209 11.1776 9.2119 11.1526 9.2079 11.1326V11.1226C9.2369 11.1086 9.2159 11.0466 9.2239 11.0126C9.2319 10.9786 9.2449 10.9496 9.2469 10.9106L9.2529 10.6346C9.2529 10.6036 9.2669 10.5826 9.2349 10.5276C9.2209 10.5046 9.2249 10.4766 9.2399 10.4746C9.2629 10.4716 9.2559 10.4486 9.2579 10.4306L9.2609 10.3116L9.2629 10.1916C9.1969 10.1136 9.2889 10.1356 9.2659 10.0846C9.2579 10.0666 9.2729 10.0596 9.2499 10.0336C9.2389 10.0206 9.2359 9.99659 9.2449 9.99659C9.2809 9.99859 9.2689 9.96758 9.2669 9.94658C9.2609 9.86258 9.2849 9.79358 9.2499 9.69357C9.2299 9.63657 9.2409 9.58957 9.2499 9.54357C9.2599 9.49557 9.2209 9.42956 9.2229 9.37956C9.2239 9.35156 9.2189 9.31956 9.2509 9.30756C9.2329 9.20655 9.2809 9.13355 9.2839 9.03955C9.2839 9.01355 9.2599 8.98555 9.2539 8.96055C9.2469 8.92954 9.2729 8.91554 9.2839 8.89354C9.2839 8.89354 9.2859 8.88254 9.2809 8.87854C9.2389 8.84754 9.2599 8.83054 9.2579 8.80854C9.2559 8.77954 9.2489 8.74754 9.2859 8.73254C9.2269 8.64753 9.2729 8.58753 9.2599 8.51353C9.2569 8.49553 9.2729 8.47653 9.2579 8.46153C9.2029 8.40652 9.2859 8.36952 9.2559 8.31652C9.2259 8.26452 9.2499 8.21252 9.2499 8.16051C9.2499 8.14551 9.2389 8.12351 9.2539 8.11851C9.29291 8.10551 9.2259 8.07551 9.2339 8.05551C9.2419 8.03651 9.2589 8.01851 9.2619 7.99851L9.2929 7.6855V7.61049C9.2979 7.58749 9.2869 7.56449 9.31691 7.54149C9.33891 7.52449 9.33691 7.49049 9.31891 7.46849C9.30191 7.44749 9.2829 7.43549 9.32191 7.42049C9.2759 7.40248 9.29591 7.37848 9.29591 7.35748L9.2919 7.35648Z" fill="black"/>
<path d="M14.7081 12.8565C14.7101 12.8115 14.7021 12.7675 14.6941 12.7235L14.6991 12.5225L14.8981 12.5195C14.9501 12.5095 15.0011 12.4975 15.0541 12.5005C15.1031 12.5035 15.1521 12.5745 15.2021 12.5065C15.2061 12.5015 15.2161 12.5065 15.2211 12.5145C15.2471 12.5515 15.2831 12.5495 15.3031 12.5285C15.3301 12.4995 15.3541 12.5055 15.3781 12.5065L15.6411 12.5325L16.0401 12.5345C16.0601 12.5345 16.0791 12.5325 16.1011 12.5525C16.1362 12.5845 16.1802 12.5435 16.2162 12.5915C16.2652 12.5285 16.3182 12.5715 16.3702 12.5635C16.4912 12.5445 16.6142 12.5925 16.7342 12.5345C16.7482 12.5275 16.7632 12.5295 16.7792 12.5315L16.9812 12.5545L16.9722 12.7225L16.9702 12.7505C16.9722 12.7735 16.9592 12.8045 16.9832 12.8195C17.0282 12.8485 16.9562 12.8595 16.9652 12.8845C16.9792 12.9215 16.9692 12.9615 16.9692 13.0005C16.9692 13.0365 16.9892 13.0765 16.9642 13.1085C16.9332 13.1475 16.9462 13.1785 16.9682 13.2135C16.9722 13.2205 16.9752 13.2305 16.9682 13.2345C16.9142 13.2665 16.9612 13.3055 16.9372 13.3375C16.9102 13.3745 16.9082 13.4105 16.9122 13.4485C16.9142 13.4685 16.9342 13.4875 16.9392 13.5075C16.9442 13.5285 16.9532 13.5535 16.9372 13.5725C16.9002 13.6165 16.9752 13.6235 16.9682 13.6675C16.9642 13.6975 16.9822 13.7275 16.9432 13.7575C16.9262 13.7705 16.9412 13.7995 16.9572 13.8185C16.9812 13.8465 16.9472 13.8805 16.9982 13.9045C16.9742 13.9225 16.9662 13.9425 16.9682 13.9635L16.9702 14.0575C16.9732 14.0855 16.9542 14.1135 16.9892 14.1405C17.0282 14.1705 16.9432 14.1955 16.9682 14.2275C16.9752 14.2355 16.9612 14.2495 16.9702 14.2555C17.0142 14.2855 16.9962 14.3195 16.9972 14.3515L16.9992 14.6926C17.0022 14.7586 16.9302 14.8556 16.9402 14.9216V14.9286C16.9952 14.9576 16.9572 14.9926 16.9692 15.0246C16.9812 15.0566 17.0042 15.0866 16.9992 15.1206C16.9932 15.1636 17.0002 15.2076 16.9972 15.2516C16.9942 15.2936 17.0002 15.3346 16.9742 15.3766C16.9492 15.4166 17.0002 15.4696 16.9962 15.5126C16.9942 15.5306 16.9702 15.5476 16.9702 15.5646C16.9702 15.5846 16.9922 15.6036 16.9962 15.6236C17.0002 15.6436 16.9942 15.6636 16.9732 15.6846C16.9622 15.6956 17.0152 15.7236 16.9952 15.7416C16.9492 15.7846 16.9742 15.8296 16.9692 15.8736C16.9652 15.9126 16.9692 15.9506 16.9692 15.9896C16.9692 16.0016 16.9792 16.0176 16.9672 16.0256C16.9132 16.0606 16.9462 16.0996 16.9412 16.1366C16.9362 16.1776 16.9392 16.2186 16.9422 16.2596C16.9422 16.2696 16.9672 16.2806 16.9632 16.2896C16.9342 16.3636 16.9352 16.3636 16.9662 16.4526C16.9712 16.4676 16.9572 16.4836 16.9502 16.4996C16.9472 16.5066 16.9352 16.5146 16.9392 16.5186C16.9962 16.5626 16.9392 16.6146 16.9712 16.6576C17.0002 16.6956 17.0002 16.7326 16.9972 16.7696L16.9842 16.9406L16.7802 16.9496L16.7422 16.9466C16.5762 16.9366 16.3972 16.9806 16.2412 16.9156C16.1352 16.9266 16.0401 16.9026 15.9261 16.9316C15.8271 16.9556 15.7391 16.9316 15.6481 16.9286H15.6331C15.6221 16.8776 15.5601 16.9526 15.5321 16.9356C15.5041 16.9176 15.4741 16.9076 15.4361 16.9076C15.3601 16.9076 15.2821 16.9106 15.2151 16.8986C15.1491 16.8876 15.0381 16.9366 14.9881 16.9146C14.9471 16.9126 14.8201 16.9286 14.7981 16.9176C14.7941 16.8766 14.8101 16.8196 14.8041 16.7856C14.8011 16.7706 14.7771 16.7786 14.7991 16.7346C14.8101 16.7126 14.7841 16.7096 14.7811 16.6916C14.7791 16.6776 14.7881 16.6526 14.7921 16.6326V16.6226C14.7631 16.6086 14.7841 16.5466 14.7761 16.5126C14.7681 16.4786 14.7551 16.4496 14.7531 16.4106L14.7471 16.1346C14.7471 16.1036 14.7331 16.0826 14.7651 16.0276C14.7791 16.0046 14.7751 15.9766 14.7601 15.9746C14.7371 15.9716 14.7441 15.9486 14.7421 15.9306L14.7391 15.8116L14.7371 15.6916C14.8031 15.6136 14.7111 15.6356 14.7341 15.5846C14.7421 15.5666 14.7271 15.5596 14.7501 15.5336C14.7611 15.5206 14.7641 15.4966 14.7551 15.4966C14.7191 15.4986 14.7311 15.4676 14.7331 15.4466C14.7391 15.3626 14.7151 15.2936 14.7501 15.1936C14.7701 15.1366 14.7591 15.0896 14.7501 15.0436C14.7401 14.9956 14.7791 14.9296 14.7771 14.8796C14.7761 14.8516 14.7811 14.8196 14.7491 14.8076C14.7671 14.7066 14.7191 14.6336 14.7161 14.5395C14.7161 14.5135 14.7401 14.4855 14.7461 14.4605C14.7531 14.4295 14.7271 14.4155 14.7161 14.3935C14.7161 14.3935 14.7141 14.3825 14.7191 14.3785C14.7611 14.3475 14.7401 14.3305 14.7421 14.3085C14.7441 14.2795 14.7511 14.2475 14.7141 14.2325C14.7731 14.1475 14.7271 14.0875 14.7401 14.0135C14.7431 13.9955 14.7271 13.9765 14.7421 13.9615C14.7971 13.9065 14.7141 13.8695 14.7441 13.8165C14.7741 13.7645 14.7501 13.7125 14.7501 13.6605C14.7501 13.6455 14.7611 13.6235 14.7461 13.6185C14.7071 13.6055 14.7741 13.5755 14.7661 13.5555C14.7581 13.5365 14.7411 13.5185 14.7381 13.4985L14.7071 13.1855V13.1105C14.7021 13.0875 14.7131 13.0645 14.6831 13.0415C14.6611 13.0245 14.6631 12.9905 14.6811 12.9685C14.6981 12.9475 14.7171 12.9355 14.6781 12.9205C14.7241 12.9025 14.7041 12.8785 14.7041 12.8575L14.7081 12.8565Z" fill="black"/>
</svg>
