<svg width="12" height="12" viewBox="0 0 12 12" fill="none" xmlns="http://www.w3.org/2000/svg">
<path d="M8.83172 6.43557C8.80297 6.49305 8.76464 6.33018 8.73589 6.35892C8.69756 6.38766 8.66881 6.3685 8.63048 6.35892C8.61131 6.35892 8.59215 6.37808 8.58256 6.42598C8.5634 6.47389 8.54423 6.3685 8.53465 6.50263C8.53465 6.50263 8.53465 6.51221 8.53465 6.50263C8.49632 6.50263 8.4484 6.56011 8.41007 6.49305C8.36216 6.4164 8.31425 6.46431 8.26633 6.43557C8.18967 6.58885 8.11301 6.47389 8.03635 6.50263C8.01718 6.50263 7.98843 6.54095 7.95968 6.44515C7.94052 6.3685 7.91177 6.51221 7.8926 6.3685C7.8926 6.35892 7.8926 6.38766 7.8926 6.39724C7.8926 6.4164 7.87344 6.44515 7.87344 6.43557C7.82553 6.35892 7.82552 6.35892 7.79678 6.43557C7.79678 6.43557 7.78719 6.38766 7.77761 6.38766C7.75845 6.38766 7.73928 6.3685 7.72011 6.38766C7.70095 6.39724 7.68178 6.3206 7.66262 6.45473C7.66262 6.48347 7.65304 6.45473 7.64345 6.45473C7.62429 6.45473 7.60512 6.45473 7.58596 6.45473C7.56679 6.46431 7.53804 6.40682 7.51888 6.52179C7.51888 6.56969 7.49971 6.44515 7.49013 6.46431C7.48055 6.51221 7.47096 6.53137 7.46138 6.52179C7.4518 6.52179 7.44222 6.46431 7.43263 6.45473C7.43263 6.45473 7.41347 6.51221 7.40388 6.52179C7.38472 6.53137 7.35597 6.47389 7.3368 6.54095C7.31764 6.60801 7.29847 6.58885 7.27931 6.59843C7.26014 6.59843 7.24098 6.59843 7.21223 6.59843C7.19306 6.60801 7.18348 6.55053 7.16431 6.52179C7.14515 6.49305 7.13557 6.58885 7.1164 6.45473C7.08765 6.43556 7.04932 6.39724 7.02057 6.38766C6.96308 6.37808 6.90558 6.38766 6.84808 6.38766C6.82892 6.38766 6.81934 6.43557 6.80017 6.3206C6.80017 6.30144 6.79059 6.33018 6.79059 6.3206C6.77142 6.26312 6.76184 6.46431 6.75226 6.3685C6.74267 6.28228 6.72351 6.33018 6.71393 6.3206C6.69476 6.31102 6.68518 6.3206 6.66601 6.3206C6.65643 6.3206 6.64685 6.33018 6.63726 6.39724C6.62768 6.2727 6.60851 6.35892 6.59893 6.30144C6.59893 6.26312 6.57977 6.22479 6.57018 6.2727C6.55102 6.3685 6.54144 6.3206 6.52227 6.33018C6.5031 6.34934 6.47436 6.30144 6.45519 6.39724C6.45519 6.43557 6.43603 6.4164 6.42644 6.39724C6.41686 6.38766 6.40728 6.33976 6.3977 6.33018C6.37853 6.3206 6.35936 6.33018 6.3402 6.38766C6.32103 6.44515 6.30187 6.33018 6.29228 6.46431C6.29228 6.48347 6.29228 6.47389 6.2827 6.46431C6.26354 6.40682 6.25395 6.37808 6.23479 6.45473C6.21562 6.51221 6.19646 6.46431 6.17729 6.46431C6.15813 6.46431 6.13896 6.49305 6.11979 6.46431C6.11021 6.44515 6.10063 6.61759 6.09105 6.51221C6.09105 6.45473 6.07188 6.48347 6.05272 6.48347C6.04313 6.48347 6.02397 6.50263 6.01438 6.48347C5.95689 6.33976 5.88981 6.46431 5.83231 6.4164C5.80356 6.39724 5.7844 6.50263 5.75565 6.34934C5.73648 6.46431 5.71732 6.3685 5.69815 6.44515C5.68857 6.49305 5.67899 6.49305 5.66941 6.49305C5.60233 6.49305 5.53525 6.49305 5.46817 6.49305C5.42984 6.49305 5.38192 6.54095 5.34359 6.56011C5.33401 6.56011 5.32443 6.57927 5.30526 6.50263C5.29568 6.44515 5.27651 6.44515 5.26693 6.54095C5.26693 6.56011 5.26693 6.56969 5.26693 6.56011C5.23818 6.38766 5.21902 6.56011 5.19027 6.56969C5.14235 6.57927 5.09444 6.47389 5.04653 6.49305C5.03694 6.49305 5.02736 6.44515 5.01778 6.56011C5.01778 6.46431 5.00819 6.51221 4.99861 6.56011C4.98903 6.60801 4.96986 6.60801 4.96028 6.56011C4.9507 6.48347 4.94112 6.51221 4.92195 6.50263C4.91237 6.50263 4.90278 6.50263 4.88362 6.50263C4.83571 6.48347 4.77821 6.45473 4.7303 6.42598C4.72071 6.42598 4.71113 6.37808 4.70155 6.35892C4.69196 6.33976 4.68238 6.39724 4.6728 6.29186C4.6728 6.25354 4.66322 6.29186 4.65363 6.29186C4.62488 6.29186 4.60572 6.23437 4.57697 6.31102C4.55781 6.38766 4.52906 6.29186 4.50989 6.43557C4.50989 6.47389 4.49073 6.43557 4.48114 6.43557C4.4524 6.47389 4.41406 6.34934 4.38532 6.50263C4.37573 6.40682 4.35657 6.42598 4.34698 6.43557C4.3374 6.43557 4.32782 6.38766 4.31824 6.49305C4.31824 6.50263 4.31824 6.50263 4.31824 6.49305C4.30865 6.46431 4.29907 6.39724 4.27991 6.4164C4.27032 6.43556 4.26074 6.50263 4.25116 6.49305C4.20324 6.49305 4.16491 6.3685 4.117 6.4164C4.10742 6.33018 4.08825 6.34934 4.07867 6.33976C4.04992 6.33976 4.03075 6.44515 4.00201 6.4164C3.98284 6.39724 3.95409 6.3685 3.93493 6.4164C3.8966 6.51221 3.85826 6.45473 3.81993 6.47389C3.81035 6.47389 3.80077 6.51221 3.79119 6.4164C3.79119 6.38766 3.7816 6.40682 3.77202 6.43557C3.77202 6.50263 3.76244 6.46431 3.75285 6.48347C3.73369 6.55053 3.71452 6.28228 3.70494 6.48347C3.68577 6.48347 3.66661 6.48347 3.64744 6.48347C3.62828 6.48347 3.60911 6.48347 3.58995 6.48347C3.58995 6.48347 3.57078 6.50263 3.5612 6.43557C3.5612 6.38766 3.54203 6.37808 3.53245 6.42598C3.52287 6.52179 3.5037 6.48347 3.48454 6.48347C3.43662 6.48347 3.39829 6.49305 3.35038 6.48347C3.33121 6.48347 3.31205 6.43556 3.29288 6.4164C3.27372 6.39724 3.25455 6.46431 3.23538 6.3685C3.23538 6.38766 3.21622 6.4164 3.21622 6.40682C3.20664 6.40682 3.19705 6.31102 3.18747 6.34934C3.17789 6.42598 3.16831 6.34934 3.15872 6.33018C3.12997 6.31102 3.12039 6.10983 3.12039 5.8799C3.12039 5.83199 3.12039 5.77451 3.12039 5.72661C3.13956 5.46794 3.13956 5.4871 3.17789 5.46794C3.2258 5.44877 3.26413 5.59248 3.31205 5.54458C3.3408 5.67871 3.36954 5.59248 3.39829 5.62122C3.42704 5.64996 3.46537 5.75535 3.49412 5.67871C3.52287 5.60206 3.55162 5.62122 3.58036 5.62122C3.59953 5.62122 3.62828 5.67871 3.64744 5.68829C3.66661 5.69787 3.69536 5.66913 3.71452 5.69787C3.73369 5.71703 3.74327 5.80325 3.76244 5.75535C3.79118 5.64996 3.81993 5.73619 3.84868 5.67871C3.88701 5.60206 3.93493 5.64997 3.97326 5.60206C3.99242 5.57332 4.01159 5.54458 4.04034 5.54458C4.04992 5.54458 4.0595 5.54458 4.06908 5.59248C4.07867 5.64038 4.09783 5.64996 4.10742 5.57332C4.10742 5.54458 4.12658 5.51584 4.12658 5.54458C4.14575 5.64996 4.16491 5.61164 4.18408 5.60206C4.19366 5.60206 4.21283 5.69787 4.22241 5.65955C4.23199 5.59248 4.25116 5.62122 4.26074 5.61164C4.26074 5.61164 4.27991 5.57332 4.28949 5.66913C4.28949 5.69787 4.29907 5.69787 4.29907 5.67871C4.30865 5.55416 4.32782 5.62122 4.34698 5.61164C4.38532 5.61164 4.42365 5.61164 4.46198 5.61164C4.49073 5.61164 4.51947 5.4871 4.55781 5.535C4.57697 5.41045 4.59614 5.46794 4.6153 5.46794C4.63447 5.46794 4.64405 5.51584 4.66322 5.535C4.68238 5.55416 4.69196 5.535 4.71113 5.59248C4.7303 5.65955 4.75904 5.59248 4.77821 5.61164C4.78779 5.61164 4.80696 5.55416 4.81654 5.66913C4.81654 5.67871 4.81654 5.68829 4.81654 5.66913C4.83571 5.54458 4.85487 5.5829 4.86445 5.6308C4.88362 5.70745 4.91237 5.66913 4.93153 5.68829C4.9507 5.69787 4.96986 5.68829 4.98903 5.68829C4.99861 5.68829 5.01778 5.66913 5.02736 5.72661C5.03694 5.76493 5.05611 5.69787 5.06569 5.68829C5.07527 5.68829 5.09444 5.68829 5.10402 5.68829C5.11361 5.68829 5.13277 5.68829 5.14235 5.68829C5.15194 5.68829 5.1711 5.68829 5.18068 5.68829C5.19985 5.68829 5.20943 5.68829 5.2286 5.68829C5.24776 5.69787 5.25735 5.74577 5.27651 5.75535C5.31484 5.77451 5.35317 5.64038 5.40109 5.68829C5.41067 5.60206 5.42025 5.65955 5.42984 5.68829C5.43942 5.70745 5.449 5.74577 5.46817 5.64996C5.46817 5.62122 5.46817 5.6308 5.47775 5.62122C5.48733 5.61164 5.49692 5.69787 5.5065 5.62122C5.5065 5.57332 5.52566 5.62122 5.53525 5.61164C5.54483 5.60206 5.56399 5.66913 5.56399 5.55416C5.58316 5.71703 5.60233 5.46794 5.62149 5.54458C5.62149 5.57332 5.63107 5.57332 5.64066 5.59248C5.64066 5.59248 5.64066 5.62122 5.65024 5.61164C5.69815 5.45835 5.75565 5.5829 5.80356 5.535C5.80356 5.535 5.81315 5.49668 5.82273 5.47752C5.82273 5.47752 5.82273 5.46794 5.83231 5.47752C5.86106 5.535 5.86106 5.535 5.88981 5.47752C5.88981 5.45836 5.89939 5.47752 5.90897 5.47752C5.92814 5.45836 5.94731 5.4871 5.96647 5.42003C5.98564 5.35297 6.0048 5.47752 6.02397 5.52542C6.04313 5.57332 6.0623 5.6308 6.08146 5.62122C6.12938 5.61164 6.17729 5.62122 6.22521 5.62122C6.22521 5.62122 6.23479 5.64996 6.24437 5.62122C6.25395 5.49668 6.27312 5.42003 6.2827 5.62122C6.2827 5.62122 6.2827 5.6308 6.2827 5.62122C6.29228 5.4871 6.31145 5.55416 6.32103 5.55416C6.36895 5.57332 6.41686 5.42003 6.47436 5.47752C6.47436 5.47752 6.49352 5.44877 6.5031 5.49668C6.51269 5.5829 6.52227 5.43919 6.52227 5.47752C6.52227 5.50626 6.54144 5.44877 6.55102 5.4871C6.57018 5.62122 6.59893 5.5829 6.6181 5.535C6.63726 5.49668 6.65643 5.44877 6.67559 5.49668C6.71393 5.5829 6.74267 5.54458 6.781 5.55416C6.81934 5.55416 6.84808 5.55416 6.88641 5.55416C6.90558 5.55416 6.91516 5.60206 6.93433 5.4871C6.93433 5.46794 6.93433 5.47752 6.94391 5.4871C6.95349 5.50626 6.96308 5.55416 6.97266 5.55416C6.98224 5.55416 6.99183 5.50626 7.00141 5.4871C7.00141 5.46794 7.02057 5.4871 7.03016 5.42961C7.03016 5.38171 7.04932 5.42961 7.0589 5.4871C7.07807 5.61164 7.10682 5.73619 7.12598 5.70745C7.14515 5.68829 7.1739 5.70745 7.19306 5.70745C7.20265 5.70745 7.21223 5.70745 7.22181 5.65955C7.22181 5.61164 7.25056 5.6308 7.26014 5.65955C7.27931 5.71703 7.29847 5.72661 7.31764 5.65955C7.31764 5.6308 7.32722 5.64038 7.3368 5.6308C7.37514 5.6308 7.42305 5.6308 7.46138 5.6308C7.47096 5.6308 7.48055 5.61164 7.49013 5.69787C7.49013 5.59248 7.50929 5.6308 7.51888 5.64038C7.52846 5.64997 7.54763 5.69787 7.55721 5.70745C7.57637 5.71703 7.58596 5.70745 7.60512 5.64996C7.62429 5.59248 7.63387 5.68829 7.65304 5.60206C7.65304 5.5829 7.65304 5.64038 7.66262 5.64038C7.68178 5.62122 7.70095 5.71703 7.72011 5.57332C7.72011 5.56374 7.72011 5.56374 7.72011 5.57332C7.73928 5.71703 7.75845 5.61164 7.77761 5.57332C7.79678 5.535 7.82552 5.64996 7.84469 5.64996C7.87344 5.64996 7.8926 5.60206 7.92135 5.64996C7.95968 5.74577 8.0076 5.69787 8.04593 5.70745C8.08426 5.71703 8.13217 5.70745 8.1705 5.70745C8.18967 5.70745 8.20884 5.64997 8.228 5.64038C8.24717 5.6308 8.26633 5.64038 8.2855 5.64038C8.30466 5.64038 8.32383 5.64038 8.34299 5.64038C8.34299 5.64038 8.36216 5.60206 8.37174 5.68829C8.37174 5.70745 8.37174 5.70745 8.37174 5.69787C8.39091 5.60206 8.40049 5.61164 8.41966 5.69787C8.41966 5.72661 8.42924 5.69787 8.43882 5.70745C8.45799 5.74577 8.46757 5.65955 8.48674 5.6308C8.49632 5.60206 8.51548 5.69787 8.52507 5.56374C8.52507 5.54458 8.52507 5.54458 8.53465 5.56374C8.5634 5.78409 8.59215 5.42003 8.62089 5.62122C8.63048 5.49668 8.64006 5.64038 8.64964 5.62122C8.65922 5.59248 8.66881 5.56374 8.68797 5.56374C8.69756 5.56374 8.70714 5.56374 8.7263 5.56374C8.74547 5.54458 8.77422 5.60206 8.79338 5.50626C8.79338 5.46794 8.81255 5.44877 8.82213 5.55416C8.82213 5.57332 8.82213 5.57332 8.82213 5.56374C8.8413 5.52542 8.87963 5.6308 8.87963 5.82241C8.87963 5.9278 8.87963 6.06193 8.87963 6.17689C8.87963 6.23437 8.87005 6.26312 8.86046 6.31102C8.85088 6.37808 8.8413 6.47389 8.82213 6.50263C8.80297 6.54095 8.79338 6.50263 8.77422 6.50263L8.83172 6.43557Z" fill="black"/>
</svg>
