<svg xmlns="http://www.w3.org/2000/svg" width="16.667" height="16.667" viewBox="0 0 16.667 16.667">
  <path id="parking-sign" d="M10.333,5.333h-2.5A.833.833,0,0,0,7,6.167V14.5a.833.833,0,1,0,1.667,0V12h1.667a3.333,3.333,0,0,0,0-6.667Zm0,5H8.667V7h1.667a1.667,1.667,0,1,1,0,3.333ZM16.167,2H4.5A2.5,2.5,0,0,0,2,4.5V16.167a2.5,2.5,0,0,0,2.5,2.5H16.167a2.5,2.5,0,0,0,2.5-2.5V4.5A2.5,2.5,0,0,0,16.167,2ZM17,16.167a.833.833,0,0,1-.833.833H4.5a.833.833,0,0,1-.833-.833V4.5A.833.833,0,0,1,4.5,3.667H16.167A.833.833,0,0,1,17,4.5Z" transform="translate(-2 -2)" fill="#3a356d"/>
</svg>
