<svg width="12" height="12" viewBox="0 0 12 12" fill="none" xmlns="http://www.w3.org/2000/svg">
<path fill-rule="evenodd" clip-rule="evenodd" d="M6.48592 3.17891L6.54143 3.22648C6.54143 3.21969 6.54624 3.21411 6.55075 3.20887C6.55897 3.19933 6.56618 3.19095 6.54143 3.17858C6.51761 3.1627 6.44772 3.1534 6.3863 3.14523C6.3736 3.14354 6.36127 3.1419 6.34978 3.14025C6.33978 3.13825 6.33061 3.13626 6.32185 3.13434C6.28861 3.12709 6.26112 3.12109 6.21562 3.12109H5.86106C5.6694 3.12109 5.56399 3.15942 5.60232 3.17858H5.59274C5.48733 3.18816 5.50649 3.20732 5.54483 3.20732C5.60908 3.22017 5.6044 3.23732 5.60012 3.25301C5.59802 3.26072 5.59601 3.26807 5.60232 3.27438V3.3127C5.60232 3.33186 5.63107 3.34144 5.65982 3.35103C5.66706 3.35464 5.65105 3.35826 5.63504 3.36188C5.60867 3.36784 5.58231 3.37381 5.65982 3.37977C5.56088 3.3939 5.59861 3.40803 5.63634 3.42216C5.67535 3.43677 5.71436 3.45138 5.60232 3.46599C5.58316 3.47557 5.58316 3.47557 5.60232 3.47557C5.69058 3.48187 5.6793 3.49232 5.66944 3.50146C5.66431 3.50622 5.65957 3.51062 5.6694 3.51389C5.6798 3.52082 5.69772 3.5265 5.71455 3.53183C5.74424 3.54124 5.77053 3.54957 5.74606 3.5618C5.74193 3.56593 5.74493 3.57006 5.74737 3.57342C5.75058 3.57786 5.75283 3.58096 5.73648 3.58096C5.65024 3.60012 5.64065 3.6097 5.73648 3.62886H5.7269C5.64065 3.63844 5.67898 3.6576 5.67898 3.6576V3.71508C5.67898 3.72147 5.67792 3.72786 5.67686 3.73425C5.67473 3.74702 5.6726 3.75979 5.67898 3.77257C5.68334 3.78128 5.6976 3.78999 5.71185 3.7987C5.72896 3.80915 5.74606 3.8196 5.74606 3.83005C5.74606 3.84249 5.74707 3.85593 5.74811 3.86974C5.75027 3.89846 5.75254 3.92871 5.74606 3.9546C5.74336 3.96542 5.74524 3.977 5.74717 3.98892C5.75208 4.01921 5.75734 4.05164 5.68857 4.07914C5.65726 4.09792 5.66686 4.11261 5.67728 4.12855C5.68281 4.13701 5.68857 4.14582 5.68857 4.15579C5.68857 4.16376 5.66865 4.1734 5.64815 4.18331C5.61941 4.19721 5.58953 4.21166 5.61191 4.22285C5.62004 4.22691 5.63118 4.23098 5.64233 4.23504C5.68374 4.25014 5.72516 4.26524 5.61191 4.28033C5.70903 4.29328 5.69678 4.30623 5.68453 4.31917C5.67865 4.32539 5.67277 4.3316 5.67898 4.33782C5.67898 4.345 5.64664 4.3468 5.63856 4.34725C5.63586 4.3474 5.63586 4.3474 5.64065 4.3474C5.6873 4.35776 5.68069 4.36532 5.67388 4.37311C5.66809 4.37972 5.66217 4.3865 5.68857 4.3953C5.74606 4.41446 5.75565 4.42404 5.74606 4.4432C5.74127 4.44799 5.7269 4.45518 5.71252 4.46236C5.69815 4.46955 5.68378 4.47673 5.67898 4.48152C5.6778 4.48271 5.67616 4.48405 5.67442 4.48548C5.6621 4.49556 5.64415 4.51026 5.73648 4.51026C5.6635 4.51837 5.666 4.52648 5.66849 4.53458C5.66895 4.53606 5.6694 4.53753 5.6694 4.53901V4.66355C5.67241 4.66656 5.67353 4.66957 5.67454 4.67228C5.67675 4.6782 5.67842 4.68271 5.69815 4.68271C5.76523 4.70188 5.75565 4.72104 5.69815 4.7402C5.6694 4.74978 5.65024 4.77852 5.69815 4.77852C5.74606 4.7881 5.74606 4.79768 5.74606 4.80726C5.74606 4.81333 5.74414 4.82035 5.74212 4.82773C5.73777 4.84366 5.73297 4.86123 5.74606 4.87432C5.77481 4.89348 5.65024 4.92223 5.52566 4.94139C5.46816 4.95097 5.42025 4.97013 5.46816 4.97013C5.50386 4.97608 5.51001 4.98572 5.51412 4.99217C5.51664 4.99612 5.51839 4.99887 5.52566 4.99887C5.53285 5.00246 5.54408 5.00606 5.55531 5.00965C5.57402 5.01564 5.59274 5.02162 5.59274 5.02761C5.59274 5.0336 5.57402 5.03959 5.55531 5.04557C5.54408 5.04917 5.53285 5.05276 5.52566 5.05635C5.52247 5.05955 5.51927 5.06168 5.51714 5.06309C5.51288 5.06593 5.51288 5.06593 5.52566 5.06593C5.61266 5.08043 5.60641 5.08944 5.59822 5.10127C5.59558 5.10508 5.59274 5.10917 5.59274 5.11384V5.21922C5.59005 5.22997 5.59113 5.23996 5.59218 5.24962C5.59486 5.27442 5.5973 5.29703 5.53524 5.32461C5.49169 5.34203 5.52732 5.35944 5.56296 5.37686C5.56652 5.37861 5.57009 5.38035 5.57357 5.38209C5.62149 5.40125 5.65982 5.42999 5.52566 5.44915C5.50401 5.45457 5.51293 5.46303 5.51962 5.46938C5.52477 5.47427 5.52859 5.4779 5.51608 5.4779C5.5033 5.4779 5.51075 5.47896 5.52318 5.48073C5.54802 5.48428 5.59274 5.49067 5.53524 5.49706C5.48733 5.50664 5.51608 5.5258 5.51608 5.5258C5.48372 5.55815 5.51814 5.58747 5.551 5.61546C5.55312 5.61726 5.55523 5.61906 5.55732 5.62086C5.55389 5.62556 5.54956 5.62109 5.54536 5.61676C5.54165 5.61294 5.53804 5.60922 5.53525 5.61201C5.53157 5.61569 5.52648 5.61089 5.5216 5.6063C5.51377 5.59893 5.5065 5.59208 5.5065 5.62159C5.50046 5.66985 5.49443 5.65354 5.4884 5.63723C5.48485 5.62763 5.4813 5.61804 5.47775 5.62159C5.47373 5.62561 5.4714 5.62626 5.47004 5.62777C5.46817 5.62988 5.46817 5.63365 5.46817 5.65033C5.45111 5.73562 5.44164 5.71461 5.433 5.69545C5.43194 5.69309 5.43089 5.69076 5.42984 5.68865C5.42824 5.68386 5.42664 5.67828 5.42505 5.67269C5.41706 5.64474 5.40907 5.6168 5.40109 5.68865C5.37431 5.66189 5.35053 5.69196 5.32807 5.72036C5.31034 5.74279 5.29342 5.76417 5.27651 5.75572C5.26693 5.75093 5.25974 5.73656 5.25256 5.72219C5.24537 5.70781 5.23818 5.69344 5.2286 5.68865H5.18068H5.14235H5.10402H5.06569C5.06279 5.69155 5.05901 5.69972 5.05488 5.70864C5.04538 5.72918 5.03404 5.75369 5.02736 5.72698C5.01951 5.67987 5.00522 5.68423 4.99504 5.68734C4.9928 5.68803 4.99076 5.68865 4.98903 5.68865C4.98264 5.68865 4.97625 5.68972 4.96986 5.69078C4.95709 5.69291 4.94431 5.69504 4.93153 5.68865C4.92514 5.68227 4.91769 5.68227 4.90988 5.68227C4.89427 5.68227 4.87723 5.68227 4.86445 5.63117C4.85487 5.58327 4.83571 5.54495 4.81654 5.66949C4.80911 5.58036 4.79592 5.59488 4.7859 5.60591C4.783 5.60911 4.78036 5.61201 4.77821 5.61201C4.77083 5.60463 4.76202 5.61004 4.75289 5.61565C4.73832 5.62461 4.72291 5.63408 4.71113 5.59285C4.69811 5.55379 4.68951 5.55012 4.67932 5.54576C4.67452 5.54371 4.66936 5.54151 4.66322 5.53536C4.65522 5.52737 4.64889 5.51436 4.64283 5.50192C4.63438 5.48456 4.62647 5.4683 4.6153 5.4683C4.6107 5.4683 4.6061 5.46499 4.6015 5.46168C4.58694 5.45119 4.57237 5.44071 4.55781 5.53536C4.5347 5.50649 4.51508 5.54027 4.49684 5.57166C4.48482 5.59235 4.4734 5.61201 4.46198 5.61201H4.34698C4.34137 5.61481 4.33576 5.61105 4.33039 5.60745C4.31742 5.59875 4.30585 5.59098 4.29907 5.67907C4.29907 5.69823 4.28949 5.69823 4.28949 5.66949C4.27991 5.57369 4.26074 5.61201 4.26074 5.61201C4.25803 5.61472 4.25456 5.61436 4.25075 5.61398C4.24109 5.613 4.22928 5.6118 4.22241 5.65991C4.21657 5.68324 4.20719 5.65686 4.19857 5.63264C4.19304 5.61709 4.18783 5.60243 4.18408 5.60243C4.18088 5.60403 4.17769 5.60642 4.1745 5.60882C4.15852 5.62079 4.14255 5.63277 4.12658 5.54495C4.12658 5.5162 4.10742 5.54495 4.10742 5.57369C4.09783 5.65033 4.07867 5.64075 4.06908 5.59285C4.0595 5.54495 4.04992 5.54495 4.04034 5.54495C4.01159 5.54495 3.99242 5.57369 3.97326 5.60243C3.95656 5.6233 3.93805 5.62598 3.9193 5.6287C3.895 5.63223 3.87032 5.63581 3.84868 5.67907C3.83636 5.70371 3.82404 5.70195 3.81172 5.70019C3.79529 5.69784 3.77886 5.6955 3.76244 5.75572C3.75033 5.78597 3.74205 5.76273 3.73276 5.73667C3.72735 5.72146 3.72158 5.70529 3.71452 5.69823C3.70293 5.68084 3.68782 5.6845 3.67345 5.68797C3.66408 5.69024 3.65501 5.69244 3.64744 5.68865C3.639 5.68444 3.62871 5.67093 3.61819 5.65713C3.60482 5.6396 3.59109 5.62159 3.58036 5.62159C3.57557 5.62159 3.57078 5.62106 3.56599 5.62053C3.54203 5.61786 3.51808 5.6152 3.49412 5.67907C3.47311 5.73507 3.44699 5.6939 3.42323 5.65644C3.41447 5.64263 3.40604 5.62933 3.39829 5.62159C3.38844 5.61174 3.37858 5.6154 3.36872 5.61906C3.34983 5.62607 3.33094 5.63309 3.31205 5.54495C3.28627 5.57071 3.26327 5.54104 3.24006 5.5111C3.22012 5.48537 3.20003 5.45945 3.17789 5.4683C3.17516 5.46967 3.17262 5.47084 3.17026 5.47193C3.13946 5.48614 3.13819 5.48673 3.12039 5.72698V5.88026C3.12039 6.11019 3.12997 6.31138 3.15872 6.33055C3.16134 6.33577 3.16395 6.34527 3.16656 6.35477C3.17353 6.38011 3.1805 6.40545 3.18747 6.34971C3.19306 6.32735 3.19865 6.35064 3.20424 6.37392C3.20823 6.39056 3.21223 6.40719 3.21622 6.40719C3.21622 6.41677 3.23538 6.38803 3.23538 6.36887C3.24792 6.43151 3.26045 6.42452 3.27298 6.41754C3.27961 6.41384 3.28625 6.41014 3.29288 6.41677C3.30007 6.42396 3.30726 6.43518 3.31444 6.44641C3.32642 6.46512 3.3384 6.48383 3.35038 6.48383C3.38195 6.49015 3.40936 6.48814 3.43809 6.48604C3.45297 6.48495 3.46819 6.48383 3.48454 6.48383C3.48891 6.48383 3.49328 6.48583 3.49753 6.48777C3.51194 6.49434 3.52505 6.50031 3.53245 6.42635C3.54203 6.37845 3.5612 6.38803 3.5612 6.43593C3.57078 6.503 3.58995 6.48383 3.58995 6.48383H3.64744H3.70494C3.71032 6.37086 3.71872 6.40591 3.72845 6.4465C3.73605 6.47818 3.74445 6.51324 3.75285 6.48383C3.75626 6.47702 3.75967 6.47748 3.76265 6.47788C3.76804 6.4786 3.77202 6.47914 3.77202 6.43593C3.7816 6.40719 3.79119 6.38803 3.79119 6.41677C3.79864 6.49129 3.80609 6.48466 3.81354 6.47804C3.81567 6.47615 3.8178 6.47425 3.81993 6.47425C3.83271 6.46787 3.84549 6.47 3.85826 6.47212C3.88382 6.47638 3.90937 6.48064 3.93493 6.41677C3.95409 6.36887 3.98284 6.39761 4.00201 6.41677C4.01787 6.43263 4.03082 6.40763 4.04407 6.38205C4.05483 6.36128 4.06579 6.34013 4.07867 6.34013C4.08082 6.34228 4.08346 6.34298 4.08636 6.34375C4.09638 6.34642 4.10957 6.34992 4.117 6.41677C4.14454 6.38924 4.16892 6.41868 4.19376 6.4487C4.21215 6.4709 4.23079 6.49341 4.25116 6.49341C4.25705 6.49931 4.26295 6.47618 4.26885 6.45305C4.27253 6.4386 4.27622 6.42414 4.27991 6.41677C4.29455 6.40213 4.3036 6.43781 4.31132 6.46829C4.31371 6.47771 4.31597 6.48663 4.31824 6.49341C4.32554 6.41312 4.33284 6.42181 4.34014 6.4305C4.34242 6.43322 4.3447 6.43593 4.34698 6.43593C4.35657 6.42635 4.37573 6.40719 4.38532 6.50299C4.40355 6.40577 4.42564 6.42032 4.44669 6.43418C4.45883 6.44218 4.47063 6.44995 4.48114 6.43593C4.48434 6.43593 4.4886 6.44019 4.49286 6.44445C4.50137 6.45296 4.50989 6.46148 4.50989 6.43593C4.52102 6.35248 4.53538 6.3498 4.54922 6.34721C4.55921 6.34534 4.56893 6.34352 4.57697 6.31138C4.59672 6.25874 4.61195 6.26938 4.62886 6.2812C4.63657 6.28659 4.64463 6.29222 4.65363 6.29222C4.65729 6.29222 4.66095 6.28663 4.66408 6.28186C4.66914 6.27413 4.6728 6.26854 4.6728 6.29222C4.67931 6.36389 4.68583 6.36024 4.69235 6.35659C4.69541 6.35487 4.69848 6.35316 4.70155 6.35929C4.70514 6.36647 4.70873 6.3777 4.71233 6.38893C4.71832 6.40764 4.72431 6.42635 4.7303 6.42635C4.77821 6.45509 4.83571 6.48383 4.88362 6.50299H4.92195C4.9271 6.50557 4.93156 6.50538 4.93551 6.5052C4.94627 6.50474 4.95327 6.50443 4.96028 6.56048C4.96986 6.60838 4.98903 6.60838 4.99861 6.56048C5.00819 6.51258 5.01778 6.46467 5.01778 6.56048C5.02518 6.47164 5.03259 6.48005 5.03999 6.48847C5.04217 6.49094 5.04435 6.49341 5.04653 6.49341C5.07144 6.48345 5.09636 6.50716 5.12127 6.53088C5.14427 6.55277 5.16727 6.57466 5.19027 6.57006C5.19994 6.56684 5.20852 6.54519 5.21675 6.52444C5.23299 6.48349 5.24785 6.44603 5.26693 6.56048V6.54132C5.27651 6.44551 5.29568 6.44551 5.30526 6.50299C5.32132 6.5672 5.33065 6.56417 5.33889 6.5615C5.34048 6.56098 5.34204 6.56048 5.34359 6.56048C5.35695 6.5538 5.37147 6.54363 5.38634 6.53322C5.41415 6.51375 5.44319 6.49341 5.46817 6.49341H5.65772C5.6584 6.49342 5.6591 6.49343 5.65982 6.49343C5.70809 6.49946 5.69177 6.50549 5.67546 6.51152C5.66587 6.51507 5.65627 6.51862 5.65982 6.52217C5.66384 6.52619 5.66449 6.52852 5.66601 6.52988C5.66811 6.53175 5.67188 6.53175 5.68857 6.53175C5.77388 6.54881 5.75286 6.55827 5.7337 6.5669C5.73134 6.56797 5.729 6.56902 5.7269 6.57007C5.72211 6.57167 5.71652 6.57326 5.71093 6.57486C5.68298 6.58284 5.65503 6.59083 5.7269 6.59881C5.70012 6.62558 5.7302 6.64936 5.75861 6.67181C5.78104 6.68954 5.80243 6.70645 5.79398 6.72336C5.78919 6.73294 5.77481 6.74012 5.76044 6.74731C5.74606 6.7545 5.73169 6.76168 5.7269 6.77126V6.81916V6.85749V6.89581V6.93413C5.7298 6.93703 5.73797 6.94081 5.74689 6.94493C5.76744 6.95443 5.79195 6.96577 5.76523 6.97245C5.71811 6.9803 5.72248 6.99459 5.72559 7.00476C5.72627 7.007 5.7269 7.00904 5.7269 7.01077C5.7269 7.01716 5.72796 7.02355 5.72903 7.02993C5.73116 7.04271 5.73329 7.05548 5.7269 7.06826C5.72051 7.07464 5.72051 7.0821 5.72051 7.0899C5.72051 7.10551 5.72051 7.12255 5.6694 7.13532C5.62149 7.1449 5.58316 7.16406 5.70773 7.18322C5.61858 7.19065 5.6331 7.20384 5.64413 7.21385C5.64733 7.21675 5.65024 7.21939 5.65024 7.22154C5.64285 7.22892 5.64827 7.23773 5.65388 7.24685C5.66284 7.26142 5.67231 7.27683 5.63107 7.28861C5.592 7.30163 5.58833 7.31022 5.58398 7.32041C5.58192 7.32521 5.57972 7.33037 5.57357 7.33651C5.56557 7.34451 5.55256 7.35084 5.54012 7.35689C5.52276 7.36534 5.50649 7.37325 5.50649 7.38441C5.50649 7.38901 5.50318 7.39361 5.49987 7.39821C5.48938 7.41277 5.4789 7.42733 5.57357 7.4419C5.5447 7.46499 5.57848 7.48461 5.60988 7.50284C5.63057 7.51486 5.65024 7.52628 5.65024 7.5377V7.65267C5.65304 7.65828 5.64928 7.66388 5.64567 7.66925C5.63697 7.68222 5.62921 7.69379 5.71732 7.70057C5.73648 7.70057 5.73648 7.71015 5.70773 7.71015C5.61191 7.71973 5.65024 7.73889 5.65024 7.73889C5.65294 7.7416 5.65259 7.74507 5.6522 7.74887C5.65122 7.75853 5.65002 7.77034 5.69815 7.77721C5.72149 7.78305 5.69509 7.79243 5.67088 7.80104C5.65532 7.80657 5.64065 7.81179 5.64065 7.81554C5.64225 7.81873 5.64465 7.82192 5.64704 7.82512C5.65902 7.84108 5.671 7.85705 5.58316 7.87302C5.55441 7.87302 5.58316 7.89218 5.61191 7.89218C5.68857 7.90176 5.67898 7.92092 5.63107 7.9305C5.58316 7.94008 5.58316 7.94966 5.58316 7.95924C5.58316 7.98798 5.61191 8.00714 5.64065 8.02631C5.66152 8.043 5.66421 8.06151 5.66694 8.08026C5.67046 8.10454 5.67405 8.12922 5.71732 8.15085C5.74196 8.16317 5.7402 8.17549 5.73844 8.18781C5.73609 8.20423 5.73374 8.22065 5.79398 8.23708C5.82424 8.24918 5.80099 8.25746 5.77492 8.26674C5.75971 8.27216 5.74354 8.27792 5.73648 8.28498C5.71909 8.29657 5.72274 8.31167 5.72622 8.32604C5.72849 8.33541 5.73068 8.34448 5.7269 8.35204C5.72268 8.36048 5.70917 8.37077 5.69537 8.38129C5.67783 8.39466 5.65982 8.40838 5.65982 8.41911C5.65982 8.4239 5.65929 8.42869 5.65875 8.43348C5.65609 8.45743 5.65343 8.48138 5.71732 8.50533C5.77333 8.52633 5.73214 8.55244 5.69468 8.5762C5.68087 8.58496 5.66756 8.59339 5.65982 8.60114C5.64996 8.61099 5.65362 8.62084 5.65728 8.6307C5.6643 8.64959 5.67132 8.66847 5.58316 8.68736C5.60893 8.71313 5.57925 8.73612 5.5493 8.75933C5.52357 8.77926 5.49764 8.79935 5.50649 8.82149C5.50786 8.82422 5.50903 8.82675 5.51012 8.82911C5.52434 8.85991 5.52493 8.86117 5.76523 8.87897H5.91855C6.14854 8.87897 6.34978 8.86939 6.36894 8.84065C6.37417 8.83803 6.38367 8.83542 6.39318 8.83281C6.41852 8.82584 6.44386 8.81887 6.38811 8.81191C6.36575 8.80632 6.38904 8.80073 6.41233 8.79514C6.42897 8.79115 6.4456 8.78716 6.4456 8.78316C6.45519 8.78316 6.42644 8.764 6.40727 8.764C6.46993 8.75148 6.46294 8.73895 6.45595 8.72642C6.45225 8.71979 6.44855 8.71315 6.45519 8.70652C6.46237 8.69934 6.4736 8.69215 6.48483 8.68496C6.50355 8.67299 6.52227 8.66101 6.52227 8.64904C6.52858 8.61748 6.52657 8.59007 6.52447 8.56134C6.52338 8.54647 6.52227 8.53125 6.52227 8.51491C6.52227 8.51054 6.52426 8.50617 6.5262 8.50192C6.53277 8.48751 6.53875 8.4744 6.46477 8.46701C6.41686 8.45743 6.42644 8.43827 6.47435 8.43827C6.54143 8.42869 6.52227 8.40953 6.52227 8.40953V8.35204V8.29456C6.40926 8.28918 6.44433 8.28078 6.48492 8.27105C6.51661 8.26346 6.55168 8.25506 6.52227 8.24666C6.51545 8.24325 6.51591 8.23984 6.51631 8.23686C6.51703 8.23147 6.51757 8.2275 6.47435 8.2275C6.44561 8.21792 6.42644 8.20833 6.45519 8.20833C6.52972 8.20088 6.5231 8.19343 6.51647 8.18598C6.51458 8.18385 6.51268 8.18172 6.51268 8.17959C6.5063 8.16682 6.50843 8.15405 6.51056 8.14127C6.51481 8.11572 6.51907 8.09018 6.45519 8.06463C6.40727 8.04547 6.43602 8.01673 6.45519 7.99756C6.47106 7.9817 6.44605 7.96875 6.42046 7.95551C6.39968 7.94475 6.37853 7.9338 6.37853 7.92092C6.38068 7.91877 6.38138 7.91613 6.38215 7.91323C6.38482 7.90321 6.38833 7.89003 6.45519 7.8826C6.42765 7.85506 6.4571 7.83069 6.48712 7.80585C6.50933 7.78747 6.53185 7.76884 6.53185 7.74847C6.53775 7.74258 6.51461 7.73668 6.49148 7.73078C6.47702 7.7271 6.46256 7.72342 6.45519 7.71973C6.44055 7.70509 6.47624 7.69605 6.50672 7.68832C6.51614 7.68593 6.52506 7.68367 6.53185 7.68141C6.45154 7.67411 6.46023 7.66681 6.46892 7.65951C6.47164 7.65723 6.47435 7.65495 6.47435 7.65267C6.46477 7.64309 6.44561 7.62393 6.54143 7.61434C6.44418 7.59611 6.45873 7.57403 6.4726 7.55298C6.4806 7.54084 6.48837 7.52905 6.47435 7.51854C6.47435 7.51535 6.47861 7.51109 6.48287 7.50683C6.49139 7.49831 6.49991 7.4898 6.47435 7.4898C6.39088 7.47867 6.3882 7.46431 6.38561 7.45048C6.38374 7.44049 6.38192 7.43077 6.34978 7.42273C6.29712 7.40299 6.30776 7.38777 6.31959 7.37086C6.32498 7.36315 6.33061 7.35509 6.33061 7.34609C6.33061 7.34243 6.32502 7.33877 6.32024 7.33565C6.31251 7.33059 6.30692 7.32693 6.33061 7.32693C6.40229 7.32041 6.39864 7.3139 6.39499 7.30738C6.39328 7.30432 6.39156 7.30125 6.39769 7.29819C6.40488 7.2946 6.41611 7.291 6.42734 7.28741C6.44605 7.28142 6.46477 7.27543 6.46477 7.26945C6.49352 7.22154 6.52227 7.16406 6.54143 7.11616V7.07784C6.54401 7.07269 6.54381 7.06823 6.54364 7.06428C6.54318 7.05353 6.54287 7.04652 6.59893 7.03952C6.64684 7.02994 6.64684 7.01077 6.59893 7.00119C6.55101 6.99161 6.5031 6.98203 6.59893 6.98203C6.51007 6.97463 6.51849 6.96723 6.5269 6.95982C6.52937 6.95765 6.53185 6.95547 6.53185 6.95329C6.52188 6.92838 6.5456 6.90347 6.56932 6.87856C6.59122 6.85557 6.61311 6.83258 6.60851 6.80958C6.60529 6.79992 6.58364 6.79133 6.56288 6.78311C6.52193 6.76687 6.48445 6.75201 6.59893 6.73294H6.57976C6.48394 6.72336 6.48394 6.7042 6.54143 6.69462C6.60565 6.67857 6.60263 6.66924 6.59995 6.661C6.59943 6.6594 6.59893 6.65785 6.59893 6.6563C6.59225 6.64294 6.58208 6.62842 6.57166 6.61355C6.55219 6.58575 6.53185 6.55672 6.53185 6.53175V6.33056C6.53185 6.33031 6.53185 6.33005 6.53185 6.3298C6.5337 6.33033 6.53548 6.33112 6.5372 6.3319C6.54791 6.33672 6.55666 6.34065 6.57018 6.27306C6.57977 6.22516 6.59893 6.26348 6.59893 6.3018C6.60281 6.32509 6.60827 6.32479 6.61402 6.32448C6.62247 6.32402 6.63156 6.32352 6.63726 6.39761C6.64685 6.33055 6.65643 6.32097 6.66601 6.32097C6.6728 6.32097 6.67839 6.31976 6.68362 6.31864C6.69317 6.31658 6.70155 6.31478 6.71393 6.32097C6.71669 6.32372 6.72024 6.32172 6.72413 6.31952C6.73375 6.31408 6.74543 6.30748 6.75226 6.36887C6.75696 6.41586 6.76166 6.3914 6.76749 6.36106C6.77355 6.32954 6.78082 6.29168 6.79059 6.32097C6.79059 6.32493 6.79223 6.32233 6.79416 6.31927C6.79688 6.31495 6.80017 6.30974 6.80017 6.32097C6.81467 6.40794 6.82368 6.4017 6.83551 6.3935C6.83932 6.39087 6.84342 6.38803 6.84808 6.38803C6.86725 6.38803 6.88642 6.38696 6.90558 6.3859C6.94391 6.38377 6.98224 6.38164 7.02057 6.38803C7.03919 6.39423 7.06183 6.41249 7.08328 6.4298C7.09495 6.43921 7.10627 6.44834 7.1164 6.45509C7.12868 6.54105 7.13703 6.53257 7.14649 6.52296C7.15179 6.51757 7.15743 6.51184 7.16431 6.52216C7.17135 6.5327 7.17709 6.54711 7.18249 6.56066C7.1918 6.58405 7.20009 6.60487 7.21223 6.5988H7.27931C7.2841 6.5964 7.28889 6.59581 7.29368 6.59521C7.30806 6.59341 7.32243 6.59161 7.3368 6.54132C7.34944 6.49709 7.36625 6.50703 7.38172 6.51618C7.38972 6.5209 7.39736 6.52542 7.40388 6.52216C7.41347 6.51258 7.43263 6.45509 7.43263 6.45509C7.43699 6.45945 7.44134 6.4737 7.4457 6.48795C7.45093 6.50505 7.45615 6.52216 7.46138 6.52216C7.47096 6.53174 7.48055 6.51258 7.49013 6.46467C7.4951 6.45473 7.50265 6.48346 7.50876 6.50673C7.51444 6.52832 7.51888 6.54521 7.51888 6.52216C7.53281 6.43854 7.55182 6.44615 7.56853 6.45282C7.57479 6.45533 7.58073 6.4577 7.58596 6.45509H7.64345C7.64711 6.45509 7.65077 6.45929 7.6539 6.46287C7.65896 6.46866 7.66262 6.47286 7.66262 6.45509C7.67622 6.35991 7.68982 6.37087 7.70342 6.38184C7.70899 6.38632 7.71455 6.39081 7.72011 6.38803C7.73289 6.37525 7.74567 6.37951 7.75845 6.38377C7.76483 6.3859 7.77122 6.38803 7.77761 6.38803C7.78719 6.38803 7.79678 6.43593 7.79678 6.43593C7.82552 6.35929 7.82553 6.35929 7.87344 6.43593C7.87344 6.44551 7.8926 6.41677 7.8926 6.39761V6.36887C7.90349 6.45051 7.91747 6.43939 7.93103 6.42861C7.94134 6.42041 7.95141 6.41241 7.95968 6.44551C7.98252 6.5216 8.00535 6.51309 8.02338 6.50636C8.02805 6.50462 8.0324 6.50299 8.03635 6.50299C8.06309 6.49297 8.08983 6.50043 8.11657 6.50789C8.16649 6.52182 8.21641 6.53575 8.26633 6.43593C8.28458 6.44688 8.30284 6.44671 8.32109 6.44653C8.35075 6.44625 8.38041 6.44597 8.41007 6.49341C8.43663 6.53988 8.46779 6.52655 8.49718 6.51399C8.5102 6.50842 8.52288 6.50299 8.53465 6.50299C8.54043 6.42209 8.5497 6.42833 8.56035 6.43551C8.56735 6.44023 8.57496 6.44536 8.58256 6.42635C8.59215 6.37845 8.61131 6.35929 8.63048 6.35929C8.63808 6.36119 8.64531 6.36347 8.65231 6.36567C8.68059 6.37458 8.70516 6.38233 8.73589 6.35929C8.74917 6.34601 8.76449 6.37362 8.77997 6.40151C8.79428 6.42728 8.80872 6.4533 8.8218 6.4475L8.77422 6.50299C8.78101 6.50299 8.78659 6.5078 8.79183 6.51231C8.80138 6.52053 8.80976 6.52774 8.82213 6.50299C8.83801 6.47918 8.84732 6.4093 8.85549 6.3479C8.85718 6.33521 8.85882 6.32287 8.86046 6.31138C8.86246 6.30139 8.86446 6.29222 8.86638 6.28346C8.87363 6.25023 8.87963 6.22274 8.87963 6.17726V5.82278C8.87963 5.63117 8.8413 5.52578 8.82213 5.56411V5.55453C8.81255 5.44914 8.79338 5.4683 8.79338 5.50662C8.78053 5.57087 8.76337 5.56618 8.74768 5.5619C8.73997 5.5598 8.73262 5.55779 8.7263 5.56411H8.68797C8.66881 5.56411 8.65922 5.59285 8.64964 5.62159C8.64602 5.62883 8.6424 5.61282 8.63878 5.59682C8.63282 5.57046 8.62686 5.54409 8.62089 5.62159C8.60676 5.52267 8.59262 5.56039 8.57849 5.59812C8.56388 5.63712 8.54926 5.67612 8.53465 5.56411C8.52972 5.55425 8.52733 5.54947 8.52616 5.54975C8.52507 5.55001 8.52507 5.5548 8.52507 5.56411C8.51876 5.65234 8.50831 5.64107 8.49917 5.63121C8.49441 5.62608 8.49001 5.62134 8.48674 5.63117C8.4798 5.64157 8.47412 5.65948 8.46879 5.67631C8.45938 5.70599 8.45105 5.73227 8.43882 5.70781C8.43469 5.70368 8.43056 5.70668 8.42719 5.70912C8.42276 5.71233 8.41966 5.71458 8.41966 5.69823C8.40049 5.61201 8.39091 5.60243 8.37174 5.69823V5.68865C8.36216 5.60243 8.34299 5.64075 8.34299 5.64075H8.2855C8.27911 5.64075 8.27272 5.63969 8.26633 5.63862C8.25355 5.63649 8.24078 5.63436 8.228 5.64075C8.21929 5.64511 8.21058 5.65936 8.20187 5.67361C8.19141 5.69071 8.18096 5.70781 8.1705 5.70781C8.15806 5.70781 8.14461 5.70882 8.13081 5.70986C8.10208 5.71201 8.07182 5.71428 8.04593 5.70781C8.03511 5.70511 8.02352 5.70699 8.0116 5.70892C7.9813 5.71383 7.94886 5.71908 7.92135 5.65033C7.90257 5.61904 7.88788 5.62863 7.87193 5.63905C7.86347 5.64457 7.85466 5.65033 7.84469 5.65033C7.83671 5.65033 7.82708 5.63042 7.81716 5.60993C7.80326 5.58119 7.7888 5.55131 7.77761 5.57369C7.77355 5.58182 7.76948 5.59296 7.76541 5.60411C7.75031 5.64551 7.73521 5.68691 7.72011 5.57369C7.70717 5.67079 7.69422 5.65854 7.68127 5.64629C7.67505 5.64041 7.66883 5.63454 7.66262 5.64075C7.6544 5.64075 7.65323 5.59851 7.65306 5.59852C7.65304 5.59852 7.65304 5.59969 7.65304 5.60243C7.64267 5.64906 7.63511 5.64245 7.62732 5.63564C7.6207 5.62986 7.61392 5.62394 7.60512 5.65033C7.58596 5.70781 7.57637 5.71739 7.55721 5.70781C7.55242 5.70302 7.54523 5.68865 7.53804 5.67428C7.53086 5.65991 7.52367 5.64554 7.51888 5.64075C7.51769 5.63956 7.51635 5.63793 7.51492 5.63619C7.50483 5.62387 7.49013 5.60593 7.49013 5.69823C7.48202 5.62527 7.47391 5.62777 7.4658 5.63026C7.46433 5.63072 7.46285 5.63117 7.46138 5.63117H7.3368C7.3338 5.63418 7.33079 5.6353 7.32808 5.63631C7.32215 5.63851 7.31764 5.64019 7.31764 5.65991C7.29847 5.72697 7.27931 5.71739 7.26014 5.65991C7.25056 5.63117 7.22181 5.61201 7.22181 5.65991C7.21223 5.70781 7.20265 5.70781 7.19306 5.70781C7.187 5.70781 7.17997 5.70589 7.17259 5.70388C7.15665 5.69952 7.13908 5.69472 7.12598 5.70781C7.10682 5.73656 7.07807 5.61201 7.0589 5.48746C7.04932 5.42998 7.03016 5.38208 7.03016 5.42998C7.02421 5.46567 7.01456 5.47181 7.00811 5.47593C7.00416 5.47844 7.00141 5.4802 7.00141 5.48746C6.99781 5.49465 6.99422 5.50588 6.99063 5.5171C6.98464 5.53581 6.97865 5.55453 6.97266 5.55453C6.96667 5.55453 6.96068 5.53581 6.95469 5.5171C6.9511 5.50588 6.94751 5.49465 6.94391 5.48746C6.94072 5.48427 6.93859 5.48108 6.93717 5.47895C6.93433 5.47469 6.93433 5.47469 6.93433 5.48746C6.91983 5.57444 6.91081 5.5682 6.89898 5.56C6.89518 5.55736 6.89108 5.55453 6.88641 5.55453H6.781C6.77026 5.55184 6.76026 5.55292 6.7506 5.55396C6.7258 5.55664 6.70318 5.55909 6.67559 5.49704C6.65817 5.4535 6.64075 5.48913 6.62332 5.52476C6.62158 5.52832 6.61984 5.53188 6.6181 5.53536C6.59893 5.58327 6.57018 5.62159 6.55102 5.48746C6.54561 5.46582 6.53714 5.47474 6.53079 5.48142C6.5259 5.48657 6.52227 5.49039 6.52227 5.47788C6.52227 5.46511 6.52121 5.47256 6.51943 5.48498C6.51588 5.50982 6.50949 5.55453 6.5031 5.49704C6.49352 5.44914 6.47436 5.47788 6.47436 5.47788C6.442 5.44553 6.41267 5.47994 6.38467 5.5128C6.38242 5.51544 6.38018 5.51807 6.37795 5.52065C6.37227 5.51327 6.37299 5.50565 6.37367 5.49837C6.37435 5.49099 6.37501 5.48396 6.36894 5.4779C6.36612 5.47225 6.36829 5.46744 6.3703 5.46297C6.37511 5.45226 6.37905 5.44351 6.31145 5.42999C6.26353 5.42041 6.30186 5.40125 6.34019 5.40125C6.36349 5.39737 6.36319 5.39192 6.36287 5.38616C6.36241 5.37772 6.36192 5.36863 6.43602 5.36293C6.36894 5.35335 6.35936 5.34377 6.35936 5.33419C6.35936 5.3274 6.35816 5.32181 6.35703 5.31658C6.35498 5.30704 6.35317 5.29866 6.35936 5.28629C6.36212 5.28353 6.36011 5.27997 6.35791 5.27608C6.35247 5.26646 6.34587 5.25478 6.40727 5.24796C6.45427 5.24326 6.42981 5.23857 6.39947 5.23274C6.36794 5.22668 6.33006 5.2194 6.35936 5.20964C6.36333 5.20964 6.36072 5.208 6.35767 5.20607C6.35335 5.20335 6.34813 5.20006 6.35936 5.20006C6.44636 5.18556 6.44011 5.17655 6.43192 5.16472C6.42928 5.16092 6.42644 5.15682 6.42644 5.15216C6.42644 5.133 6.42537 5.11384 6.42431 5.09468C6.42218 5.05635 6.42005 5.01803 6.42644 4.97971C6.43265 4.96109 6.45091 4.93846 6.46822 4.91702C6.47763 4.90535 6.48677 4.89403 6.49352 4.8839C6.5795 4.87162 6.57102 4.86328 6.5614 4.85382C6.55602 4.84853 6.55027 4.84288 6.5606 4.836C6.57114 4.82897 6.58556 4.82323 6.59911 4.81784C6.6225 4.80852 6.64333 4.80023 6.63726 4.7881V4.72104C6.63486 4.71625 6.63427 4.71146 6.63367 4.70667C6.63187 4.69229 6.63007 4.67792 6.57976 4.66355C6.53553 4.65092 6.54547 4.63412 6.55462 4.61864C6.55934 4.61065 6.56386 4.60302 6.5606 4.59649C6.55101 4.58691 6.49352 4.56775 6.49352 4.56775C6.49787 4.56339 6.51213 4.55904 6.52638 4.55468C6.54349 4.54946 6.5606 4.54423 6.5606 4.53901C6.57018 4.52943 6.55102 4.51985 6.5031 4.51026C6.49316 4.5053 6.52189 4.49775 6.54516 4.49164C6.56676 4.48596 6.58366 4.48152 6.5606 4.48152C6.47697 4.46759 6.48457 4.44859 6.49125 4.43189C6.49376 4.42562 6.49613 4.41969 6.49352 4.41446V4.35698C6.49352 4.35332 6.49771 4.34966 6.5013 4.34653C6.50709 4.34148 6.51129 4.33782 6.49352 4.33782C6.39831 4.32422 6.40928 4.31062 6.42025 4.29702C6.42473 4.29146 6.42922 4.2859 6.42644 4.28033C6.41366 4.26756 6.41792 4.25479 6.42218 4.24201C6.42431 4.23562 6.42644 4.22924 6.42644 4.22285C6.42644 4.21327 6.47435 4.20369 6.47435 4.20369C6.43707 4.18971 6.41792 4.18253 6.4169 4.17334C6.41582 4.16362 6.43497 4.15165 6.47435 4.12705C6.48394 4.12705 6.45519 4.10788 6.43602 4.10788H6.40727C6.48893 4.097 6.47781 4.08302 6.46703 4.06947C6.45883 4.05916 6.45082 4.0491 6.48394 4.04082C6.56005 4.01799 6.55153 3.99517 6.5448 3.97714C6.54306 3.97247 6.54143 3.96812 6.54143 3.96418C6.5314 3.93744 6.53887 3.9107 6.54633 3.88397C6.56026 3.83406 6.57419 3.78415 6.47435 3.73424C6.48531 3.716 6.48513 3.69775 6.48496 3.6795C6.48467 3.64985 6.48439 3.62019 6.53185 3.59054C6.57833 3.56398 6.565 3.53283 6.55243 3.50345C6.54686 3.49043 6.54143 3.47776 6.54143 3.46599C6.4605 3.46021 6.46675 3.45095 6.47393 3.4403C6.47865 3.43329 6.48378 3.42569 6.46477 3.41809C6.41686 3.40851 6.39769 3.38935 6.39769 3.37019C6.39959 3.36259 6.40187 3.35536 6.40408 3.34836C6.41299 3.32009 6.42074 3.29552 6.39769 3.2648C6.38441 3.25152 6.41203 3.2362 6.43992 3.22073C6.4657 3.20642 6.49172 3.19199 6.48592 3.17891Z" fill="black"/>
</svg>
