<svg width="24" height="24" viewBox="0 0 24 24" fill="none" xmlns="http://www.w3.org/2000/svg">
<path d="M2.03118 9.06251C2.02821 8.8 2.18467 8.54732 2.22923 8.26318C2.28864 7.98003 2.34707 7.68999 2.4659 7.42158C2.51937 7.28394 2.54809 7.14629 2.56195 6.99783C2.56987 6.85035 2.72633 6.74515 2.68375 6.57899C2.67979 6.56425 2.69959 6.54262 2.7085 6.52394C2.85209 6.19654 3.0135 5.86324 3.24323 5.59778C3.53139 5.30774 3.71855 4.95183 4.0176 4.68244C4.35032 4.10039 4.94249 3.75137 5.45939 3.35514C5.6307 3.24404 5.79805 3.11426 6.0159 3.07297C6.19514 3.03069 6.34863 2.84782 6.5645 2.86552C6.58232 2.86749 6.60411 2.82914 6.62688 2.81243C6.68036 2.77212 6.73185 2.71509 6.79225 2.69838C7.16557 2.61972 7.16359 2.62857 7.43888 2.46536C7.47156 2.4457 7.52899 2.47618 7.56959 2.4634C7.73694 2.42407 7.90627 2.39064 8.06867 2.33657C8.21622 2.28741 8.38555 2.31101 8.5123 2.18909C8.54003 2.16156 8.61033 2.17041 8.65984 2.16353L9.14407 2.09176C9.33024 2.07209 9.52036 2.11142 9.70059 2.01114C9.77981 1.96788 9.89764 2.06619 9.94419 2.04358C10.0323 2.00622 10.1145 1.99934 10.2007 2.01114C10.2858 2.02293 10.366 2.06914 10.4492 2.07504C10.5215 2.07996 10.5987 2.03473 10.673 2.03571C10.8582 2.04063 11.0463 2.12322 11.2206 2.09765C11.4097 2.07308 11.5811 2.10847 11.7543 2.15271C11.9365 2.19204 12.1138 2.25201 12.297 2.28741C12.4386 2.32084 12.5436 2.41227 12.6624 2.48011C12.7792 2.54894 12.9496 2.53124 13.0218 2.67282C13.0248 2.67871 13.0397 2.68068 13.0486 2.6856L13.7675 3.09952C14.1784 3.33941 14.5736 3.60094 14.9449 3.89786C15.0449 3.98635 15.1736 4.05615 15.2073 4.20461C15.2142 4.23509 15.2746 4.25377 15.2915 4.28622C15.3509 4.4101 15.5529 4.35406 15.5796 4.50547C15.6044 4.63623 15.7123 4.6962 15.7846 4.78567C15.8628 4.88891 15.9688 4.97051 16.0381 5.08161C16.0896 5.15535 16.15 5.21139 16.2332 5.24187C16.2104 5.38246 16.351 5.45423 16.3807 5.57418C16.4025 5.65185 16.4322 5.77082 16.4916 5.79835C16.6214 5.86226 16.655 5.9881 16.7263 6.0874C16.8402 6.2339 16.8828 6.41775 17.0303 6.54753C17.0917 6.60357 17.1205 6.70386 17.1502 6.78841C17.1809 6.86608 17.1749 6.95555 17.1977 7.03519C17.2432 7.18267 17.2997 7.3213 17.4037 7.44714C17.4997 7.55628 17.4522 7.73915 17.5878 7.83943C17.6057 7.85221 17.6126 7.89646 17.6106 7.92497C17.6047 8.07835 17.6106 8.20911 17.7116 8.35364C17.7829 8.47358 17.7681 8.64859 17.7918 8.79803C17.8126 8.95829 17.872 9.11953 17.8443 9.27881C17.8314 9.38008 17.977 9.42137 17.8938 9.54623C17.8483 9.61309 17.88 9.73795 17.881 9.83627C17.8869 9.93754 17.9008 10.0437 17.874 10.1391C17.7473 10.6366 17.779 11.1488 17.6374 11.6375C17.569 11.838 17.5968 12.0809 17.4235 12.2401C17.467 12.4112 17.3225 12.5577 17.3343 12.715C17.3403 12.8153 17.3086 12.89 17.2799 12.9697C17.171 13.2263 17.0412 13.474 16.9194 13.7248C16.7709 13.9607 16.6342 14.2045 16.4798 14.4366C16.2649 14.7345 16.0767 15.054 15.8242 15.3273C15.7569 15.406 15.6955 15.4896 15.5777 15.5318C15.4885 15.5604 15.3737 15.6547 15.344 15.7835C15.338 15.8081 15.3133 15.8474 15.2944 15.8504C15.0499 15.8907 14.9895 16.1355 14.8201 16.2594C14.5072 16.5229 14.121 16.6556 13.7814 16.865C13.7111 16.9142 13.5982 16.9142 13.5823 17.0263C13.4873 16.9869 13.4605 17.041 13.4021 17.1069C13.3417 17.1757 13.2169 17.2396 13.1328 17.2318C13.0199 17.2239 12.9397 17.2701 12.8476 17.2976L12.5594 17.3999C12.1514 17.5326 11.7256 17.6142 11.3028 17.6653C11.2196 17.6732 11.1335 17.6516 11.0493 17.6486C10.9651 17.6447 10.881 17.7017 10.7938 17.6358C10.7621 17.6132 10.6799 17.6427 10.6205 17.6437C10.4106 17.6545 10.1838 17.6172 9.99766 17.688C9.8105 17.7538 9.61444 17.6585 9.43421 17.7637C9.38371 17.7922 9.29558 17.7558 9.22527 17.7587C8.93711 17.7637 8.6648 17.6132 8.36673 17.6968C8.28058 17.6044 8.16175 17.5837 8.04788 17.5621C7.9647 17.5444 7.88152 17.4785 7.78942 17.5464C7.77853 17.5542 7.74882 17.5464 7.73298 17.5385C7.63792 17.4943 7.56563 17.4186 7.45373 17.391C7.35966 17.3704 7.26856 17.395 7.16953 17.3576C6.80513 17.2377 6.52192 16.9663 6.16048 16.8434C6.10503 16.7294 5.99907 16.6802 5.90104 16.6183C5.72973 16.5072 5.5089 16.4904 5.35442 16.34C5.20589 16.2034 5.04646 16.0637 4.86921 15.9802C4.57808 15.816 4.34735 15.579 4.12653 15.3401C4.06711 15.2811 3.97997 15.231 3.99086 15.1199C3.99384 15.0933 3.92551 15.0324 3.88986 15.0294C3.81262 15.0245 3.79579 14.9567 3.75123 14.9272C3.61754 14.8416 3.7037 14.5988 3.48881 14.5762C3.38781 14.4484 3.29374 14.3156 3.21353 14.175L2.96102 13.7592C2.92141 13.6943 2.87883 13.6333 2.89269 13.5379C2.90358 13.474 2.85605 13.36 2.80258 13.3285C2.67583 13.2518 2.64909 13.124 2.59562 13.0119C2.46392 12.661 2.31241 12.3149 2.24111 11.9452C2.20645 11.784 2.18764 11.6207 2.18071 11.4566C2.17477 11.2904 2.0906 11.1292 2.14209 10.96C2.14605 10.9482 2.14011 10.9315 2.13615 10.9188C2.11535 10.8558 2.07673 10.7939 2.07574 10.73C2.07673 10.6464 2.14209 10.5314 2.10941 10.4871C2.04405 10.3977 2.10743 10.3318 2.1104 10.261C2.11931 10.0555 2.27181 9.93066 2.46392 9.95425C2.5065 9.95917 2.55403 9.98178 2.5877 10.0083C2.80357 10.1765 2.79367 10.1745 2.81842 10.4439C2.83922 10.7811 2.79862 11.1272 2.89566 11.4595C2.8511 11.6994 2.97092 11.9186 3.01746 12.1458C3.08182 12.3768 3.07588 12.6472 3.22937 12.8419C3.39276 13.0287 3.47099 13.2459 3.58487 13.4504C3.67597 13.6019 3.7334 13.7749 3.81856 13.9332C3.90768 14.0974 4.05523 14.2252 4.14039 14.3904C4.19584 14.4907 4.2107 14.6342 4.31863 14.6853C4.54837 14.7974 4.64244 15.0383 4.84742 15.1602C5.12766 15.3283 5.33363 15.579 5.61882 15.7236L6.06047 15.9723C6.12582 16.0136 6.1892 16.048 6.2397 16.1267C6.29119 16.2053 6.39616 16.2761 6.51796 16.2722C6.56945 16.2692 6.64273 16.284 6.66649 16.3194C6.76651 16.4649 6.93287 16.5042 7.07744 16.5711C7.17052 16.6104 7.24875 16.7215 7.31906 16.7117C7.4369 16.693 7.51513 16.748 7.60722 16.7746C7.67357 16.7923 7.75279 16.7972 7.78942 16.8837C7.79933 16.9073 7.8627 16.9289 7.88746 16.9171C8.02609 16.8503 8.13997 16.9299 8.26078 16.9575C8.54795 17.0381 8.84799 17.0499 9.14011 17.1118C9.38668 17.1393 9.62731 17.0371 9.86992 17.0941C10.0194 16.9997 10.1828 17.0253 10.3423 17.0223C10.4631 17.0155 10.5869 17.0499 10.7096 17.0548C10.8324 17.0548 10.9463 17.0194 11.081 17.044C11.2483 17.0745 11.4286 17.0017 11.5999 16.9604C11.6949 16.9417 11.7831 16.8621 11.892 16.9309C11.9068 16.9398 11.9494 16.927 11.9623 16.9112C12.0593 16.7913 12.2118 16.7588 12.3307 16.7569C12.5228 16.749 12.6862 16.6733 12.8525 16.6065L13.2595 16.4157C13.3605 16.3764 13.4437 16.3115 13.5596 16.2869C13.6497 16.2702 13.721 16.164 13.8051 16.106C13.8883 16.0451 13.9844 16.0038 14.0656 15.9408L14.3359 15.7403L14.6043 15.5377C14.6944 15.4561 14.7795 15.3686 14.8766 15.2949C14.9667 15.2241 15.0825 15.1808 15.1667 15.1012C15.3905 14.8652 15.539 14.5791 15.7519 14.3373C15.747 14.2252 15.8391 14.1888 15.9054 14.1239C15.9678 14.0659 16.051 14.002 16.0292 13.8889C16.0243 13.8585 16.051 13.8231 16.0649 13.7906C16.0956 13.7189 16.1896 13.6982 16.1936 13.593C16.1956 13.5193 16.2787 13.4534 16.3144 13.3787C16.3451 13.2971 16.4342 13.2312 16.3837 13.125C16.5719 13.0464 16.4491 12.8291 16.5689 12.718C16.6035 12.6806 16.6283 12.6344 16.658 12.5921C16.6729 12.5705 16.6986 12.5508 16.7006 12.5282C16.7382 12.1143 16.9303 11.7486 16.9897 11.3445C16.9927 11.2943 16.9739 11.2422 16.9689 11.1911C16.967 11.1665 16.968 11.14 16.9769 11.1174C17.0591 10.9079 17.0581 10.906 17.0393 10.6975C17.0333 10.6454 17.0432 10.5894 17.0422 10.5363C17.0343 10.3977 17.065 10.263 17.0155 10.1184C16.9729 9.97588 17.063 9.82251 17.0987 9.66913C17.1313 9.53444 17.169 9.39876 17.1571 9.25226C17.0907 8.88947 17.063 8.51783 16.9541 8.16388C16.9422 8.11964 16.9462 8.0518 16.9165 8.0341C16.7897 7.9584 16.7135 7.88859 16.8372 7.74406C16.8432 7.73718 16.8293 7.7008 16.8174 7.69589C16.6847 7.64476 16.6937 7.51892 16.662 7.42158C16.5431 7.04797 16.2609 6.75892 16.1084 6.40694C16.0817 6.34991 16.0153 6.29191 16.0252 6.24275C16.047 6.13755 15.9272 6.16802 15.9143 6.09625C15.9034 6.03628 15.8252 5.98712 15.8193 5.93501C15.8044 5.73641 15.6589 5.59876 15.5341 5.4916C15.4202 5.38836 15.2756 5.30774 15.2142 5.17993C15.0924 4.92627 14.8686 4.76699 14.6726 4.58412C14.4815 4.38257 14.2398 4.24001 14.021 4.07483C13.9319 4.00601 13.8447 3.91556 13.7071 3.93915C13.6794 3.94407 13.6417 3.90966 13.614 3.88508C13.5496 3.82805 13.4972 3.75235 13.4249 3.70909C13.3546 3.6619 13.2575 3.66583 13.1753 3.64027C13.109 3.62159 13.0555 3.58324 12.9713 3.59799C12.91 3.6088 12.8426 3.54391 12.7901 3.46329C12.6871 3.30205 12.5574 3.16146 12.3544 3.10247C12.1762 3.04642 11.9999 2.98055 11.8157 2.94417C11.7395 2.92746 11.6692 2.90091 11.5771 2.92648C11.4949 2.94909 11.3781 2.89698 11.2929 2.85765C11.1592 2.78883 11.0265 2.7613 10.88 2.79571C10.8295 2.80751 10.773 2.79866 10.7195 2.7908C10.3947 2.77703 10.069 2.73771 9.74317 2.75737C9.66395 2.7613 9.58275 2.78392 9.51442 2.71706C9.46689 2.80161 9.3847 2.779 9.31538 2.77605C9.20943 2.76818 9.10347 2.74852 8.99851 2.75835C8.87374 2.76917 8.75293 2.79473 8.63905 2.86257C8.53408 2.92058 8.38357 2.87633 8.28058 2.97662C8.26177 2.99432 8.20334 2.96089 8.17166 2.97269C8.04094 3.02479 7.86864 2.98743 7.77754 3.13098C7.77061 3.14376 7.74189 3.15359 7.72704 3.14966C7.53889 3.09558 7.41412 3.23421 7.27648 3.31582C7.12299 3.39742 6.94772 3.3925 6.79126 3.46624C6.615 3.55178 6.44864 3.66779 6.27139 3.7317C5.95154 3.82215 5.70596 4.0355 5.45048 4.22624C5.17816 4.40911 4.94744 4.64606 4.71473 4.87416C4.62165 4.98231 4.55629 5.11307 4.46816 5.22319C4.36518 5.34117 4.26417 5.46308 4.17109 5.58991L3.90372 5.94583C3.86609 6.00383 3.85421 6.0874 3.76212 6.10117C3.7433 6.10412 3.71657 6.13853 3.71657 6.15819C3.71657 6.30764 3.64923 6.40694 3.51951 6.48461C3.48287 6.50722 3.47792 6.56523 3.4492 6.59964C3.36998 6.69698 3.38484 6.82184 3.35513 6.93097C3.33137 7.03224 3.20362 7.10696 3.27591 7.23576C3.28482 7.25346 3.26799 7.29967 3.24918 7.3095C3.01251 7.44321 3.20065 7.75783 2.98973 7.90432C3.06796 8.01247 2.93428 8.06163 2.9323 8.12947C2.93032 8.22681 2.93428 8.32021 2.90754 8.41459C2.87883 8.5021 2.86397 8.59255 2.85704 8.68398C2.84516 8.85014 2.77188 9.01237 2.8303 9.18639C2.84714 9.2444 2.86694 9.34861 2.7798 9.41055C2.76495 9.42137 2.76495 9.45873 2.76792 9.48233C2.79069 9.66618 2.6887 9.88543 2.5362 9.93262C2.44708 9.96015 2.33915 9.9572 2.25002 9.93459C2.20546 9.92378 2.18071 9.83726 2.151 9.7822C2.09951 9.68683 2.02524 9.59146 2.00741 9.48429C1.98959 9.35845 2.00642 9.22178 2.03118 9.06054V9.06251Z" fill="black"/>
<path d="M21.9115 19.6769C21.8639 19.6602 21.8432 19.6169 21.8035 19.5923C21.7679 19.5697 21.7659 19.5137 21.6788 19.5402C21.6402 19.552 21.6342 19.5019 21.6392 19.4616C21.6471 19.3996 21.5629 19.4163 21.6144 19.318C21.5609 19.3357 21.5312 19.3278 21.5124 19.3033C21.4857 19.2688 21.4471 19.2453 21.4223 19.2089C21.4005 19.1764 21.3431 19.1774 21.3678 19.0997C21.3956 19.0132 21.246 19.1135 21.252 19.0457C21.254 19.028 21.2203 19.0339 21.2272 19.0142C21.2629 18.9198 21.2035 18.9129 21.1718 18.8805C21.0628 18.7664 20.944 18.6612 20.839 18.5442C20.7786 18.4764 20.7361 18.3889 20.6856 18.3102C20.6856 18.3102 20.6767 18.3073 20.6786 18.3024C20.7311 18.1942 20.641 18.2149 20.6271 18.1657C20.6143 18.1166 20.6182 18.0536 20.5776 18.0281C20.5261 17.9946 20.4935 17.9415 20.4459 17.9032C20.4004 17.8668 20.3697 17.8177 20.2885 17.8147C20.2132 17.8118 20.1994 17.7341 20.1508 17.6977C20.131 17.683 20.0785 17.7017 20.0617 17.684C20.0429 17.6633 20.0548 17.6132 20.0409 17.5886C20.0271 17.563 19.9993 17.5522 19.9478 17.562C19.9201 17.5679 19.9716 17.4627 19.9231 17.4736C19.8132 17.4981 19.8042 17.4185 19.7537 17.3821C19.7092 17.3507 19.6765 17.3074 19.6379 17.27C19.626 17.2582 19.625 17.2278 19.6003 17.2376C19.4864 17.2828 19.4963 17.1963 19.4527 17.1668C19.4042 17.1353 19.3695 17.0891 19.3339 17.0449C19.325 17.0341 19.3497 16.9879 19.3359 16.9849C19.22 16.9544 19.221 16.9544 19.1804 16.8207C19.1735 16.7981 19.1358 16.804 19.1111 16.7981C19.1002 16.7952 19.0735 16.805 19.0764 16.7952C19.118 16.6673 18.9804 16.7027 18.9863 16.6133C18.9942 16.5081 18.9279 16.4786 18.8754 16.4353C18.7081 16.2987 18.6219 16.0774 18.3773 16.0194C18.303 15.9083 18.1763 15.8493 18.1307 15.7068C18.0921 15.5849 17.9733 15.5328 17.8901 15.4502C17.8852 15.4453 17.8852 15.4325 17.8753 15.4374C17.7653 15.4856 17.5019 15.0518 17.4425 15.0469C17.3811 15.041 17.3326 15.0243 17.2989 14.9869C17.2336 14.9142 17.1742 14.8355 17.089 14.7834C17.0039 14.7313 16.6236 14.2158 16.5275 14.1902C16.4889 14.1519 16.4721 14.1047 16.4226 14.0959C16.381 14.088 16.4463 14.2732 16.382 14.2919C16.3453 14.3027 16.385 14.4141 16.3494 14.4446C16.3216 14.4682 16.2979 14.4977 16.2691 14.5242L16.2642 14.5193L14.5243 16.2467L14.5323 16.2546C14.4412 16.3598 14.3808 16.4611 14.4075 16.5102C14.4194 16.5319 14.3847 16.5948 14.4521 16.5731C14.4857 16.5623 14.9333 17.0685 14.9481 17.0921C14.96 17.1108 14.9947 17.1068 15.0194 17.1137C15.0244 17.1147 15.0303 17.1167 15.0293 17.1235C15.0105 17.2169 15.0947 17.215 15.1194 17.2681C15.1442 17.3202 15.158 17.3821 15.1947 17.4234C15.2769 17.5168 15.366 17.6033 15.4591 17.6859C15.4898 17.7135 15.4947 17.7675 15.5838 17.737C15.6215 17.7243 15.6452 17.7577 15.6304 17.798C15.6076 17.858 15.6383 17.8609 15.6542 17.8806C15.6888 17.9219 15.7294 17.9573 15.767 17.9956L15.8819 18.1097C16.0324 18.0281 15.9077 18.2188 15.9829 18.2129C16.0097 18.2109 15.9988 18.2503 16.0512 18.2237C16.076 18.2109 16.1037 18.2257 16.0928 18.2454C16.0493 18.324 16.0938 18.324 16.1166 18.3407C16.2047 18.4056 16.2443 18.5177 16.382 18.5354C16.4612 18.5452 16.4949 18.6121 16.5275 18.673C16.5622 18.7379 16.6721 18.7192 16.7187 18.7704C16.7444 18.7989 16.782 18.8176 16.7553 18.8923C16.8751 18.9513 16.889 19.1106 16.9751 19.202C16.9989 19.2276 17.0573 19.2059 17.089 19.2187C17.1276 19.2344 17.1088 19.2964 17.1177 19.3357C17.1197 19.3426 17.1266 19.3495 17.1365 19.3436C17.2177 19.2954 17.2088 19.3505 17.2316 19.3672C17.2623 19.3908 17.3029 19.4075 17.2702 19.4881C17.4267 19.4625 17.4267 19.6002 17.5138 19.6464C17.5356 19.6582 17.5326 19.7024 17.5673 19.6906C17.6911 19.6493 17.6822 19.7526 17.7723 19.7516C17.8634 19.7506 17.8812 19.8391 17.9317 19.8892C17.9456 19.903 17.9822 19.9079 17.9674 19.9364C17.9277 20.0131 17.9822 20.0023 17.9891 20.0328C17.9971 20.0642 17.9901 20.1085 18.007 20.1311L18.2644 20.4742C18.2852 20.5008 18.3159 20.5185 18.3347 20.547C18.3526 20.5735 18.3892 20.5794 18.3694 20.6463C18.3545 20.6954 18.3892 20.724 18.4357 20.7171C18.4803 20.7102 18.5199 20.6945 18.4783 20.7662C18.5615 20.7141 18.5546 20.7672 18.5764 20.7859C18.6774 20.8724 18.7061 21.0258 18.8081 21.1123C18.8606 21.1556 19.014 21.0995 18.9616 21.249C18.9576 21.2608 18.9774 21.2618 18.9923 21.2559C19.0735 21.2264 19.1051 21.2647 19.0933 21.3148C19.0764 21.3837 19.1081 21.3984 19.1348 21.42C19.2299 21.4967 19.3418 21.5567 19.4319 21.6383L19.6864 21.8851L19.6914 21.889C19.8458 22.0385 20.0924 22.0365 20.2449 21.8851L20.3855 21.7435C20.4053 21.7229 20.4271 21.7081 20.4192 21.656C20.4063 21.5754 20.5103 21.5911 20.4756 21.4869C20.6172 21.5321 20.6054 21.4151 20.6677 21.3768C20.8153 21.2863 20.8648 21.0956 21.0688 21.0632C21.1074 21.0573 21.1163 21.016 21.1431 20.9953C21.1688 20.9747 21.1797 20.9275 21.2312 20.9471C21.3253 20.9855 21.2312 20.8685 21.2688 20.8587C21.3262 20.8429 21.35 20.7888 21.3886 20.7505C21.4243 20.7151 21.4936 20.7043 21.4877 20.6374C21.4807 20.5548 21.5302 20.543 21.5976 20.5411C21.6104 20.5411 21.6243 20.5342 21.6184 20.5195C21.5698 20.4093 21.6778 20.4398 21.6748 20.3739C21.6709 20.2982 21.7035 20.2589 21.7461 20.2284C21.7689 20.2117 21.8174 20.2225 21.8441 20.2098C21.8729 20.196 21.9105 20.1852 21.9055 20.1439C21.9026 20.1183 21.9055 20.0987 21.9105 20.0819L21.9927 19.843C22.0164 19.7742 21.9798 19.6995 21.9105 19.6759L21.9115 19.6769Z" fill="black"/>
</svg>
