<svg width="16" height="16" viewBox="0 0 16 16" xmlns="http://www.w3.org/2000/svg"><title>1FED8F9A-8539-4F6C-96E8-804B849EFE5B</title><path d="M9.127 3.145l.035.036-.336.335-.035-.035a3.766 3.766 0 0 0-5.32 0l-.036.035-.336-.335.035-.036a4.242 4.242 0 0 1 5.993 0m.906 7.1a3.387 3.387 0 0 0 .227-.227 5.637 5.637 0 0 0 1.528-3.962 5.643 5.643 0 0 0-1.656-3.924 5.615 5.615 0 0 0-4-1.66c-1.513 0-2.935.59-4.003 1.66a5.68 5.68 0 0 0 0 8.02 5.627 5.627 0 0 0 4.003 1.66c1.456 0 2.84-.555 3.901-1.567zm.748 1.488l.958-.96-1.198-.24.24 1.2zm3.392 3.56a.787.787 0 0 0 1.122.001.798.798 0 0 0 0-1.125L12.2 11.071l-.045-.046-1.122 1.125 3.141 3.144zm-12.38-4.808a6.157 6.157 0 0 1 0-8.686A6.089 6.089 0 0 1 6.132 0C7.77 0 9.31.64 10.468 1.8c2.248 2.252 2.393 5.884.346 8.306l1.348.271.018.006 3.45 3.453A1.269 1.269 0 0 1 14.733 16a1.25 1.25 0 0 1-.895-.372l-3.141-3.144-.008.008-.21-.226-.093-.094-.272-1.363a6.114 6.114 0 0 1-3.983 1.474 6.095 6.095 0 0 1-4.34-1.798z" fill="#000" fill-rule="evenodd"/></svg>