<svg width="22" height="22" viewBox="0 0 22 22" fill="none" xmlns="http://www.w3.org/2000/svg">
<path d="M21.2676 11.0491C21.3467 10.7634 21.1271 10.4355 20.7932 10.2708C20.6526 10.0784 20.2997 9.92249 20.2792 9.66014C20.3188 9.49545 20.0435 9.66451 20.0449 9.5348C19.8443 8.9693 19.1034 8.61513 18.8017 7.98842C18.8837 7.78729 18.7124 7.81206 18.6772 7.71441C18.6479 7.46081 18.4415 7.34276 18.2775 7.17223C18.1823 7.09353 18.1135 6.99151 17.9553 6.9711C17.7576 6.91717 17.7166 6.6694 17.4911 6.67669C17.434 6.56155 17.4648 6.38374 17.248 6.41872C17.2144 6.09079 17.0738 6.38228 16.8395 6.0354C16.7106 5.95816 16.6257 5.77743 16.5159 5.72642C16.3021 5.79346 16.3065 5.62731 16.2171 5.56318C16.0897 5.46553 15.9418 5.32998 15.958 5.18715C15.7281 5.10699 15.7295 5.10699 15.6256 4.83882C15.6021 4.77469 15.4498 4.79801 15.4191 4.77031C15.1892 4.16692 14.5654 3.46296 13.9225 3.13503C13.4144 2.61179 13.2123 2.06816 12.549 1.77666C11.9222 1.59448 11.7363 0.826387 11.2677 0.508658C10.8328 0.413922 9.89999 1.11934 10.3071 1.51577C10.373 1.59739 10.2441 1.76354 10.4169 1.73731C10.761 1.75626 10.7947 2.15852 11.13 2.19058C11.1857 2.20662 11.0788 2.40483 11.2589 2.31593C11.1549 2.6424 11.6762 2.38297 11.5532 2.72985C11.5444 2.75754 11.5723 2.78378 11.5986 2.77212C11.7875 2.68321 11.7582 2.84062 11.8402 2.87122C11.9296 2.90475 12.0731 2.87414 12.1024 2.97762C12.2107 3.08402 12.098 3.33616 12.3703 3.26766C12.691 4.05178 13.8888 4.37534 14.2461 5.24545C14.4629 5.57921 14.5009 5.45387 14.7513 5.92172C14.8787 5.96982 15.0794 5.94358 15.0471 6.2103C15.2888 6.13451 15.3312 6.38228 15.3664 6.46681C15.523 6.44495 15.4982 6.61839 15.6212 6.61985C16.0092 6.56301 15.8408 7.15183 16.1615 7.03669C16.0736 7.20867 16.7194 7.7319 16.8585 7.81498C17.1572 7.77563 16.9976 8.20558 17.2363 8.20558C17.3432 8.18955 17.374 8.2391 17.4194 8.27845C17.7444 8.50874 17.8162 8.76234 17.9202 9.12525C18.0315 9.21124 18.3448 9.57123 18.3668 9.6616C18.708 9.65723 18.8544 10.0784 19.1151 10.2679C19.0975 10.2985 19.0785 10.3364 19.0594 10.3787C17.8308 10.249 16.6726 10.1251 15.4352 10.3073C15.3708 10.2577 15.318 10.2344 15.2346 10.2883C15.1994 10.3772 15.1101 10.4355 15.0457 10.2971C14.9769 10.4749 14.7118 10.3087 14.5903 10.4151C14.498 10.3539 14.4219 10.3991 14.3604 10.4632C14.3018 10.4326 14.2476 10.3816 14.1905 10.4734C13.9635 10.402 13.6736 10.5419 13.4247 10.5798C12.9722 10.4195 12.3864 10.453 11.9149 10.5361C11.4039 10.4268 11.3102 10.5434 10.7083 10.3612C10.6512 10.3379 10.5882 10.3466 10.5297 10.4151C10.3642 10.2796 10.124 10.4953 9.93514 10.3568C9.61445 10.2708 9.21176 10.0056 8.90717 10.265C8.43566 10.4515 7.82649 10.2606 7.39451 10.4676C7.30226 10.2927 7.09725 10.3889 6.95228 10.4472C6.78535 10.2839 6.57888 10.4982 6.42659 10.2825C6.40609 10.2548 6.37533 10.2679 6.34458 10.2898C6.28015 10.2286 6.2084 10.386 6.1425 10.3889C5.92139 10.2169 5.6827 10.2825 5.42791 10.3699C5.01204 10.4413 4.57273 10.4326 4.18176 10.5842C3.68535 10.4924 3.07032 10.265 2.55195 10.4792C2.37476 10.5784 2.19758 10.4195 2.02186 10.383C1.84174 10.3408 1.65724 10.4705 1.48298 10.2752C1.02757 10.3918 0.516519 9.7782 0.342263 10.5448C0.225116 10.8334 0.333477 11.6117 0.68199 11.4645C0.796208 11.4499 0.835745 11.6277 1.02172 11.4864C1.55034 11.6336 2.33376 11.8303 2.84628 11.533C3.07325 11.7735 3.48034 11.6234 3.78639 11.6613C3.80981 11.5957 3.95625 11.654 4.00604 11.6569C4.10854 11.737 4.34283 11.6656 4.38237 11.6569C4.8041 11.7414 5.17897 11.4776 5.60509 11.5621C5.80424 11.6117 6.04 11.2838 6.20108 11.5476C6.22158 11.5417 6.24208 11.5461 6.27722 11.5549C6.66527 11.5723 7.06211 11.6787 7.44284 11.6248C7.55559 11.6904 7.7152 11.3931 7.84846 11.6525C7.86456 11.6336 7.88067 11.6306 7.89824 11.6175C7.91435 11.6336 7.93046 11.6321 7.9451 11.6613C8.15597 11.4179 8.48837 11.6379 8.69631 11.5461C8.81931 11.3392 8.96282 11.4805 9.09461 11.3668C9.38748 11.2036 9.64959 11.447 9.89707 11.5432C10.2968 11.5782 11.0466 11.6802 11.3658 11.7618C11.4742 11.8784 11.6557 11.6423 11.7495 11.6613C12.1111 11.6525 12.5578 11.9236 12.9019 11.686C12.9751 11.74 12.9854 11.7953 13.0644 11.6977C13.1655 11.8099 13.1669 11.7414 13.268 11.6744C14.0353 11.9309 16.1556 11.396 17.0928 11.5651C17.7181 11.6175 18.3829 11.7487 18.9628 11.6292C19.0331 11.6919 19.0682 11.6423 19.1121 11.5898C19.1707 11.5869 19.2498 11.7079 19.3025 11.6569C19.3318 11.7968 19.2586 11.8478 19.1854 11.8857C18.6084 12.0693 18.3273 12.7952 17.7152 13.0561C17.516 12.9744 17.5394 13.1435 17.4428 13.177C17.1924 13.2062 17.0752 13.4088 16.9039 13.5705C16.8263 13.6638 16.7253 13.7309 16.7048 13.8868C16.6506 14.0807 16.4046 14.1215 16.4134 14.343C16.2991 14.3984 16.122 14.3692 16.1571 14.5806C15.8335 14.6141 16.1205 14.7526 15.7764 14.9814C15.7002 15.1082 15.5201 15.1913 15.4703 15.2991C15.5377 15.509 15.3722 15.5046 15.3093 15.5935C15.2126 15.7189 15.0764 15.8632 14.9358 15.8486C14.8568 16.0745 14.8568 16.073 14.5903 16.1751C14.5273 16.1984 14.5493 16.3485 14.5214 16.3776C13.9225 16.6035 13.224 17.2171 12.9004 17.8482C12.5197 18.252 12.0365 18.4341 11.688 18.9093C11.5913 19.673 10.4608 20.1248 10.2954 20.4571C10.2002 20.8842 10.9001 21.8009 11.2955 21.4016C11.376 21.336 11.5415 21.4628 11.5152 21.2937C11.5327 20.9556 11.934 20.922 11.9647 20.5927C11.9808 20.5373 12.177 20.6422 12.0892 20.4659C12.4128 20.5679 12.1551 20.0563 12.4992 20.1773C12.527 20.186 12.5534 20.1583 12.5417 20.1336C12.4538 19.947 12.609 19.9761 12.6398 19.896C12.6734 19.8085 12.6427 19.6657 12.7452 19.638C12.8506 19.5302 13.101 19.6424 13.0337 19.3742C13.8112 19.0579 14.1319 17.8818 14.9959 17.5305C15.3078 17.3221 15.2521 17.255 15.668 17.0335C15.7149 16.9082 15.69 16.7114 15.9536 16.7435C15.8789 16.5074 16.1249 16.4636 16.2069 16.4301C16.1849 16.2756 16.3563 16.3004 16.3577 16.1794C16.3021 15.7976 16.8849 15.9652 16.7721 15.6474C16.9449 15.7626 17.3461 15.1446 17.4838 15.0717C17.5878 14.9479 17.5336 14.7307 17.7664 14.738C17.9919 14.7467 17.8836 14.4858 18.0036 14.4115C18.298 14.0471 18.9247 13.6507 19.3201 13.5414C19.4197 13.2135 19.6686 13.0429 19.9395 12.7835C20.1123 12.4876 20.556 12.4847 20.6365 12.1233C20.679 11.9906 20.7405 11.8434 20.9733 11.8886C21.152 11.8493 21.3804 11.2823 21.2662 11.0506L21.2676 11.0491Z" fill="black"/>
</svg>
